<svg xmlns="http://www.w3.org/2000/svg" xml:space="preserve" id="Layer_1" x="0" y="0" version="1.1" viewBox="0 0 578 578" class="text-blue-600">
  <path fill="#335" d="m578 392-37 38H37L0 392h578z"/>
  <path d="M331 261h-86c-3 0-3 2-3 5v133h94V267c1-2 0-4-2-5h-3zm-31 67-3 5a10 10 0 0 1-18-5v-16c0-5 5-11 10-11s11 6 11 11v16z" class="st1"/>
  <path fill="#335" d="M242 396v13l3 2h88l3-2v-13h-94zM472 52H109c-7 0-12 5-12 11v245c0 7 5 12 12 12h363c7 0 12-5 12-12V63c0-6-5-11-12-11z"/>
  <path fill="currentColor" d="M468 61H113c-3 0-6 2-7 5v239c0 4 3 7 7 7h355c4 0 7-3 7-7V66c0-3-4-5-7-5z"/>
  <path fill="#224" d="m403 410-3-14-2-4H188l-1 4-4 14c-1 3 0 4 3 5h213l4-1v-4z"/>
  <path fill="#335" d="M194 394h5v4h-7v-2l2-2zm13 0h5v4h-7v-2l2-2zm13 0h5v4h-7v-2l2-2zm13 0h5v4h-6v-2l1-2zm13 0h5v4h-6v-2l1-2zm13 0h5v4h-6v-2l1-2zm13 0h5v4h-6v-2l1-2zm13 0h5v4h-6v-2l1-2zm13 0h5v4h-6v-2l1-2zm13 0h5v4h-6v-2l1-2zm13 0h6v4h-7v-2l1-2zm13 0h6v4h-7v-2l1-2zm14 0h5v4h-7v-2l2-2zm13 0h5v4h-7v-2l2-2zm13 0h5v4h-7v-2l2-2zm13 0h5v4h-7v-2l2-2zm-196 7h5v4h-7v-3l2-1zm13 0h5v4h-7v-3l2-1zm13 0h5v4h-7v-3l2-1zm13 0h5v4h-6v-3l1-1zm13 0h5v4h-6v-3l1-1zm13 0h5v4h-6v-3l1-1zm13 0h5v4h-6v-3l1-1zm13 0h5v4h-6v-3l1-1zm13 0h5v4h-6v-3l1-1zm13 0h5v4h-6v-3l1-1zm13 0h6v4h-7v-3l1-1zm13 0h6v4h-7v-3l1-1zm14 0h5v4h-7v-3l2-1zm13 0h5v4h-7v-3l2-1zm13 0h5v4h-7v-3l2-1zm13 0h5v4h-7v-3l2-1zm-134 8h51v4h-52v-3l1-1zM451 94H116l-1-2 1-1h335l2 1-2 2z"/>
  <ellipse fill="#335" cx="139.7" cy="75.7" rx="7.8" ry="8"/>
  <ellipse fill="#335" cx="166.6" cy="75.7" rx="7.8" ry="8"/>
  <ellipse fill="#335" cx="193.4" cy="75.7" rx="7.8" ry="8"/>
  <path fill="#335" d="M434 70h-18l-1 1 1 2h18l1-2-1-1zm0 5h-18l-1 2 1 1h18l1-2-1-1zm0 5h-18l-1 2 1 1h18l1-1-1-2z"/>
  <path fill="#e6e6e6" d="M139 124h6c3 0 4 1 4 3s-1 4-4 4h-6c-3 0-4-2-4-3 0-3 1-4 4-4zm78 0h7c2 0 3 1 3 3 1 2-1 4-3 4h-7c-3 0-4-2-4-3 0-3 2-4 4-4zm22 0h7c2 0 4 1 4 3s-2 4-4 4h-7c-2 0-4-2-4-3 0-3 2-4 4-4zm-78 0h43c1 0 3 1 3 3l-3 4h-43c-3 0-4-2-4-3 0-3 1-4 4-4zm105 0h41c3 0 4 1 4 3s-1 4-4 4h-41c-3 0-4-2-4-3 0-3 1-4 4-4zm-106 17h6c3 0 4 1 4 3s-1 4-4 4h-6c-3 0-4-2-4-3 0-3 1-4 4-4zm78 0h7c2 0 3 1 3 3s-1 4-3 4h-7c-3 0-4-2-4-3 0-3 1-4 4-4zm22 0h7c2 0 4 1 4 3s-2 4-4 4h-7c-2 0-4-2-4-3 0-3 2-4 4-4zm-78 0h43c1 0 3 1 3 3l-3 4h-43c-3 0-4-2-4-3 0-3 1-4 4-4zm104 0h42c3 0 4 1 4 3s-1 4-4 4h-42c-2 0-4-2-4-3 1-3 2-4 4-4zm-105 17h6c3 0 4 1 4 3s-1 4-4 4h-6c-3 0-4-2-4-3 0-3 1-4 4-4zm78 0h6c3 0 4 1 4 3s-1 4-4 4h-6c-3 0-4-2-4-3 0-3 1-4 4-4zm22 0h7c2 0 4 1 4 3s-2 4-4 4h-7c-2 0-4-2-4-3 0-3 2-4 4-4zm-78 0h43c1 0 2 1 2 3s-1 4-3 4h-42c-3 0-4-2-4-3 0-3 1-4 4-4zm104 0h42c3 0 4 1 4 3s-1 4-4 4h-42c-2 0-4-2-4-3 0-3 2-4 4-4zm-106 17h7c3 0 4 1 4 3s-1 4-4 4h-7c-2 0-3-2-3-3 0-3 1-4 3-4zm79 0h6c3 0 4 1 4 3s-1 4-4 4h-6c-3 0-4-2-4-3 0-3 1-4 4-4zm22 0h7c2 0 4 1 4 3s-2 4-4 4h-7c-2 0-4-2-4-3 0-3 2-4 4-4zm-78 0h43c1 0 2 1 2 3s-1 4-3 4h-42c-3 0-4-2-4-3 0-3 1-4 4-4zm-7 68h7c2 0 3 1 3 3 1 2-1 4-3 4h-7c-3 0-4-2-4-3 0-3 2-4 4-4zm22 0h7c2 0 4 1 4 3s-2 4-4 4h-7c-2 0-4-2-4-3 0-3 2-4 4-4zm27 0h41c3 0 4 1 4 3s-1 4-4 4h-41c-3 0-4-2-4-3 0-3 1-4 4-4zm-127 0h6c3 0 4 1 4 3s-1 4-4 4h-6c-3 0-4-2-4-3 0-3 1-4 4-4zm22 0h43c1 0 3 1 3 3l-3 4h-43c-3 0-4-2-4-3 0-3 1-4 4-4zm-1-17h6c3 0 4 1 4 3s-1 4-4 4h-6c-3 0-4-2-4-3 0-3 1-4 4-4zm78 0h7c2 0 3 1 3 3s-1 4-3 4h-7c-3 0-4-2-4-3 0-3 1-4 4-4zm22 0h7c2 0 4 1 4 3s-2 4-4 4h-7c-2 0-4-2-4-3 0-3 2-4 4-4zm-78 0h43c1 0 3 1 3 3l-3 4h-43c-3 0-4-2-4-3 0-3 1-4 4-4zm-1-17h6c3 0 4 1 4 3s-1 4-4 4h-6c-3 0-4-2-4-3 0-3 1-4 4-4zm78 0h6c3 0 4 1 4 3s-1 4-4 4h-6c-3 0-4-2-4-3 0-3 1-4 4-4zm22 0h7c2 0 4 1 4 3s-2 4-4 4h-7c-2 0-4-2-4-3 0-3 2-4 4-4zm-78 0h43c1 0 2 1 2 3s-1 4-3 4h-42c-3 0-4-2-4-3 0-3 1-4 4-4zm-2-17h7c3 0 4 1 4 3s-1 4-4 4h-7c-2 0-3-2-3-3 0-3 1-4 3-4zm79 0h6c3 0 4 1 4 3s-1 4-4 4h-6c-3 0-4-2-4-3 0-3 1-4 4-4zm22 0h7c2 0 4 1 4 3s-2 4-4 4h-7c-2 0-4-2-4-3 0-3 2-4 4-4zm-78 0h43c1 0 2 1 2 3s-1 4-3 4h-42c-3 0-4-2-4-3 0-3 1-4 4-4z"/>
  <path fill="#335" d="m455 488-2 2c-21 10-37 15-61 22l-5-83-1-14-1-5v20l1 83c-28 8-58 12-86 13h-11c-31 0-61-2-91-10l2-86v-15l1-18-1 1-3 17-1 15-6 83c-16-4-32-9-46-15l-24-11 15-95c1-22 9-42 21-59v-2l18-34c9-14 24-24 39-30l28-7 4-2h2l9-8 6-4 3-3 10-7 57 4 12 26 25 9c15 6 30 15 39 29l9 16 9 19 4 7 8 17 8 29 6 38c3 18 0 39 2 55l1 3z"/>
  <circle cx="289.8" cy="173.1" r="66.4" fill="#a0616a"/>
  <path d="m399 86-5-9c-10-12-28-19-47-3h-11l-5 3-7 9-1 5-14-5c-17-4-34-3-50 4-5 4-9 7-11 13-10 1-19 6-26 15-5 8-9 17-9 27v1h1l13 3c5 1 10 4 14 7l7 11c6 10 8 22 6 33l-3 7-4 10h-1l-4 7-4 10-3 18v5l2 12v1l1 4 3 11 1 6 1 7 3-3 10-20 24-42v7l1 1h1c19 2 38-1 55-8l15-9 6-5 1-3 7-9 3-8c5-15 5-34 0-57l3-1c4-3 7-7 8-13h2l13-10 2-2c7-11 7-21 2-30z" class="st1"/>
  <path opacity=".2" d="m181 392 11-42 10 36-21 6z" />
  <path d="M476 364c-4 55 1 79-21 124-19 10-40 17-63 24l-6 1c-28 8-58 12-86 13h-11c-31 0-61-2-91-10l-8-3c-16-4-32-9-46-16l-24-10-5-3c-9-15-13-34-13-56 5-39 361-96 374-64z" class="st1"/>
  <path opacity=".2" d="m476 373 1-10c-13-33-368 26-375 64v11c16-38 353-95 374-65z" />
</svg>