<svg xmlns="http://www.w3.org/2000/svg" xml:space="preserve" id="f1248760-b706-401a-9a88-490bc0db237b" x="0" y="0" version="1.1" viewBox="0 0 654 682"><style>.st0{fill:#3f3d56}.st1{opacity:.1;enable-background:new}.st2{fill:#3C82F6}.st3{fill:#575a89}.st4{fill:#a0616a}.st5{fill:#2f2e41}</style><path d="M280 590a1947 1947 0 0 1 199 4c101 8 171 23 171 42 0 25-139 46-310 46S30 661 30 636c0-23 108-42 250-46z" class="st0"/><ellipse cx="380" cy="630.6" class="st1" rx="119" ry="14.5"/><ellipse cx="380.5" cy="521.1" class="st0" rx="112.5" ry="120"/><path d="M345 592h70v64h-70z" class="st2"/><path d="m216 608-1 16 17 10 26-4-4-22z" class="st3"/><path d="M350 204c9 13-3 29-3 29l-9 22 19 5h24s16-40 11-41-7-24-7-24-44-4-35 9z" class="st4"/><path d="M350 204c9 13-3 29-3 29l-9 22 19 5h24s16-40 11-41-7-24-7-24-44-4-35 9z" class="st1"/><path d="m415 369-40 7-29-9-27 2c-4 1-6 20-6 23s-21 7-21 7c-75 23-89 59-93 67s11 128 11 128-5 10-2 18 45 2 48 0-6-96-6-97-3-12-1-14 0-2-2-5 1 0 3-2-1-2-2-4-1-2 2-2 12-9 12-9c32-10 61-42 61-42l26-5 11 1 3 13c1 4 3 3 5 6s-1 7-3 11 3 33 3 33-2 25-4 27 0 3 3 6-3 6 0 11 34 3 40 0 0-16-1-18 0-5 2-9l2-5s-2-9 4-21 0-32 2-37-2-4-2-7 5-2 26-12-5-60-5-60l-20-2z" class="st5"/><path d="m372 536-1 7-5 25-3 26v1c2 7 9 12 17 11 13-1 20-8 24-13 5-7 1-36 1-36l-5-18-28-3zm-143 85c-5-4-16-6-18-5l-15 18-31 12c-8 3 5 9 12 13s74-6 81-7 3-22 2-27-6 0-6 0-20 0-25-4z" class="st5"/><circle cx="360.5" cy="184.6" r="31" class="st4"/><path d="M347 233c-3-2-19 9-28 15-4 3-6 7-5 12 4 26 18 113 24 111 7-3 9 1 16 6s33 5 42 1 37-1 43-4-1-35-5-43 5-92 5-92-36-16-38-21-12-2-12-2l-13 26-12 13s-13-20-17-22z" class="st3"/><path d="M334 348c-10 29-30-14-30-14l8-73c0-5 4-9 9-10 0 0 23 68 13 97z" class="st3"/><path d="M330 337s10 21 9 26-14 12-23 14-27-14-23-14 8-28 8-28l22 6 7-4z" class="st3"/><path d="m389 192 5-1 4-6 5-4c1-3 2-6 1-8l-4-8-7-19-1-3-3-3c-7-6-17-7-26-8-5-1-11-1-16 1s-11 4-14 9c-2 4-3 9-3 14v4l-2 4c-2 4-1 9-1 13l1 5c1 2 3 3 5 2 3-1 2-7 5-8s5 2 8 2c3 1 5-2 7-3l5-2c9-4 19 1 22 10l4 15 5-6z" class="st5"/><path fill="#f2f2f2" d="m341 308-47 4-37-33 12-2c12-2 34 12 34 12 9-12 53-25 53-25l3 6-18 38z"/><path d="M306 294c-8-4-12 4-12 4l-37-19 37 53 39 18c4 3 9 0 9 0l60-29-41-57-55 30z" class="st2"/><path d="M303 342s-11-43-21-32 8 34 8 34l8 21 5-23zm80-3s-31-32-35-17 24 25 24 25l18 14-7-22z" class="st4"/><path d="M421 336c0 2-8 0-17-1l-21 1c-7 0 12 29 12 29s19 16 45 13 16-86 13-111-19-7-19-7h-1c-28 7-13 71-12 76z" class="st1"/><path d="M426 336c1 5-35 0-42 0s0 38 0 38 35 7 61 4 16-86 13-111-19-28-19-28l-4 2c-28 7-10 90-9 95zm-114 36-18-8 7-28 11 17z" class="st3"/></svg>