						<svg
							xmlns="http://www.w3.org/2000/svg"
							class="mt-12"
							viewBox="0 0 300 300">
							<path
								d="M300,215l-19,24H19L0,215Z"
								transform="translate(0 -0.1)"
								fill="#343355">
							</path>
							<path
								d="M176.8,132.4H122.3c-1.7,0-1.7,1.6-1.7,3.3V220h59.5V135.7a2.5,2.5,0,0,0-1.1-3.3A2.8,2.8,0,0,0,176.8,132.4ZM157,174.5l-1.6,3.3a6.8,6.8,0,0,1-9.4.8,6.7,6.7,0,0,1-2.2-4.1v-9.9a6.6,6.6,0,0,1,13.2,0Z"
								transform="translate(0 -0.1)"
								fill="#232244">
							</path>
							<path
								d="M120.6,217.5v8.3l1.7,1.6h56.2l1.6-1.6v-8.3ZM266.1.1H36.3a7.5,7.5,0,0,0-7.4,7.5V162.1a7.4,7.4,0,0,0,7.4,7.5H266.1a7.4,7.4,0,0,0,7.4-7.5V7.6A7.5,7.5,0,0,0,266.1.1Z"
								transform="translate(0 -0.1)"
								fill="#343355">
							</path>
							<path
								d="M263.6,5.9H38.8c-1.6,0-3.3,1.7-4.1,3.3V160.5a3.8,3.8,0,0,0,4.1,4.1H263.6a3.9,3.9,0,0,0,4.2-4.1V9.2C267.8,7.6,265.3,5.9,263.6,5.9Z"
								transform="translate(0 -0.1)"
								fill="#f9f9fa">
							</path>
							<path
								d="M222.3,226.6l-1.7-9.1L219,215H86.8l-.9,2.5-2.4,9.1c-.9,1.6,0,2.5,1.6,3.3H219.8l2.5-.8Z"
								transform="translate(0 -0.1)"
								fill="#232244">
							</path>
							<path
								d="M255.4,276.2l-1.7.8c-13.2,6.6-23.1,9.9-38,14.1L212.4,239l-.8-9.1-.9-3.3V239l.9,52.9c-17.4,4.9-36.4,7.4-54.6,8.2h-6.6c-19.8,0-38.8-1.6-57.9-6.6L94.2,239v-9.1l.8-11.6-.8.9-1.7,10.7-.8,9.1-4.1,52.9A175.8,175.8,0,0,1,58.7,282l-14.9-6.6L52.9,215a76,76,0,0,1,13.2-37.2V177l11.6-21.5a46.8,46.8,0,0,1,24.8-19l17.3-4.9,2.5-.9H124l5.7-4.9,3.3-2.5,2.5-2.5,5.8-4.1,36.4,2.5,7.4,16.5,15.7,5.8c9.9,3.3,19,9.1,24.8,18.2l5.8,9.9,5.8,12.4,2.5,4.1,4.9,10.7,5,18.2,4.1,24c1.7,11.6,0,24.8.8,34.7Z"
								transform="translate(0 -0.1)"
								fill="#343355">
							</path>
							<rect x="34.8" y="5.1" width="232.9" height="49.5" fill="#f5f7fa">
							</rect>
							<path
								d="M219.7,127.9h-2.2a2.3,2.3,0,0,1-2.3-2.3,2.4,2.4,0,0,1,2.3-2.4H222a2.4,2.4,0,0,1,0,4.7Z"
								transform="translate(0 -0.1)"
								fill="#ddf1fc">
							</path>
							<path
								d="M215.4,86.1h0Z"
								transform="translate(0 -0.1)"
								fill="#d1d7df">
							</path>
							<path
								d="M268.7,113.6h0Z"
								transform="translate(0 -0.1)"
								fill="#d1d7df">
							</path>
							<ellipse cx="122" cy="71.2" rx="36.6" ry="0.1" fill="#d1d7df">
							</ellipse>
							<path
								d="M91,71.4h0Z"
								transform="translate(0 -0.1)"
								fill="#d1d7df">
							</path>
							<ellipse cx="65.1" cy="100.8" rx="36.6" ry="0.1" fill="#d1d7df">
							</ellipse>
							<path
								d="M96.1,100.9h0Z"
								transform="translate(0 -0.1)"
								fill="#d1d7df">
							</path>
							<path
								d="M91,104.5h0Z"
								transform="translate(0 -0.1)"
								fill="#d1d7df">
							</path>
							<path
								d="M39.3,137.5h0Z"
								transform="translate(0 -0.1)"
								fill="#d1d7df">
							</path>
							<path
								d="M38.4,105.3v31.3h-.1V105.4Z"
								transform="translate(0 -0.1)"
								fill="#d1d7df">
							</path>
							<path
								d="M92,105.3v31.3h-.1V105.3Z"
								transform="translate(0 -0.1)"
								fill="#d1d7df">
							</path>
							<path
								d="M148.7,100V72.2h.1V100Z"
								transform="translate(0 -0.1)"
								fill="#d1d7df">
							</path>
							<path
								d="M95.2,100V72.2h.1V100Z"
								transform="translate(0 -0.1)"
								fill="#d1d7df">
							</path>
							<path
								d="M38.4,72.3V100h-.1V72.2Z"
								transform="translate(0 -0.1)"
								fill="#d1d7df">
							</path>
							<path
								d="M91.9,100V72.2h0V100Z"
								transform="translate(0 -0.1)"
								fill="#d1d7df">
							</path>
							<path
								d="M43.9,132.4a1.1,1.1,0,0,1-1.2,1.1c-.7.1-1.1-.4-1.1-1.1s.2-1.3,1-1.4A1.4,1.4,0,0,1,43.9,132.4Z"
								transform="translate(0 -0.1)"
								fill="#ecdc60">
							</path>
							<path
								d="M217.5,99.2a1.2,1.2,0,0,1-1.2,1.2,1,1,0,0,1-1.1-1.1,1.1,1.1,0,0,1,1.1-1.2A1.2,1.2,0,0,1,217.5,99.2Z"
								transform="translate(0 -0.1)"
								fill="#df542d">
							</path>
							<path
								d="M241.5,99.2a1.2,1.2,0,0,1-1.2,1.2,1.1,1.1,0,0,1-1.2-1.1,1.2,1.2,0,0,1,1.2-1.2A1.2,1.2,0,0,1,241.5,99.2Z"
								transform="translate(0 -0.1)"
								fill="#4c71a7">
							</path>
							<path
								d="M216.3,106.3c-.7-.1-1.2-.5-1.1-1.2a1,1,0,0,1,1.2-1.1,1,1,0,0,1,1.1,1.1A1.2,1.2,0,0,1,216.3,106.3Z"
								transform="translate(0 -0.1)"
								fill="#4c71a7">
							</path>
							<path
								d="M100.8,95.7a1.2,1.2,0,0,1-1.2,1.2,1,1,0,0,1-1.1-1.2,1,1,0,0,1,1.1-1.1A1.2,1.2,0,0,1,100.8,95.7Z"
								transform="translate(0 -0.1)"
								fill="#ecdc60">
							</path>
							<path
								d="M228.2,100.4a1.2,1.2,0,0,1-1.2-1.2,1.2,1.2,0,0,1,1.3-1.1,1.1,1.1,0,0,1,1,1.2A1,1,0,0,1,228.2,100.4Z"
								transform="translate(0 -0.1)"
								fill="#ecdc60">
							</path>
							<path
								d="M43.9,95.7q-.1,1.2-1.2,1.2a1,1,0,0,1-1.1-1.2,1,1,0,0,1,1.1-1.1A1.2,1.2,0,0,1,43.9,95.7Z"
								transform="translate(0 -0.1)"
								fill="#ecdc60">
							</path>
							<path
								d="M69,132.1h1.1v-1.2h.6c-.2.5-.2.9-.4,1.3s-.3.2-.4.3a4.1,4.1,0,0,1-.1,1.1h-.4a3.7,3.7,0,0,1-.1-1.1,3.5,3.5,0,0,1-.7-.9c-.1-.2,0-.5,0-.7h.5a2.5,2.5,0,0,1,.1.8A.5.5,0,0,1,69,132.1Z"
								transform="translate(0 -0.1)"
								fill="#6b727b">
							</path>
							<path
								d="M61.6,133.4H60l-.4-1.4,1.2-1.2,1.3,1.2Zm-.3-.4.3-.8-.8-.7-.7.6.2.9Z"
								transform="translate(0 -0.1)"
								fill="#6b727b">
							</path>
							<path
								d="M119,95.4l-.5,1.4h-1.6l-.4-1.4,1.2-1Zm-1.3-.4-.8.5.3.9h1l.3-.9Z"
								transform="translate(0 -0.1)"
								fill="#6b727b">
							</path>
							<path
								d="M62.1,95.4l-.5,1.4H60l-.4-1.4,1.2-1ZM60.8,95l-.8.5.4.9h.9l.3-.9Z"
								transform="translate(0 -0.1)"
								fill="#6b727b">
							</path>
							<path
								d="M129.3,96.2V97h-.5c0-.3-.1-.6-.1-.9l-.7-.9a.9.9,0,0,1,.1-.7h.4a1.3,1.3,0,0,1,.1.6c0,.2-.1.3-.1.4h1.1v-.9h.4a2.5,2.5,0,0,1-.1.9C129.8,95.7,129.5,95.9,129.3,96.2Z"
								transform="translate(0 -0.1)"
								fill="#6b727b">
							</path>
							<path
								d="M72.4,96.2V97H72c-.1-.4-.1-.7-.2-1.1l-.7-.8a.9.9,0,0,1,.1-.7h.4a1.3,1.3,0,0,1,.1.6c0,.1-.1.3-.1.4h1.1l-.2-.5a.8.8,0,0,1,.2-.5h.4c.1.1.2.4.1.5Z"
								transform="translate(0 -0.1)"
								fill="#6b727b">
							</path>
							<path
								d="M99.2,75.3,101,75c.4,1.8.2,3-.5,3l.3-.4v-.3l-1.8.3V75.5l.3-.2L99,77h1.8c.2-1.6.2-1.6-1.3-1.7Z"
								transform="translate(0 -0.1)"
								fill="#58616b">
							</path>
							<path
								d="M42.3,75.3l1.8-.3c.4,1.8.2,3-.5,3l.3-.4v-.3l-1.8.3V75.5l.3-.2L42.1,77h1.8c.2-1.6.2-1.6-1.3-1.7Z"
								transform="translate(0 -0.1)"
								fill="#58616b">
							</path>
							<path
								d="M42.2,108.3h2v2.7h-.6l.3-.4v-.3l-1.9.3v-2h.2V110h1.7c.2-1.4.2-1.4-1.1-1.4h-.4Z"
								transform="translate(0 -0.1)"
								fill="#58616b">
							</path>
							<path
								d="M52.8,132.5a1.9,1.9,0,0,0-.2.7,1.2,1.2,0,0,1-.8.1c-.3,0-.5-.3-.7-.5s.4-.6.6-.6h1.7v1.1h-.2l-.2-.8Z"
								transform="translate(0 -0.1)"
								fill="#9ea3a9">
							</path>
							<path
								d="M53.4,95.5v1.1h-.2l-.3-1.1-.3,1a1.5,1.5,0,0,1-.9.1c-.3,0-.5-.3-.6-.6s.3-.5.5-.5Z"
								transform="translate(0 -0.1)"
								fill="#9ea3a9">
							</path>
							<path
								d="M110.3,95.6v1h-.2l-.4-1.1-.2,1a1.4,1.4,0,0,1-.9.1c-.2,0-.5-.3-.6-.5s.3-.6.5-.6Z"
								transform="translate(0 -0.1)"
								fill="#9ea3a9">
							</path>
							<path
								d="M65.5,96l.8-.8a3.1,3.1,0,0,1,.5,1,1,1,0,0,1-.6.5C66,96.7,65.8,96.4,65.5,96Z"
								transform="translate(0 -0.1)"
								fill="#878d94">
							</path>
							<path
								d="M137.8,78.7h0Z"
								transform="translate(0 -0.1)"
								fill="#d1d7df">
							</path>
							<path
								d="M80.9,107.9h0Z"
								transform="translate(0 -0.1)"
								fill="#d1d7df">
							</path>
							<path
								d="M86.9,111.7h0Z"
								transform="translate(0 -0.1)"
								fill="#d1d7df">
							</path>
							<path
								d="M86.9,74.9h0Z"
								transform="translate(0 -0.1)"
								fill="#d1d7df">
							</path>
							<path
								d="M86.9,78.8h0Z"
								transform="translate(0 -0.1)"
								fill="#d1d7df">
							</path>
							<path
								d="M137.8,74.8h0Z"
								transform="translate(0 -0.1)"
								fill="#d1d7df">
							</path>
							<path
								d="M42,108.5l.2-.2.2.2H42Z"
								transform="translate(0 -0.1)"
								fill="#58616b">
							</path>
							<path
								d="M38.2,30.5l.8-1h2.3l.3.5a12.9,12.9,0,0,1-.7,15.1,11,11,0,0,0-.9,1.4l-.3.5h-.1l-.3.3-.3.4-.6.4-.2-.2Z"
								transform="translate(0 -0.1)"
								fill="#fefefe">
							</path>
							<path
								d="M56.9,29.3l.6.6a21.1,21.1,0,0,1,.2,2.5V42.7a3,3,0,0,1-.2,1l-.2-.6a25.7,25.7,0,0,1-10.7,3.6l-.2-.2,3.6-1a14.1,14.1,0,0,0,6.5-4.2,1.9,1.9,0,0,0,.3-1,26.8,26.8,0,0,0-3.7-7.6L52.5,35l-1.6-1.8a10.5,10.5,0,0,0-3.2-2.7l-.3,2.1-1.1-.7-4.4-2.4H55.8Z"
								transform="translate(0 -0.1)"
								fill="#fefefe">
							</path>
							<path
								d="M38.4,48.2l.6-.4H56.9c.5,0,1-.1.8.7l-.2.4-.2.2-1.3.4H39.4l-.6-.2Zm9,.4c.9.6,4.6.6,5.3,0Z"
								transform="translate(0 -0.1)"
								fill="#6f6f6e">
							</path>
							<path
								d="M46.6,46.7a25.7,25.7,0,0,0,10.7-3.6l.2.6.3,2c0,.1-.1.1-.1.2l-.8.2-10.3,1H45.1Z"
								transform="translate(0 -0.1)"
								fill="#4c71a7">
							</path>
							<path
								d="M78.4,32.6h1.1c1.4,0,1.5.3,1.3,1.7s0,.3.1.4.1,1.6-.9,1.6a8.5,8.5,0,0,1-1.6,0Zm.6,3.1.2.3,1.2-.8L79,34.5Zm.2-2.4-.3.4c.2.1.4.5.6.5s.5-.3.8-.4Z"
								transform="translate(0 -0.1)"
								fill="#252a30">
							</path>
							<path
								d="M93.4,33.8l-1.7-.3v.3c.3.2.6.2.8.4a3.6,3.6,0,0,1,1.1,1c.1.2-.3.8-.6,1a1.4,1.4,0,0,1-1.8-.4l-.3-.5c.8-.6,1.3,1.3,2.1-.1l-.9-.4c-.6-.2-1.1-.5-1-1.3a1.2,1.2,0,0,1,1.3-.9C93,32.7,93.5,33,93.4,33.8Z"
								transform="translate(0 -0.1)"
								fill="#363a40">
							</path>
							<path
								d="M62.8,32.7c2.1-.2,2.7.2,2.7,1.8s-.5,1.9-2.7,1.8Zm.6,3.2c.5-.2,1.2-.2,1.2-.5a2.2,2.2,0,0,0,0-1.6c-.1-.3-.7-.3-1.2-.5Z"
								transform="translate(0 -0.1)"
								fill="#252a30">
							</path>
							<path
								d="M67.4,36.6c.4-.4,1.3.8,1.6-.3s-.9,0-1.2-.2a.9.9,0,0,1-.5-.8,2.3,2.3,0,0,1,.7-1.4c.3-.2,1,0,1.6,0a17.6,17.6,0,0,1,0,2.3,1.5,1.5,0,0,1-.7,1m.3-2.2-.7-.7c-.2.3-.5.5-.6.8s.4.4.6.7Z"
								transform="translate(0 -0.1)"
								fill="#363a40">
							</path>
							<path
								d="M83,32.6c1.1.1.4,1,.7,1.3s1.4-.1,1.6.8a1.4,1.4,0,0,1-.2,1.1c-.1.3-.6.4-.9.5a4.7,4.7,0,0,1-1.2,0ZM84.9,35l-.8-.6c-.2.2-.5.4-.4.7s.3.4.5.7Z"
								transform="translate(0 -0.1)"
								fill="#363a40">
							</path>
							<path
								d="M75.1,36.3a4,4,0,0,1-1.1,0l-1.1-.5.8-.9c.1-.1.4-.1.7-.5H73.1c.2-.8.8-.8,1.3-.6s.5.5.6.9A3.8,3.8,0,0,1,75.1,36.3Z"
								transform="translate(0 -0.1)"
								fill="#363a40">
							</path>
							<path
								d="M104.7,37c1.2-.3.9-1,.6-1.6a7.4,7.4,0,0,1-.4-1.4h0c.2.1.5.1.7.3a3.8,3.8,0,0,1,.3,1c.7-.2.1-1.5,1.3-1.4s-.6,1.9-1,2.9"
								transform="translate(0 -0.1)"
								fill="#363a40">
							</path>
							<path
								d="M102.9,35.2h-1.5c.3,1.2,1.1,0,1.4.4a1,1,0,0,1-1.4.7,1.2,1.2,0,0,1-.6-1.6,1.6,1.6,0,0,1,1.2-.8C102.7,33.8,103,34.4,102.9,35.2Z"
								transform="translate(0 -0.1)"
								fill="#363a40">
							</path>
							<path
								d="M89.2,35.1H87.7c.1,1.3,1-.1,1.4.5a1.1,1.1,0,0,1-1.4.6,1.1,1.1,0,0,1-.7-1.5,2.1,2.1,0,0,1,1.1-1C88.9,33.7,89.2,34.4,89.2,35.1Z"
								transform="translate(0 -0.1)"
								fill="#363a40">
							</path>
							<path
								d="M95.2,33.8a1.2,1.2,0,0,1,1.3,1.3,1.1,1.1,0,0,1-1.2,1.2A1.1,1.1,0,0,1,94,35.1,1.2,1.2,0,0,1,95.2,33.8Zm0,2.3c.3-.5.6-.7.6-.9s-.3-.6-.5-.8-.5.4-.6.6A2.5,2.5,0,0,0,95.2,36.1Z"
								transform="translate(0 -0.1)"
								fill="#363a40">
							</path>
							<path
								d="M56.9,29.3l-1.1.2H39l1.1-.2Z"
								transform="translate(0 -0.1)"
								fill="#d6d7da">
							</path>
							<path
								d="M99.1,34.5c-.5.4-1.6-.8-1.5.6s1,.1,1.5.3-.5,1-1,.9-1.1-.6-1.1-.9a1.4,1.4,0,0,1,.6-1.4C98.1,33.6,98.7,33.8,99.1,34.5Z"
								transform="translate(0 -0.1)"
								fill="#363a40">
							</path>
							<path
								d="M38.2,30.5V48c0-.3-.2-.6-.2-.9V31.4C38,31.1,38.2,30.8,38.2,30.5Z"
								transform="translate(0 -0.1)"
								fill="#d6d7da">
							</path>
							<path
								d="M72.7,36.3a1.3,1.3,0,0,1-.9-.2c-.6-.4-.3-2.8.2-3.2l.6,1.2C72.1,34.7,72,35.3,72.7,36.3Z"
								transform="translate(0 -0.1)"
								fill="#363a40">
							</path>
							<path
								d="M57.8,45.7l-.3-2a3,3,0,0,0,.2-1V32.4a21.1,21.1,0,0,0-.2-2.5,1.8,1.8,0,0,1,.4.9V45C57.9,45.3,57.8,45.5,57.8,45.7Z"
								transform="translate(0 -0.1)"
								fill="#c5c5c6">
							</path>
							<path
								d="M104.9,33.9h0c-.7.5-1,1.1-.3,1.8s0,.3-.1.5h-.7c-.6-.4-.3-2.9.2-3.2Z"
								transform="translate(0 -0.1)"
								fill="#414549">
							</path>
							<path
								d="M86.5,32.4c0,1.4.1,2.5,0,3.6s-.2.2-.3.3-.3-.2-.3-.3a15,15,0,0,1,0-3C85.9,32.8,86.2,32.7,86.5,32.4Z"
								transform="translate(0 -0.1)"
								fill="#4d5055">
							</path>
							<path
								d="M76.4,36.3c-.7-.1-.7-.1-.7-2.5,0-.4-.4-1.2.7-1.2Z"
								transform="translate(0 -0.1)"
								fill="#4d5055">
							</path>
							<path
								d="M39.6,47.1h3.5l1.1.2c.2,0,.4.2.6.3H39.7Z"
								transform="translate(0 -0.1)"
								fill="#5283c3">
							</path>
							<path
								d="M70.6,36.4c-.1-.3-.4-.6-.3-.8s-.5-1.5.6-1.9v2.6Z"
								transform="translate(0 -0.1)"
								fill="#4d5055">
							</path>
							<path
								d="M44.8,47.4c-.2-.1-.4-.3-.6-.3l-1.1-.2,3.3-.4.2.2-1.5.3h1.5Z"
								transform="translate(0 -0.1)"
								fill="#abb7cc">
							</path>
							<path
								d="M100.3,35.2l-.4,1.1-.3-1.2v-.8l.3-.5c.1.2.3.3.3.5a2.7,2.7,0,0,1,0,.9Z"
								transform="translate(0 -0.1)"
								fill="#252a30">
							</path>
							<path
								d="M66.8,35.1l-.4,1.2a5.3,5.3,0,0,1-.3-1.2,6.1,6.1,0,0,1,.3-1.3Z"
								transform="translate(0 -0.1)"
								fill="#252a30">
							</path>
							<path
								d="M82.5,35.1,82,36.3a5.3,5.3,0,0,1-.3-1.2c0-.4.2-.9.2-1.3Z"
								transform="translate(0 -0.1)"
								fill="#252a30">
							</path>
							<path
								d="M39.7,47.4h2.4v.3H39l.3-.4Z"
								transform="translate(0 -0.1)"
								fill="#c5c5c6">
							</path>
							<path
								d="M56,49.4l1.3-.4C57.1,49.8,56.5,49.6,56,49.4Z"
								transform="translate(0 -0.1)"
								fill="#c5c5c6">
							</path>
							<path
								d="M57.7,46.1l.3,1.1h-.3V46.1Z"
								transform="translate(0 -0.1)"
								fill="#c5c5c6">
							</path>
							<path
								d="M38.8,49.2l.6.2Z"
								transform="translate(0 -0.1)"
								fill="#c5c5c6">
							</path>
							<path
								d="M57.5,48.8l.2-.4Z"
								transform="translate(0 -0.1)"
								fill="#c5c5c6">
							</path>
							<path
								d="M56.9,46.1l.8-.2v.2h-.8Z"
								transform="translate(0 -0.1)"
								fill="#c5c5c6">
							</path>
							<path
								d="M61.3,133h-1l-.2-.9.7-.6.8.7Z"
								transform="translate(0 -0.1)"
								fill="#eaebed">
							</path>
							<path
								d="M117.7,95l.8.5-.3.9h-1l-.3-.9Z"
								transform="translate(0 -0.1)"
								fill="#eaebed">
							</path>
							<path
								d="M60.8,95l.8.5-.3.9h-.9l-.4-.9Z"
								transform="translate(0 -0.1)"
								fill="#eaebed">
							</path>
							<path
								d="M99.2,75.3h.3c1.5.1,1.5.1,1.3,1.7H99l.2-1.7Z"
								transform="translate(0 -0.1)"
								fill="#dfe1e3">
							</path>
							<path
								d="M42.3,75.3h.3c1.5.1,1.5.1,1.3,1.7H42.1l.2-1.7Z"
								transform="translate(0 -0.1)"
								fill="#dfe1e3">
							</path>
							<path
								d="M42.2,108.6h.6c1.3,0,1.3,0,1.1,1.4H42.2Z"
								transform="translate(0 -0.1)"
								fill="#dfe1e3">
							</path>
							<path
								d="M41.2,46.9H39.7l.3-.5.8-.4c4.5-3.4,6.4-8,6.6-13.5l.3-2.1a10.5,10.5,0,0,1,3.2,2.7L52.5,35a17.9,17.9,0,0,1-2.8,6.3A14.2,14.2,0,0,1,41.2,46.9Z"
								transform="translate(0 -0.1)"
								fill="#abb7cc">
							</path>
							<path
								d="M47.4,32.6c-.2,5.5-2.1,10.1-6.6,13.5l-.8.4a11,11,0,0,1,.9-1.4A12.9,12.9,0,0,0,41.6,30l-.3-.5h.6l4.4,2.4Z"
								transform="translate(0 -0.1)"
								fill="#d1d7df">
							</path>
							<path
								d="M39.7,47.4h-.4l.3-.3A.4.4,0,0,0,39.7,47.4Z"
								transform="translate(0 -0.1)"
								fill="#abb7cc">
							</path>
							<path
								d="M41.2,46.9a14.2,14.2,0,0,0,8.5-5.6A17.9,17.9,0,0,0,52.5,35l.6-2.3a26.8,26.8,0,0,1,3.7,7.6,1.9,1.9,0,0,1-.3,1A14.1,14.1,0,0,1,50,45.5l-3.6,1-3.3.4Z"
								transform="translate(0 -0.1)"
								fill="#4c71a7">
							</path>
							<path
								d="M47.4,48.6h5.3C52,49.2,48.3,49.2,47.4,48.6Z"
								transform="translate(0 -0.1)"
								fill="#93989f">
							</path>
							<path
								d="M79,35.7V34.5l1.4.7-1.2.8Z"
								transform="translate(0 -0.1)"
								fill="#dfe1e3">
							</path>
							<path
								d="M79.2,33.3l1.1.5c-.3.1-.5.4-.8.4s-.4-.4-.6-.5Z"
								transform="translate(0 -0.1)"
								fill="#eaebed">
							</path>
							<path
								d="M63.4,35.9V33.3c.5.2,1.1.2,1.2.5a2.2,2.2,0,0,1,0,1.6C64.6,35.7,63.9,35.7,63.4,35.9Z"
								transform="translate(0 -0.1)"
								fill="#eaebed">
							</path>
							<path
								d="M69.2,35l-.7.8c-.2-.3-.6-.5-.6-.7s.4-.5.6-.8Z"
								transform="translate(0 -0.1)"
								fill="#dfe1e3">
							</path>
							<path
								d="M84.9,35l-.7.8c-.2-.3-.5-.5-.5-.7s.2-.5.4-.7Z"
								transform="translate(0 -0.1)"
								fill="#eaebed">
							</path>
							<path
								d="M95.2,36.1a2.5,2.5,0,0,1-.5-1.1c.1-.2.4-.4.6-.6s.5.5.5.8S95.5,35.6,95.2,36.1Z"
								transform="translate(0 -0.1)"
								fill="#eaebed">
							</path>
							<circle cx="217.9" cy="76.1" r="3.3" fill="#444545"></circle>
							<circle cx="225.9" cy="75.8" r="3.3" fill="#444545"></circle>
							<rect
								x="214.9"
								y="89.8"
								width="24.9"
								height="2.06"
								rx="1"
								fill="#787878">
							</rect>
							<rect
								x="215"
								y="66.4"
								width="24.9"
								height="2.06"
								rx="1"
								fill="#787878">
							</rect>
							<rect
								x="214.9"
								y="117.1"
								width="24.9"
								height="2.06"
								rx="1"
								fill="#787878">
							</rect>
							<rect x="34.1" y="5" width="234.6" height="14.22" fill="#252a30">
							</rect>
							<rect x="45.1" y="56" width="4" height="2" rx="1" fill="#787878">
							</rect>
							<rect x="50.1" y="56" width="14" height="2" rx="1" fill="#787878">
							</rect>
							<rect x="217.9" y="98" width="8" height="2" rx="1" fill="#afaeaf">
							</rect>
							<circle cx="150.9" cy="76.8" r="42" fill="#a0626b"></circle>
							<rect
								x="218.1"
								y="104"
								width="8"
								height="2"
								rx="1"
								fill="#afaeaf">
							</rect>
							<rect x="230.1" y="98" width="8" height="2" rx="1" fill="#afaeaf">
							</rect>
							<rect x="242.1" y="98" width="8" height="2" rx="1" fill="#afaeaf">
							</rect>
							<path
								d="M81.8,215l7.4-26.4L95,211.7Z"
								transform="translate(0 -0.1)"
								fill="#010101"
								opacity="0.2"
								style="isolation:isolate">
							</path>
							<path
								d="M219.8,21.6l-3.3-5.7c-5.8-7.5-17.3-11.6-29.7-1.7h-6.7l-3.3,1.7-4.1,5.7-.8,3.3-9.1-3.3a49.1,49.1,0,0,0-31.4,2.5c-3.3,2.5-5.8,5-6.6,8.3a23.6,23.6,0,0,0-16.6,9.9c-3.3,5-5.7,10.7-5.7,16.5v.9h.8l8.3,1.6a26.6,26.6,0,0,1,8.2,5l5,6.6c3.3,6.6,4.9,14,3.3,20.6l-1.7,5-2.4,5.8h-.9l-2.5,4.9-2.4,5.8-1.7,11.6v3.3l.8,7.4v.9l.9,2.4,1.6,6.7.8,4.1.9,4.1,1.6-1.6,6.6-12.4L144.6,115v4.2l.8.8h.9a74.8,74.8,0,0,0,34.7-5l9.1-5.8,4.1-3.3.8-1.6,4.2-5.8,1.6-5c3.3-9.9,3.3-21.4,0-36.3l2.5-.9c2.5-1.6,4.1-4.1,4.9-8.2h.9l8.2-5.8,1.7-1.7C223.1,34,223.1,27.4,219.8,21.6Z"
								transform="translate(0 -0.1)"
								fill="#232244">
							</path>
							<path
								d="M268.6,197.7c-2.5,34.7.8,49.6-13.2,78.5a291.2,291.2,0,0,1-39.7,14.9l-4.1.8c-17.4,4.9-36.4,7.4-54.6,8.2h-6.6c-19.8,0-38.8-1.6-57.9-6.6l-4.9-1.6A175.8,175.8,0,0,1,58.7,282l-14.9-6.6-3.3-1.7c-5.8-9.9-8.3-21.5-8.3-35.5C35.5,213.4,260.3,177,268.6,197.7Z"
								transform="translate(0 -0.1)"
								fill="#232244">
							</path>
							<path
								d="M268.6,203.5l.8-6.7c-8.3-20.6-233.1,16.6-237.2,40.5V244C42.1,220,255.4,184.4,268.6,203.5Z"
								transform="translate(0 -0.1)"
								fill="#010101"
								opacity="0.2"
								style="isolation:isolate">
							</path>
						</svg>