<?xml version="1.0" encoding="utf-8"?>
<!-- Generator: Adobe Illustrator 26.2.1, SVG Export Plug-In . SVG Version: 6.00 Build 0)  -->
<svg version="1.1" id="Layer_1" xmlns="http://www.w3.org/2000/svg" xmlns:xlink="http://www.w3.org/1999/xlink" x="0px" y="0px"
	 viewBox="0 0 589 424.8" style="enable-background:new 0 0 589 424.8;" xml:space="preserve">
<style type="text/css">
	.st0{fill:#CCCCCC;}
	.st1{fill:#F2F2F2;}
	.st2{fill:#6C63FF;}
	.st3{fill:#3F3D56;}
	.st4{fill:#FFFFFF;}
	.st5{fill:#E6E6E6;}
	.st6{fill:#FFB6B6;}
	.st7{fill:#E4E4E4;}
	.st8{fill:#2F2E41;}
</style>
<g>
	<path class="st0" d="M15,177.6h562.1c5,0,9,4.1,9,9.1c0,5-4,9.1-9,9.1h-15.9V413c0,5-4,9.1-9,9.1c-5,0-9-4.1-9-9.1L543,195.7H91.9
		L50.3,413c0,5-4,9.1-9,9.1s-9-4.1-9-9.1l-2.6-217.2H15c-5,0-9-4.1-9-9.1C6,181.6,10,177.6,15,177.6L15,177.6z"/>
	<path class="st1" d="M423.3,136v38.8h97.6c10.8,0.4,19.8-8,20.2-18.7c0.4-10.7-8-19.7-18.8-20.1h-1.4H423.3z"/>
	<path class="st2" d="M420.9,174.5c0.1,0.8,0.7,1.4,1.5,1.4h100.2c11.3,0,20.5-9.1,20.5-20.4c0-11.3-9.2-20.4-20.5-20.4H422.4
		c-0.8,0-1.5,0.7-1.5,1.5s0.7,1.5,1.5,1.5h100.2c9.7,0,17.5,7.8,17.5,17.4c0,9.6-7.8,17.4-17.5,17.4H422.4
		C421.5,172.9,420.9,173.6,420.9,174.5L420.9,174.5z"/>
	<path class="st0" d="M423.3,145h104.9c0.2,0,0.3-0.1,0.3-0.3s-0.1-0.3-0.3-0.3l0,0H423.3c-0.2,0-0.3,0.1-0.3,0.3
		S423.1,145,423.3,145z M423.3,152h104.9c0.1-0.1,0.2-0.3,0.1-0.4c0,0-0.1-0.1-0.1-0.1H423.3C423.1,151.6,423.1,151.8,423.3,152
		C423.2,152,423.2,152,423.3,152z M423.3,159.2h104.9c0.2,0,0.3-0.1,0.3-0.3s-0.1-0.3-0.3-0.3l0,0H423.3c-0.2,0-0.3,0.1-0.3,0.3
		S423.1,159.2,423.3,159.2z M423.3,166.3h104.9c0.2,0,0.3-0.1,0.3-0.3s-0.1-0.3-0.3-0.3l0,0H423.3c-0.2,0-0.3,0.1-0.3,0.3
		S423.1,166.3,423.3,166.3z"/>
	<path class="st1" d="M433.7,95.2v38.8h97.6c10.8,0.4,19.8-8,20.2-18.7c0.4-10.7-8.1-19.7-18.9-20l0,0h-1.3H433.7z"/>
	<path class="st3" d="M431.3,133.6c0,0.8,0.7,1.5,1.5,1.5H533c11.3,0,20.5-9.1,20.5-20.4s-9.2-20.4-20.5-20.4H432.8
		c-0.8,0-1.5,0.7-1.5,1.5s0.7,1.5,1.5,1.5H533c9.7,0,17.5,7.8,17.5,17.4c0,9.6-7.8,17.4-17.5,17.4H432.8
		C431.9,132.1,431.3,132.8,431.3,133.6L431.3,133.6z"/>
	<path class="st0" d="M433.7,104.1h104.9c0.2,0,0.3-0.1,0.3-0.3c0-0.2-0.1-0.3-0.3-0.3H433.7c-0.2,0-0.3,0.1-0.3,0.3
		C433.4,104,433.5,104.1,433.7,104.1z M433.7,111.3h104.9c0.2,0,0.3-0.1,0.3-0.3c0-0.2-0.1-0.3-0.3-0.3H433.7
		c-0.2,0-0.3,0.1-0.3,0.3C433.4,111.1,433.5,111.3,433.7,111.3z M433.7,118.4h104.9c0.2,0,0.3-0.1,0.3-0.3c0-0.2-0.1-0.3-0.3-0.3
		H433.7c-0.2,0-0.3,0.1-0.3,0.3C433.4,118.3,433.5,118.4,433.7,118.4z M433.7,125.6h104.9c0.2,0,0.3-0.1,0.3-0.3
		c0-0.2-0.1-0.3-0.3-0.3H433.7c-0.2,0-0.3,0.1-0.3,0.3C433.4,125.4,433.5,125.6,433.7,125.6z M320.2,313.7v-33.8
		c0.1-3.1,2.5-5.5,5.6-5.6h128.9c3.1,0,5.6,2.5,5.7,5.6v33.8H320.2z M460.3,326.4H320.2V370h140.1V326.4z M460.3,382.6v33.8
		c0,3.1-2.6,5.7-5.7,5.7h0H325.8c-3.1-0.1-5.6-2.6-5.6-5.7v-33.8H460.3z"/>
	<ellipse class="st4" cx="467.9" cy="295.4" rx="4.2" ry="4.2"/>
	<ellipse class="st4" cx="467.9" cy="351.7" rx="4.2" ry="4.2"/>
	<ellipse class="st4" cx="467.7" cy="406.8" rx="4.2" ry="4.2"/>
	<path class="st1" d="M413,235.8v38.8h97.7c10.8,0.4,19.8-8,20.2-18.7c0.4-10.7-8-19.7-18.8-20.1h-1.4L413,235.8z"/>
	<path class="st3" d="M410.7,274.3c0,0.8,0.6,1.4,1.4,1.5h100.3c11.3,0,20.5-9.1,20.5-20.4s-9.2-20.4-20.5-20.4l0,0H412.1
		c-0.8,0-1.5,0.7-1.5,1.5s0.7,1.5,1.5,1.5h100.3c9.7,0,17.5,7.8,17.5,17.4s-7.8,17.4-17.5,17.4H412.1
		C411.3,272.8,410.7,273.5,410.7,274.3L410.7,274.3z"/>
	<path class="st0" d="M413,244.8h105c0.2,0,0.3-0.1,0.3-0.3s-0.1-0.3-0.3-0.3H413c-0.2,0-0.3,0.1-0.3,0.3S412.8,244.8,413,244.8z
		 M413,252h105c0.2,0,0.3-0.2,0.3-0.3c0-0.2-0.2-0.3-0.3-0.3H413c-0.2,0-0.3,0.1-0.3,0.3S412.8,251.9,413,252L413,252z M413,259.1
		h105c0.2,0,0.3-0.1,0.3-0.3c0-0.2-0.1-0.3-0.3-0.3H413c-0.2,0-0.3,0.1-0.3,0.3C412.7,258.9,412.8,259.1,413,259.1z M413,266.2h105
		c0.2,0,0.3-0.1,0.3-0.3c0-0.2-0.1-0.3-0.3-0.3H413c-0.2,0-0.3,0.1-0.3,0.3C412.7,266.1,412.8,266.2,413,266.2z"/>
	<path class="st3" d="M450.7,82.2h44.4c0.5,0,0.9,0.1,1.3,0.3l11.2,5.6c1,0.3,1.6,1.5,1.3,2.5c-0.2,0.6-0.7,1.1-1.3,1.3l-11.2,5.6
		c-0.4,0.2-0.8,0.3-1.3,0.3h-44.4c-1.3,0.1-2.4-0.8-2.5-2.1c0,0,0-0.1,0-0.1V84.4c0.1-1.3,1.1-2.2,2.4-2.2
		C450.6,82.2,450.6,82.2,450.7,82.2z"/>
	<path class="st2" d="M478.2,84.4v11.1c0.1,1.3,1.1,2.2,2.4,2.2c0,0,0.1,0,0.1,0h8.8V82.2h-8.8c-1.3-0.1-2.4,0.8-2.5,2.1
		C478.2,84.4,478.2,84.4,478.2,84.4z"/>
	<path class="st5" d="M276.1,175.9l4.7-2l3.2-23.4h42.9l3.5,23.3l4.2,2.1c0.5,0.2,0.7,0.8,0.5,1.3c-0.2,0.4-0.6,0.6-1,0.6h-57.6
		c-0.6,0.1-1.1-0.2-1.2-0.8S275.5,175.9,276.1,175.9L276.1,175.9z"/>
	<path class="st0" d="M199.8,153.6h210.7c2.3,0,4.2-1.9,4.2-4.2c0,0,0,0,0,0v-29.5h-219v29.5C195.7,151.7,197.5,153.6,199.8,153.6z"
		/>
	<path class="st3" d="M195.5,133.9h219.4V7.5c0-2.7-2.2-5-5-5H200.5c-2.8,0-5,2.2-5,5L195.5,133.9z"/>
	<path class="st4" d="M208.6,124.8h193.1c2.2,0,3.9-1.7,3.9-3.9c0,0,0-0.1,0-0.1V15.6c0-2.1-1.7-3.9-3.9-3.9c0,0-0.1,0-0.1,0H208.7
		c-2.2-0.1-3.9,1.6-4,3.8c0,0.1,0,0.1,0,0.2v105.2c-0.1,2.1,1.6,3.9,3.8,4C208.5,124.8,208.6,124.8,208.6,124.8L208.6,124.8z"/>
	<path class="st6" d="M259.5,161.9c-4.7-4.3-12-4.1-16.4,0.6c-0.5,0.5-0.9,1.1-1.3,1.7l-26.1-4.7l-6.7,15.1l37,6
		c5.7,2.9,12.8,0.7,15.8-5C264.1,171,263.2,165.4,259.5,161.9z"/>
	<path class="st2" d="M235.3,181.1l-27.3-0.3h-3.4l-55.5-0.8c0,0-15-14.2-28.1-28.9l1.8-13.2c1.8-13,8.3-24.8,18.2-33.4
		c18.8,12.3,29.7,37.1,29.7,37.1l34.3,8.2l3.5,0.8l21.3,5L235.3,181.1z"/>
	<path class="st7" d="M95.7,262.3h51c0,2.2,55.5,4,55.5,4c1.2,0.9,2.4,1.9,3.4,3c3,3.5,4.5,8,4.5,12.6v3.2
		c0,10.8-8.8,19.6-19.7,19.6l0,0H95.8c-10.9,0-19.7-8.8-19.8-19.6v-3.3c0.1-10.8,8.9-19.6,19.8-19.6L95.7,262.3z"/>
	<path class="st7" d="M153.3,303.9h-20.5v117.8h20.5V303.9z"/>
	<path class="st7" d="M211.7,421c0,2.2-31,0.9-69.5,0.9s-69.4,1.3-69.4-0.9c0-2.2,31-19.7,69.4-19.7S211.7,418.8,211.7,421z"/>
	<path class="st6" d="M225.5,407.6h15.3l7.3-58.6h-22.6V407.6z"/>
	<path class="st8" d="M221.7,422.3h49.2v-0.7c-0.1-10.5-8.6-19-19.2-19h-30V422.3z"/>
	<path class="st6" d="M270.7,407.6h15.2l7.3-58.6h-22.5V407.6z"/>
	<path class="st8" d="M266.7,422.3H316v-0.7c-0.1-10.5-8.6-18.9-19.1-19h-30.2V422.3z"/>
	<ellipse class="st6" cx="133.8" cy="43.9" rx="26.6" ry="26.4"/>
	<path class="st8" d="M90.8,224.8c0,0-8.9,46.9,25,52.9s82.9,10.1,82.9,10.1l22,102l29.5-2.7c0,0-4-122.6-13.6-132.3
		c-9.6-9.6-70.7-38.4-70.7-38.4L90.8,224.8z"/>
	<path class="st8" d="M157.1,205.2l14.8,14.8c0,0,107,17.1,111.2,41.7c5.5,39.1,10.1,78.4,13.6,117.8l-32.2-2.4l-12.6-91.7
		l-51.5-11.6L141.8,242L157.1,205.2z M108.3,28.2c2.6-5,6-14.7,11.2-16.6c2.9-1,5.9-1.6,9-1.9l9,3.5l-4.8-3.8l2.8-0.2l6,2.4l-3-2.5
		c5.6,0,11.5,0.6,15.9,4c3.7,3,7.4,13.9,8,18.7c0.6,4.5,0.4,9-0.7,13.4l-1.5,1.5c-0.5-1.2-0.9-2.5-1.2-3.8c-1.1-5-4.3-9.3-8.7-11.8
		c-2.7-1.5-5.8-1.4-8.7-1.3l-14,0.5c-3.5,0.1-7.1,0.4-9.7,2.5c-1.7,1.6-3,3.5-3.9,5.6c-1.3,2.6-3.9,12.5-3.9,12.5s-1.4-2-2.1-0.5
		c-1.1-3.6-1.8-7.4-2-11.1C105.7,35.4,106.5,31.6,108.3,28.2L108.3,28.2z"/>
	<path class="st6" d="M15.3,55.5c6.4,0.4,11.3,5.8,10.9,12.2c0,0.7-0.2,1.4-0.3,2.2l21.3,15.6l-6.4,15.3L11,78.1
		c-6.1-2-9.5-8.6-7.5-14.7C5.1,58.4,10,55.1,15.3,55.5L15.3,55.5z"/>
	<path class="st2" d="M18.7,87.5l53.6,59c0,0,25.6-8.2,45.4-16.9l9-27.2c2-6.3,2.9-12.9,2.5-19.5c-27.4-7.3-59.3,19.7-59.3,19.7
		L29.7,71.4L18.7,87.5z"/>
	<path class="st2" d="M143.7,229.1c9.7-3.7,19.8-6.4,30.1-8h0.5l-0.1-0.5c-11-38.5-8.3-63.1-3-100.1c2.4-16.4-6.4-32.3-21.5-39.3
		l-30.5-2L97,85.9c-6.5,2-10.9,8-10.8,14.7c0.2,12.1-0.3,25.7-0.8,40.2c-1.2,32.2-2.5,65.6,4.6,87.3l0.1,0.1
		c6.5,5.3,14.7,8.2,23.1,8.2C123.7,235.6,134,233.2,143.7,229.1z"/>
</g>
</svg>
