<svg xmlns="http://www.w3.org/2000/svg" viewBox="0 0 1973 1075">
  <defs>
    <linearGradient x1="0%" y1="50%" x2="100%" y2="50%" id="a">
      <stop stop-color="#91D6E8" offset="0%"/>
      <stop stop-color="#16677E" offset="100%"/>
    </linearGradient>
    <linearGradient x1="0%" y1="50%" x2="100%" y2="50%" id="b">
      <stop stop-color="#989ECF" offset="0%"/>
      <stop stop-color="#575BA8" offset="100%"/>
    </linearGradient>
    <linearGradient x1="0%" y1="50%" x2="100%" y2="50%" id="c">
      <stop stop-color="#67A2D7" offset="0%"/>
      <stop stop-color="#4468B1" offset="100%"/>
    </linearGradient>
    <linearGradient x1="0%" y1="50%" x2="100%" y2="50%" id="d">
      <stop stop-color="#FFD949" offset="0%"/>
      <stop stop-color="#AE8D2F" offset="100%"/>
    </linearGradient>
    <linearGradient x1="0%" y1="50%" x2="100%" y2="50%" id="e">
      <stop stop-color="#7FA7CC" offset="0%"/>
      <stop stop-color="#265A8E" offset="100%"/>
    </linearGradient>
    <linearGradient x1="0%" y1="50%" x2="100%" y2="50%" id="f">
      <stop stop-color="#4BC0B3" offset="0%"/>
      <stop stop-color="#168178" offset="100%"/>
    </linearGradient>
    <linearGradient x1="0%" y1="50%" x2="100%" y2="50%" id="g">
      <stop stop-color="#7FCFF4" offset="0%"/>
      <stop stop-color="#1091AD" offset="100%"/>
    </linearGradient>
    <linearGradient x1="0%" y1="50%" x2="100%" y2="50%" id="h">
      <stop stop-color="#A7AED8" offset="0%"/>
      <stop stop-color="#676BB1" offset="97%"/>
    </linearGradient>
    <linearGradient x1="0%" y1="50%" x2="100%" y2="50%" id="i">
      <stop stop-color="#F8DC7C" offset="0%"/>
      <stop stop-color="#CCA62C" offset="100%"/>
    </linearGradient>
    <linearGradient x1="0%" y1="50%" x2="100%" y2="50%" id="j">
      <stop stop-color="#7EC8EF" offset="0%"/>
      <stop stop-color="#4D76BB" offset="100%"/>
    </linearGradient>
  </defs>
  <g fill="none">
    <path fill="url(#a)" d="M0 0h1973v97H0z"/>
    <path fill="url(#b)" d="M0 109h577v97H0z"/>
    <path fill="url(#c)" d="M0 217h501v97H0z"/>
    <path fill="url(#d)" d="M0 326h468v97H0z"/>
    <path fill="url(#e)" d="M0 435h447v97H0z"/>
    <path fill="url(#f)" d="M0 543h308v97H0z"/>
    <path fill="url(#g)" d="M0 652h166v97H0z"/>
    <path fill="url(#h)" d="M0 761h145v97H0z"/>
    <path fill="url(#i)" d="M0 869h118v97H0z"/>
    <path fill="url(#j)" d="M0 978h106v97H0z"/>
    <path d="M613.2 75.9V26.4h10.5v49.5zm56.7.1h-10.3V53.7c0-2.7-.5-4.8-1.5-6.2-1-1.3-2.5-2-4.6-2-2.9 0-5 1-6.3 2.9a19 19 0 0 0-1.9 9.6v17.8H635V38h7.9l1.4 4.9h.5a11 11 0 0 1 4.8-4.2c2-1 4.3-1.4 6.8-1.4 4.4 0 7.8 1.2 10 3.6 2.3 2.4 3.4 5.8 3.4 10.3V76Zm22.6.6c-4.5 0-8-1.7-10.5-5.2a24 24 0 0 1-3.8-14.4c0-6 1.3-11 3.9-14.5 2.6-3.5 6.1-5.2 10.6-5.2 4.8 0 8.4 1.9 11 5.6h.2c-.5-2.9-.7-5.4-.7-7.6V23.2h10.3v52.7h-7.9l-2-4.9h-.4a12 12 0 0 1-10.7 5.6Zm3.6-8.2c2.6 0 4.5-.8 5.8-2.3 1.2-1.6 1.9-4.2 2-7.9v-1c0-4.2-.6-7-1.9-8.8-1.2-1.8-3.3-2.7-6-2.7a6 6 0 0 0-5.4 3c-1.3 2-2 4.8-2 8.5s.7 6.5 2 8.4a6.3 6.3 0 0 0 5.5 2.8Zm27.6-40.2c0-3.3 1.9-5 5.6-5 3.7 0 5.6 1.7 5.6 5a5 5 0 0 1-1.4 3.8c-1 .9-2.3 1.3-4.2 1.3-3.7 0-5.6-1.7-5.6-5ZM734.4 76h-10.3V38h10.3v38Zm34.6 0-2-5.2h-.3a15.2 15.2 0 0 1-5.4 4.5c-1.8.9-4.2 1.3-7.2 1.3-3.6 0-6.4-1-8.5-3.1-2.1-2.1-3.1-5-3.1-9 0-3.8 1.3-6.9 4.2-8.8 2.8-2 7-3 12.6-3.2l6.6-.2v-1.6c0-3.9-2-5.8-5.9-5.8-3 0-6.6 1-10.6 2.7l-3.4-7c4.3-2.2 9.1-3.4 14.4-3.4 5.3 0 9 1.1 11.7 3.4 2.7 2.2 4 5.5 4 10V76h-7.2Zm-3.1-17.6-4 .1c-3 0-5.2.6-6.7 1.6s-2.2 2.5-2.2 4.6c0 2.9 1.7 4.3 5 4.3a8 8 0 0 0 5.7-2 7.3 7.3 0 0 0 2.2-5.5v-3.1Zm66.7-35h7.4v68.3h-7.4zM928.5 76H894v-7.4l12.4-12.5c3.6-3.8 6-6.4 7.2-7.9 1-1.5 1.9-2.8 2.4-4 .5-1.3.7-2.6.7-4 0-1.9-.5-3.4-1.6-4.3a6.3 6.3 0 0 0-4.4-1.5c-1.9 0-3.8.4-5.6 1.3-1.8.9-3.6 2.2-5.6 3.8l-5.7-6.8a37 37 0 0 1 6-4.4 22.3 22.3 0 0 1 11.7-2.6c3 0 5.8.5 8.1 1.6a12.6 12.6 0 0 1 7.5 11.7c0 2.4-.4 4.5-1.2 6.5-.8 2-2 4-3.7 6.1a91 91 0 0 1-8.9 9l-6.3 6v.5h21.5v8.8Zm4.1-21.1c0-9.8 2-17.1 6.2-22 4.1-4.7 10.3-7.1 18.6-7.1 2.8 0 5 .2 6.6.5v8.4c-2-.5-4-.7-6-.7-3.6 0-6.5.5-8.7 1.6a11 11 0 0 0-5.1 4.8 22.2 22.2 0 0 0-2 9h.4c2.3-3.8 5.8-5.7 10.7-5.7 4.4 0 7.9 1.4 10.4 4.2 2.5 2.8 3.7 6.6 3.7 11.5 0 5.3-1.4 9.5-4.4 12.6-3 3-7.1 4.6-12.4 4.6a16.5 16.5 0 0 1-15.8-10 28.3 28.3 0 0 1-2.2-11.7Zm17.8 13.3c2.3 0 4-.7 5.2-2.2 1.2-1.5 1.8-3.7 1.8-6.5a9 9 0 0 0-1.7-5.7c-1.1-1.4-2.8-2-5-2s-4 .6-5.5 2a6.4 6.4 0 0 0-2.2 4.8c0 2.7.7 5 2 6.8a6.5 6.5 0 0 0 5.4 2.8Zm58-2.6h-6V76h-10.2V65.6h-21v-7.2l21.6-32h9.6v31.1h6v8.1Zm-16.2-8V49a154.5 154.5 0 0 1 .5-10.7h-.3c-.8 1.8-1.8 3.6-3 5.4l-9 13.7h11.8Zm74.4 18.4h-10.3V53.7c0-2.7-.5-4.8-1.4-6.2-.9-1.3-2.3-2-4.3-2-2.6 0-4.5 1-5.7 2.9-1.2 2-1.8 5.1-1.8 9.6v17.8h-10.3V38h7.9l1.4 4.9h.5c1-1.8 2.5-3.1 4.4-4.1 2-1 4.1-1.5 6.6-1.5 5.6 0 9.5 1.9 11.5 5.6h.9c1-1.8 2.5-3.2 4.5-4.1 2-1 4.1-1.5 6.6-1.5 4.3 0 7.5 1.1 9.7 3.3 2.2 2.2 3.3 5.8 3.3 10.6V76h-10.3V53.8c0-2.7-.5-4.8-1.4-6.2-.9-1.3-2.3-2-4.3-2-2.5 0-4.4.9-5.6 2.7a15 15 0 0 0-2 8.6v19Zm33.6-47.8c0-3.3 2-5 5.6-5 3.8 0 5.7 1.7 5.7 5a5 5 0 0 1-1.4 3.8c-1 .9-2.4 1.3-4.2 1.3-3.8 0-5.6-1.7-5.6-5ZM1111 76h-10.3V38h10.3v38Zm20.9-.1h-10.3V23.2h10.3zm20.9 0h-10.3V23.2h10.3zm10.2-47.7c0-3.3 1.8-5 5.6-5 3.7 0 5.6 1.7 5.6 5a5 5 0 0 1-1.4 3.8c-1 .9-2.3 1.3-4.2 1.3-3.7 0-5.6-1.7-5.6-5Zm10.7 47.7h-10.3V38h10.3v38Zm44.8-19c0 6.2-1.6 11-4.8 14.5a17.6 17.6 0 0 1-13.6 5.2c-3.6 0-6.8-.8-9.5-2.4a15.9 15.9 0 0 1-6.4-6.9c-1.5-3-2.3-6.4-2.3-10.4 0-6.2 1.7-11 4.9-14.4 3.2-3.5 7.7-5.2 13.5-5.2 3.7 0 6.9.8 9.6 2.4a15 15 0 0 1 6.4 6.8 23 23 0 0 1 2.2 10.4Zm-26 0c0 3.8.6 6.6 1.8 8.5 1.2 2 3.2 2.9 6 2.9 2.7 0 4.7-1 5.9-2.9 1.2-1.9 1.8-4.7 1.8-8.5s-.6-6.6-1.8-8.4c-1.2-2-3.2-2.8-6-2.8s-4.7.9-6 2.7a15.7 15.7 0 0 0-1.8 8.5Zm69.4 19.1h-10.3V53.7c0-2.7-.5-4.8-1.5-6.2-1-1.3-2.5-2-4.6-2-2.9 0-5 1-6.2 2.9-1.3 2-2 5.1-2 9.6v17.8H1227V38h8l1.3 4.9h.6a11 11 0 0 1 4.7-4.2c2-1 4.3-1.4 6.9-1.4 4.4 0 7.7 1.2 10 3.6 2.2 2.4 3.4 5.8 3.4 10.3V76Z" fill="#FFF"/>
    <path d="M637 150.3c0 5.3-1.7 9.3-5 12-3.3 2.9-8 4.3-14 4.3h-4.6V184H603v-49h15.7c6 0 10.5 1.3 13.6 3.8 3.1 2.6 4.7 6.4 4.7 11.5Zm-23.6 7.8h3.5c3.2 0 5.6-.7 7.2-2 1.6-1.2 2.4-3 2.4-5.4 0-2.5-.7-4.3-2-5.4-1.4-1.2-3.5-1.8-6.3-1.8h-4.8v14.6Zm55.3 26.2-2-5h-.2a15.3 15.3 0 0 1-5.5 4.4c-1.8.9-4.2 1.3-7.2 1.3-3.7 0-6.5-1-8.6-3-2.1-2.2-3.2-5-3.2-8.9 0-3.8 1.4-7 4.2-8.8a24 24 0 0 1 12.8-3.1l6.7-.3v-1.6c0-3.8-2-5.7-6-5.7-3 0-6.6.9-10.7 2.7l-3.5-7c4.4-2.2 9.3-3.3 14.6-3.3 5.4 0 9 1.1 11.8 3.3 2.7 2.2 4.1 5.5 4.1 10v25h-7.3Zm-3-17.4-4 .2c-3 0-5.3.6-6.8 1.6s-2.2 2.5-2.2 4.5c0 2.9 1.7 4.3 5 4.3a8 8 0 0 0 5.8-2 7.2 7.2 0 0 0 2.2-5.5v-3Zm31.1-2.6 4.4-5.8 10.4-11.6h11.5l-14.8 16.5L724 185h-11.7l-10.8-15.4-4.3 3.5V185H687v-53h10.2v23.6l-.6 8.7h.2zM729 137c0-3.3 1.8-5 5.5-5s5.5 1.7 5.5 5a5 5 0 0 1-1.4 3.8c-.9 1-2.3 1.4-4.1 1.4-3.7 0-5.5-1.7-5.5-5.1Zm10.5 48h-10v-38h10v38Zm37.5-11.8c0 3.8-1.4 6.8-4 8.8a21 21 0 0 1-12.3 3 35.5 35.5 0 0 1-12.6-2.2v-8.5a36.6 36.6 0 0 0 13 3.2c3.7 0 5.6-1 5.6-3.2 0-.8-.2-1.5-.7-2l-2.6-1.7a67 67 0 0 0-5-2.3 31 31 0 0 1-6.5-3.3 9.5 9.5 0 0 1-3-3.6 12 12 0 0 1-.9-4.9c0-3.3 1.3-6 4-7.8 2.6-1.8 6.3-2.7 11.2-2.7 4.8 0 9 1 13.4 3l-3.2 7.4-5.3-2a18 18 0 0 0-5.1-.8c-3.1 0-4.6.8-4.6 2.5 0 .9.5 1.7 1.4 2.3a41 41 0 0 0 6.6 3 27 27 0 0 1 6.5 3.4c1.4 1 2.4 2.2 3.1 3.5.7 1.4 1 3 1 4.8Zm24.6 3.7c1.8 0 3.9-.4 6.4-1.2v7.6a23 23 0 0 1-9.4 1.7c-4 0-7-1-9-3-1.8-2.2-2.7-5.2-2.7-9.4v-18H782v-4.3l5.6-3.4 3-7.9h6.5v8h10.5v7.6h-10.5v18c0 1.5.4 2.5 1.2 3.2.9.7 2 1 3.3 1Zm39.1 7.4-2-5h-.2a15.3 15.3 0 0 1-5.5 4.4c-1.8.9-4.2 1.3-7.2 1.3-3.7 0-6.5-1-8.6-3-2.1-2.2-3.2-5-3.2-8.9 0-3.8 1.4-7 4.2-8.8a24 24 0 0 1 12.8-3.1l6.7-.3v-1.6c0-3.8-2-5.7-6-5.7-3 0-6.6.9-10.7 2.7l-3.5-7c4.4-2.2 9.3-3.3 14.6-3.3 5.4 0 9 1.1 11.8 3.3 2.7 2.2 4.1 5.5 4.1 10v25h-7.3Zm-3-17.4-4 .2c-3 0-5.3.6-6.8 1.6s-2.2 2.5-2.2 4.5c0 2.9 1.7 4.3 5 4.3a8 8 0 0 0 5.8-2 7.2 7.2 0 0 0 2.2-5.5v-3ZM893 184h-10.3v-21.8c0-2.7-.5-4.7-1.5-6-1-1.4-2.5-2-4.6-2-3 0-5 .9-6.3 2.8-1.3 1.9-2 5-2 9.4V184H858v-37.3h7.9l1.4 4.8h.6c1.1-1.8 2.7-3.2 4.7-4.1 2-1 4.4-1.4 7-1.4 4.3 0 7.7 1.2 10 3.5 2.3 2.4 3.4 5.8 3.4 10.2V184Zm39-52h7v68h-7zm60.4 20.8a16 16 0 0 1 11.4 4c2.8 2.7 4.2 6.4 4.2 11 0 5.5-1.7 9.8-5.1 12.7-3.4 3-8.3 4.5-14.6 4.5a28 28 0 0 1-13.3-2.7v-9a27.8 27.8 0 0 0 13 3.2c6.3 0 9.5-2.6 9.5-7.8 0-5.2-3.3-7.5-9.9-7.5a24.6 24.6 0 0 0-7.5 1.2L976 160l1.8-25.1h26.8v8.8H987l-1 9.7 1.3-.2c1.3-.3 3-.5 5-.5Zm54.2-7c0 3.1-1 5.7-2.8 8a14.4 14.4 0 0 1-7.9 4.4v.2c4 .5 7 1.7 9 3.6 2 2 3.1 4.6 3.1 7.9 0 4.7-1.7 8.5-5.1 11.1-3.5 2.7-8.4 4-14.7 4-5.4 0-10-.9-14.2-2.7v-9a31.7 31.7 0 0 0 13 3.4c3.5 0 6-.6 7.7-1.8 1.6-1.2 2.4-3 2.4-5.6 0-2.4-1-4-2.8-5-1.9-1-4.9-1.5-9-1.5h-3.7v-8h3.8c3.8 0 6.5-.5 8.3-1.5 1.8-1 2.6-2.7 2.6-5.2 0-3.7-2.3-5.6-7-5.6-1.6 0-3.2.3-4.9.8a24 24 0 0 0-5.5 2.8l-4.8-7.2a26 26 0 0 1 16-4.9c5 0 9 1 12 3.1s4.5 5 4.5 8.7Zm62 38.2h-10.2v-21.8a11 11 0 0 0-1.4-6c-.9-1.4-2.3-2-4.3-2-2.6 0-4.5.9-5.7 2.8-1.2 2-1.8 5-1.8 9.5V184H1075v-37.3h7.8l1.4 4.8h.6c1-1.7 2.4-3 4.3-4 2-1 4.1-1.5 6.6-1.5 5.6 0 9.4 1.8 11.4 5.5h.9c1-1.8 2.5-3.1 4.4-4 2-1 4.2-1.5 6.7-1.5 4.2 0 7.4 1 9.6 3.3 2.2 2.1 3.3 5.6 3.3 10.4V184h-10.3v-21.8a11 11 0 0 0-1.3-6c-1-1.4-2.4-2-4.3-2-2.5 0-4.4.8-5.6 2.6-1.3 1.8-1.9 4.6-1.9 8.5V184Zm33.4-47c0-3.3 1.8-5 5.5-5s5.5 1.7 5.5 5a5 5 0 0 1-1.4 3.8c-.9 1-2.3 1.4-4.1 1.4-3.7 0-5.5-1.7-5.5-5.1Zm10.5 48h-10v-38h10v38Zm20.5 0h-10v-53h10zm21 0h-10v-53h10zm11-48c0-3.3 1.8-5 5.5-5s5.5 1.7 5.5 5a5 5 0 0 1-1.4 3.8c-.9 1-2.3 1.4-4.1 1.4-3.7 0-5.5-1.7-5.5-5.1Zm10.5 48h-10v-38h10v38Zm44.5-19.5a20 20 0 0 1-5 14.3 18 18 0 0 1-13.6 5.2c-3.7 0-6.9-.8-9.7-2.4a15 15 0 0 1-6.4-6.8c-1.5-3-2.3-6.4-2.3-10.4a20 20 0 0 1 4.9-14.3 18 18 0 0 1 13.7-5.1c3.7 0 6.9.8 9.7 2.4 2.8 1.5 5 3.8 6.4 6.7 1.5 3 2.3 6.4 2.3 10.3Zm-26.4 0c0 3.7.6 6.5 1.9 8.4 1.2 1.9 3.2 2.9 6 2.9s4.8-1 6-2.9c1.2-1.9 1.8-4.7 1.8-8.4 0-3.8-.6-6.6-1.8-8.4-1.2-1.9-3.2-2.8-6-2.8s-4.8 1-6 2.8a15.3 15.3 0 0 0-1.9 8.4ZM1304 184h-10.3v-21.8c0-2.7-.5-4.7-1.5-6-1-1.4-2.5-2-4.6-2-3 0-5 .9-6.3 2.8-1.3 1.9-2 5-2 9.4V184H1269v-37.3h7.9l1.4 4.8h.6c1.1-1.8 2.7-3.2 4.7-4.1 2-1 4.4-1.4 7-1.4 4.3 0 7.7 1.2 10 3.5 2.3 2.4 3.4 5.8 3.4 10.2V184Zm-778 60h15.5a30 30 0 0 1 15.4 3c3.2 2 4.8 5 4.8 9.4 0 3-.7 5.3-2 7.2a8.4 8.4 0 0 1-5.6 3.4v.3c3.1.7 5.4 2 6.8 4a12 12 0 0 1 2.1 7.5c0 4.5-1.6 8-5 10.4a21.6 21.6 0 0 1-13.3 3.8H526v-49Zm10.6 19.4h6.1c2.9 0 5-.4 6.3-1.3 1.2-.9 1.9-2.3 1.9-4.3s-.7-3.3-2.1-4c-1.4-.9-3.6-1.3-6.7-1.3h-5.5v10.9Zm0 8.2v12.8h6.9c2.9 0 5-.5 6.4-1.6 1.4-1.1 2.1-2.8 2.1-5 0-4.1-3-6.2-8.9-6.2h-6.5Zm60.1 21.7-2-5h-.2a15.3 15.3 0 0 1-5.5 4.4c-1.8.9-4.2 1.3-7.2 1.3-3.7 0-6.5-1-8.6-3-2.1-2.2-3.2-5-3.2-8.9 0-3.8 1.4-7 4.2-8.8a24 24 0 0 1 12.8-3.1l6.7-.3v-1.6c0-3.8-2-5.7-6-5.7-3 0-6.6.9-10.7 2.7l-3.5-7c4.4-2.2 9.3-3.3 14.6-3.3 5.4 0 9 1.1 11.8 3.3 2.7 2.2 4.1 5.5 4.1 10v25h-7.3Zm-3-17.4-4 .2c-3 0-5.3.6-6.8 1.6s-2.2 2.5-2.2 4.5c0 2.9 1.7 4.3 5 4.3a8 8 0 0 0 5.8-2 7.2 7.2 0 0 0 2.2-5.5v-3ZM649 293h-10.3v-21.8c0-2.7-.5-4.7-1.5-6-1-1.4-2.5-2-4.6-2-3 0-5 .9-6.3 2.8-1.3 1.9-2 5-2 9.4V293H614v-37.3h7.9l1.4 4.8h.6c1.1-1.8 2.7-3.2 4.7-4.1 2-1 4.4-1.4 7-1.4 4.3 0 7.7 1.2 10 3.5 2.3 2.4 3.4 5.8 3.4 10.2V293Zm44-37.3v5.2l-5.9 1.6c1 1.6 1.6 3.5 1.6 5.6 0 4-1.4 7.2-4.2 9.5a18.3 18.3 0 0 1-11.8 3.4l-1.8-.1-1.5-.2c-1.1.8-1.6 1.7-1.6 2.7 0 1.5 1.9 2.2 5.6 2.2h6.4c4.2 0 7.3 1 9.5 2.7 2.2 1.8 3.3 4.4 3.3 7.8 0 4.4-1.9 7.8-5.6 10.3-3.6 2.4-9 3.6-15.8 3.6a22 22 0 0 1-12-2.8 8.7 8.7 0 0 1-4.2-7.7 8 8 0 0 1 2.1-5.7 12 12 0 0 1 6.3-3.2c-1-.5-2-1.2-2.8-2.2-.8-1-1.2-2.1-1.2-3.3 0-1.4.4-2.6 1.3-3.6.8-1 2-1.9 3.6-2.8-2-.8-3.6-2.2-4.7-4.1a12.5 12.5 0 0 1-1.8-6.7c0-4.1 1.4-7.3 4-9.5 2.7-2.3 6.5-3.4 11.5-3.4a29.4 29.4 0 0 1 6.5.7H693Zm-29 43c0 1.5.6 2.6 2 3.4a11 11 0 0 0 5.7 1.2c3.6 0 6.5-.5 8.6-1.5 2.1-1 3.2-2.4 3.2-4.2 0-1.4-.7-2.4-1.9-3-1.2-.4-3.1-.7-5.7-.7h-5.4a8 8 0 0 0-4.7 1.3c-1.3 1-1.9 2-1.9 3.5Zm3.6-30.6c0 2 .5 3.6 1.4 4.8 1 1.2 2.4 1.8 4.3 1.8 2 0 3.4-.6 4.3-1.8a7.9 7.9 0 0 0 1.3-4.8c0-4.6-1.9-6.9-5.6-6.9-3.7 0-5.7 2.3-5.7 6.9ZM709 294h-10v-53h10zm34.7-.7-2-5h-.2a15.3 15.3 0 0 1-5.5 4.4c-1.8.9-4.2 1.3-7.2 1.3-3.7 0-6.5-1-8.6-3-2.1-2.2-3.2-5-3.2-8.9 0-3.8 1.4-7 4.2-8.8a24 24 0 0 1 12.8-3.1l6.7-.3v-1.6c0-3.8-2-5.7-6-5.7-3 0-6.6.9-10.7 2.7l-3.5-7c4.4-2.2 9.3-3.3 14.6-3.3 5.4 0 9 1.1 11.8 3.3 2.7 2.2 4.1 5.5 4.1 10v25h-7.3Zm-3-17.4-4 .2c-3 0-5.3.6-6.8 1.6s-2.2 2.5-2.2 4.5c0 2.9 1.7 4.3 5 4.3a8 8 0 0 0 5.8-2 7.2 7.2 0 0 0 2.2-5.5v-3Zm32.4 18.1a12 12 0 0 1-10.3-5.1 23.7 23.7 0 0 1-3.8-14.3c0-6 1.3-11 3.8-14.4 2.6-3.5 6.1-5.2 10.6-5.2 4.7 0 8.3 1.9 10.8 5.5h.3c-.5-2.8-.7-5.3-.7-7.5v-12H794v52.3h-7.8l-2-4.9h-.4A11.7 11.7 0 0 1 773 294Zm3.6-8.2c2.6 0 4.5-.7 5.8-2.3 1.2-1.5 1.8-4 2-7.7v-1.1c0-4-.7-7-1.9-8.7-1.2-1.8-3.3-2.6-6-2.6a6 6 0 0 0-5.4 2.9c-1.2 2-1.9 4.7-1.9 8.4s.7 6.5 2 8.4a6 6 0 0 0 5.4 2.7Zm45.8 8.2c-6.1 0-10.9-1.7-14.3-5-3.5-3.4-5.2-8-5.2-14.2a21 21 0 0 1 4.8-14.6A17 17 0 0 1 821 255c5.6 0 9.5 1.5 12.5 4.5s4.5 7.3 4.5 12.6v5h-24.5c.1 2.9 1 5.2 2.6 6.8 1.6 1.6 4 2.5 6.9 2.5a28.8 28.8 0 0 0 12.9-3v8c-1.9.8-3.8 1.5-5.8 2a41 41 0 0 1-7.6.6Zm-1.5-31.7c-2.2 0-3.9.7-5.1 2a9.5 9.5 0 0 0-2.2 6h14.6c0-2.6-.7-4.6-2-6a7 7 0 0 0-5.3-2Zm52 19.9c0 3.8-1.4 6.8-4 8.8a21 21 0 0 1-12.3 3 35.5 35.5 0 0 1-12.6-2.2v-8.5a36.6 36.6 0 0 0 13 3.2c3.7 0 5.6-1 5.6-3.2 0-.8-.2-1.5-.7-2l-2.6-1.7a67 67 0 0 0-5-2.3 31 31 0 0 1-6.5-3.3 9.5 9.5 0 0 1-3-3.6 12 12 0 0 1-.9-4.9c0-3.3 1.3-6 4-7.8 2.6-1.8 6.3-2.7 11.2-2.7 4.8 0 9 1 13.4 3l-3.2 7.4-5.3-2a18 18 0 0 0-5.1-.8c-3.1 0-4.6.8-4.6 2.5 0 .9.5 1.7 1.4 2.3a41 41 0 0 0 6.6 3 27 27 0 0 1 6.5 3.4c1.4 1 2.4 2.2 3.1 3.5.7 1.4 1 3 1 4.8Zm43 11.8h-10.3v-22.2c0-5.5-2-8.3-6.1-8.3-3 0-5 1-6.3 3a18 18 0 0 0-2 9.6V294H881v-53h10.3v10.8l-.2 6-.2 3h.5c2.3-3.7 6-5.6 11-5.6 4.5 0 7.8 1.2 10.1 3.6 2.3 2.4 3.5 5.9 3.5 10.4V294Zm38-53h7v68h-7zm79 41.8h-6V293h-10v-10.2h-21v-7.2l21.5-31.6h9.6v30.8h5.9v8Zm-16-8v-8.3a152 152 0 0 1 .4-10.6h-.3c-.8 1.8-1.8 3.6-3 5.3l-9 13.6h11.9Zm57 8h-6V293h-10v-10.2h-21v-7.2l21.5-31.6h9.6v30.8h5.9v8Zm-16-8v-8.3a152 152 0 0 1 .4-10.6h-.3c-.8 1.8-1.8 3.6-3 5.3l-9 13.6h11.9Zm73.6 18.2h-10.2v-21.8a11 11 0 0 0-1.4-6c-.9-1.4-2.3-2-4.3-2-2.6 0-4.5.9-5.7 2.8-1.2 2-1.8 5-1.8 9.5V293H1098v-37.3h7.8l1.4 4.8h.6c1-1.7 2.4-3 4.3-4 2-1 4.1-1.5 6.6-1.5 5.6 0 9.4 1.8 11.4 5.5h.9c1-1.8 2.5-3.1 4.4-4 2-1 4.2-1.5 6.7-1.5 4.2 0 7.4 1 9.6 3.3 2.2 2.1 3.3 5.6 3.3 10.4V293h-10.3v-21.8a11 11 0 0 0-1.3-6c-1-1.4-2.4-2-4.3-2-2.5 0-4.4.8-5.6 2.6-1.3 1.8-1.9 4.6-1.9 8.5V293Zm34.4-47c0-3.3 1.8-5 5.5-5s5.5 1.7 5.5 5a5 5 0 0 1-1.4 3.8c-.9 1-2.3 1.4-4.1 1.4-3.7 0-5.5-1.7-5.5-5.1Zm10.5 48h-10v-38h10v38Zm20.5 0h-10v-53h10zm21 0h-10v-53h10zm10-48c0-3.3 1.8-5 5.5-5s5.5 1.7 5.5 5a5 5 0 0 1-1.4 3.8c-.9 1-2.3 1.4-4.1 1.4-3.7 0-5.5-1.7-5.5-5.1Zm10.5 48h-10v-38h10v38Zm45.5-19.5a20 20 0 0 1-5 14.3 18 18 0 0 1-13.6 5.2c-3.7 0-6.9-.8-9.7-2.4a15 15 0 0 1-6.4-6.8c-1.5-3-2.3-6.4-2.3-10.4a20 20 0 0 1 4.9-14.3 18 18 0 0 1 13.7-5.1c3.7 0 6.9.8 9.7 2.4 2.8 1.5 5 3.8 6.4 6.7 1.5 3 2.3 6.4 2.3 10.3Zm-26.4 0c0 3.7.6 6.5 1.9 8.4 1.2 1.9 3.2 2.9 6 2.9s4.8-1 6-2.9c1.2-1.9 1.8-4.7 1.8-8.4 0-3.8-.6-6.6-1.8-8.4-1.2-1.9-3.2-2.8-6-2.8s-4.8 1-6 2.8a15.3 15.3 0 0 0-1.9 8.4ZM1327 293h-10.3v-21.8c0-2.7-.5-4.7-1.5-6-1-1.4-2.5-2-4.6-2-3 0-5 .9-6.3 2.8-1.3 1.9-2 5-2 9.4V293H1292v-37.3h7.9l1.4 4.8h.6c1.1-1.8 2.7-3.2 4.7-4.1 2-1 4.4-1.4 7-1.4 4.3 0 7.7 1.2 10 3.5 2.3 2.4 3.4 5.8 3.4 10.2V293Zm-815.6 67.8c-4 0-7 1.4-9.2 4.4-2.2 3-3.3 7.1-3.3 12.5 0 11 4.2 16.5 12.5 16.5 3.5 0 7.7-.8 12.7-2.6v8.9c-4 1.6-8.6 2.5-13.7 2.5-7.2 0-12.8-2.2-16.6-6.6-3.9-4.3-5.8-10.6-5.8-18.8 0-5.2 1-9.7 2.8-13.6a21.4 21.4 0 0 1 20.6-12 34 34 0 0 1 14.6 3.5l-3.4 8.5-5.6-2.3a17 17 0 0 0-5.6-1ZM569 402h-10.3v-22.2c0-5.5-2-8.3-6.1-8.3-3 0-5 1-6.3 3a18 18 0 0 0-2 9.6V402H534v-53h10.3v10.8l-.2 6-.2 3h.5c2.3-3.7 6-5.6 11-5.6 4.5 0 7.8 1.2 10.1 3.6 2.3 2.4 3.5 5.9 3.5 10.4V402Zm10-48c0-3.3 1.8-5 5.5-5s5.5 1.7 5.5 5a5 5 0 0 1-1.4 3.8c-.9 1-2.3 1.4-4.1 1.4-3.7 0-5.5-1.7-5.5-5.1Zm10.5 48h-10v-38h10v38Zm45.5 0h-10.3v-21.8c0-2.7-.5-4.7-1.5-6-1-1.4-2.5-2-4.6-2-3 0-5 .9-6.3 2.8-1.3 1.9-2 5-2 9.4V402H600v-37.3h7.9l1.4 4.8h.6c1.1-1.8 2.7-3.2 4.7-4.1 2-1 4.4-1.4 7-1.4 4.3 0 7.7 1.2 10 3.5 2.3 2.4 3.4 5.8 3.4 10.2V402Zm34.7.3-2-5h-.2a15.3 15.3 0 0 1-5.5 4.4c-1.8.9-4.2 1.3-7.2 1.3-3.7 0-6.5-1-8.6-3-2.1-2.2-3.2-5-3.2-8.9 0-3.8 1.4-7 4.2-8.8a24 24 0 0 1 12.8-3.1l6.7-.3v-1.6c0-3.8-2-5.7-6-5.7-3 0-6.6.9-10.7 2.7l-3.5-7c4.4-2.2 9.3-3.3 14.6-3.3 5.4 0 9 1.1 11.8 3.3 2.7 2.2 4.1 5.5 4.1 10v25h-7.3Zm-3-17.4-4 .2c-3 0-5.3.6-6.8 1.6s-2.2 2.5-2.2 4.5c0 2.9 1.7 4.3 5 4.3a8 8 0 0 0 5.8-2 7.2 7.2 0 0 0 2.2-5.5v-3ZM716 350h7v68h-7zm79 41.8h-6V402h-10v-10.2h-21v-7.2l21.5-31.6h9.6v30.8h5.9v8Zm-16-8v-8.3a152 152 0 0 1 .4-10.6h-.3c-.8 1.8-1.8 3.6-3 5.3l-9 13.6H779Zm54 18.2h-34.9v-7.2l12.6-12.6c3.7-3.7 6-6.3 7.2-7.8 1.2-1.4 2-2.8 2.5-4 .5-1.2.7-2.5.7-3.8 0-2-.5-3.5-1.6-4.5a6.5 6.5 0 0 0-4.4-1.4c-2 0-3.9.4-5.7 1.3a29 29 0 0 0-5.7 3.8L798 359c2.5-2 4.5-3.5 6.1-4.3a22.7 22.7 0 0 1 11.7-2.7c3.1 0 5.9.6 8.3 1.7a12.4 12.4 0 0 1 7.5 11.7c0 2.2-.4 4.3-1.2 6.3-.8 2-2 4-3.8 6.2a94 94 0 0 1-9 8.9l-6.3 6v.4H833v8.8Zm59.6 0h-10.2v-21.8a11 11 0 0 0-1.4-6c-.9-1.4-2.3-2-4.3-2-2.6 0-4.5.9-5.7 2.8-1.2 2-1.8 5-1.8 9.5V402H859v-37.3h7.8l1.4 4.8h.6c1-1.7 2.4-3 4.3-4 2-1 4.1-1.5 6.6-1.5 5.6 0 9.4 1.8 11.4 5.5h.9c1-1.8 2.5-3.1 4.4-4 2-1 4.2-1.5 6.7-1.5 4.2 0 7.4 1 9.6 3.3 2.2 2.1 3.3 5.6 3.3 10.4V402h-10.3v-21.8a11 11 0 0 0-1.3-6c-1-1.4-2.4-2-4.3-2-2.5 0-4.4.8-5.6 2.6-1.3 1.8-1.9 4.6-1.9 8.5V402Zm33.4-48c0-3.3 1.8-5 5.5-5s5.5 1.7 5.5 5a5 5 0 0 1-1.4 3.8c-.9 1-2.3 1.4-4.1 1.4-3.7 0-5.5-1.7-5.5-5.1Zm10.5 48h-10v-38h10v38Zm20.5 0h-10v-53h10zm21 0h-10v-53h10zm11-48c0-3.3 1.8-5 5.5-5s5.5 1.7 5.5 5a5 5 0 0 1-1.4 3.8c-.9 1-2.3 1.4-4.1 1.4-3.7 0-5.5-1.7-5.5-5.1Zm10.5 48h-10v-38h10v38Zm44.5-18.5a20 20 0 0 1-5 14.3 18 18 0 0 1-13.6 5.2c-3.7 0-6.9-.8-9.7-2.4a15 15 0 0 1-6.4-6.8c-1.5-3-2.3-6.4-2.3-10.4a20 20 0 0 1 4.9-14.3 18 18 0 0 1 13.7-5.1c3.7 0 6.9.8 9.7 2.4 2.8 1.5 5 3.8 6.4 6.7 1.5 3 2.3 6.4 2.3 10.3Zm-26.4 0c0 3.7.6 6.5 1.9 8.4 1.2 1.9 3.2 2.9 6 2.9s4.8-1 6-2.9c1.2-1.9 1.8-4.7 1.8-8.4 0-3.8-.6-6.6-1.8-8.4-1.2-1.9-3.2-2.8-6-2.8s-4.8 1-6 2.8a15.3 15.3 0 0 0-1.9 8.4ZM1088 402h-10.3v-21.8c0-2.7-.5-4.7-1.5-6-1-1.4-2.5-2-4.6-2-3 0-5 .9-6.3 2.8-1.3 1.9-2 5-2 9.4V402H1053v-37.3h7.9l1.4 4.8h.6c1.1-1.8 2.7-3.2 4.7-4.1 2-1 4.4-1.4 7-1.4 4.3 0 7.7 1.2 10 3.5 2.3 2.4 3.4 5.8 3.4 10.2V402ZM517 510h-13.4l-21.5-37h-.3c.4 6.5.6 11.1.6 14v23H473v-49h13.3l21.5 36.7h.2l-.5-13.5V461h9.5v49Zm11-47c0-3.3 1.8-5 5.5-5s5.5 1.7 5.5 5a5 5 0 0 1-1.4 3.8c-.9 1-2.3 1.4-4.1 1.4-3.7 0-5.5-1.7-5.5-5.1Zm10.5 48h-10v-38h10v38Zm43.5-38.3v5.2l-5.9 1.6c1 1.6 1.6 3.5 1.6 5.6 0 4-1.4 7.2-4.2 9.5a18.3 18.3 0 0 1-11.8 3.4l-1.8-.1-1.5-.2c-1.1.8-1.6 1.7-1.6 2.7 0 1.5 1.9 2.2 5.6 2.2h6.4c4.2 0 7.3 1 9.5 2.7 2.2 1.8 3.3 4.4 3.3 7.8 0 4.4-1.9 7.8-5.6 10.3-3.6 2.4-9 3.6-15.8 3.6a22 22 0 0 1-12-2.8 8.7 8.7 0 0 1-4.2-7.7 8 8 0 0 1 2.1-5.7 12 12 0 0 1 6.3-3.2c-1-.5-2-1.2-2.8-2.2-.8-1-1.2-2.1-1.2-3.3 0-1.4.4-2.6 1.3-3.6.8-1 2-1.9 3.6-2.8-2-.8-3.6-2.2-4.7-4.1a12.5 12.5 0 0 1-1.8-6.7c0-4.1 1.4-7.3 4-9.5 2.7-2.3 6.5-3.4 11.5-3.4a29.4 29.4 0 0 1 6.5.7H582Zm-29 43c0 1.5.6 2.6 2 3.4a11 11 0 0 0 5.7 1.2c3.6 0 6.5-.5 8.6-1.5 2.1-1 3.2-2.4 3.2-4.2 0-1.4-.7-2.4-1.9-3-1.2-.4-3.1-.7-5.7-.7h-5.4a8 8 0 0 0-4.7 1.3c-1.3 1-1.9 2-1.9 3.5Zm3.6-30.6c0 2 .5 3.6 1.4 4.8 1 1.2 2.4 1.8 4.3 1.8 2 0 3.4-.6 4.3-1.8a7.9 7.9 0 0 0 1.3-4.8c0-4.6-1.9-6.9-5.6-6.9-3.7 0-5.7 2.3-5.7 6.9Zm47.9 25.9c-6.1 0-10.9-1.7-14.3-5-3.5-3.4-5.2-8-5.2-14.2a21 21 0 0 1 4.8-14.6A17 17 0 0 1 603 472c5.6 0 9.5 1.5 12.5 4.5s4.5 7.3 4.5 12.6v5h-24.5c.1 2.9 1 5.2 2.6 6.8 1.6 1.6 4 2.5 6.9 2.5a28.8 28.8 0 0 0 12.9-3v8c-1.9.8-3.8 1.5-5.8 2a41 41 0 0 1-7.6.6Zm-1.5-31.7c-2.2 0-3.9.7-5.1 2a9.5 9.5 0 0 0-2.2 6h14.6c0-2.6-.7-4.6-2-6a7 7 0 0 0-5.3-2Zm46.5-7.3c1.4 0 2.6.1 3.5.3l-.8 9.5c-.8-.2-1.9-.3-3-.3-3.4 0-6 .8-8 2.5a9 9 0 0 0-2.7 7v19H628v-37.3h8l1.5 6.3h.5c1.2-2.1 2.8-3.8 4.8-5 2-1.4 4.3-2 6.7-2Zm9.5-9c0-3.3 1.8-5 5.5-5s5.5 1.7 5.5 5a5 5 0 0 1-1.4 3.8c-.9 1-2.3 1.4-4.1 1.4-3.7 0-5.5-1.7-5.5-5.1Zm10.5 48h-10v-38h10v38Zm35.2-.7-2-5h-.2a15.3 15.3 0 0 1-5.5 4.4c-1.8.9-4.2 1.3-7.2 1.3-3.7 0-6.5-1-8.6-3-2.1-2.2-3.2-5-3.2-8.9 0-3.8 1.4-7 4.2-8.8a24 24 0 0 1 12.8-3.1l6.7-.3v-1.6c0-3.8-2-5.7-6-5.7-3 0-6.6.9-10.7 2.7l-3.5-7c4.4-2.2 9.3-3.3 14.6-3.3 5.4 0 9 1.1 11.8 3.3 2.7 2.2 4.1 5.5 4.1 10v25h-7.3Zm-3-17.4-4 .2c-3 0-5.3.6-6.8 1.6s-2.2 2.5-2.2 4.5c0 2.9 1.7 4.3 5 4.3a8 8 0 0 0 5.8-2 7.2 7.2 0 0 0 2.2-5.5v-3ZM750 458h7v68h-7zm79 41.8h-6V510h-10v-10.2h-21v-7.2l21.5-31.6h9.6v30.8h5.9v8Zm-16-8v-8.3a152 152 0 0 1 .4-10.6h-.3c-.8 1.8-1.8 3.6-3 5.3l-9 13.6H813Zm44 18.2h-10.2v-33l.2-5.1a53 53 0 0 1-3.5 3.4l-5.6 4.5-4.9-6.2 15.6-12.6h8.4v49Zm67.6 0h-10.2v-21.8a11 11 0 0 0-1.4-6c-.9-1.4-2.3-2-4.3-2-2.6 0-4.5.9-5.7 2.8-1.2 2-1.8 5-1.8 9.5V510H891v-37.3h7.8l1.4 4.8h.6c1-1.7 2.4-3 4.3-4 2-1 4.1-1.5 6.6-1.5 5.6 0 9.4 1.8 11.4 5.5h.9c1-1.8 2.5-3.1 4.4-4 2-1 4.2-1.5 6.7-1.5 4.2 0 7.4 1 9.6 3.3 2.2 2.1 3.3 5.6 3.3 10.4V510h-10.3v-21.8a11 11 0 0 0-1.3-6c-1-1.4-2.4-2-4.3-2-2.5 0-4.4.8-5.6 2.6-1.3 1.8-1.9 4.6-1.9 8.5V510Zm34.4-47c0-3.3 1.8-5 5.5-5s5.5 1.7 5.5 5a5 5 0 0 1-1.4 3.8c-.9 1-2.3 1.4-4.1 1.4-3.7 0-5.5-1.7-5.5-5.1Zm10.5 48h-10v-38h10v38Zm20.5 0h-10v-53h10zm21 0h-10v-53h10zm11-48c0-3.3 1.8-5 5.5-5s5.5 1.7 5.5 5a5 5 0 0 1-1.4 3.8c-.9 1-2.3 1.4-4.1 1.4-3.7 0-5.5-1.7-5.5-5.1Zm10.5 48h-10v-38h10v38Zm44.5-19.5a20 20 0 0 1-5 14.3 18 18 0 0 1-13.6 5.2c-3.7 0-6.9-.8-9.7-2.4a15 15 0 0 1-6.4-6.8c-1.5-3-2.3-6.4-2.3-10.4a20 20 0 0 1 4.9-14.3 18 18 0 0 1 13.7-5.1c3.7 0 6.9.8 9.7 2.4 2.8 1.5 5 3.8 6.4 6.7 1.5 3 2.3 6.4 2.3 10.3Zm-26.4 0c0 3.7.6 6.5 1.9 8.4 1.2 1.9 3.2 2.9 6 2.9s4.8-1 6-2.9c1.2-1.9 1.8-4.7 1.8-8.4 0-3.8-.6-6.6-1.8-8.4-1.2-1.9-3.2-2.8-6-2.8s-4.8 1-6 2.8a15.3 15.3 0 0 0-1.9 8.4ZM1121 510h-10.3v-21.8c0-2.7-.5-4.7-1.5-6-1-1.4-2.5-2-4.6-2-3 0-5 .9-6.3 2.8-1.3 1.9-2 5-2 9.4V510H1086v-37.3h7.9l1.4 4.8h.6c1.1-1.8 2.7-3.2 4.7-4.1 2-1 4.4-1.4 7-1.4 4.3 0 7.7 1.2 10 3.5 2.3 2.4 3.4 5.8 3.4 10.2V510ZM357 619h-28v-49h28v8.5h-17.7v10.8h16.5v8.5h-16.5v12.6H357v8.6zm25.6-7.1c1.8 0 3.9-.4 6.4-1.2v7.6a23 23 0 0 1-9.4 1.7c-4 0-7-1-9-3-1.8-2.2-2.7-5.2-2.7-9.4v-18H363v-4.3l5.6-3.4 3-7.9h6.5v8h10.5v7.6h-10.5v18c0 1.5.4 2.5 1.2 3.2.9.7 2 1 3.3 1ZM432 620h-10.3v-22.2c0-5.5-2-8.3-6.1-8.3-3 0-5 1-6.3 3a18 18 0 0 0-2 9.6V620H397v-53h10.3v10.8l-.2 6-.2 3h.5c2.3-3.7 6-5.6 11-5.6 4.5 0 7.8 1.2 10.1 3.6 2.3 2.4 3.5 5.9 3.5 10.4V620Zm10-48c0-3.3 1.8-5 5.5-5s5.5 1.7 5.5 5a5 5 0 0 1-1.4 3.8c-.9 1-2.3 1.4-4.1 1.4-3.7 0-5.5-1.7-5.5-5.1Zm10.5 48h-10v-38h10v38Zm45.5-19.5a20 20 0 0 1-5 14.3 18 18 0 0 1-13.6 5.2c-3.7 0-6.9-.8-9.7-2.4a15 15 0 0 1-6.4-6.8c-1.5-3-2.3-6.4-2.3-10.4a20 20 0 0 1 4.9-14.3 18 18 0 0 1 13.7-5.1c3.7 0 6.9.8 9.7 2.4 2.8 1.5 5 3.8 6.4 6.7 1.5 3 2.3 6.4 2.3 10.3Zm-26.4 0c0 3.7.6 6.5 1.9 8.4 1.2 1.9 3.2 2.9 6 2.9s4.8-1 6-2.9c1.2-1.9 1.8-4.7 1.8-8.4 0-3.8-.6-6.6-1.8-8.4-1.2-1.9-3.2-2.8-6-2.8s-4.8 1-6 2.8a15.3 15.3 0 0 0-1.9 8.4Zm55 19.5c-4.4 0-7.9-1.5-10.4-4.7h-.5l.5 5.4V636H506v-54.3h8.3l1.5 4.9h.4a12 12 0 0 1 10.7-5.6c4.4 0 7.8 1.7 10.3 5.2a24 24 0 0 1 3.8 14.3c0 4-.6 7.5-1.8 10.5-1.1 3-2.8 5.2-5 6.8a12.8 12.8 0 0 1-7.6 2.3Zm-3-30.8c-2.6 0-4.4.8-5.6 2.4-1.1 1.5-1.7 4.1-1.8 7.7v1.1c0 4 .6 7 1.8 8.7 1.2 1.8 3.1 2.7 5.7 2.7 4.6 0 6.9-3.8 6.9-11.4 0-3.8-.6-6.5-1.7-8.4a6 6 0 0 0-5.3-2.8ZM549 572c0-3.3 1.8-5 5.5-5s5.5 1.7 5.5 5a5 5 0 0 1-1.4 3.8c-.9 1-2.3 1.4-4.1 1.4-3.7 0-5.5-1.7-5.5-5.1Zm10.5 48h-10v-38h10v38Zm35.2-.7-2-5h-.2a15.3 15.3 0 0 1-5.5 4.4c-1.8.9-4.2 1.3-7.2 1.3-3.7 0-6.5-1-8.6-3-2.1-2.2-3.2-5-3.2-8.9 0-3.8 1.4-7 4.2-8.8a24 24 0 0 1 12.8-3.1l6.7-.3v-1.6c0-3.8-2-5.7-6-5.7-3 0-6.6.9-10.7 2.7l-3.5-7c4.4-2.2 9.3-3.3 14.6-3.3 5.4 0 9 1.1 11.8 3.3 2.7 2.2 4.1 5.5 4.1 10v25h-7.3Zm-3-17.4-4 .2c-3 0-5.3.6-6.8 1.6s-2.2 2.5-2.2 4.5c0 2.9 1.7 4.3 5 4.3a8 8 0 0 0 5.8-2 7.2 7.2 0 0 0 2.2-5.5v-3ZM640 567h7v68h-7zm75.6 13.8c0 3.1-1 5.7-2.8 8a14.4 14.4 0 0 1-7.9 4.4v.2c4 .5 7 1.7 9 3.6 2 2 3.1 4.6 3.1 7.9 0 4.7-1.7 8.5-5.1 11.1-3.5 2.7-8.4 4-14.7 4-5.4 0-10-.9-14.2-2.7v-9a31.7 31.7 0 0 0 13 3.4c3.5 0 6-.6 7.7-1.8 1.6-1.2 2.4-3 2.4-5.6 0-2.4-1-4-2.8-5-1.9-1-4.9-1.5-9-1.5h-3.7v-8h3.8c3.8 0 6.5-.5 8.3-1.5 1.8-1 2.6-2.7 2.6-5.2 0-3.7-2.3-5.6-7-5.6-1.6 0-3.2.3-4.9.8a24 24 0 0 0-5.5 2.8L683 574a26 26 0 0 1 16-4.9c5 0 9 1 12 3.1s4.5 5 4.5 8.7Zm42.4 13.8c0 8.6-1.4 15-4.3 19.2-2.9 4.1-7.3 6.2-13.2 6.2-6 0-10.2-2.1-13.1-6.4-3-4.3-4.4-10.7-4.4-19 0-8.4 1.4-15.2 4.3-19.4 2.8-4.1 7.2-6.2 13.2-6.2 5.9 0 10.1 2.2 13 6.5 3 4.3 4.5 10.7 4.5 19Zm-24.5 0c0 6 .5 10.4 1.6 13 1 2.6 2.9 4 5.4 4 2.5 0 4.2-1.4 5.3-4a37 37 0 0 0 1.7-13c0-6-.6-10.5-1.7-13.1-1.1-2.7-2.9-4-5.3-4-2.5 0-4.3 1.3-5.4 4-1 2.6-1.6 7-1.6 13Zm83.1 24.4h-10.2v-21.8a11 11 0 0 0-1.4-6c-.9-1.4-2.3-2-4.3-2-2.6 0-4.5.9-5.7 2.8-1.2 2-1.8 5-1.8 9.5V619H783v-37.3h7.8l1.4 4.8h.6c1-1.7 2.4-3 4.3-4 2-1 4.1-1.5 6.6-1.5 5.6 0 9.4 1.8 11.4 5.5h.9c1-1.8 2.5-3.1 4.4-4 2-1 4.2-1.5 6.7-1.5 4.2 0 7.4 1 9.6 3.3 2.2 2.1 3.3 5.6 3.3 10.4V619h-10.3v-21.8a11 11 0 0 0-1.3-6c-1-1.4-2.4-2-4.3-2-2.5 0-4.4.8-5.6 2.6-1.3 1.8-1.9 4.6-1.9 8.5V619Zm34.4-47c0-3.3 1.8-5 5.5-5s5.5 1.7 5.5 5a5 5 0 0 1-1.4 3.8c-.9 1-2.3 1.4-4.1 1.4-3.7 0-5.5-1.7-5.5-5.1Zm10.5 48h-10v-38h10v38Zm20.5 0h-10v-53h10zm21 0h-10v-53h10zm11-48c0-3.3 1.8-5 5.5-5s5.5 1.7 5.5 5a5 5 0 0 1-1.4 3.8c-.9 1-2.3 1.4-4.1 1.4-3.7 0-5.5-1.7-5.5-5.1Zm10.5 48h-10v-38h10v38Zm44.5-19.5a20 20 0 0 1-5 14.3 18 18 0 0 1-13.6 5.2c-3.7 0-6.9-.8-9.7-2.4a15 15 0 0 1-6.4-6.8c-1.5-3-2.3-6.4-2.3-10.4a20 20 0 0 1 4.9-14.3 18 18 0 0 1 13.7-5.1c3.7 0 6.9.8 9.7 2.4 2.8 1.5 5 3.8 6.4 6.7 1.5 3 2.3 6.4 2.3 10.3Zm-26.4 0c0 3.7.6 6.5 1.9 8.4 1.2 1.9 3.2 2.9 6 2.9s4.8-1 6-2.9c1.2-1.9 1.8-4.7 1.8-8.4 0-3.8-.6-6.6-1.8-8.4-1.2-1.9-3.2-2.8-6-2.8s-4.8 1-6 2.8a15.3 15.3 0 0 0-1.9 8.4ZM1013 619h-10.3v-21.8c0-2.7-.5-4.7-1.5-6-1-1.4-2.5-2-4.6-2-3 0-5 .9-6.3 2.8-1.3 1.9-2 5-2 9.4V619H978v-37.3h7.9l1.4 4.8h.6c1.1-1.8 2.7-3.2 4.7-4.1 2-1 4.4-1.4 7-1.4 4.3 0 7.7 1.2 10 3.5 2.3 2.4 3.4 5.8 3.4 10.2V619ZM212 726h-28v-49h28v8.5h-17.7v10.8h16.5v8.5h-16.5v12.6H212v8.6zm42-37.3v5.2l-5.9 1.6c1 1.6 1.6 3.5 1.6 5.6 0 4-1.4 7.2-4.2 9.5a18.3 18.3 0 0 1-11.8 3.4l-1.8-.1-1.5-.2c-1.1.8-1.6 1.7-1.6 2.7 0 1.5 1.9 2.2 5.6 2.2h6.4c4.2 0 7.3 1 9.5 2.7 2.2 1.8 3.3 4.4 3.3 7.8 0 4.4-1.9 7.8-5.6 10.3-3.6 2.4-9 3.6-15.8 3.6a22 22 0 0 1-12-2.8 8.7 8.7 0 0 1-4.2-7.7 8 8 0 0 1 2.1-5.7 12 12 0 0 1 6.3-3.2c-1-.5-2-1.2-2.8-2.2-.8-1-1.2-2.1-1.2-3.3 0-1.4.4-2.6 1.3-3.6.8-1 2-1.9 3.6-2.8-2-.8-3.6-2.2-4.7-4.1a12.5 12.5 0 0 1-1.8-6.7c0-4.1 1.4-7.3 4-9.5 2.7-2.3 6.5-3.4 11.5-3.4a29.4 29.4 0 0 1 6.5.7H254Zm-29 43c0 1.5.6 2.6 2 3.4a11 11 0 0 0 5.7 1.2c3.6 0 6.5-.5 8.6-1.5 2.1-1 3.2-2.4 3.2-4.2 0-1.4-.7-2.4-1.9-3-1.2-.4-3.1-.7-5.7-.7h-5.4a8 8 0 0 0-4.7 1.3 4 4 0 0 0-1.9 3.5Zm3.6-30.6c0 2 .5 3.6 1.4 4.8 1 1.2 2.4 1.8 4.3 1.8 2 0 3.4-.6 4.3-1.8a7.9 7.9 0 0 0 1.3-4.8c0-4.6-1.9-6.9-5.6-6.9-3.7 0-5.7 2.3-5.7 6.9ZM257 688h11.2l7 21.1c.7 1.8 1 4 1.3 6.5h.2c.2-2.3.7-4.5 1.4-6.5l7-21.1H296l-15.8 42.3c-1.5 4-3.6 6.8-6.2 8.8-2.7 2-5.9 2.9-9.5 2.9a23 23 0 0 1-5.2-.6v-8c1.3.2 2.6.3 4 .3 1.9 0 3.4-.5 4.8-1.6s2.4-2.8 3.2-5l.6-1.9L257 688Zm66.6 39c-4.4 0-7.9-1.5-10.4-4.7h-.5l.5 5.4V743H303v-54.3h8.3l1.5 4.9h.4a12 12 0 0 1 10.7-5.6c4.4 0 7.8 1.7 10.3 5.2a24 24 0 0 1 3.8 14.3c0 4-.6 7.5-1.8 10.5-1.1 3-2.8 5.2-5 6.8a12.8 12.8 0 0 1-7.6 2.3Zm-3-30.8c-2.6 0-4.4.8-5.6 2.4-1.1 1.5-1.7 4.1-1.8 7.7v1.1c0 4 .6 7 1.8 8.7 1.2 1.8 3.1 2.7 5.7 2.7 4.6 0 6.9-3.8 6.9-11.4 0-3.8-.6-6.5-1.7-8.4a6 6 0 0 0-5.3-2.8Zm42 21.7c1.8 0 3.9-.4 6.4-1.2v7.6a23 23 0 0 1-9.4 1.7c-4 0-7-1-9-3-1.8-2.2-2.7-5.2-2.7-9.4v-18H343v-4.3l5.6-3.4 3-7.9h6.5v8h10.5v7.6h-10.5v18c0 1.5.4 2.5 1.2 3.2.9.7 2 1 3.3 1ZM405 674h7v68h-7zm68 52h-10.2v-33l.2-5.1a53 53 0 0 1-3.5 3.4l-5.6 4.5-4.9-6.2 15.6-12.6h8.4v49Zm31.4-31.2a16 16 0 0 1 11.4 4c2.8 2.7 4.2 6.4 4.2 11 0 5.5-1.7 9.8-5.1 12.7-3.4 3-8.3 4.5-14.6 4.5a28 28 0 0 1-13.3-2.7v-9a27.8 27.8 0 0 0 13 3.2c6.3 0 9.5-2.6 9.5-7.8 0-5.2-3.3-7.5-9.9-7.5a24.6 24.6 0 0 0-7.5 1.2L488 702l1.8-25.1h26.8v8.8H499l-1 9.7 1.3-.2c1.3-.3 3-.5 5-.5Zm76.2 31.2h-10.2v-21.8a11 11 0 0 0-1.4-6c-.9-1.4-2.3-2-4.3-2-2.6 0-4.5.9-5.7 2.8-1.2 2-1.8 5-1.8 9.5V726H547v-37.3h7.8l1.4 4.8h.6c1-1.7 2.4-3 4.3-4 2-1 4.1-1.5 6.6-1.5 5.6 0 9.4 1.8 11.4 5.5h.9c1-1.8 2.5-3.1 4.4-4 2-1 4.2-1.5 6.7-1.5 4.2 0 7.4 1 9.6 3.3 2.2 2.1 3.3 5.6 3.3 10.4V726h-10.3v-21.8a11 11 0 0 0-1.3-6c-1-1.4-2.4-2-4.3-2-2.5 0-4.4.8-5.6 2.6-1.3 1.8-1.9 4.6-1.9 8.5V726Zm33.4-48c0-3.3 1.8-5 5.5-5s5.5 1.7 5.5 5a5 5 0 0 1-1.4 3.8c-.9 1-2.3 1.4-4.1 1.4-3.7 0-5.5-1.7-5.5-5.1Zm10.5 48h-10v-38h10v38Zm20.5 0h-10v-53h10zm21 0h-10v-53h10zm11-48c0-3.3 1.8-5 5.5-5s5.5 1.7 5.5 5a5 5 0 0 1-1.4 3.8c-.9 1-2.3 1.4-4.1 1.4-3.7 0-5.5-1.7-5.5-5.1Zm10.5 48h-10v-38h10v38Zm44.5-18.5a20 20 0 0 1-5 14.3 18 18 0 0 1-13.6 5.2c-3.7 0-6.9-.8-9.7-2.4a15 15 0 0 1-6.4-6.8c-1.5-3-2.3-6.4-2.3-10.4a20 20 0 0 1 4.9-14.3 18 18 0 0 1 13.7-5.1c3.7 0 6.9.8 9.7 2.4 2.8 1.5 5 3.8 6.4 6.7 1.5 3 2.3 6.4 2.3 10.3Zm-26.4 0c0 3.7.6 6.5 1.9 8.4 1.2 1.9 3.2 2.9 6 2.9s4.8-1 6-2.9c1.2-1.9 1.8-4.7 1.8-8.4 0-3.8-.6-6.6-1.8-8.4-1.2-1.9-3.2-2.8-6-2.8s-4.8 1-6 2.8a15.3 15.3 0 0 0-1.9 8.4ZM776 726h-10.3v-21.8c0-2.7-.5-4.7-1.5-6-1-1.4-2.5-2-4.6-2-3 0-5 .9-6.3 2.8-1.3 1.9-2 5-2 9.4V726H741v-37.3h7.9l1.4 4.8h.6c1.1-1.8 2.7-3.2 4.7-4.1 2-1 4.4-1.4 7-1.4 4.3 0 7.7 1.2 10 3.5 2.3 2.4 3.4 5.8 3.4 10.2V726Zm-569 85c0 8.1-2.3 14.3-7 18.6-4.6 4.3-11.3 6.4-20 6.4h-14v-49h15.5c8 0 14.3 2.1 18.8 6.3A23.2 23.2 0 0 1 207 811Zm-10.9.3c0-10.5-4.7-15.8-14-15.8h-5.6v32h4.5c10 0 15.1-5.5 15.1-16.2Zm36.4 25.7c-6.1 0-10.9-1.7-14.3-5-3.5-3.4-5.2-8-5.2-14.2a21 21 0 0 1 4.8-14.6A17 17 0 0 1 231 798c5.6 0 9.5 1.5 12.5 4.5s4.5 7.3 4.5 12.6v5h-24.5c.1 2.9 1 5.2 2.6 6.8 1.6 1.6 4 2.5 6.9 2.5a28.8 28.8 0 0 0 12.9-3v8c-1.9.8-3.8 1.5-5.8 2a41 41 0 0 1-7.6.6Zm-1.5-31.7c-2.2 0-3.9.7-5.1 2a9.5 9.5 0 0 0-2.2 6h14.6c0-2.6-.7-4.5-2-6a7 7 0 0 0-5.3-2Zm59.6 30.7h-10.2v-21.8a11 11 0 0 0-1.4-6c-.9-1.4-2.3-2-4.3-2-2.6 0-4.5.9-5.7 2.8-1.2 2-1.8 5-1.8 9.5V836H257v-37.3h7.8l1.4 4.8h.6c1-1.7 2.4-3 4.3-4 2-1 4.1-1.5 6.6-1.5 5.6 0 9.4 1.8 11.4 5.5h.9c1-1.8 2.5-3.1 4.4-4 2-1 4.2-1.5 6.7-1.5 4.2 0 7.4 1 9.6 3.3 2.2 2.1 3.3 5.6 3.3 10.4V836h-10.3v-21.8a11 11 0 0 0-1.3-6c-1-1.4-2.4-2-4.3-2-2.5 0-4.4.8-5.6 2.6-1.3 1.8-1.9 4.6-1.9 8.5V836Zm68.4-18.5a20 20 0 0 1-5 14.3 18 18 0 0 1-13.6 5.2c-3.7 0-6.9-.8-9.7-2.4a15 15 0 0 1-6.4-6.8c-1.5-3-2.3-6.4-2.3-10.4a20 20 0 0 1 4.9-14.3 18 18 0 0 1 13.7-5.1c3.7 0 6.9.8 9.7 2.4 2.8 1.5 5 3.8 6.4 6.7 1.5 3 2.3 6.4 2.3 10.3Zm-26.4 0c0 3.7.6 6.5 1.9 8.4 1.2 1.9 3.2 2.9 6 2.9s4.8-1 6-2.9c1.2-1.9 1.8-4.7 1.8-8.4 0-3.8-.6-6.6-1.8-8.4-1.2-1.9-3.2-2.8-6-2.8s-4.8 1-6 2.8a15.3 15.3 0 0 0-1.9 8.4Zm50.9 19.5c-11.7 0-17.5-6.4-17.5-19.3 0-6.4 1.6-11.3 4.8-14.6 3.1-3.4 7.7-5.1 13.6-5.1 4.3 0 8.2.9 11.6 2.6l-3 7.9c-1.6-.7-3.1-1.2-4.5-1.6a15 15 0 0 0-4.1-.6c-5.3 0-8 3.8-8 11.3 0 7.6 2.7 11 8 11a18 18 0 0 0 10.4-3.2v8.8a17 17 0 0 1-5 2.2 28 28 0 0 1-6.3.6Zm41-39c1.4 0 2.6.1 3.5.3l-.8 9.5c-.8-.2-1.9-.3-3-.3-3.4 0-6 .8-8 2.5a9 9 0 0 0-2.7 7v19H403v-37.3h8l1.5 6.3h.5c1.2-2.1 2.8-3.8 4.8-5 2-1.4 4.3-2 6.7-2Zm34.2 38.3-2-5h-.2a15.3 15.3 0 0 1-5.5 4.4c-1.8.9-4.2 1.3-7.2 1.3-3.7 0-6.5-1-8.6-3-2.1-2.2-3.2-5-3.2-8.9 0-3.8 1.4-7 4.2-8.8a24 24 0 0 1 12.8-3.1l6.7-.3v-1.6c0-3.8-2-5.7-6-5.7-3 0-6.6.9-10.7 2.7l-3.5-7c4.4-2.2 9.3-3.3 14.6-3.3 5.4 0 9 1.1 11.8 3.3 2.7 2.2 4.1 5.5 4.1 10v25h-7.3Zm-3-17.4-4 .2c-3 0-5.3.6-6.8 1.6s-2.2 2.5-2.2 4.5c0 2.9 1.7 4.3 5 4.3a8 8 0 0 0 5.8-2 7.2 7.2 0 0 0 2.2-5.5v-3Zm35.9 10c1.8 0 3.9-.4 6.4-1.2v7.6a23 23 0 0 1-9.4 1.7c-4 0-7-1-9-3-1.8-2.2-2.7-5.2-2.7-9.4v-18H472v-4.3l5.6-3.4 3-7.9h6.5v8h10.5v7.6h-10.5v18c0 1.5.4 2.5 1.2 3.2.9.7 2 1 3.3 1ZM506 789c0-3.3 1.8-5 5.5-5s5.5 1.7 5.5 5a5 5 0 0 1-1.4 3.8c-.9 1-2.3 1.4-4.1 1.4-3.7 0-5.5-1.7-5.5-5.1Zm10.5 48h-10v-38h10v38Zm26 0c-11.7 0-17.5-6.4-17.5-19.3 0-6.4 1.6-11.3 4.8-14.6 3.1-3.4 7.7-5.1 13.6-5.1 4.3 0 8.2.9 11.6 2.6l-3 7.9c-1.6-.7-3.1-1.2-4.5-1.6a15 15 0 0 0-4.1-.6c-5.3 0-8 3.8-8 11.3 0 7.6 2.7 11 8 11a18 18 0 0 0 10.4-3.2v8.8a17 17 0 0 1-5 2.2 28 28 0 0 1-6.3.6Zm48.8-19.8V836H581v-49h14.2c6.7 0 11.6 1.2 14.7 3.6 3.2 2.5 4.8 6.1 4.8 11a13 13 0 0 1-2.3 7.8c-1.6 2.2-3.9 4-6.8 5.2L620 836h-11.5L597 817.2h-5.5Zm0-8.4h3.4c3.3 0 5.7-.6 7.2-1.7 1.6-1 2.4-2.8 2.4-5.2 0-2.3-.8-4-2.4-5-1.6-.9-4-1.4-7.4-1.4h-3.2v13.3Zm51.2 28.2c-6.1 0-10.9-1.7-14.3-5-3.5-3.4-5.2-8-5.2-14.2a21 21 0 0 1 4.8-14.6A17 17 0 0 1 641 798c5.6 0 9.5 1.5 12.5 4.5s4.5 7.3 4.5 12.6v5h-24.5c.1 2.9 1 5.2 2.6 6.8 1.6 1.6 4 2.5 6.9 2.5a28.8 28.8 0 0 0 12.9-3v8c-1.9.8-3.8 1.5-5.8 2a41 41 0 0 1-7.6.6Zm-1.5-31.7c-2.2 0-3.9.7-5.1 2a9.5 9.5 0 0 0-2.2 6h14.6c0-2.6-.7-4.5-2-6a7 7 0 0 0-5.3-2Zm46.6 31.7c-4.4 0-7.9-1.5-10.4-4.7h-.5l.5 5.4V853H667v-54.3h8.3l1.5 4.9h.4a12 12 0 0 1 10.7-5.6c4.4 0 7.8 1.7 10.3 5.2a24 24 0 0 1 3.8 14.3c0 4-.6 7.5-1.8 10.5-1.1 3-2.8 5.2-5 6.8a12.8 12.8 0 0 1-7.6 2.3Zm-3-30.8c-2.6 0-4.4.8-5.6 2.4-1.1 1.5-1.7 4.1-1.8 7.7v1.1c0 4 .6 7 1.8 8.7 1.2 1.8 3.1 2.7 5.7 2.7 4.6 0 6.9-3.8 6.9-11.4 0-3.8-.6-6.5-1.7-8.4a6 6 0 0 0-5.3-2.8Zm52.4 30.1-1.3-4.7h-.6c-1 1.7-2.7 3-4.7 4s-4.3 1.4-7 1.4c-4.4 0-7.7-1.2-10-3.5-2.3-2.4-3.4-5.8-3.4-10.2V799h10.3v21.8c0 2.7.5 4.7 1.5 6 1 1.4 2.5 2 4.6 2 3 0 5-.9 6.3-2.8 1.3-1.9 2-5 2-9.4V799H745v37.3h-8Zm39.9-38.3c4.4 0 7.8 1.8 10.3 5.2a24 24 0 0 1 3.8 14.3c0 6-1.3 11-3.9 14.4-2.6 3.4-6 5.1-10.5 5.1s-7.9-1.6-10.4-4.8h-.7l-1.7 4.1H756V784h10.2v12.2c0 1.5-.1 4-.4 7.4h.4a12 12 0 0 1 10.7-5.6Zm-3.3 8.2c-2.6 0-4.4.8-5.6 2.4-1.1 1.5-1.7 4.1-1.8 7.7v1c0 4.1.6 7 1.8 8.8 1.2 1.7 3.1 2.6 5.7 2.6 2.1 0 3.8-1 5-3a15 15 0 0 0 1.9-8.4 15 15 0 0 0-1.9-8.3 5.9 5.9 0 0 0-5.1-2.8ZM809 837h-10v-53h10zm11-48c0-3.3 1.8-5 5.5-5s5.5 1.7 5.5 5a5 5 0 0 1-1.4 3.8c-.9 1-2.3 1.4-4.1 1.4-3.7 0-5.5-1.7-5.5-5.1Zm10.5 48h-10v-38h10v38Zm26 0c-11.7 0-17.5-6.4-17.5-19.3 0-6.4 1.6-11.3 4.8-14.6 3.1-3.4 7.7-5.1 13.6-5.1 4.3 0 8.2.9 11.6 2.6l-3 7.9c-1.6-.7-3.1-1.2-4.5-1.6a15 15 0 0 0-4.1-.6c-5.3 0-8 3.8-8 11.3 0 7.6 2.7 11 8 11a18 18 0 0 0 10.4-3.2v8.8a17 17 0 0 1-5 2.2 28 28 0 0 1-6.3.6Zm72.5-19.5a20 20 0 0 1-5 14.3 18 18 0 0 1-13.6 5.2c-3.7 0-6.9-.8-9.7-2.4a15 15 0 0 1-6.4-6.8c-1.5-3-2.3-6.4-2.3-10.4a20 20 0 0 1 4.9-14.3 18 18 0 0 1 13.7-5.1c3.7 0 6.9.8 9.7 2.4 2.8 1.5 5 3.8 6.4 6.7 1.5 3 2.3 6.4 2.3 10.3Zm-26.4 0c0 3.7.6 6.5 1.9 8.4 1.2 1.9 3.2 2.9 6 2.9s4.8-1 6-2.9c1.2-1.9 1.8-4.7 1.8-8.4 0-3.8-.6-6.6-1.8-8.4-1.2-1.9-3.2-2.8-6-2.8s-4.8 1-6 2.8a15.3 15.3 0 0 0-1.9 8.4Zm55.8-11.5h-8.7v30h-10.1v-30H934v-5l5.6-2.8v-2.8c0-4.3 1-7.4 3-9.4 2.2-2 5.5-3 10-3 3.6 0 6.7.5 9.4 1.6l-2.6 7.6c-2-.7-3.9-1-5.6-1-1.5 0-2.5.4-3.1 1.3-.7.9-1 2-1 3.3v2.4h8.8v7.7Zm40.2 22.9c1.8 0 3.9-.4 6.4-1.2v7.6a23 23 0 0 1-9.4 1.7c-4 0-7-1-9-3-1.8-2.2-2.7-5.2-2.7-9.4v-18H979v-4.3l5.6-3.4 3-7.9h6.5v8h10.5v7.6h-10.5v18c0 1.5.4 2.5 1.2 3.2.9.7 2 1 3.3 1Zm48.4 8.1h-10.3v-22.2c0-5.5-2-8.3-6.1-8.3-3 0-5 1-6.3 3a18 18 0 0 0-2 9.6V837H1012v-53h10.3v10.8l-.2 6-.2 3h.5c2.3-3.7 6-5.6 11-5.6 4.5 0 7.8 1.2 10.1 3.6 2.3 2.4 3.5 5.9 3.5 10.4V837Zm27.5 0c-6.1 0-10.9-1.7-14.3-5-3.5-3.4-5.2-8-5.2-14.2a21 21 0 0 1 4.8-14.6 17 17 0 0 1 13.2-5.2c5.6 0 9.5 1.5 12.5 4.5s4.5 7.3 4.5 12.6v5h-24.5c.1 2.9 1 5.2 2.6 6.8 1.6 1.6 4 2.5 6.9 2.5a28.8 28.8 0 0 0 12.9-3v8c-1.9.8-3.8 1.5-5.8 2a41 41 0 0 1-7.6.6Zm-1.5-31.7c-2.2 0-3.9.7-5.1 2a9.5 9.5 0 0 0-2.2 6h14.6c0-2.6-.7-4.5-2-6a7 7 0 0 0-5.3-2Zm65.4-10.6c-4 0-7 1.5-9.2 4.5-2.2 3-3.3 7.1-3.3 12.4 0 11.1 4.2 16.6 12.5 16.6 3.5 0 7.7-.8 12.7-2.6v8.9c-4 1.6-8.6 2.5-13.7 2.5-7.2 0-12.8-2.2-16.6-6.6-3.9-4.3-5.8-10.6-5.8-18.8 0-5.2 1-9.7 2.8-13.6 2-3.9 4.6-6.8 8.2-8.9 3.5-2 7.6-3.1 12.4-3.1a34 34 0 0 1 14.6 3.5l-3.4 8.5-5.6-2.3a17 17 0 0 0-5.6-1Zm57.6 22.8a20 20 0 0 1-5 14.3 18 18 0 0 1-13.6 5.2c-3.7 0-6.9-.8-9.7-2.4a15 15 0 0 1-6.4-6.8c-1.5-3-2.3-6.4-2.3-10.4a20 20 0 0 1 4.9-14.3 18 18 0 0 1 13.7-5.1c3.7 0 6.9.8 9.7 2.4 2.8 1.5 5 3.8 6.4 6.7 1.5 3 2.3 6.4 2.3 10.3Zm-26.4 0c0 3.7.6 6.5 1.9 8.4 1.2 1.9 3.2 2.9 6 2.9s4.8-1 6-2.9c1.2-1.9 1.8-4.7 1.8-8.4 0-3.8-.6-6.6-1.8-8.4-1.2-1.9-3.2-2.8-6-2.8s-4.8 1-6 2.8a15.3 15.3 0 0 0-1.9 8.4ZM1239 836h-10.3v-21.8c0-2.7-.5-4.7-1.5-6-1-1.4-2.5-2-4.6-2-3 0-5 .9-6.3 2.8-1.3 1.9-2 5-2 9.4V836H1204v-37.3h7.9l1.4 4.8h.6c1.1-1.8 2.7-3.2 4.7-4.1 2-1 4.4-1.4 7-1.4 4.3 0 7.7 1.2 10 3.5 2.3 2.4 3.4 5.8 3.4 10.2V836Zm43-37.3v5.2l-5.9 1.6c1 1.6 1.6 3.5 1.6 5.6 0 4-1.4 7.2-4.2 9.5a18.3 18.3 0 0 1-11.8 3.4l-1.8-.1-1.5-.2c-1.1.8-1.6 1.7-1.6 2.7 0 1.5 1.9 2.2 5.6 2.2h6.4c4.2 0 7.3 1 9.5 2.7 2.2 1.8 3.3 4.4 3.3 7.8 0 4.4-1.9 7.8-5.6 10.3-3.6 2.4-9 3.6-15.8 3.6a22 22 0 0 1-12-2.8 8.7 8.7 0 0 1-4.2-7.7 8 8 0 0 1 2.1-5.7 12 12 0 0 1 6.3-3.2c-1-.5-2-1.2-2.8-2.2-.8-1-1.2-2.1-1.2-3.3 0-1.4.4-2.6 1.3-3.6.8-1 2-1.9 3.6-2.8-2-.8-3.6-2.2-4.7-4.1a12.5 12.5 0 0 1-1.8-6.7c0-4.1 1.4-7.3 4-9.5 2.7-2.3 6.5-3.4 11.5-3.4a29.3 29.3 0 0 1 6.5.7h13.2Zm-29.1 43c0 1.5.7 2.6 2 3.4 1.4.8 3.3 1.2 5.8 1.2 3.6 0 6.5-.5 8.6-1.5 2.1-1 3.2-2.4 3.2-4.2 0-1.4-.7-2.4-1.9-3-1.2-.4-3.1-.7-5.7-.7h-5.4a8 8 0 0 0-4.7 1.3 4 4 0 0 0-1.9 3.5Zm3.7-30.6c0 2 .5 3.6 1.4 4.8 1 1.2 2.4 1.8 4.3 1.8 2 0 3.4-.6 4.3-1.8a7.9 7.9 0 0 0 1.3-4.8c0-4.6-1.9-6.9-5.6-6.9-3.7 0-5.7 2.3-5.7 6.9Zm65.4 6.4a20 20 0 0 1-5 14.3 18 18 0 0 1-13.6 5.2c-3.7 0-6.9-.8-9.7-2.4a15 15 0 0 1-6.4-6.8c-1.5-3-2.3-6.4-2.3-10.4a20 20 0 0 1 4.9-14.3 18 18 0 0 1 13.7-5.1c3.7 0 6.9.8 9.7 2.4 2.8 1.5 5 3.8 6.4 6.7 1.5 3 2.3 6.4 2.3 10.3Zm-26.4 0c0 3.7.6 6.5 1.9 8.4 1.2 1.9 3.2 2.9 6 2.9s4.8-1 6-2.9c1.2-1.9 1.8-4.7 1.8-8.4 0-3.8-.6-6.6-1.8-8.4-1.2-1.9-3.2-2.8-6-2.8s-4.8 1-6 2.8a15.3 15.3 0 0 0-1.9 8.4ZM1359 784h7v68h-7zm68 52h-10.2v-33l.2-5.1a53 53 0 0 1-3.5 3.4l-5.6 4.5-4.9-6.2 15.6-12.6h8.4v49Zm48-10.2h-6V836h-10v-10.2h-21v-7.2l21.5-31.6h9.6v30.8h5.9v8Zm-16-8v-8.3a152 152 0 0 1 .4-10.6h-.3c-.8 1.8-1.8 3.6-3 5.3l-9 13.6h11.9Zm74.6 18.2h-10.2v-21.8a11 11 0 0 0-1.4-6c-.9-1.4-2.3-2-4.3-2-2.6 0-4.5.9-5.7 2.8-1.2 2-1.8 5-1.8 9.5V836H1500v-37.3h7.8l1.4 4.8h.6c1-1.7 2.4-3 4.3-4 2-1 4.1-1.5 6.6-1.5 5.6 0 9.4 1.8 11.4 5.5h.9c1-1.8 2.5-3.1 4.4-4 2-1 4.2-1.5 6.7-1.5 4.2 0 7.4 1 9.6 3.3 2.2 2.1 3.3 5.6 3.3 10.4V836h-10.3v-21.8a11 11 0 0 0-1.3-6c-1-1.4-2.4-2-4.3-2-2.5 0-4.4.8-5.6 2.6-1.3 1.8-1.9 4.6-1.9 8.5V836Zm33.4-47c0-3.3 1.8-5 5.5-5s5.5 1.7 5.5 5a5 5 0 0 1-1.4 3.8c-.9 1-2.3 1.4-4.1 1.4-3.7 0-5.5-1.7-5.5-5.1Zm10.5 48h-10v-38h10v38Zm21.5 0h-10v-53h10zm20 0h-10v-53h10zm11-48c0-3.3 1.8-5 5.5-5s5.5 1.7 5.5 5a5 5 0 0 1-1.4 3.8c-.9 1-2.3 1.4-4.1 1.4-3.7 0-5.5-1.7-5.5-5.1Zm10.5 48h-10v-38h10v38Zm45.5-19.5a20 20 0 0 1-5 14.3 18 18 0 0 1-13.6 5.2c-3.7 0-6.9-.8-9.7-2.4a15 15 0 0 1-6.4-6.8c-1.5-3-2.3-6.4-2.3-10.4a20 20 0 0 1 4.9-14.3 18 18 0 0 1 13.7-5.1c3.7 0 6.9.8 9.7 2.4 2.8 1.5 5 3.8 6.4 6.7 1.5 3 2.3 6.4 2.3 10.3Zm-26.4 0c0 3.7.6 6.5 1.9 8.4 1.2 1.9 3.2 2.9 6 2.9s4.8-1 6-2.9c1.2-1.9 1.8-4.7 1.8-8.4 0-3.8-.6-6.6-1.8-8.4-1.2-1.9-3.2-2.8-6-2.8s-4.8 1-6 2.8a15.3 15.3 0 0 0-1.9 8.4ZM1729 836h-10.3v-21.8c0-2.7-.5-4.7-1.5-6-1-1.4-2.5-2-4.6-2-3 0-5 .9-6.3 2.8-1.3 1.9-2 5-2 9.4V836H1694v-37.3h7.9l1.4 4.8h.6c1.1-1.8 2.7-3.2 4.7-4.1 2-1 4.4-1.4 7-1.4 4.3 0 7.7 1.2 10 3.5 2.3 2.4 3.4 5.8 3.4 10.2V836ZM145 896h15.5a30 30 0 0 1 15.4 3c3.2 2 4.8 5 4.8 9.4 0 3-.7 5.3-2 7.2a8.4 8.4 0 0 1-5.6 3.4v.3c3.1.7 5.4 2 6.8 4a12 12 0 0 1 2.1 7.5c0 4.5-1.6 8-5 10.4a21.6 21.6 0 0 1-13.3 3.8H145v-49Zm10.6 19.4h6.1c2.9 0 5-.4 6.3-1.3 1.2-.9 1.9-2.3 1.9-4.3s-.7-3.3-2.1-4c-1.4-.9-3.6-1.3-6.7-1.3h-5.5v10.9Zm0 8.2v12.8h6.9c2.9 0 5-.5 6.4-1.6 1.4-1.1 2.1-2.8 2.1-5 0-4.1-3-6.2-8.9-6.2h-6.5Zm56.9-16.6c1.4 0 2.6.1 3.5.3l-.8 9.5c-.8-.2-1.9-.3-3-.3-3.4 0-6 .8-8 2.5a9 9 0 0 0-2.7 7v19H191v-37.3h8l1.5 6.3h.5c1.2-2.1 2.8-3.8 4.8-5 2-1.4 4.3-2 6.7-2Zm35.2 38.3-2-5h-.2a15.3 15.3 0 0 1-5.5 4.4c-1.8.9-4.2 1.3-7.2 1.3-3.7 0-6.5-1-8.6-3-2.1-2.2-3.2-5-3.2-8.9 0-3.8 1.4-7 4.2-8.8a24 24 0 0 1 12.8-3.1l6.7-.3v-1.6c0-3.8-2-5.7-6-5.7-3 0-6.6.9-10.7 2.7l-3.5-7c4.4-2.2 9.3-3.3 14.6-3.3 5.4 0 9 1.1 11.8 3.3 2.7 2.2 4.1 5.5 4.1 10v25h-7.3Zm-3-17.4-4 .2c-3 0-5.3.6-6.8 1.6s-2.2 2.5-2.2 4.5c0 2.9 1.7 4.3 5 4.3a8 8 0 0 0 5.8-2 7.2 7.2 0 0 0 2.2-5.5v-3ZM292 946h-30v-6.1l17.6-24h-16.5V908h28.3v6.7l-17.1 23.4H292v7.9zm8-48c0-3.3 1.8-5 5.5-5s5.5 1.7 5.5 5a5 5 0 0 1-1.4 3.8c-.9 1-2.3 1.4-4.1 1.4-3.7 0-5.5-1.7-5.5-5.1Zm10.5 48h-10v-38h10v38Zm20.5 0h-10v-53h10zm39-53h7v68h-7zm69 52h-10.2v-33l.2-5.1a53 53 0 0 1-3.5 3.4l-5.6 4.5-4.9-6.2 15.6-12.6h8.4v49Zm47 0h-34.9v-7.2l12.6-12.6c3.7-3.7 6-6.3 7.2-7.8 1.2-1.4 2-2.8 2.5-4 .5-1.2.7-2.5.7-3.8 0-2-.5-3.5-1.6-4.5a6.5 6.5 0 0 0-4.4-1.4c-2 0-3.9.4-5.7 1.3a29 29 0 0 0-5.7 3.8L451 902c2.5-2 4.5-3.5 6.1-4.3a22.7 22.7 0 0 1 11.7-2.7c3.1 0 5.9.6 8.3 1.7a12.4 12.4 0 0 1 7.5 11.7c0 2.2-.4 4.3-1.2 6.3-.8 2-2 4-3.8 6.2a94 94 0 0 1-9 8.9l-6.3 6v.4H486v8.8Zm59.6 0h-10.2v-21.8a11 11 0 0 0-1.4-6c-.9-1.4-2.3-2-4.3-2-2.6 0-4.5.9-5.7 2.8-1.2 2-1.8 5-1.8 9.5V945H512v-37.3h7.8l1.4 4.8h.6c1-1.7 2.4-3 4.3-4 2-1 4.1-1.5 6.6-1.5 5.6 0 9.4 1.8 11.4 5.5h.9c1-1.8 2.5-3.1 4.4-4 2-1 4.2-1.5 6.7-1.5 4.2 0 7.4 1 9.6 3.3 2.2 2.1 3.3 5.6 3.3 10.4V945h-10.3v-21.8a11 11 0 0 0-1.3-6c-1-1.4-2.4-2-4.3-2-2.5 0-4.4.8-5.6 2.6-1.3 1.8-1.9 4.6-1.9 8.5V945Zm33.4-47c0-3.3 1.8-5 5.5-5s5.5 1.7 5.5 5a5 5 0 0 1-1.4 3.8c-.9 1-2.3 1.4-4.1 1.4-3.7 0-5.5-1.7-5.5-5.1Zm10.5 48h-10v-38h10v38Zm20.5 0h-10v-53h10zm21 0h-10v-53h10zm11-48c0-3.3 1.8-5 5.5-5s5.5 1.7 5.5 5a5 5 0 0 1-1.4 3.8c-.9 1-2.3 1.4-4.1 1.4-3.7 0-5.5-1.7-5.5-5.1Zm10.5 48h-10v-38h10v38Zm44.5-19.5a20 20 0 0 1-5 14.3 18 18 0 0 1-13.6 5.2c-3.7 0-6.9-.8-9.7-2.4a15 15 0 0 1-6.4-6.8c-1.5-3-2.3-6.4-2.3-10.4a20 20 0 0 1 4.9-14.3 18 18 0 0 1 13.7-5.1c3.7 0 6.9.8 9.7 2.4 2.8 1.5 5 3.8 6.4 6.7 1.5 3 2.3 6.4 2.3 10.3Zm-26.4 0c0 3.7.6 6.5 1.9 8.4 1.2 1.9 3.2 2.9 6 2.9s4.8-1 6-2.9c1.2-1.9 1.8-4.7 1.8-8.4 0-3.8-.6-6.6-1.8-8.4-1.2-1.9-3.2-2.8-6-2.8s-4.8 1-6 2.8a15.3 15.3 0 0 0-1.9 8.4ZM741 945h-10.3v-21.8c0-2.7-.5-4.7-1.5-6-1-1.4-2.5-2-4.6-2-3 0-5 .9-6.3 2.8-1.3 1.9-2 5-2 9.4V945H706v-37.3h7.9l1.4 4.8h.6c1.1-1.8 2.7-3.2 4.7-4.1 2-1 4.4-1.4 7-1.4 4.3 0 7.7 1.2 10 3.5 2.3 2.4 3.4 5.8 3.4 10.2V945Zm-611 109v-49h10v49zm56 0h-10.3v-21.8c0-2.7-.5-4.7-1.5-6-1-1.4-2.5-2-4.6-2-3 0-5 .9-6.3 2.8-1.3 1.9-2 5-2 9.4v17.6H151v-37.3h7.9l1.4 4.8h.6c1.1-1.8 2.7-3.2 4.7-4.1 2-1 4.4-1.4 7-1.4 4.3 0 7.7 1.2 10 3.5 2.3 2.4 3.4 5.8 3.4 10.2v24.3Zm23.1 1a12 12 0 0 1-10.3-5.1 23.7 23.7 0 0 1-3.8-14.3c0-6 1.3-11 3.8-14.4 2.6-3.5 6.1-5.2 10.6-5.2 4.7 0 8.3 1.9 10.8 5.5h.3c-.5-2.8-.7-5.3-.7-7.5v-12H230v52.3h-7.8l-2-4.9h-.4a11.7 11.7 0 0 1-10.7 5.6Zm3.6-8.2c2.6 0 4.5-.7 5.8-2.3 1.2-1.5 1.8-4 2-7.7v-1.1c0-4-.7-7-1.9-8.7-1.2-1.8-3.3-2.6-6-2.6a6 6 0 0 0-5.4 2.9c-1.2 2-1.9 4.7-1.9 8.4s.7 6.5 2 8.4a6 6 0 0 0 5.4 2.7Zm62.3-11.3a20 20 0 0 1-5 14.3 18 18 0 0 1-13.6 5.2c-3.7 0-6.9-.8-9.7-2.4a15 15 0 0 1-6.4-6.8c-1.5-3-2.3-6.4-2.3-10.4a20 20 0 0 1 4.9-14.3 18 18 0 0 1 13.7-5.1c3.7 0 6.9.8 9.7 2.4 2.8 1.5 5 3.8 6.4 6.7 1.5 3 2.3 6.4 2.3 10.3Zm-26.4 0c0 3.7.6 6.5 1.9 8.4 1.2 1.9 3.2 2.9 6 2.9s4.8-1 6-2.9c1.2-1.9 1.8-4.7 1.8-8.4 0-3.8-.6-6.6-1.8-8.4-1.2-1.9-3.2-2.8-6-2.8s-4.8 1-6 2.8a15.3 15.3 0 0 0-1.9 8.4ZM318 1054h-10.3v-21.8c0-2.7-.5-4.7-1.5-6-1-1.4-2.5-2-4.6-2-3 0-5 .9-6.3 2.8-1.3 1.9-2 5-2 9.4v17.6H283v-37.3h7.9l1.4 4.8h.6c1.1-1.8 2.7-3.2 4.7-4.1 2-1 4.4-1.4 7-1.4 4.3 0 7.7 1.2 10 3.5 2.3 2.4 3.4 5.8 3.4 10.2v24.3Zm28.5 1c-6.1 0-10.9-1.7-14.3-5-3.5-3.4-5.2-8-5.2-14.2a21 21 0 0 1 4.8-14.6 17 17 0 0 1 13.2-5.2c5.6 0 9.5 1.5 12.5 4.5s4.5 7.3 4.5 12.6v5h-24.5c.1 2.9 1 5.2 2.6 6.8 1.6 1.6 4 2.5 6.9 2.5a28.8 28.8 0 0 0 12.9-3v8c-1.9.8-3.8 1.5-5.8 2a41 41 0 0 1-7.6.6Zm-1.5-31.7c-2.2 0-3.9.7-5.1 2a9.5 9.5 0 0 0-2.2 6h14.6c0-2.6-.7-4.5-2-6a7 7 0 0 0-5.3-2Zm52 19.9c0 3.8-1.4 6.8-4 8.8a21 21 0 0 1-12.3 3 35.5 35.5 0 0 1-12.6-2.2v-8.5a36.6 36.6 0 0 0 13 3.2c3.7 0 5.6-1 5.6-3.2 0-.8-.2-1.5-.7-2a11 11 0 0 0-2.6-1.7l-5-2.3a31 31 0 0 1-6.5-3.3 9.5 9.5 0 0 1-3-3.6 12 12 0 0 1-.9-5 9 9 0 0 1 4-7.7c2.6-1.8 6.3-2.7 11.2-2.7 4.8 0 9 1 13.4 3l-3.2 7.4-5.3-2a18 18 0 0 0-5.1-.8c-3.1 0-4.6.8-4.6 2.5 0 .9.5 1.7 1.4 2.3a41 41 0 0 0 6.6 3 27 27 0 0 1 6.5 3.4c1.4 1 2.4 2.2 3.1 3.5.7 1.4 1 3 1 4.9Zm7-37.2c0-3.3 1.8-5 5.5-5s5.5 1.7 5.5 5a5 5 0 0 1-1.4 3.8c-.9 1-2.3 1.4-4.1 1.4-3.7 0-5.5-1.7-5.5-5.1Zm10.5 48h-10v-38h10v38Zm35.2.3-2-5h-.2a15.3 15.3 0 0 1-5.5 4.4c-1.8.9-4.2 1.3-7.2 1.3-3.7 0-6.5-1-8.6-3-2.1-2.2-3.2-5-3.2-8.9 0-3.8 1.4-7 4.2-8.8a24 24 0 0 1 12.8-3.1l6.7-.3v-1.6c0-3.8-2-5.7-6-5.7-3 0-6.6.9-10.7 2.7l-3.5-7c4.4-2.2 9.3-3.3 14.6-3.3 5.4 0 9 1.1 11.8 3.3 2.7 2.2 4.1 5.5 4.1 10v25h-7.3Zm-3-17.4-4 .2c-3 0-5.3.6-6.8 1.6s-2.2 2.5-2.2 4.5c0 2.9 1.7 4.3 5 4.3a8 8 0 0 0 5.8-2 7.2 7.2 0 0 0 2.2-5.5v-3ZM495 1002h7v68h-7zm69 52h-10.2v-33l.2-5.1a53 53 0 0 1-3.5 3.4l-5.6 4.5-4.9-6.2 15.6-12.6h8.4v49Zm37 0h-10.2v-33l.2-5.1a53 53 0 0 1-3.5 3.4l-5.6 4.5-4.9-6.2 15.6-12.6h8.4v49Zm68.6 0h-10.2v-21.8a11 11 0 0 0-1.4-6c-.9-1.4-2.3-2-4.3-2-2.6 0-4.5.9-5.7 2.8-1.2 2-1.8 5-1.8 9.5v17.5H636v-37.3h7.8l1.4 4.8h.6c1-1.7 2.4-3 4.3-4 2-1 4.1-1.5 6.6-1.5 5.6 0 9.4 1.8 11.4 5.5h.9c1-1.8 2.5-3.1 4.4-4 2-1 4.2-1.5 6.7-1.5 4.2 0 7.4 1 9.6 3.3 2.2 2.1 3.3 5.6 3.3 10.4v24.3h-10.3v-21.8a11 11 0 0 0-1.3-6c-1-1.4-2.4-2-4.3-2-2.5 0-4.4.8-5.6 2.6-1.3 1.8-1.9 4.6-1.9 8.5v18.7Zm34.4-48c0-3.3 1.8-5 5.5-5s5.5 1.7 5.5 5a5 5 0 0 1-1.4 3.8c-.9 1-2.3 1.4-4.1 1.4-3.7 0-5.5-1.7-5.5-5.1Zm10.5 48h-10v-38h10v38Zm20.5 0h-10v-53h10zm21 0h-10v-53h10zm10-48c0-3.3 1.8-5 5.5-5s5.5 1.7 5.5 5a5 5 0 0 1-1.4 3.8c-.9 1-2.3 1.4-4.1 1.4-3.7 0-5.5-1.7-5.5-5.1Zm10.5 48h-10v-38h10v38Zm45.5-18.5a20 20 0 0 1-5 14.3 18 18 0 0 1-13.6 5.2c-3.7 0-6.9-.8-9.7-2.4a15 15 0 0 1-6.4-6.8c-1.5-3-2.3-6.4-2.3-10.4a20 20 0 0 1 4.9-14.3 18 18 0 0 1 13.7-5.1c3.7 0 6.9.8 9.7 2.4 2.8 1.5 5 3.8 6.4 6.7 1.5 3 2.3 6.4 2.3 10.3Zm-26.4 0c0 3.7.6 6.5 1.9 8.4 1.2 1.9 3.2 2.9 6 2.9s4.8-1 6-2.9c1.2-1.9 1.8-4.7 1.8-8.4 0-3.8-.6-6.6-1.8-8.4-1.2-1.9-3.2-2.8-6-2.8s-4.8 1-6 2.8a15.3 15.3 0 0 0-1.9 8.4ZM865 1054h-10.3v-21.8c0-2.7-.5-4.7-1.5-6-1-1.4-2.5-2-4.6-2-3 0-5 .9-6.3 2.8-1.3 1.9-2 5-2 9.4v17.6H830v-37.3h7.9l1.4 4.8h.6c1.1-1.8 2.7-3.2 4.7-4.1 2-1 4.4-1.4 7-1.4 4.3 0 7.7 1.2 10 3.5 2.3 2.4 3.4 5.8 3.4 10.2v24.3Z" fill="#000"/>
  </g>
</svg>
