<svg viewBox="0 0 4783.5 3494.5" xmlns="http://www.w3.org/2000/svg"><g stroke="#000"><path d="m3440.2 3143.3-13 1.5-7.6 16.8 3 12.3 12.3 4.6 11.5-6.9 1.5-8.4 3.8-12.3z" fill="#18763b" opacity=".8" stroke-dasharray="0 0 0 2" stroke-miterlimit="10"/><path d="m3794.9 3233.6-37.6 3.1 6.2 32.2 22.2-4.6 10.7-13.8z" fill="#18763b" opacity=".8" stroke-dasharray="0 0 0 2" stroke-miterlimit="10"/><path d="m3928.2 3151.7-16.9 2.3 3.1 11.5 10.7 2.3 8.4-6.9z" fill="#18763b" opacity=".8" stroke-dasharray="0 0 0 2" stroke-miterlimit="10"/><path d="m3670.8 3019.9 6.1-14.6 12.3-2.3s6.9 3.1 9.2 3.1 16.1-3.8 16.1-3.8l14.6-4.6 6.9 3.8-1.5 13.8-13.8 10.7-12.3 10-9.2-8.4h-12.3l-10 .8-6.1-8.4z" fill="#18763b" opacity=".8" stroke-dasharray="0 0 0 2" stroke-miterlimit="10"/><path d="m3701.4 3039.1-6.9-5.4-6.9.8v9.2l2.3 6.1 5.4 2.3 8.4-3.1z" fill="#18763b" opacity=".8" stroke-dasharray="0 0 0 2" stroke-miterlimit="10"/><path d="m3732.8 3022.2-6.9 3.9-3.8 7.6.8 5.4 6.1 1.5 9.2-2.3 3.1-9.9-2.3-7.7z" fill="#18763b" opacity=".8" stroke-dasharray="0 0 0 2" stroke-miterlimit="10"/><path d="m3782.6 2824.6-13.8-10.7-15.3 6.1 2.3 16.9 14.6 2.3 10.7-3.9z" fill="#18763b" opacity=".8" stroke-dasharray="0 0 0 2" stroke-miterlimit="10"/><path d="m4105.9 3046-14.6.7-5.4 13.8 9.2 7.7 6.9.8 10-5.4z" fill="#18763b" opacity=".8" stroke-dasharray="0 0 0 2" stroke-miterlimit="10"/><path d="m3287.8 2952.5 1.5 11.5-3.1 11.5-2.3 7.7-4.6 6.1-23 13.8s0 6.9 3.8 6.1 15.3-7.7 15.3-7.7l13.8-10.7 6.9-15.3 7.7-13.8-10-14.6-6.1 5.4z" fill="#9f3493" opacity=".8" stroke-dasharray="0 0 0 2" stroke-miterlimit="10"/><path d="m3382 3087.3-9.9 6.2v7.6l10.7 3.1 10-6.1-3.1-11.5z" fill="#9f3493" opacity=".8" stroke-dasharray="0 0 0 2" stroke-miterlimit="10"/><path d="m3354.5 3227.5-27.6-.8-.8-10.7 1.5-6.1 3.8-6.9 10.7-12.3 3.1-7.7 5.4-.8 6.1 8.4 4.6 4.6 4.6 6.1 3.1 7.7h27.6l9.2.8 6.1-3.1 5.4 1.5 2.3 3.8v4.6s2.3 3.1 0 5.4-6.9 5.4-10.7 5.4-13-1.5-13-1.5l-20.7-5.4-13.8-9.2-6.9 16.1z" fill="#9f3493" opacity=".8" stroke-dasharray="0 0 0 2" stroke-miterlimit="10"/><path d="m3294.7 3202.2-10.7-9.9-17.6-3.8-10.8-.8-13.7 3-2.3 13.8 1.5 6.9 3.8 1.6 6.2 4.6 9.1 2.3 9.2-8.5-6.1-7.6 5.4-2.3h3.8l6.9 2.3 9.9 3.8z" fill="#9f3493" opacity=".8" stroke-dasharray="0 0 0 2" stroke-miterlimit="10"/><path d="m3241.9 3169.3h-7.7l-6.9 6.1v10l11.5 2.3 8.4-3.1 1.6-9.2z" fill="#9f3493" opacity=".8" stroke-dasharray="0 0 0 2" stroke-miterlimit="10"/><path d="m3229.6 3199.9-6.1-1.5-4.6 3.8 2.3 3.1 7.6 2.3z" fill="#9f3493" opacity=".8" stroke-dasharray="0 0 0 2" stroke-miterlimit="10"/><path d="m3231.9 3220.6-5.4-2.3-4.6 4.6.8 6.1 6.1 3.1 5.4-5.4z" fill="#9f3493" opacity=".8" stroke-dasharray="0 0 0 2" stroke-miterlimit="10"/><path d="m3142 3082-8.7 6.6.6 5.6 4 3.1 8.7-7.7z" fill="#9f3493" opacity=".8" stroke-dasharray="0 0 0 2" stroke-miterlimit="10"/><path d="m3130.3 3086.5 5.6-2.5 4.1-2.6-3.6-7.1h-4.6l-5.1 2v8.2z" fill="#9f3493" opacity=".8" stroke-dasharray="0 0 0 2" stroke-miterlimit="10"/><path d="m3142 3075.9-3.6-5.1 1-4.1 8.2-.5s3.1 1 3.6 2.6 1 5.6 1 5.6v4.6l-5.1 2h-5.1z" fill="#9f3493" opacity=".8" stroke-dasharray="0 0 0 2" stroke-miterlimit="10"/><path d="m3176.8 3051.3 9.1 22-.5 4.6-6.1-1-6.6-5.1-6.7-.5-6.1 2-4.1 1-2.5-8.1v-4.6l4.6-4.6 16.3-8.2z" fill="#9f3493" opacity=".8" stroke-dasharray="0 0 0 2" stroke-miterlimit="10"/><path d="m3187.5 3081-7.7-1.1-3 .6 1.5 6.1 4.1.5h4.6z" fill="#9f3493" opacity=".8" stroke-dasharray="0 0 0 2" stroke-miterlimit="10"/><path d="m3174.7 3076.4-5.1-3.1-3.1.5v5.1l1.6 2.6 3 2h3.6z" fill="#9f3493" opacity=".8" stroke-dasharray="0 0 0 2" stroke-miterlimit="10"/><path d="m3163 3074.8-4.1 1.1-2.1 2-.5 4.1 1.6 3h5.1l2.5-.5z" fill="#9f3493" opacity=".8" stroke-dasharray="0 0 0 2" stroke-miterlimit="10"/><path d="m3177 3088.1-1.5.8-3.6.7h-1.5-4.6l-5.1.8-.3 1.3.8 2.8 2 1.5 4.1.8 4.9-.8v-2l2.5-1.5 2.3-2.1z" fill="#9f3493" opacity=".8" stroke-dasharray="0 0 0 2" stroke-miterlimit="10"/><path d="m3139.7 3098.1 5.1-4.1 2.8-2.3 1.8-2s1.8-1.3 2.6-.3 1.5 2.6 1.5 2.6l2.3 6.1-.5 4.1-4.3 3.6-5.9-.5-5.4-7.1z" fill="#9f3493" opacity=".8" stroke-dasharray="0 0 0 2" stroke-miterlimit="10"/><path d="m3121.6 3107.3-4.8-.6-.6 3.9 2.9 2 3.3-1.3z" fill="#9f3493" opacity=".8" stroke-dasharray="0 0 0 2" stroke-miterlimit="10"/><path d="m3120.3 3117.2-3.5-.5-.8 1v1.6l.2 2 3.1-.3z" fill="#9f3493" opacity=".8" stroke-dasharray="0 0 0 2" stroke-miterlimit="10"/><path d="m3117.5 3125.1 2.3-.2 1.8.7h3.8l3.6-1.2 1 1.8-.5 2.3-4.3.5-2.3-.8-3.6-.5-3.1-.8z" fill="#9f3493" opacity=".8" stroke-dasharray="0 0 0 2" stroke-miterlimit="10"/><path d="m3110.4 3137.9-5.1-.5-.5 2.8.7 2h2.3l1.5-1z" fill="#9f3493" opacity=".8" stroke-dasharray="0 0 0 2" stroke-miterlimit="10"/><path d="m3115.5 3135.3-2.3 3.6 1 2.6 2.3.5 3.1-1.8.2-3.1-1.8-2.5z" fill="#9f3493" opacity=".8" stroke-dasharray="0 0 0 2" stroke-miterlimit="10"/><path d="m3128.8 3137.4-6.9 3.8-1.6 4.6v4.4l.5 3 2.3 1.8 4.9-2.5 3.1-5.9v-5.4z" fill="#9f3493" opacity=".8" stroke-dasharray="0 0 0 2" stroke-miterlimit="10"/><path d="m3143.1 3128.5-4.1 2.2 1 2.1 5.6.8 1-3.6z" fill="#9f3493" opacity=".8" stroke-dasharray="0 0 0 2" stroke-miterlimit="10"/><path d="m3128.5 3131.5-.3 3.8.6 2.1 3 .8 2.6-1.6 3-3.8-2.8-4.6-4.1.3z" fill="#9f3493" opacity=".8" stroke-dasharray="0 0 0 2" stroke-miterlimit="10"/><path d="m3143.8 3124.6 1.8 2.1 2.3 1.8 1.8-1.6 2.8-2.3h3.1l3.5 1.8 1.6 4.1 3.5-2 2.1-3.6-2.8-3.6-1.6-2.8-1.5-6.4-2.5-3.1-9 .3-5.3 2.8.5 2.1 2.3 3.8-1.1 3.3z" fill="#9f3493" opacity=".8" stroke-dasharray="0 0 0 2" stroke-miterlimit="10"/><path d="m3167.8 3111.9 2.6 2.5h2.5l3.6-.5v-3.6l-3.6-.2-3.8-1.1h-2z" fill="#9f3493" opacity=".8" stroke-dasharray="0 0 0 2" stroke-miterlimit="10"/><path d="m3174.7 3119.8-4.3-.5-2.6 1 .8 3.3 5.9.8z" fill="#9f3493" opacity=".8" stroke-dasharray="0 0 0 2" stroke-miterlimit="10"/><path d="m3176.5 3119.5-1 5.6 2 .3 2.8-2.1.8-2.5-.8-2.3z" fill="#9f3493" opacity=".8" stroke-dasharray="0 0 0 2" stroke-miterlimit="10"/><path d="m3182.1 3105.5-2.3 3.5 2.1 2.3 2.5-3.8z" fill="#9f3493" opacity=".8" stroke-dasharray="0 0 0 2" stroke-miterlimit="10"/><path d="m3186.5 3103.2-.8 4.1-1.8 3.8 2.6.2 2.5-3v-4.6z" fill="#9f3493" opacity=".8" stroke-dasharray="0 0 0 2" stroke-miterlimit="10"/><path d="m3190.5 3129.7-.7 2.6-2.6 2.3-4.6 5.3-.7 3.4 4.8 2h3.8l4.9 2.3.2-6.1-3-3.6 2.5-1.5 5.1-3.6-3.3-4.1-4.3-2z" fill="#9f3493" opacity=".8" stroke-dasharray="0 0 0 2" stroke-miterlimit="10"/><path d="m3168.1 3125.4h2.5l9 .5 6.3 2.3 1.6 1.3-2.1 3.5-2.8 2.9-1.5 1-4.9-1-2.8-2.3-2.3-1.3-2.8-3.1z" fill="#9f3493" opacity=".8" stroke-dasharray="0 0 0 2" stroke-miterlimit="10"/><path d="m3162.2 3131.3 2.6-1.3 1.2 1 1.8.8.3 2.3-1 1.8-2.6.5-3.8-.5z" fill="#9f3493" opacity=".8" stroke-dasharray="0 0 0 2" stroke-miterlimit="10"/><path d="m3158.4 3133.3.7 2.8 1.1 3.1-3.6 1.8-1.8-2.3-1-4.6z" fill="#9f3493" opacity=".8" stroke-dasharray="0 0 0 2" stroke-miterlimit="10"/><path d="m3151.2 3135.1.3 3.3v1h-3.1l-1.3-3z" fill="#9f3493" opacity=".8" stroke-dasharray="0 0 0 2" stroke-miterlimit="10"/><path d="m3144.6 3134.8-2.3 2.8-.5 2.6 2.8 1.5 1.3-2.5.2-2.6z" fill="#9f3493" opacity=".8" stroke-dasharray="0 0 0 2" stroke-miterlimit="10"/><path d="m3134.4 3147.3-2.6 1.1-.5 2.5 1 2.8 3.6-1.5 1-3.3z" fill="#9f3493" opacity=".8" stroke-dasharray="0 0 0 2" stroke-miterlimit="10"/><path d="m3143.3 3153.2-3.8.8-.3 4.1 2.6 2.3s2 0 3.3-.8 2.3-5.4 2.3-5.4l-2-3.3-2 2.3z" fill="#9f3493" opacity=".8" stroke-dasharray="0 0 0 2" stroke-miterlimit="10"/><path d="m3130 3161.9-7.4.8-5.4 5.1 1.3 9.4s1 1.8 2 1.8 5.6 2.8 5.6 2.8l6.4-3.6 2.6-7.4-2-6.4-3.1-2.6z" fill="#9f3493" opacity=".8" stroke-dasharray="0 0 0 2" stroke-miterlimit="10"/><path d="m3104.5 3148.9-5.6.5-3.6 1.5-.2 3.8 2.2 3.1 9-2 1.3-5.4z" fill="#9f3493" opacity=".8" stroke-dasharray="0 0 0 2" stroke-miterlimit="10"/><path d="m3157.3 3186.4-6.3-.2v5.1l1.2 2.3 3.4-.3 3.3-2.8z" fill="#9f3493" opacity=".8" stroke-dasharray="0 0 0 2" stroke-miterlimit="10"/><path d="m3169.1 3192.3-1.3 3.3v4.6l2.3 4.1 4.9 2.8 3-3.8-1.8-4.6-2.8-4.1-2.5-3.9z" fill="#9f3493" opacity=".8" stroke-dasharray="0 0 0 2" stroke-miterlimit="10"/><path d="m3171.4 3207.3-4.6-2-5.1.8-2.8 2.3-.8 4.1 3.1 3 6.1-.8 3.6-2.2z" fill="#9f3493" opacity=".8" stroke-dasharray="0 0 0 2" stroke-miterlimit="10"/><path d="m3170.6 3214.2-2.3 1.6-3.3.7-.8 2.1.8 2.3 4.1 1.3 4.8-2.1 1.1-4.1-1.8-2.3z" fill="#9f3493" opacity=".8" stroke-dasharray="0 0 0 2" stroke-miterlimit="10"/><path d="m3118.8 3344.5-1.8-13-.5-4.3 1.5-5.9s8.7-6.1 10-7.1 7.1-10.7 7.1-10.7 1.8-6.1 2-7.1c.3-1 1.3-4.6 1.3-4.6s22.2-18.9 23-20.7 2.8-13.3 2.8-13.3l-3.1-12 4.1-7.7s11-6.9 11.7-6.9h18.1l2 9.7s-1.8 6.9-1.8 7.7-5.4 11.7-5.4 13.8 1.3 11 1.3 11 3.8 3.6 4.9 5.6 7.1 14.3 7.1 14.3l3.1 15.6 1 21.2v6.4l-19.7 9.7-21.2 9.2-7.1-.3-25-5.6-13.8-.5-2.8-4.3h1z" fill="#9f3493" opacity=".8" stroke-dasharray="0 0 0 2" stroke-miterlimit="10"/><path d="m3205.9 3237.7-3.6 5.4-.8 4.6.3 3.6 1 3.3s3.1 9.2 3.6 10 3.3 7.7 3.3 7.7l2 5.4 3.6 8.7 1.5 4.6 1.3 13.8-1.5 11.5v7.9l4.3.3 7.9-2.3 4.1-5.9s-.3-9.2-.3-10-.8-7.7-.8-7.7l1.5-6.6 3.8-7.1s3.1-3.8 3.6-5.4-1-11.7-1.5-12.5-8.7-8.9-8.7-8.9l-5.1-3.3-8.2-5.6-3.8-8.9-4.6-4.3-3.1 2z" fill="#9f3493" opacity=".8" stroke-dasharray="0 0 0 2" stroke-miterlimit="10"/><path d="m3223.7 3250.2 1.8-3.5 1.3-2.1 2.3.3 1.5 1.5-1.8 4.3-2.8 1.6z" fill="#9f3493" opacity=".8" stroke-dasharray="0 0 0 2" stroke-miterlimit="10"/><path d="m3221.2 3247.4-2.1-1.8-2.3-4-.5-3.4 2.1-2.3 3 .3 3.6 3.1.3 3z" fill="#9f3493" opacity=".8" stroke-dasharray="0 0 0 2" stroke-miterlimit="10"/><path d="m3229.6 3254.1 2.3-4.6-.3-5.4-3.3-2.3-2.5-4.8-2.6-3.1 3.9-.8 3.8 2.1 2.5 4.3 2.6 2.1 2.3 2.3 1.3 2.5 5.6 3.3 2.5 4.9 4.9 4.1 1.8 4 .7 6.2v4.6l-4.6 3.8h-3l-.5-5.4-.3-6.3-1-4.6-2.6-3.1-1.8.8-.5 3.3v1.8z" fill="#9f3493" opacity=".8" stroke-dasharray="0 0 0 2" stroke-miterlimit="10"/><path d="m3237.5 3240-.8-4.9 2-4.1 4.1-3.1s-.3-1 3.3-.8c3.6.3 6.9 1.5 6.9 2.8s.3 3.6 0 5.6-2.6 7.4-2.6 7.4l-5.1 1.5-7.9-4.6v.2z" fill="#9f3493" opacity=".8" stroke-dasharray="0 0 0 2" stroke-miterlimit="10"/><path d="m3264.1 3237-.5.9-4.8 7.8v6.1l-.8 6.1 1 4.3v2.8l1 6.4.3 5.6 1.5 2 4.6 1 4.1-1.8 3.3-4.3-3.3-3.1-2-3.1s-.8-4.9-.8-6.1-.5-6.6-.5-6.6l-.8-5.9-.5-4.3s2.6-.8 3.6-2c1-1.3 3.3-5.1 2.6-6.1s-5.1-3.1-5.1-3.1l-2.8 3.3h-.1z" fill="#9f3493" opacity=".8" stroke-dasharray="0 0 0 2" stroke-miterlimit="10"/><path d="m3241.1 3268.1.8-3.1 1.3-3.3 1.8 2v4.9c0 .8-1 5.9-1 5.9l1.8 4.9.3 3.1 5.4-.3 4.6 1s-3.6 4.6-4.3 5.1-5.1 1.8-5.1 1.8l-4.1-2.6-.3-4.9.3-3.1-.3-5.4-1-6.1h-.2z" fill="#9f3493" opacity=".8" stroke-dasharray="0 0 0 2" stroke-miterlimit="10"/><path d="m3238.8 3286.2-2.3 2.1-1 3 .2 2.9 1.6 2.3 3.3 2.8 4.1-.6 3.3-3.8-3.1-2.5-3.6-4.4z" fill="#9f3493" opacity=".8" stroke-dasharray="0 0 0 2" stroke-miterlimit="10"/><path d="m3234.5 3298.5 7.9 3.3.7 1.5-.5 2.9-1.8 3.5-5.1-3.3-1.2-2.5z" fill="#9f3493" opacity=".8" stroke-dasharray="0 0 0 2" stroke-miterlimit="10"/><path d="m3262.8 3286.2-3.6 1.6-.2 3.3 1.2 2.5 4.6-1 1.6-3.3z" fill="#9f3493" opacity=".8" stroke-dasharray="0 0 0 2" stroke-miterlimit="10"/><path d="m727.1 868.6c-9.8-8.3-14.6-4.6-23-13.8-12.3-13.6-11.7-32.6-11.5-39.1.5-14.2 5.3-25.3 9.2-32.2 8.2-4.2 20.8-9.5 36.8-11.5 17.8-2.2 23.5 1.7 48.3 2.3 24.9.6 57.4 32.2 57.4 32.2 1.6-11.8.8 28-9.2 34.5-11.5 7.4-36.8-6.9-36.8-6.9l-25.3 43.7s1.5 13.6-2.3 23c-3.1 7.7-11.6 17.4-18.4 16.1-11.1-2.1-4.9-30.9-25.3-48.3z" fill="#184786" opacity=".8" stroke-dasharray="0 0 0 2" stroke-miterlimit="10"/><path d="m1348.4 1116.9c-2.2 4-4.6 11.5-4.6 11.5s2.3 15.1 10.3 19.5c5.4 2.9 11.9.4 16.1-1.1 10.3-3.9 15.3-12.3 16.1-13.8 4.2-7.5 8-21.4 1.1-27.6-5.2-4.7-13.9-2.5-19.5-1.1-3.1.8-14.4 3.5-19.5 12.6z" fill="#337874" opacity=".8" stroke-dasharray="0 0 0 2" stroke-miterlimit="10"/><path d="m1352.3 1105.4c-7.5 7-12.1 11.3-17.2 10.3-6.2-1.2-9.3-9.2-11.5-14.9-2-5.3-6.5-17-1.1-24.1 5.1-6.7 13.4-2.2 19.5-9.2 6.6-7.5 1.2-17.4 6.9-20.7 4.4-2.6 12.2.9 16.1 5.7 3.1 3.9 3.2 8 3.4 14.9.2 5.5.5 13.1-3.4 21.8-3.3 7.3-7.8 11.5-12.6 16.1h-.1z" fill="#337874" opacity=".8" stroke-dasharray="0 0 0 2" stroke-miterlimit="10"/><path d="m1365.6 1028.5c16.5-10 32.9-19.9 49.4-29.9-3.9-5.5-8.3-13.2-11.5-23-4.1-12.7-3.1-20-9.2-24.1-5.3-3.7-13.1-2.9-18.4 0-6.8 3.8-8.9 10.9-10.3 16.1-2.6 9.2.2 11.6-1.1 20.7s-4.9 11.9-12.6 26.4c-3.1 5.8-7.3 14.3-11.5 25.3 8.4-3.8 16.9-7.7 25.3-11.5z" fill="#337874" opacity=".8" stroke-dasharray="0 0 0 2" stroke-miterlimit="10"/><path d="m1374.8 1037.6c3 7.2 4.1 13.1 4.6 17.2 1.3 10.6 0 23 0 23s11.3 4.7 17.2 13.8c3.7 5.7 5.7 13.8 5.7 13.8s.3 13.5 5.7 16.1c2.1 1 3.5-.4 16.1-5.7 8.5-3.7 11-4.3 13.8-4.6 5.1-.5 8 .7 11.5 1.1 5.4.7 13.4 0 24.1-6.9-12.6-12.2-17.5-23.6-19.5-32.2-2.9-12.3-.3-20.1-6.9-27.6-6.9-7.8-14.1-4.1-20.7-11.5-9.7-10.9-1.4-27.5-6.9-31-4.3-2.7-15.8 3.2-44.8 34.5z" fill="#337874" opacity=".8" stroke-dasharray="0 0 0 2" stroke-miterlimit="10"/><path d="m1420.1 1136.5c1.6-10.9 23.5-15.7 23-17.2-.4-1-10.4.7-10.3 2.3 0 1.9 15.2 4.1 26.4 1.1 6.2-1.6 9.9-2.6 13.3-5.8.7-.7 1.1-1.2 1.7-1.1 3.2.4 4.8 18.5 2.3 34.5-.6 3.9-1.6 7.9-3.4 16.1-2.3 10-3.1 11.8-3.4 12.6-1.8 4-6.2 14-13.8 14.9-9 1.2-19.3-10.6-18.4-19.5.8-7.6 9.4-10.4 8-14.9-1.4-4.8-11.6-2.3-19.5-10.3-1.2-1.2-6.6-6.7-5.7-12.6h-.2z" fill="#337874" opacity=".8" stroke-dasharray="0 0 0 2" stroke-miterlimit="10"/><path d="m2075.6 2531.4c-5.9 23.5-6.1 24.3-6.1 24.3-6.9-23.6 10.1 40.5 10.1 40.5 1.9 14.3 2.9 21.4 0 26.3-7.8 13.5-31.8 12.8-54.7 12.2-22.7-.7-35.3-1-48.6-10.1-18.9-12.9-24.4-33.2-26.3-40.5-2.7-10.2-7.7-28.6 2-42.5 5.1-7.4 13.7-12.6 32.4-16.2 17.3-3.4 48.9-6.6 91.2 6.1z" fill="#cca638" opacity=".8" stroke-dasharray="0 0 0 2" stroke-miterlimit="10"/><path d="m2090.6 2524.4c-2.3 1.7-7.1 6.4-6.9 20.7 2.4 8 5.1 18.9 6.9 32.2 2.9 21.3.6 29.9 4.6 32.2 5.4 3.1 20.5-6.6 59.7-55.1-26.8-27.3-53-38.1-64.3-29.9z" fill="#cca638" opacity=".8" stroke-dasharray="0 0 0 2" stroke-miterlimit="10"/><path d="m1350.7 1242.2c-13.2-1.1-24 14.2-25.3 16.1-5.9 8.6-3.2 12-9.2 34.5-5.1 19.1-8.3 21.5-6.9 29.9 1.6 9.5 7.1 15.6 13.8 23 7.7 8.5 21.5 23.8 34.5 20.7 2.2-.5 5.6-1.9 18.4-20.7 11.7-17.1 17.5-25.7 18.4-32.2 1.6-12.1-4.3-21.9-16.1-41.4-11.7-19.3-17.5-29.1-27.6-29.9z" fill="#cc763b" opacity=".8" stroke-dasharray="0 0 0 2" stroke-miterlimit="10"/><path d="m1789.6 2092.4c2.5 13.8 12.1 10.4 27.6 36.8 8.4 14.2 15.7 32.4 18.4 39.1 2.2 5.6 3.4 8.4 4.7 12.1 3.6 10.6 3.2 12.8 4.5 13.1 5.3 1.4 26-31 25.3-66.6-.2-9.9-2.3-32.2-2.3-32.2s-3-40.1-23-50.6c-10.1-5.3-21.5-1.3-25.3 0-20.1 7-33.2 30.2-29.9 48.3z" fill="#0c688a" opacity=".8" stroke-dasharray="0 0 0 2" stroke-miterlimit="10"/><path d="m1785.4 2034.4c2.7 21.1-11.5 43.7-11.5 43.7s-4 18.3-13.8 23c-9.7 4.6-22.9-5.1-25.3-6.9-3-2.2-11.4-9-16.1-23-10.2-30.4-4.3-45.4 0-41.4 6.6 6.2 37.1-27.8 55.1-18.4 9.1 4.8 10.9 18.5 11.5 23z" fill="#0c688a" opacity=".8" stroke-dasharray="0 0 0 2" stroke-miterlimit="10"/><path d="m2855.4 3054.4-4.2 1.5-2.7 4.3 1.2 3 8.4 3.1 1.5-7.3z" fill="#a08955" opacity=".8" stroke-dasharray="0 0 0 2" stroke-miterlimit="10"/><path d="m2848.2 3065.1-4.2-3.1-5.4.4-6.1 3.4v6.9c0 1.1 1.9 5 1.9 5l3.8 2.7 7.7-.8 6.1-5.4-3.8-9.2z" fill="#a08955" opacity=".8" stroke-dasharray="0 0 0 2" stroke-miterlimit="10"/><path d="m2858.5 3068.2.4 2.7-.4 4.2-1.5 2.7-5.8 4.6-1.9-4.6 3.1-1.6.4-4.9-.8-5z" fill="#a08955" opacity=".8" stroke-dasharray="0 0 0 2" stroke-miterlimit="10"/><path d="m4002.5 3117.2 3.8 14.6-13 2.3-5.4-12.3v-7.6l8.4-3.1z" fill="#6e54a3" opacity=".8" stroke-dasharray="0 0 0 2" stroke-miterlimit="10"/><path d="m3986.4 3152.5-14.6 2.2-.7 7.7 5.3 4.6 13.8-1.5 5.4-10.8z" fill="#6e54a3" opacity=".8" stroke-dasharray="0 0 0 2" stroke-miterlimit="10"/><path d="m3957.3 3088.1-6.1-12.3 6.1-11.5h10l3.8 9.2 4.6 6.1 13.8-6.1 8.4-.8s5.4 3.1 5.4 5.4-3.8 11.5-3.8 11.5l-6.9 3.1h-4.6l-4.6 3.8v5.4l2.3 6.9-1.5 6.1-12.3 3.1-16.9-6.1-10.7-8.4 10.7-6.1-10-4.6v-3.8l12.3-.8z" fill="#6e54a3" opacity=".8" stroke-dasharray="0 0 0 2" stroke-miterlimit="10"/><path d="m2691.9 3032.2-2.3 10-3.8 14.5-3.1 8.4-.8 10.8 3.1 9.1 10-1.5 4.6-9.9-1.6-12.3 3.1-8.4 3.8-2.3 12.3-6.9 3-15.3-9.9 6.1-5.4-.8-1.5-3.8-3.1-11.5z" fill="#43bb94" opacity=".8" stroke-dasharray="0 0 0 2" stroke-miterlimit="10"/><path d="m2685.8 3039.1-4.6 19.1-2.3 14.6-3.1 6.9-8.4-3.8-3.1-8.5 6.9-13.8.8-6.1v-5.3l-.8-11.5 3.9 8.4 3.8.8z" fill="#43bb94" opacity=".8" stroke-dasharray="0 0 0 2" stroke-miterlimit="10"/><path d="m2656.7 3006.9-9.2 11.5v10.7l1.5 3.1 3.1.8 5.3.7.8 6.9-3.8 10-.8 6.9 2.3 3 7.7 3.9 4.6-14.6v-8.4-14.6l-.8-5.3z" fill="#43bb94" opacity=".8" stroke-dasharray="0 0 0 2" stroke-miterlimit="10"/><path d="m2770.8 3154-7.7 16.1-3 9.9-10-6.9 3.1-7.6 8.4-12.3z" fill="#43bb94" opacity=".8" stroke-dasharray="0 0 0 2" stroke-miterlimit="10"/><path d="m3995.6 3108 10.7 3.9 2.3 6.8 5.3 13.1 16.9-10 3.1-13-7.7-8.4-13 2.3-10.7-3.1z" fill="#66c07e" opacity=".8" stroke-dasharray="0 0 0 2" stroke-miterlimit="10"/><path d="m4049.2 3118s-5.4 3.8-5.4 6.9 1.5 9.2 1.5 9.2l5.4 1.5 11.5 4.6 9.2 1.5 16.9-2.3-.8-7.7-12.3-15.3-16.1-3.1-10 4.6h.1z" fill="#66c07e" opacity=".8" stroke-dasharray="0 0 0 2" stroke-miterlimit="10"/><path d="m2859.6 2338.2-12.2 4.6-2.3 6.2v4.6l3.8 3.8 13-3.8 9.2-11.5-3-12.3z" fill="#2e639f" opacity=".8" stroke-dasharray="0 0 0 2" stroke-miterlimit="10"/><path d="m2903.3 2337.5-16.8 1.5-2.3 6.1 2.3 5.4 7.6 3.1 16.1-4.6 2.3-9.2z" fill="#2e639f" opacity=".8" stroke-dasharray="0 0 0 2" stroke-miterlimit="10"/><path d="m2917.1 2349.7-7.7 3.9-3 7.6.7 6.9 4.6 3.8 9.2-6.9 2.3-5.3z" fill="#2e639f" opacity=".8" stroke-dasharray="0 0 0 2" stroke-miterlimit="10"/><path d="m2886.5 2318.3-6.9.8-3.1 6.9 3.1 3.8h5.3l7.7-4.6v-6.1z" fill="#2e639f" opacity=".8" stroke-dasharray="0 0 0 2" stroke-miterlimit="10"/><path d="m3456.3 2929.6-3.8 4.6-2.3 3.8 1.5 5.3 5.4-.7 5.4-3.1 3-6.1z" fill="#eeb726" opacity=".8" stroke-dasharray="0 0 0 2" stroke-miterlimit="10"/><path d="m2554 2644.6-6.9-.7-8.4 5.3 3.1 8.4 3 1.6 6.2-.8 8.4-4.6z" fill="#cdcd2b" opacity=".8" stroke-dasharray="0 0 0 2" stroke-miterlimit="10"/><path d="m4063.7 3181.6-21.4-4.6-20.7 3.8-3.1 7.7s-1.5 6.1.8 6.9 10 3.1 10 3.1l32.2.8 1.5-3.1 6.9-9.2-6.1-5.4z" fill="#cb4527" opacity=".8" stroke-dasharray="0 0 0 2" stroke-miterlimit="10"/><path d="m2874.2 2292.3-12.3 6.9-6.8 9.2 13.7-4.6 13.8-4.6 2.3-13.8z" fill="#aad371" opacity=".8" stroke-dasharray="0 0 0 2" stroke-miterlimit="10"/><path d="m2899.5 2303-9.2-.8-6.1 1.6 2.3 3 5.3 4.6 10-2.7 3.8-1.1z" fill="#aad371" opacity=".8" stroke-dasharray="0 0 0 2" stroke-miterlimit="10"/><path d="m2896.4 2319.9 6.1-2.3 6.2-3.9-6.9-5-5.4 5z" fill="#aad371" opacity=".8" stroke-dasharray="0 0 0 2" stroke-miterlimit="10"/><path d="m2910.7 2326.7-5.6 2.1 1 5.1 7.2-1z" fill="#aad371" opacity=".8" stroke-dasharray="0 0 0 2" stroke-miterlimit="10"/><path d="m2911.7 2291-4.6 4.6-1.5 12 8.7 2.3 3-6.6z" fill="#aad371" opacity=".8" stroke-dasharray="0 0 0 2" stroke-miterlimit="10"/><path d="m2904.1 2286.9h-6.7l.5 8.2 4.6.5 5.1-6.1z" fill="#aad371" opacity=".8" stroke-dasharray="0 0 0 2" stroke-miterlimit="10"/><path d="m2897.4 2276.7-6.6 1 1 5.6 6.7-1z" fill="#aad371" opacity=".8" stroke-dasharray="0 0 0 2" stroke-miterlimit="10"/><path d="m2931.1 2276.7-17.4 2-3.1 5.1 1 7.1 3.6 2.6 4.6 11.2 1.5 8.7 10.2-4.1s4.1-12.8 4.1-15.8-4.6-16.9-4.6-16.9z" fill="#aad371" opacity=".8" stroke-dasharray="0 0 0 2" stroke-miterlimit="10"/><path d="m2931.6 2322.7-4.5 5.6 1 8.2 6.6-1.6z" fill="#aad371" opacity=".8" stroke-dasharray="0 0 0 2" stroke-miterlimit="10"/><path d="m3420.3 2934.2-10.7-2.3-5.4 3 2.3 6.1 3.1 3.9 6.9-.8 6.1-1.5z" fill="#ac1f23" opacity=".8" stroke-dasharray="0 0 0 2" stroke-miterlimit="10"/><path d="m587.7 769.8c-.3-10.3 1.3-12.6 2.6-26 1.5-15.7-.2-19.5 3.9-24.7 4.7-6.1 12.3-7.7 13-7.8 8.2-1.6 10.8 3.1 18.2 1.3 5-1.2 11.1-5.2 13-11.7 1.8-6.5-1.2-13.5-5.1-17.1-1.7-1.6-2.9-1.8-2.7-2.4.5-2.2 19.8-4.2 29.9 6.5 3.7 3.9 5 8.3 6.5 13 1 3.2 1.5 8.7 2.6 19.5 0 0 .5 5.1 1.3 14.3s-10.9-4-20.8-3.9c-3.6 0-11.7 0-18.2 5.2-6 4.7-7.7 11.3-10.4 22.1-4.4 18-1.1 23.7-6.5 28.6-6 5.5-17.8 5.5-23.4 0-3.4-3.3-3.6-7.9-3.9-16.9z" fill="#edda8c" opacity=".8" stroke-dasharray="0 0 0 2" stroke-miterlimit="10"/><path d="m3995.9 3218.7-10-3.8-5.4 3.8v6.9 5.3l6.2 3.1h12.2z" fill="#3b53a4" opacity=".8" stroke-dasharray="0 0 0 2" stroke-miterlimit="10"/><path d="m4131.1 3220.6-8.4 18.4 23.7 19.9 10.7 7.7 11.5-3.1 12.3-1.5 1.5 6.9 6.9 2.3 7.7.8 5.4 5.4.8 4.6v12.3l-7.7 10-.8 4.6v7.7l1.5 3.1 3.1-.8h16.1l30.6 6.1 7.7 4.6 17.6 17.6 5.4-19.9 9.2-25.3s3.8-23.7 4.6-26 3.1-3.8 3.1-3.8l10.7-11.5 20.7-18.4 21.4-11.5 6.9-.8 10 3.8h29.1l10.7-6.9 4.6-3.8 10-2.3 26.8-18.4 10-9.2-.8-42.9-1.5-42.9-17.6-29.9-33.7-15.3-65.1-12.3-69.7-2.3-52.9 17.6-13 19.9 5.4 13 10 16.9 17.6 10.7 10.7 8.4 5.4 7.7.8 15.3-3.1 7.7-.8 5.4 4.6 8.4s1.5 7.7 1.5 12.3-7.7 16.9-7.7 16.9l-13.8 4.6s-26 3.8-30.6 5.4c-4.6 1.5-35.2 3.1-35.2 3.1h-33.7z" fill="#6acbde" opacity=".8" stroke-dasharray="0 0 0 2" stroke-miterlimit="10"/><path d="m166.5 114.7c-5-1.8-28.3-9.4-53.6 0-5.7 2.1-10.9 4.1-15.3 9.2-5.5 6.3-9.2 16.8-9.2 16.9 0 0 4.7 16.6 13.8 21.4 4.1 2.2 13.5-1.1 32.2-7.7 15.6-5.5 23.6-8.4 33.7-13.8 16.6-8.9 16.9-12.6 16.9-13.8-.2-5.9-11.2-9.7-18.4-12.3h-.1z" fill="#ed1985" opacity=".8" stroke-dasharray="0 0 0 2" stroke-miterlimit="10"/><path d="m2413.1 2279.2c-5.5-1.6-14-4.2-23.4-1.3-9.2 2.8-18.2 10.4-18.2 10.4s.8 20.2 10.4 26c3.6 2.2 9.3 1 20.8-1.3 10.7-2.2 16.2-3.3 20.8-7.8 1.2-1.2 8.6-8.6 6.5-15.6-1.8-5.9-9.1-8.1-16.9-10.4z" fill="#75512d" opacity=".8" stroke-dasharray="0 0 0 2" stroke-miterlimit="10"/><path d="m2699.1 2236.3c-5.7-16.5-24.2-31.5-41.6-27.3-13.4 3.2-19.8 16.1-20.8 18.2-.5 1-8.3 17.4 0 32.5 4.9 9 12.7 12.4 26 18.2 7.1 3.1 11.4 4.9 16.9 3.9 9.8-1.9 15.2-11.3 16.9-14.3 8.2-14.4 3.1-29.8 2.6-31.2z" fill="#75512d" opacity=".8" stroke-dasharray="0 0 0 2" stroke-miterlimit="10"/><path d="m680 247.1c-8.7 3.7 1.1 43.1 7.8 70.2 7.4 29.9 12.5 38.7 18.2 45.5 11.2 13.5 24.5 19.7 32.5 23.4 11.2 5.2 27 12.6 45.5 9.1 5.6-1.1 10.2-2.9 29.9-15.6 32-20.7 48-31.1 46.8-37.7-1.3-7.7-15.8-6.2-42.9-16.9-33.3-13.1-29.7-22.5-67.6-39-21.6-9.4-29.6-9.3-45.5-20.8-15.4-11.1-20.3-20.1-24.7-18.2z" fill="#6050a1" opacity=".8" stroke-dasharray="0 0 0 2" stroke-miterlimit="10"/><path d="m1219.5 685.2c-6.8-9.6-2.4-22.7 1.3-33.8 2-5.9 4.2-12.3 10.4-16.9 2.2-1.6 4.9-3.1 14.3-5.2 16.4-3.7 24.6-5.5 29.9-2.6 1.8 1 4.3 2.9 11.7 23.4 8.7 24.2 7.5 27.9 6.5 29.9-2.9 5.7-9.3 7.7-22.1 11.7-8.3 2.6-16.5 5.1-27.3 3.9-7.9-.9-18.8-2.1-24.7-10.4z" fill="#9a3083" opacity=".8" stroke-dasharray="0 0 0 2" stroke-miterlimit="10"/><path d="m2919.4 2788.1 7-3 4.5-3.5 3.4-5.7-1.2-4.4-4.2-2.6-3.4 4.6-6.4 6.9s-.4 2.2-2.4 4c-2 1.7-2.8 5.7-2.8 5.7l5.5-1.9z" fill="#b14e9d" opacity=".8" stroke-dasharray="0 0 0 2" stroke-miterlimit="10"/><path d="m2905.8 2773.7 4.3.6 3.9 7.7 8.4-9.2v-7.7l-14.6-9.9z" fill="#b14e9d" opacity=".8" stroke-dasharray="0 0 0 2" stroke-miterlimit="10"/><path d="m2913.3 2829.2-10-.7-5.4 2.2 2.3 9.2 3.9 6.9 5.3-3 6.9-3.9z" fill="#b14e9d" opacity=".8" stroke-dasharray="0 0 0 2" stroke-miterlimit="10"/><path d="m2896.4 2840.7-3.8-3.8-5.4-1.6-2.3 4.6v6.2 6.1l4.6.8 5.4 1.5 5.3-.8z" fill="#b14e9d" opacity=".8" stroke-dasharray="0 0 0 2" stroke-miterlimit="10"/><path d="m2875 2826.2-11.5 1.5-3.9 12.2.8 10.8 7.7-3.1 6.1-2.3 5.4-4.6 3-6.9-1.5-5.3z" fill="#b14e9d" opacity=".8" stroke-dasharray="0 0 0 2" stroke-miterlimit="10"/><path d="m2883.4 2898.9h-13l.8 12.3 3.1 4.6s6.9.8 10 0 6.1-13 6.1-13l-6.9-3.8h-.1z" fill="#b14e9d" opacity=".8" stroke-dasharray="0 0 0 2" stroke-miterlimit="10"/><path d="m2924.8 2840.7-11.5 4.6-3.1 9.2s-1.5 3.1.8 6.1c2.3 3.1 6.1 6.9 6.1 6.9l12.3-3.1 2.3-6.9-5.4-7.7-1.5-9.2z" fill="#b14e9d" opacity=".8" stroke-dasharray="0 0 0 2" stroke-miterlimit="10"/><path d="m3443.3 2832.3-10 13.8-2.2 19.1-2.3 11.5.7 10.7-5.3 6.2-2.3-10-10.8-6.9-11.5-.8 6.2-19.1 5.3-16.9 6.2-6.9 16-8.4 11.5-3z" fill="#63bc46" opacity=".8" stroke-dasharray="0 0 0 2" stroke-miterlimit="10"/><path d="m3451 2921.9-5.4-3.1h-5.4l-1.5 4.6 4.6 8.5 6.9-1.6 4.6-5.3z" fill="#63bc46" opacity=".8" stroke-dasharray="0 0 0 2" stroke-miterlimit="10"/><path d="m3439.5 2909.6-8.4-1.5-4.6 4.6 3 6.1 10-3.8z" fill="#63bc46" opacity=".8" stroke-dasharray="0 0 0 2" stroke-miterlimit="10"/><path d="m3424.2 2918.1-8.5-3.1-3 8.4 3 7.7 8.5-7.7z" fill="#63bc46" opacity=".8" stroke-dasharray="0 0 0 2" stroke-miterlimit="10"/><path d="m3435.6 2925.3-6.5-1.1-2.3 6.1s.8 2.3 1.1 3.4c.4 1.1 4.2 3.4 4.2 3.4l6.1-1.1 1.5-5.4-4.2-5.4z" fill="#69c9cf" opacity=".8" stroke-dasharray="0 0 0 2" stroke-miterlimit="10"/><path d="m1602.3 2047.6-17.2 8-3.5 10.3-4.5 9.2 3.4 11.5 13.8 12.7 16.1-3.5 18.4-12.6-2.3-16.1-9.2-10.4z" fill="#784b9e" opacity=".8" stroke-dasharray="0 0 0 2" stroke-miterlimit="10"/><path d="m1649.4 2018.8-22.9 5.8-1.2 13.8 5.8 10.3 10.3-2.3 13.8-4.6 5.7-9.2z" fill="#784b9e" opacity=".8" stroke-dasharray="0 0 0 2" stroke-miterlimit="10"/><path d="m1918.3 2885.1-8.1-19.5 8.1-6.9 18.4 4.6 13.8 6.9 8 12.6-3.4 9.2-10.4 2.3-11.5-4.6z" fill="#784b9e" opacity=".8" stroke-dasharray="0 0 0 2" stroke-miterlimit="10"/><path d="m2677.7 2036.1 6.9 35.6 8.1 6.9 16.1 2.3 17.2-4.6 2.3-26.4-18.4-4.6-8-11.5z" fill="#784b9e" opacity=".8" stroke-dasharray="0 0 0 2" stroke-miterlimit="10"/><path d="m2730.6 2075.1 1.1-14.9 2.3-10.3 4.6-3.5 11.5 20.7v12.6h-8z" fill="#784b9e" opacity=".8" stroke-dasharray="0 0 0 2" stroke-miterlimit="10"/><path d="m2751.3 2047.6 2.3 24.1-3.5 8 11.5 5.8 4.6 4.6 6.9 5.7 3.4-8 4.6-17.3-9.2-13.8z" fill="#784b9e" opacity=".8" stroke-dasharray="0 0 0 2" stroke-miterlimit="10"/><path d="m2576.2 2645.4-6.9 2.3v5.3l5.4 4.6 10-4.6-5.4-13z" fill="#784b9e" opacity=".8" stroke-dasharray="0 0 0 2" stroke-miterlimit="10"/><path d="m2846.9 2515.7-13.8 3.6-3.1 8.2v4.6c0 2 1.5 6.1 1.5 6.1l10.2-2 7.7-3.1 3.1-11.7-5.6-5.6z" fill="#784b9e" opacity=".8" stroke-dasharray="0 0 0 2" stroke-miterlimit="10"/><path d="m2847.4 2536.6 2-3.6 5.1-6.1 2.6-.5 2.5 4.6-3.5 5.6-7.2 5.1z" fill="#784b9e" opacity=".8" stroke-dasharray="0 0 0 2" stroke-miterlimit="10"/><path d="m2862.2 2529.5 2-3.1 5.1-4.1h5.7l3.5 3.6-.5 6.1-12.2 3.6-6.2-2.6z" fill="#784b9e" opacity=".8" stroke-dasharray="0 0 0 2" stroke-miterlimit="10"/><path d="m3023.3 2750.3-8.7 4.6.5 8.2 9.2 1 11.8-6.1-6.2-10.2z" fill="#784b9e" opacity=".8" stroke-dasharray="0 0 0 2" stroke-miterlimit="10"/><path d="m3010.5 2782.5 9.7-11.8 9.2-5.1 6.7-2 4-.5 6.2 4.1 7.1 2.5 3.6 6.2-6.1 4.6-7.7 1-4.1-3.1-.5 3.1-5.1 9.2-7.7-2.1-5.6-6.6z" fill="#784b9e" opacity=".8" stroke-dasharray="0 0 0 2" stroke-miterlimit="10"/><path d="m3010.5 2784.5 7.7.5 3.6 4.6s6.1.5 6.1 2 6.6 1.5 6.6 1.5l2.6-6.6 4.1-3.6 4.1 3.6 6.1 1.5-1 6.1s-.5 8.7-2.6 8.7-12.8 1.5-12.8 1.5l-10.2-7.1-6.1-7.1z" fill="#784b9e" opacity=".8" stroke-dasharray="0 0 0 2" stroke-miterlimit="10"/><path d="m3009.5 2787.6s-1.5 4.1-1 6.1 2.6 10.7 2.6 10.7l3.1 4.6h8.2l6.1 1.5 12.8-2s5.6-2.6 4.1-2.6-13.3-1-13.3-1l-8.2-5.1-6.6-6.1-4.1-4.1-3.6-2z" fill="#784b9e" opacity=".8" stroke-dasharray="0 0 0 2" stroke-miterlimit="10"/><path d="m3048.8 2808.5-4.6 2.1-.5 4.1 2.6 2.5 7.6-4.6-2-7.6z" fill="#784b9e" opacity=".8" stroke-dasharray="0 0 0 2" stroke-miterlimit="10"/><path d="m2961.3 2723-6.7-3.1-1 4.6.5 6.7 4.1 4.1h6.6z" fill="#784b9e" opacity=".8" stroke-dasharray="0 0 0 2" stroke-miterlimit="10"/><path d="m2884.7 2719.4 7.1 5.1 4.6-1 5.1-7.6-2-10.3-5.1-1.5-1.1 7.2-1 2-6.6-2h-5.1z" fill="#784b9e" opacity=".8" stroke-dasharray="0 0 0 2" stroke-miterlimit="10"/><path d="m2878 2679.1-7.6 17.9-6.2 14.3.6 9.7 3.5 4 7.2 1.1 2-13.8 3.1-8.7 11.7-5.6-5.6-7.2-3.6-7.6z" fill="#784b9e" opacity=".8" stroke-dasharray="0 0 0 2" stroke-miterlimit="10"/><path d="m2717.2 2763.9-5.1 3.5-1.6 6.7 2.1 8.1 5.6-1 3.6-8.2-.5-7.1z" fill="#784b9e" opacity=".8" stroke-dasharray="0 0 0 2" stroke-miterlimit="10"/><path d="m2676.8 2760.3 11.3-3.6h14.3l1.5 7.2-8.7 6.6-9.2 11.7-7.1 13.3-3.6-20.4z" fill="#784b9e" opacity=".8" stroke-dasharray="0 0 0 2" stroke-miterlimit="10"/><path d="m2650.8 2815.9c-3.6-.5-12.8 4.6-12.8 4.6l3.6 10.7s10.2 2 10.2.5 2.6-10.7 2.6-10.7z" fill="#784b9e" opacity=".8" stroke-dasharray="0 0 0 2" stroke-miterlimit="10"/><path d="m2626.3 2879.3-5.1 8.1v3.6l2 4.6 9.2-4.1 3.6-10.7-7.2-5.6z" fill="#784b9e" opacity=".8" stroke-dasharray="0 0 0 2" stroke-miterlimit="10"/><path d="m2678.9 2908.9-16.4-.5-15.8 8.1-4.6 14.8-4.1 21 3.6 19.9 3.6 14.3 15.8 21.4 11.2 21 6.2 8.7h9.2l13.2-23.5 13.8-13.8 9.2-3.6 22.5-8.2 4.1 6.2 19.9-6.7-9.2-19.9-25-20.9-24-20.5-20.5-7.1z" fill="#784b9e" opacity=".8" stroke-dasharray="0 0 0 2" stroke-miterlimit="10"/><path d="m2782.5 3177-7.6 4 .5 8.7 3.6 5.1 7.6-5.1 4.1-8.1-4.1-7.2z" fill="#784b9e" opacity=".8" stroke-dasharray="0 0 0 2" stroke-miterlimit="10"/><path d="m3447.9 2837.6-10.7 13.8-4.6 19.2-.8 12.2 1.5 10 7.7 3.1 16.9 6.1 9.9-6.1-3.8-20-7.7-7.6-2.3-10.7z" fill="#784b9e" opacity=".8" stroke-dasharray="0 0 0 2" stroke-miterlimit="10"/><path d="m3457.1 2845.3.8 13.8 1.5 3.8 3.8 4.6 8.4-2.3 4.6-9.2-6.1-13.8z" fill="#784b9e" opacity=".8" stroke-dasharray="0 0 0 2" stroke-miterlimit="10"/><path d="m3452.5 2908.9 9.2.7 5.4 4.6v9.2l-4.6 5.4-6.2-10-7.6-3-2.3-6.9z" fill="#784b9e" opacity=".8" stroke-dasharray="0 0 0 2" stroke-miterlimit="10"/><path d="m2986 2879.8c-3.1-1.5-24.5-10.7-24.5-10.7l-12.3-6.9-19.9-12.3-1.5-22.2-5.4-26.8 12.3-3.8 13.8.8 16.9 10 13.8 17.6 11.5 7.7 6.9 10 3.1 18.4 2.3 10.7v3.8l-10.7.8-6.1 3.1z" fill="#784b9e" opacity=".8" stroke-dasharray="0 0 0 2" stroke-miterlimit="10"/><path d="m2955.4 2795.5 5.4-5.3 6.1-.8 7.6 6.1 10.8 9.2 9.9 10.7h6.1l17.7 6.2 9.2 8.4 5.3 7.6-2.3 12.3-5.3 11.5-8.5 11.5-9.2.7-4.6-13-3.8-13-4.6-8.4-3.8-10-6.9-6.1-6.9-4.6-6.9-10-8.4-7.6z" fill="#784b9e" opacity=".8" stroke-dasharray="0 0 0 2" stroke-miterlimit="10"/><path d="m3038.1 2858.3-9.2 1.6-5.3 8.4-6.2 4.6-2.3 9.2 3.1 3 2.3 5.4 12.3-1.5 9.9-5.4.8-12.3-.8-10.7z" fill="#784b9e" opacity=".8" stroke-dasharray="0 0 0 2" stroke-miterlimit="10"/><path d="m3954.2 3281.5-5.7-18.4 4.6-24.1 8 19.5 2.3 13.8z" fill="#9cd9e4" opacity=".8" stroke-dasharray="0 0 0 2" stroke-miterlimit="10"/><path d="m2531.8 2607.1-13.8 5.7-2.3 12.7 6.9 3.4 13.8-1.1 11.5-18.4z" fill="#5ec08e" opacity=".8" stroke-dasharray="0 0 0 2" stroke-miterlimit="10"/><path d="m2566.3 2580.7-19.5 2.3 2.3 13.7 12.6 10.4 8-10.4z" fill="#5ec08e" opacity=".8" stroke-dasharray="0 0 0 2" stroke-miterlimit="10"/><path d="m4030.4 2687.6 13.3 10.9c1 1.3 1.6 2.9 1.6 4.5v33.5c0 .5 0 .9.1 1.4l24 57c.2 1 .6 1.9 1.2 2.8l26.7 61.8c.1.2.2.3.3.4l21.5 26.9c1.7 2.1 4.5 3.2 7.2 2.6 30.8-6.1 213.9-42 222.3-42s57.5-4.1 75.9-5.6c3.8-.3 6.8-3.5 6.8-7.4v-30.3c0-5.5 5.8-9.1 10.7-6.6l6.1 3.1c1 .5 1.9 1.3 2.6 2.2 3.5 4.7 10.8 3.6 12.8-1.9l16.8-4.9c.3-.7 11-41.5 11.5-42.1l23.9-42.7c.9-1.1 2.1-1.9 3.4-2.4 8.2-2.7 38.2-13.3 40.8-23.8 2-8 11.7-31.4 18.3-46.9 2.5-5.8 10.7-6 13.4-.3 4 8.2 8.1 17.9 8.1 22.7 0 8.5 34.1 59.8 37.8 66.5.3.6.8 1.2 1.3 1.6l2.4 2.4c4 4 10.9 2.2 12.4-3.4l10.4-91.1c.1-.4.2-.8.2-1.2l6.1-69.9 2.8-33c.2-2.4-.8-4.7-2.6-6.2l-13.6-11.7c-2.8-2.4-3.4-6.6-1.3-9.7l14.1-21.1c5.5-8.3-.4-19.4-10.4-19.4h-16.1c-2.3 0-4.5-1.1-5.9-2.9-5-6.6-15.2-22.2-.7-24.6 15.9-2.6 31.8-44.1 35.8-55.4.6-1.8.6-3.7-.2-5.5l-9.8-22.1c-.8-1.8-.8-3.9-.1-5.7l28.7-71.6c.5-1.3 1.5-2.5 2.7-3.3l35.2-24.4c1.8-1.2 2.9-3.2 3.1-5.4l8.7-93.3c0-.9 0-1.8-.2-2.7l-32.9-71.8c-1.1-4-5.4-6.3-9.3-5.1l-31.3 9.8c-1.1.4-31 19.3-32.2 19.1l-83.7-22.1c-1.3-.2-10.9-2-12.2-1.6l-83.6 31.5c-.8.3-1.5.7-2.1 1.3l-21.9 23.6c-.9.7-1.9 1.3-3 1.5l-149 39.3c-.7.2-1.4.5-2.1.8l-109.4 65.1c-1.9 1.1-3.2 3-3.5 5.2-1.9 12.2-8.2 53.1-5.6 60.9s3.5 13.3 5.4 21.6c1.4 6.5-5.7 11.4-11.3 7.8-8-5.3-8.7-11-12.5-4.9-5.9 9.4 0 36.8 6.1 46s6.1 43.8 6.1 48.5 0 .7 0 1l-9.1 66.9-2.9 23.4c0 .7-.3 1.5-.6 2.1l-29.8 65.6c-.2.5-.5 1-.9 1.4l-29.7 38.6c-.3.4-.6.7-.9 1l-47.2 53.2c-2.9 2.6-3.3 7-.9 10.1v.4z" fill="#e1cf75" opacity=".8" stroke-dasharray="0 0 0 2" stroke-miterlimit="10"/><path d="m4781.6 2275.6-17.2 32.2c-3 5.6-9.6 8.1-15.5 5.9l-14-5.1c-5.5-2-8.9-7.5-8.3-13.2l4.4-41.4c.5-4.3 3.1-8.1 6.9-10l21.8-10.9c7.5-3.7 16.5.7 18.1 8.9l5 25.2c.6 2.9.1 5.9-1.2 8.5z" fill="#e1cf75" stroke-dasharray="0 0 0 2" stroke-miterlimit="10"/><path d="m2499.6 2558.1 8.7-22.5 10.2-14.3 8.2.5 9.7 8.2-4.6 6.1.5 8.2.5 6.1-7.6 7.7 1.5 4.1-2.5 5.1-9.2-3.6-8.7-5.1z" fill="#78cadf" opacity=".8" stroke-dasharray="0 0 0 2" stroke-miterlimit="10"/><path d="m2513.4 2520.3-7.6 12.2-7.2 15.9-4.1 10.2-8.1-6.7-3.6-9.2 5.6-13.2 7.7-9.2 7.1-6.1 7.7-1.1z" fill="#78cadf" opacity=".8" stroke-dasharray="0 0 0 2" stroke-miterlimit="10"/><path d="m3075.6 2869 5.4-6.3 3.8-4.6 5.7-6.7 8.1-.7 4.9 5.8 2.3 8-2.1 8.9 1.6 7.1-10 2.1-5.4-1.8-6.6 2.3-4.8 3.1-4.9-.8-1.8-6.4z" fill="#dfae25" opacity=".8" stroke-dasharray="0 0 0 2" stroke-miterlimit="10"/><path d="m3111.5 2850.8-.3-4.6 2-4.1 4.9-3.1 6.1-2.8s4.9-1.8 5.9-1.3 8.7 7.1 8.7 7.1l3.8 7.7 5.6 9.2-6.9 8.4-4.9 3.3-2.6 3.8-3.8 3.6h-2.8l-4.9-5.6-1.5-8.9-5.9-5.6-3.6-7.1z" fill="#dfae25" opacity=".8" stroke-dasharray="0 0 0 2" stroke-miterlimit="10"/><path d="m3112.4 2870.6-5.3 3.3-.3 6.6 2.8 8.2 3.3 3.8 6.7 3.9 5.3-5.7-1.5-3.8-4.9-2.8-3-7.1z" fill="#dfae25" opacity=".8" stroke-dasharray="0 0 0 2" stroke-miterlimit="10"/><path d="m3082.5 2852.5-5.9 9.2-4.3 7.7-2.6 5.6-2.8 6.9-6.6-.8-3.8-6.1.8-7.7s5.1-4.3 5.9-4.9c.8-.5 6.4-7.1 6.4-7.1l6.9-6.9 9.4-5.1-3.3 9.2z" fill="#dfae25" opacity=".8" stroke-dasharray="0 0 0 2" stroke-miterlimit="10"/><path d="m3077.9 2841.2-8.9 2.6s-6.6 1.8-7.7 2c-1 .3-7.4 6.4-7.4 6.4l-5.1 6.9 2.6 3.6 4.3.5 8.2-6.4 4.9-8.4 9.2-7.1h-.1z" fill="#dfae25" opacity=".8" stroke-dasharray="0 0 0 2" stroke-miterlimit="10"/><path d="m3070.3 2882.3 1.3 3.3 1.5.8v2.1l-4.6 6.6-7.9 5.4-7.2-.6-1-2-.8-6.6 2.6-4.1 5.6-1.8 3.6-1.8z" fill="#dfae25" opacity=".8" stroke-dasharray="0 0 0 2" stroke-miterlimit="10"/><path d="m3081.5 2900.7 4.1 2.3-1 5.4-4.1 6.3-5.1-3.8-1-4.8z" fill="#dfae25" opacity=".8" stroke-dasharray="0 0 0 2" stroke-miterlimit="10"/><path d="m3085.1 2898.4 2.3 4.3.2 1.6 4.6-.8 4.6-5.1 1.8-6.1-6.6-4.1-7.4 9.2z" fill="#dfae25" opacity=".8" stroke-dasharray="0 0 0 2" stroke-miterlimit="10"/><path d="m3130.3 2881.6-2.6 5.6s-2.6 6.1-1.5 6.4c1 .3 3.1 3.6 3.1 3.6l3.8 1.8s3.3-1.3 3.8-3.3 2.6-5.4 2.8-7.1c.3-1.8.8-9.2.8-9.2l-10.2 2.3z" fill="#dfae25" opacity=".8" stroke-dasharray="0 0 0 2" stroke-miterlimit="10"/><path d="m1067.8 1292.6c-9.1-3.5-4.1-19.5-18.4-41.4-4-6.1-10.6-16.3-23-23-9.9-5.4-21.6-7.5-39.8-10.7-12-2.2-16-2.1-19.9-6.1-3.1-3.1-4.1-6.6-6.1-26-2.3-21.1-1.8-24.2-4.6-30.6-2.3-5.5-6.5-15.1-15.3-18.4-8.9-3.3-13.1 3.5-26 1.5-8.1-1.2-13.7-5-19.9-9.2-8.7-5.9-17.4-11.8-19.9-21.4-2.9-11.4 6.5-14.2 4.6-27.6-1.3-9.6-7.6-18.3-15.3-29.1-5.5-7.6-8.2-9.8-7.7-13.8 1-7.4 11.6-7.7 15.3-16.9 3.7-9.1-2.6-19.2-3.1-19.9-5.4-8.4-14.2-9.8-36.8-15.3-38.1-9.3-45.2-13.1-50.6-16.9-4.6-3.2-21.4-14.9-19.9-27.6.9-7.6 7.6-8.7 15.3-21.4 1.2-2 3.9-6.7 9.2-26 8.6-31.2 5.7-33.9 10.7-38.3 6.8-6.1 20.9-4.1 49 0 16.8 2.4 25.3 3.7 33.7 7.7 13.1 6.2 20.8 14.7 30.6 26 26.8 31.1 40.2 46.6 46 56.7 17.5 30.9 9.5 36.8 32.2 81.2 11 21.5 18.9 32 26 39.8 5.6 6.2 14 13.3 30.6 27.6 21.1 18 29.3 23.6 35.2 36.8 3.7 8.3 1.9 9.1 6.1 18.4 2 4.3 7.6 15.5 24.5 30.6 8.1 7.2 67.3 44.4 47.5 32.2 0 0 1.8 15.2 0 23-3.4 14.9-22.3 14.5-52.1 33.7-24 15.5-30.1 27.7-38.3 24.5h.2z" fill="#b0d235" opacity=".8" stroke-dasharray="0 0 0 2" stroke-miterlimit="10"/><path d="m3177.3 2984.5 12.3-13.3 7.7-8.2 14.3-8.2 6.6-4.6 9.7-6.6 6.6 3.1 4.1 4.6s0 5.6-2.6 9.7-7.7 9.7-7.7 9.7l-8.7 4.1-4.6 7.1-2.6 6.1-18.4 15.3-13.8-3.1-14.3-2.6 1.5-8.2 9.7-5.1z" fill="#7691ca" opacity=".8" stroke-dasharray="0 0 0 2" stroke-miterlimit="10"/><path d="m3197.7 3003.3 6.6-5.1 8.7-6.1 3.1 12.3-6.7 5.1-9.7 4.1z" fill="#7691ca" opacity=".8" stroke-dasharray="0 0 0 2" stroke-miterlimit="10"/><path d="m3218.6 2999.3-6.1-11.3 5.1-4.6 4.1-2 5.1 6.6 2 9.7-6.1 4.1z" fill="#7691ca" opacity=".8" stroke-dasharray="0 0 0 2" stroke-miterlimit="10"/><path d="m3222.7 2974.7 3.6 4.6 5.6 7.2 5.1 1 8.2-3.6 4.6-8.6-9.7-4.1h-8.2z" fill="#7691ca" opacity=".8" stroke-dasharray="0 0 0 2" stroke-miterlimit="10"/><path d="m3252.3 2977.8-4.6 6.1-1 4.6 1.5 3.6 7.2 1 5.1-10.7-4.1-8.2z" fill="#7691ca" opacity=".8" stroke-dasharray="0 0 0 2" stroke-miterlimit="10"/><path d="m3193.1 3005.9 3.6 10.7-6.2 7.2-4.6.5-1.5-11.8z" fill="#7691ca" opacity=".8" stroke-dasharray="0 0 0 2" stroke-miterlimit="10"/><path d="m3163 3001.8 5.6 1.5 8.2 1.5 6.1 2-3.6 12.8s1.5 6.6-1 6.6-20.4-3.6-20.4-3.6l-6.6-13.8 11.7-7.1z" fill="#7691ca" opacity=".8" stroke-dasharray="0 0 0 2" stroke-miterlimit="10"/><path d="m3184.9 3028.4-7.1 2.5-2.1 6.7 9.7 2.5 10.2-.5-3.5-13.3z" fill="#7691ca" opacity=".8" stroke-dasharray="0 0 0 2" stroke-miterlimit="10"/><path d="m2792.6 3021-7.6 9.6-7.5 6.5-8.6 9.7-3.2 3.7 3.2 7 8.1-5.9 9.1-8.6 2.7-4.3 9.7-6.5 3.2-8z" fill="#9b1b27" stroke-dasharray="0 0 0 2" stroke-miterlimit="10"/><path d="m2810.9 3012.9 2.1 11.3 3.2 11.8 9.7 1.1 6.5 4.3 9.1-8.1v-10.7-5.4l1.1-10.8 2.7-4.8-2.7-5.4-10.8-.5-22.6 15z" fill="#9b1b27" stroke-dasharray="0 0 0 2" stroke-miterlimit="10"/><path d="m2825.9 3055.9-14-8.6-2.7-4.8 4.9-3.8h7l6.4 4.8 3.3 5.4z" fill="#9b1b27" stroke-dasharray="0 0 0 2" stroke-miterlimit="10"/><path d="m2810.3 3031.7-2.7 5.9-2.7 8.1-8.6-1.1-3.2-4.8 5.4-7.6 6.4-3.7z" fill="#9b1b27" stroke-dasharray="0 0 0 2" stroke-miterlimit="10"/><path d="m2778.6 3067.7-6.5 5.4 2.7 6.5 8.6 1.1 4.9-9.7-6.5-6.5z" fill="#9b1b27" stroke-dasharray="0 0 0 2" stroke-miterlimit="10"/><path d="m2802.3 3067.7-6.5 2.2-2.2 4.3 2.2 3.2 6.5 1.1 4.3-5.9z" fill="#9b1b27" stroke-dasharray="0 0 0 2" stroke-miterlimit="10"/><path d="m2867.5 2852.5-6.6 12.4-.7 13.2 10.2-3 6.6-16-1.5-11z" fill="#9b1b27" stroke-dasharray="0 0 0 2" stroke-miterlimit="10"/><path d="m2875.3 2872.1 6.2 10.7 9.2 6.9h11.1l2.7-14.1-3.9-18-7.3-1.2-.3 11.1-.8 3.5-6.1-1.2-5.4-1.1z" fill="#9b1b27" stroke-dasharray="0 0 0 2" stroke-miterlimit="10"/><path d="m3075.6 2895.1h-5.3l-4.6 3.8-1.9 5.8 2.7 3 4.6-.4 5.7-7.2z" fill="#9b1b27" stroke-dasharray="0 0 0 2" stroke-miterlimit="10"/><path d="m3033.5 2983.9-10.7 13.4 1.1 11.2 8.9 5.7 9.1-6.9-4.9-5.7 2.3-10-1.2-7.7z" fill="#9b1b27" stroke-dasharray="0 0 0 2" stroke-miterlimit="10"/><path d="m3016.7 3000.4s-11.5 3.4-11.5 4.6 5.4 8.4 5.4 8.4l5.7-2.7 3.8-3.4z" fill="#9b1b27" stroke-dasharray="0 0 0 2" stroke-miterlimit="10"/><path d="m2930.9 2982h-10.3l-5.7 3.4s1.5 4.2 2.7 5c1.1.8 9.6 1.9 9.6 1.9l8-5-4.2-5.4h-.1z" fill="#9b1b27" stroke-dasharray="0 0 0 2" stroke-miterlimit="10"/><path d="m2870.8 2972.1-4.3 9.5-3 8.9 10.3 1.1 7.3-3.1-2.3-9.5-3.1-7.7z" fill="#9b1b27" stroke-dasharray="0 0 0 2" stroke-miterlimit="10"/><path d="m2848.2 3003.9-3.5 6.5v4.9l1.2 4.3 6.5 2.6 4.6-10.3 2.6-10.3-5.7-2z" fill="#9b1b27" stroke-dasharray="0 0 0 2" stroke-miterlimit="10"/><path d="m2860.8 3014.2-3.8 5.7 3 6.9v9.2h8.8l10.4-2.7-1.2-11.1-5.7-1.1 7.3-5-.4-5.7h-9.6l-10.7 4.6-1.6.7z" fill="#9b1b27" stroke-dasharray="0 0 0 2" stroke-miterlimit="10"/><path d="m2854.3 3026.1-1.5 11.1-3.5 5.7-.8 6.5 3.1 5-6.1 4.2-6.5-4.2-7.7-7.7 5.8-5.7 7.6-6.1 1.2-10z" fill="#9b1b27" stroke-dasharray="0 0 0 2" stroke-miterlimit="10"/><path d="m2854.3 3039.9-1.2 8.4 6.5 6.1 5.4.4 7.3-1.5 1.5-5.8-5-3 .8-3.9-9.2-1.9z" fill="#9b1b27" stroke-dasharray="0 0 0 2" stroke-miterlimit="10"/><path d="m2894.1 3059.4-2.3-7.3v-9.6l5.4-1.5 3 4.2 2 13-.8 6.9z" fill="#9b1b27" stroke-dasharray="0 0 0 2" stroke-miterlimit="10"/><path d="m2902 3040.1-5.6-4.6c-.2-.2-.3-.5-.2-.7l1.3-3.8c0-.2.3-.4.6-.4l4-.3h.3l5.4-3.2c.2 0 .4-.1.5 0l6.2 2.1c.2 0 .4.3.4.5l1.8 14.1c0 .2 0 .5-.3.6l-5.6 3.8c-.2.1-.3.3-.3.5l-1.1 9.6-.7 3.5c-.1.7-1.1.7-1.3 0l-2.7-8.6-1.1-6.1-1.5-6.7c0-.1-.1-.3-.2-.4h.1z" fill="#9b1b27" stroke-dasharray="0 0 0 2" stroke-miterlimit="10"/><path d="m2915.9 3024.5 3.5 8.1-.4 6.9 2.7 4.2.8 2.7 9.9-5.4-4.6-13.8-6.9-7.6z" fill="#9b1b27" stroke-dasharray="0 0 0 2" stroke-miterlimit="10"/><path d="m2924 3017.6 5.3 5.8 3.1 8.8 3.5-3.8 1.5-6.9-3.5-6.5-6.1-2.7z" fill="#9b1b27" stroke-dasharray="0 0 0 2" stroke-miterlimit="10"/><path d="m2932.8 3008.8 6.1-3.8h5.4l3.8 6.5-4.6 5.8h-3.4z" fill="#9b1b27" stroke-dasharray="0 0 0 2" stroke-miterlimit="10"/><path d="m3008 3033-4.2 3.8-1.9 6.1 6.9 5 6.1-6.5-.7-9.2z" fill="#9b1b27" stroke-dasharray="0 0 0 2" stroke-miterlimit="10"/><path d="m3015.7 3030.5 2.7 7.9 1.1 5.7 6.9-.4s5-.8 5-1.9-6.5-14.6-6.5-14.6l-4.2-5.7z" fill="#9b1b27" stroke-dasharray="0 0 0 2" stroke-miterlimit="10"/><path d="m3009.4 3053.6 5.7-5.3h3.9l9.9-1.9 5 2.3 1.9 8.8-9.6 1.1-7.6.8-3.8 5.3-2 5.4-5.7-5z" fill="#9b1b27" stroke-dasharray="0 0 0 2" stroke-miterlimit="10"/><path d="m3022 3062.8 7.3-1.5 6.1 1.2-1.1 4.9-9.2 5.4-6.1-3.8z" fill="#9b1b27" stroke-dasharray="0 0 0 2" stroke-miterlimit="10"/><path d="m2982.6 3065.1v-7.2l6.1-2 6.1 1.6 3.1 6.9-4.2 1.1-4.6-2.3-1.2 6.9-3.4 1.5z" fill="#9b1b27" stroke-dasharray="0 0 0 2" stroke-miterlimit="10"/><path d="m2999.8 3034.9 5.7-5.7v-5.7l-9.2-1.9s-2.7 4.2-2.7 5.4-2.3 6.5-2.3 6.5l5 3.4 3.4-1.9h.1z" fill="#9b1b27" stroke-dasharray="0 0 0 2" stroke-miterlimit="10"/><path d="m2930.9 3058.2-1.9-7.2 1.1-3.1 3.1-1.5h4.6l1.1 6.5-1.9 9.9-6.1 1.2z" fill="#9b1b27" stroke-dasharray="0 0 0 2" stroke-miterlimit="10"/><path d="m2913.3 3053.2 3.4-6.1 6.6 2.6 1.5 4.3-1.5 9.5 1.5 8.1 1.5 11.5-4.6 3.8-3.4-4.6-1.2-11.9-1.9-11.5-2.8-5.1z" fill="#9b1b27" stroke-dasharray="0 0 0 2" stroke-miterlimit="10"/><path d="m2896.4 3068.6 6.1-2.7 6.2-1.2 3.8-.3.8 6.9v5.7l-.4 4.6v3.1l3 4.9-5.3 6.9-7.7-4.9-2.3-12.7z" fill="#9b1b27" stroke-dasharray="0 0 0 2" stroke-miterlimit="10"/><path d="m2896.8 3084.7-7.3 6.1-1.9 3.8 4.2 7.3 6.9-1.9 3.5-3.1z" fill="#9b1b27" stroke-dasharray="0 0 0 2" stroke-miterlimit="10"/><path d="m2883.8 3088.1 5-4.2 6.5-3.1-4.2-6.9-7.3.8-4.6 3.8-1.9 7.3 2.3 3.8z" fill="#9b1b27" stroke-dasharray="0 0 0 2" stroke-miterlimit="10"/><path d="m2876.5 3073.6 8.4-5.4v-7.7l-1.5-7.6-6.1-1.6-7.3 4.6-2.3 2.7 1.1 8.8 1.6 9.2 3.8 3.1z" fill="#9b1b27" stroke-dasharray="0 0 0 2" stroke-miterlimit="10"/><path d="m2866.5 3078.2 4.3 3.8 3.8 2.3-.8 8-8 7.3-6.5 3.1-12.7-1.6 2.7-8.4 5.4-9.6z" fill="#9b1b27" stroke-dasharray="0 0 0 2" stroke-miterlimit="10"/><path d="m2917.1 3093.9-6.5 6.5 2.7 5.7 8.8-.8 4.2-8z" fill="#9b1b27" stroke-dasharray="0 0 0 2" stroke-miterlimit="10"/><path d="m2907.9 3103 5.4 3.1 3 4.6-.7 5.4-8.1 4.6-3.4-6.2-8.8-4.2 4.6-5z" fill="#9b1b27" stroke-dasharray="0 0 0 2" stroke-miterlimit="10"/><path d="m2893.3 3112.2-10.3 5.4-8.8 5.7s-.8 7.7-.8 9.6-3.1 12.6-3.1 12.6l9.6 1.5 14.9-11.1 5.4-14.2-6.9-9.6z" fill="#9b1b27" stroke-dasharray="0 0 0 2" stroke-miterlimit="10"/><path d="m2976.5 3055.2.7 8.8-3.8 3.8-4.6-3.4-1.5-10z" fill="#9b1b27" stroke-dasharray="0 0 0 2" stroke-miterlimit="10"/><path d="m2994.5 3067.8-2.7 2.3v3.8l3.8 2.3 5.4-3.4 1.5-6.1z" fill="#9b1b27" stroke-dasharray="0 0 0 2" stroke-miterlimit="10"/><path d="m3002.5 3075.1s-1.9.8-2.3 2.7 2.3 8 2.3 8l6.1.8 4.6-7.7-3.4-5.7-8.8 2.3z" fill="#9b1b27" stroke-dasharray="0 0 0 2" stroke-miterlimit="10"/><path d="m2910.2 3139.4-10.7 1.9-2.7 2.7 1.5 4.6 3.5 5.4 10.7-3.8 5.7-6.9z" fill="#9b1b27" stroke-dasharray="0 0 0 2" stroke-miterlimit="10"/><path d="m2895.3 3149h-3.1l-8 2.3-2 14.9 9.2 4.6 6.2-7.2.3-5.4z" fill="#9b1b27" stroke-dasharray="0 0 0 2" stroke-miterlimit="10"/><path d="m2857.7 3162.4-.8 8s-1.1 3.4-1.1 5.7-4.6 9.6-4.6 9.6l-6.9 6.1 5.4 2.7 9.2-3.4 8.4-3.4 1.9-10-3.1-4.2-2.7-7.7v-7.3l-5.7 3.8z" fill="#9b1b27" stroke-dasharray="0 0 0 2" stroke-miterlimit="10"/><path d="m2836.3 3211 11.1-3.4 9.9-2.3 5 4.2 2.7 9.2 3.1 2.3-7.7 8-6.9-6.8-9.2-3.5z" fill="#9b1b27" stroke-dasharray="0 0 0 2" stroke-miterlimit="10"/><path d="m2825.6 3209.9 5.4 10.7 4.6 6.5 7.3 6.1 7.7 6.5 5-2.7s2.7-3.4 2.7-4.6-9.2-8.4-9.2-8.4l-13-8.4-10.3-5.7z" fill="#9b1b27" stroke-dasharray="0 0 0 2" stroke-miterlimit="10"/><path d="m2858.9 3236.3-5.8 6.2 2.3 8.4 10-.4 3.1-7.3z" fill="#9b1b27" stroke-dasharray="0 0 0 2" stroke-miterlimit="10"/><path d="m2863.5 3232.5 2.7 1.9 3 5.4h3.5l4.9-6.5-4.2-10-6.1.8z" fill="#9b1b27" stroke-dasharray="0 0 0 2" stroke-miterlimit="10"/><path d="m2902.5 3269.3-.7-10.4 5-6.9 3.8-3h9.6l5.7 2.3-1.9 9.9-8.4 2.3-7.7 6.9z" fill="#9b1b27" stroke-dasharray="0 0 0 2" stroke-miterlimit="10"/><path d="m2753.2 3115.3-2.3 11.5 5.7 9.2 6.9 6.1 9.2-.4 4.2-3.8-1.5-17.2-6.5-9.2z" fill="#9b1b27" stroke-dasharray="0 0 0 2" stroke-miterlimit="10"/><path d="m4163.3 3108-37.9-19.5-26.4-1.2-3.5 12.7 4.6 3.4 51.7 16.1 15-1.1z" fill="#681d43" opacity=".8" stroke-dasharray="0 0 0 2" stroke-miterlimit="10"/><path d="m3954.2 3290.3-8.4-13-8.5-.8-3.8 4.6 1.6 8.5 5.3 6.9h10l5.3-1.6z" fill="#f47d54" opacity=".8" stroke-dasharray="0 0 0 2" stroke-miterlimit="10"/><path d="m2384.8 857.6c-5.2-2.2-21.1-9-33.7-1.5-5.3 3.2-7.9 7.6-12.3 15.3-7.6 13.4-8.9 25.6-9.2 29.1-.9 11-1.6 18.9 3.1 26 7.1 11 21.7 12.8 41.4 15.3 11.9 1.5 17.6.5 19.9 0 4.7-1 16.5-3.5 23-12.3 11.8-16-2.3-41.8-4.6-46-2.6-4.7-10.6-18.8-27.6-26z" fill="#5874b8" opacity=".8" stroke-dasharray="0 0 0 2" stroke-miterlimit="10"/><path d="m232.4 342.9c6.1 9.8 9.3 11.3 12.3 19.9 2 5.8 4.4 12.7 1.5 19.9-4.5 11.2-17.8 13.7-18.4 13.8-11.2 1.9-22.2-4.4-27.6-12.3-4.9-7.2-1.4-10.2-4.6-33.7-2.1-15.5-4.4-19-1.5-24.5 4.1-8 15.4-13.6 23-10.7 7 2.7 4.6 10.2 15.3 27.6z" fill="#e98c23" opacity=".8" stroke-dasharray="0 0 0 2" stroke-miterlimit="10"/><path d="m60.8 13.6c-1.7 2.7-7.7 13.8-7.7 13.8s7.4 18.4 19.9 23c9.2 3.4 19.3-1.4 26-4.6 9.8-4.7 9.1-7.9 18.4-12.3 14.2-6.7 24.5-3.3 26-7.7 1.6-4.4-7.5-12.3-15.3-16.9-23.4-13.6-58-9.8-67.3 4.7z" fill="#a978b4" opacity=".8" stroke-dasharray="0 0 0 2" stroke-miterlimit="10"/><path d="m134.4 58c-18.8-2.6-21.8-2.7-26-1.5-2.7.7-14.1 3.8-15.3 10.7-1.3 7.4 9.6 16.3 19.9 18.4 10.7 2.1 19.4-3.4 26-7.7 1.6-1 15.6-9.9 13.8-15.3-.7-2-3.2-2.5-18.4-4.6z" fill="#a978b4" opacity=".8" stroke-dasharray="0 0 0 2" stroke-miterlimit="10"/><path d="m3984.8 3239.8-7.6-5.4-4.6 3.1-5.4 9.2-.7 4.6v4.6l4.6 3 4.5 2.3 9.2-.7 3.1-6.9.8-4.6z" fill="#1eb24b" opacity=".8" stroke-dasharray="0 0 0 2" stroke-miterlimit="10"/><path d="m4286.2 3413.6-11.5-51.7s10.3-39.1 11.5-42.5c1.1-3.4 13.8-41.4 13.8-41.4l21.8-19.5 27.6-21.8 29.9 9.2 34.5 1.1-13.8 79.3-72.4 10.3v49.4z" fill="#579b94" opacity=".8" stroke-dasharray="0 0 0 2" stroke-miterlimit="10"/><path d="m48.1 9-37.3-6.2s-9.7 1.1-10.2 2.6 1.5 28.6 1.5 28.6l12.8 18.4 30.6-1.5 4.6-6.6s-2-9.7-2-13.3 7.1-19.4 7.1-19.4-7.1-2.6-7.1-2.6z" fill="#9b9e57" opacity=".8" stroke-dasharray="0 0 0 2" stroke-miterlimit="10"/><path d="m3948.4 3212.1-6.1-.5-4.5 10.5 6.1 7.8 10.6-6.1 3.3-10z" fill="#cb2027" opacity=".8" stroke-dasharray="0 0 0 2" stroke-miterlimit="10"/><path d="m3023.4 2970.2-13.4 6.6 1.2 9.5h10.5l7.2-10z" fill="#ef476b" opacity=".8" stroke-dasharray="0 0 0 2" stroke-miterlimit="10"/><path d="m4140.9 3269.3-8.8 12.7-8.9 12.8-14.5 15.5 6.7 7.8 11.7 11.7 28.3-2.3 13.3-2.2 14.4 1.1 7.2 2.2-3.3-14.9 5.5-14.5 9.5-7.7-3.4-14.5-18.3-1.6-4.4-8.3-6.7 3.3h-12.7l-7.8-2.2-10-5.6z" fill="#f29448" opacity=".8" stroke-dasharray="0 0 0 2" stroke-miterlimit="10"/><path d="m2576.2 2063.3s-23.7 24.1-31.8 23.1c-.2 0-14 9.9-8 25.9 3 7.9 11.8 11.6 16.9 13.8 10 4.2 18.7 3.2 32.2 1.5 16-2 24-3 29.1-9.2 4.2-5.1 4.3-12.6 4.6-27.6.3-15.9.3-24-4.6-30.6-4.6-6.2-13.2-12-21.4-10.7-4.4.7-6.1 2.9-16.9 13.8z" fill="#51a2d9" opacity=".8" stroke-dasharray="0 0 0 2" stroke-miterlimit="10"/><path d="m1620.3 2233.3c-3.1.8-16 4.2-24.5-3.1-6.4-5.4-7.1-14-7.7-21.4-.6-7.2-1.1-14.1 3.1-19.9 3.9-5.4 10.8-7.2 24.5-10.7 4.8-1.2 9.9-2.5 16.9-3.1 12.7-1 14.8 1.7 26 1.5 17.7-.3 24.6-7.4 29.1-3.1 4.7 4.4 1 15.5 0 18.4-3 9-9.3 14.2-10.7 15.3-10.2 8.1-16.2 2.8-30.6 9.2-14.1 6.3-13.2 13.5-26 16.9z" fill="#65c5b5" opacity=".8" stroke-dasharray="0 0 0 2" stroke-miterlimit="10"/><path d="m3439.5 3199.2-3.9 6.9-9.9-3.1v-6.9l-2.3-7.6-1.5-4.6 9.2 3 9.1.8 7.7-.8 14.6 2.3 13 7.7 1.5 10.7v3.8l-1.5 3.9-22.2 2.3-13.8 8.4 4.6-11.5 9.9-4.6 13.8-.8-3.8-11.5-13.8-4.6z" fill="#7051a1" opacity=".8" stroke-dasharray="0 0 0 2" stroke-miterlimit="10"/><path d="m3427.5 3218-3 .7-1.8 2.9 1.1 3.9 4.1.3s4.5-1.2 4.5-3.2-.1-6.8-.1-6.8z" fill="#7051a1" opacity=".8" stroke-dasharray="0 0 0 2" stroke-miterlimit="10"/><path d="m3429 3232.6-6.8-1.2-4.4.8-2.2 2.8s-.6 1.1.4 1.5 6.6 1.7 6.6 1.7l8-1.7-1.7-3.9z" fill="#7051a1" opacity=".8" stroke-dasharray="0 0 0 2" stroke-miterlimit="10"/><path d="m3410.8 3240-13.6-2.6s-11.8 2.9-13.2 3.2-6.6.1-6.6.1-7 4.3-7.7 5-5.9 3-5.9 3l-5.5 1.4-8.1-5-.7-6.1 13.4 4s11.4-6.2 12-6.8 9.6-2.5 9.6-2.5l10.9-1.1 12.5 2.1 3 5.2z" fill="#7051a1" opacity=".8" stroke-dasharray="0 0 0 2" stroke-miterlimit="10"/><path d="m1235.8 825.5c-12.3 5.9-27.6 12.3-27.6 12.3s2.8 64.6 30.6 76.6c14.5 6.3 33-3 42.9-12.3 17.6-16.5 15.8-40.4 15.3-46-2-26.5-21.4-52.1-21.4-52.1s-18.6 11.4-39.8 21.4z" fill="#ddd94d" opacity=".8" stroke-dasharray="0 0 0 2" stroke-miterlimit="10"/><path d="m3845.4 2953.3-8.4 4.6-4.6 8.4 9.2 6.9 6.9 4.6 11.5 1.5h9.9l6.9.8.8-13-7.7-8.4-11.4-3.9z" fill="#177b3d" opacity=".8" stroke-dasharray="0 0 0 2" stroke-miterlimit="10"/><path d="m3976.4 3222.9-6.1 16.9-9.2 9.9-5.4-16.1 3.9-11.4 9.9-10z" fill="#e8e618" opacity=".8" stroke-dasharray="0 0 0 2" stroke-miterlimit="10"/><path d="m3785.7 2783.3 9.2 11.5 10 7.7 6.9 11.5 2.3 7.7 11.5 10 17.6 1.5 11.5-10.7s6.1-13 6.1-15.3-5.4-19.9-5.4-19.9l-15.3-11.5-11.5-13.8-7.7-7.7-16.1 10-16.9 10.7-2.3 8.4z" fill="#38c4e5" opacity=".8" stroke-dasharray="0 0 0 2" stroke-miterlimit="10"/><path d="m3029.2 3189.7-1.4 2.2-8.8 13.7 6.6 10.2h10.2l9.2-9.7 1.5-10.8-5.6-8.1z" fill="#309bd7" opacity=".8" stroke-dasharray="0 0 0 2" stroke-miterlimit="10"/><path d="m3049.6 3246.9-10.7-9.7 2.5-19.4.5-7.1 5.2-6.2v-15.8l1.5-7.7h10.2l24 3.1 19.9 17.9-11.7 4.1-9.2 8.6 1.5 5.7-4.1 9.2-5.6 2-13.3-6.6-4.1 6.1-3 8.7z" fill="#309bd7" opacity=".8" stroke-dasharray="0 0 0 2" stroke-miterlimit="10"/><path d="m3061.3 3229.6-3.5 11.7-4.6 5.1 2.5 3.6 9.2 1 8.2-13.8-3.1-3.6z" fill="#309bd7" opacity=".8" stroke-dasharray="0 0 0 2" stroke-miterlimit="10"/><path d="m3104.2 3205.6-9.7 4-6.1 3.6-2 6.1.5 3.6 4.1 1 8.6-6.1 11.3-5.1 4.1-1-5.1-7.2z" fill="#309bd7" opacity=".8" stroke-dasharray="0 0 0 2" stroke-miterlimit="10"/><path d="m3088.4 3228 10.7-4.6 9.2-3.5 5.6-3.6 3.1 6.1-.5 9.2-3.1 11.2-14.3 17.9-2.5.5h-15.3l2-19.9z" fill="#309bd7" opacity=".8" stroke-dasharray="0 0 0 2" stroke-miterlimit="10"/><path d="m2473.2 2269.3-8 4.5 2.7 7.2 4.2 7.3 7-5.6 3.2-7.8z" fill="#62bb46" opacity=".8" stroke-dasharray="0 0 0 2" stroke-miterlimit="10"/><path d="m3238.4 2997.7-19.5 12.7-18.4 11.5-4.6 8 17.2 20.7h21.9l22.9-16.1-5.7-25.3-4.6-17.2z" fill="#bba234" opacity=".8" stroke-dasharray="0 0 0 2" stroke-miterlimit="10"/><path d="m3258.1 3017.5.9 8.7 2.6 3.9 8.7-1.7s5.7-3.1 5.7-4.4-.9-6.1-.9-6.1l-4.8-2.6-8.3-3.5z" fill="#bba234" opacity=".8" stroke-dasharray="0 0 0 2" stroke-miterlimit="10"/><path d="m3261.9 3041.6 3.2-.5 6.1 7.8 6.5 11.4-5.7 10.5-1.7 1.7-3.1 11.4-10.5 5.2-3.4-6.5-3.1-11.8-8.7 3-1.4 5.7-.4 3.1-1.7 4.3-7.9 8.3-10 7.9-.5-7 7.9-21-4.4-13.9-.9-4 17.9-1.3 16.2-7z" fill="#bba234" opacity=".8" stroke-dasharray="0 0 0 2" stroke-miterlimit="10"/><path d="m3238.5 3092.9 3.5-4.7 1.8-7.3 1.4-4.4 3.4-.4 3 10.3s2.1 4.7 2.1 5.6.8 1.9.2 3.8-6.5 4.3-6.5 4.3l-7.7-.7-1.4-6.1v-.3h.2z" fill="#bba234" opacity=".8" stroke-dasharray="0 0 0 2" stroke-miterlimit="10"/><path d="m3208.9 3078.7 5.8 2.8h6.3l2.8-5-.9-6.1-1.6-3.6-4.6-3.3-9-.4-3.4 1-2.5 5.3 3.5 7.3z" fill="#bba234" opacity=".8" stroke-dasharray="0 0 0 2" stroke-miterlimit="10"/><path d="m3207.9 3084 5.6 1 6.1-.3-2.3 6.6-2.5 10.7.4 4.7-.3 1.1h-9.6l-8.2-2.9s.5-4.1.6-5.1 3.3-8 3.3-8l2.3-.7 3.4-3 1.4-4.4v.3z" fill="#bba234" opacity=".8" stroke-dasharray="0 0 0 2" stroke-miterlimit="10"/><path d="m3272 3077.1v7.4l-4.9 3.4-1.8 11.4.6 5.7 11.4-2.6 8.2.3 8.2-31.7-7.9-5.4-5.6-6.6z" fill="#bba234" opacity=".8" stroke-dasharray="0 0 0 2" stroke-miterlimit="10"/><path d="m3296.2 3072.5-6.9 31.2 8.7 5.3 6.4 2.3.8-10.2-2.9-23.2z" fill="#bba234" opacity=".8" stroke-dasharray="0 0 0 2" stroke-miterlimit="10"/><path d="m3305.2 3076.6-1.8-5.3 1.3-4.6 7.6-4.4 6.7 3.6 7.6 11.2 5.9 14.1-2.8 22.4-9.7 3.9-4.4 3.8-10.7-3.3-1.8-5.1 3.9-4.4 1.8-8.1-2.6-16.4z" fill="#bba234" opacity=".8" stroke-dasharray="0 0 0 2" stroke-miterlimit="10"/><path d="m3224.2 3131.5 10.3-11.5 18.6-8.1 11.5-5.4h8.4l4.6 1.8 1.3 2.8-4.9 4.6-7.6 2.8-19.4 10.7-11.3 3.8z" fill="#bba234" opacity=".8" stroke-dasharray="0 0 0 2" stroke-miterlimit="10"/><path d="m3244.7 3105.2-9.4 1.3-10.5 1.3-4.9 8.7-.8 9.4 5.9-3.1s6.9-6.1 7.7-6.6 11.2-4.9 11.2-4.9z" fill="#bba234" opacity=".8" stroke-dasharray="0 0 0 2" stroke-miterlimit="10"/><path d="m3025.6 3089.6 7.2-.8 8.5 3.5 2.5 5.6 2 9.3-2.8 8-5.8-1.3-1.4-8.9-3.6-1.9-6.6-4.1-4.1-6.4z" fill="#844c9e" opacity=".8" stroke-dasharray="0 0 0 2" stroke-miterlimit="10"/></g><g opacity=".8"><path d="m1690.8 2208.8c-6.2 6.4-16.9 11.4-38.3 21.4-12.5 5.8-19 8-23 15.3-3.1 5.7-2.6 12-1.5 24.5 1.4 16.7 2.1 25.1 6.1 30.6 7.2 9.9 18 8 41.4 13.8 32.3 8 31 16.4 53.6 19.9 30.8 4.8 55.8-7.2 59.7-9.2 6.5-3.2 37.1-18.5 47.5-52.1 6.7-21.5 1.8-40-3.1-58.2-2-7.6-1.7-3.9-29.1-59.7-5.9-12.1-11.2-23-23-32.2-10.3-8-19.8-10.1-23-10.7-4.8-.9-10.4-1.9-16.9 0-11.4 3.5-17.4 14-21.4 21.4-5.3 9.7-6 15.9-9.2 27.6-6.8 25-10.2 37.5-19.9 47.5h.1z" fill="#ce4a4a"/><path d="m1690.8 2208.8c-6.2 6.4-16.9 11.4-38.3 21.4-12.5 5.8-19 8-23 15.3-3.1 5.7-2.6 12-1.5 24.5 1.4 16.7 2.1 25.1 6.1 30.6 7.2 9.9 18 8 41.4 13.8 32.3 8 31 16.4 53.6 19.9 30.8 4.8 55.8-7.2 59.7-9.2 6.5-3.2 37.1-18.5 47.5-52.1 6.7-21.5 1.8-40-3.1-58.2-2-7.6-1.7-3.9-29.1-59.7-5.9-12.1-11.2-23-23-32.2-10.3-8-19.8-10.1-23-10.7-4.8-.9-10.4-1.9-16.9 0-11.4 3.5-17.4 14-21.4 21.4-5.3 9.7-6 15.9-9.2 27.6-6.8 25-10.2 37.5-19.9 47.5h.1z" fill="none" stroke="#000" stroke-dasharray="0 0 0 0 0 0 2 2" stroke-miterlimit="10"/></g><path d="m374.9 87.1c-12.5-19.6-37.3-21.1-42.9-21.4-17.2-1-29.8 5.5-36.8 9.2-8.5 4.5-34.2 18.2-35.2 41.4-.6 13 6.8 23.1 9.2 26 8.3 10.3 14.5 7.4 29.1 18.4 17 12.8 17 23.2 27.6 24.5 9 1.2 16.6-5.5 26-13.8 6.8-6 20.5-18.4 26-39.8 2.6-10 7.2-28.2-3.1-44.4z" fill="#85ad50" opacity=".8" stroke="#000" stroke-dasharray="0 0 0 2" stroke-miterlimit="10"/><path d="m3162.2 2922.4c-4.2.8-13.4 2.7-19.9 10.7-1.3 1.6-7.7 9.5-5.4 16.1 1.1 3 4.6 7.7 4.6 7.7s10.1 10.1 19.9 10c6.9 0 12.1-5.3 15.3-8.4 5.8-5.7 4.7-8.8 12.3-18.4 5.1-6.5 7.2-7 6.9-9.2-.8-6.3-18.5-11.4-33.7-8.4z" fill="#76cccd" opacity=".8" stroke="#000" stroke-dasharray="0 0 0 2" stroke-miterlimit="10"/><path d="m3129.3 2955.3c6.9 5.5 5.4 10.5 11.5 13 5.5 2.3 9-.9 16.1 2.3 1.2.5 6.3 2.9 6.1 5.4-.3 3.2-9.2 2-13.8 7.7-4.9 6.1 1.1 12.5-3.1 19.9-4.7 8.2-17.4 9.3-24.5 10-1.9.2-11 .8-22.2-3.1-9-3.1-19.3-6.7-21.4-14.6-1.4-5 3.7-12.3 13.8-26.8 11.7-16.8 15.3-18.5 18.4-19.1 9.5-2.1 18.6 5 19.1 5.4z" fill="#76cccd" opacity=".8" stroke="#000" stroke-dasharray="0 0 0 2" stroke-miterlimit="10"/><path d="m4239 3461.3-1.5 23.7 20 5.9 14.8 3 15.5-15.6 5.2-8.8-1.5-11.1-25.1 2.2-17.8-1.5-7.4-8.9z" fill="#c7db4e" opacity=".8" stroke="#231f20" stroke-dasharray="0 0 0 2" stroke-miterlimit="10"/><g opacity=".8"><path d="m3967.1 3358.5 3 19.9 20 16.8 33.7 16.9 27.5 9.2 18.4 12.2 26.1-3v-24.5l-18.4-1.6-27.6-4.6-19.9-9.2-16.9-16.8-6.1-27.6-7.7-16.8z" fill="#c063a6"/><g fill="none" stroke="#231f20" stroke-miterlimit="10"><path d="m3967.8 3357.8-.7.7.1 1"/><path d="m3967.5 3361.5 2.6 16.9 19.9 16.8 33.8 16.9 27.5 9.2 18.4 12.2 24.1-2.8" stroke-dasharray="0 0 0 0 0 0 2 2"/><path d="m4094.8 3430.6 1-.1v-1"/><path d="m4095.8 3427.4v-19.4" stroke-dasharray="0 0 0 0 0 0 2 2"/><path d="m4095.8 3407v-1l-1-.1"/><path d="m4092.8 3405.7-15.4-1.3-27.6-4.6-19.9-9.2-16.9-16.8-6.1-27.6-6.8-15" stroke-dasharray="0 0 0 0 0 0 2 2"/><path d="m3999.7 3330.3-.5-.9-.7.6"/><path d="m3997 3331.4-28.5 25.7" stroke-dasharray="0 0 0 0 0 0 2 2"/></g></g><path d="m2804.5 3101.9-13.8 15.3-9.2 13.8 4.6 21.5 10.7 3 20-3 10.7-21.5-6.2-18.4z" fill="#7ac588" opacity=".8" stroke="#231f20" stroke-dasharray="0 0 0 2" stroke-miterlimit="10"/><path d="m2887.2 3193.8-9.2 18.4v9.2l13.8 7.6 12.3-27.5 1.5-15.3z" fill="#7ac588" opacity=".8" stroke="#231f20" stroke-dasharray="0 0 0 2" stroke-miterlimit="10"/><path d="m2911.8 3188.7-4.5 18-8.2 18.8-2 6.1 6.1-.4 9.4-5.3 9.4-11.9v-17.6z" fill="#7ac588" opacity=".8" stroke="#231f20" stroke-dasharray="0 0 0 2" stroke-miterlimit="10"/><path d="m3783.4 2810.1-.8 9.2 8.5 4.6h12.2l2.3-13.8-7.7-7.7-10.7-5.4z" fill="#f04f4f" opacity=".8" stroke="#231f20" stroke-dasharray="0 0 0 2" stroke-miterlimit="10"/></svg>