<?xml version="1.0" encoding="utf-8"?>
<!-- Generator: Adobe Illustrator 26.4.1, SVG Export Plug-In . SVG Version: 6.00 Build 0)  -->
<svg version="1.1" id="Layer_1" xmlns="http://www.w3.org/2000/svg" xmlns:xlink="http://www.w3.org/1999/xlink" x="0px" y="0px"
	 viewBox="0 0 1000 730.5" style="enable-background:new 0 0 1000 730.5;" xml:space="preserve">
<style type="text/css">
	.st0{opacity:0.8;fill:#18763B;stroke:#000000;stroke-miterlimit:10;stroke-dasharray:0,2;enable-background:new    ;}
	.st1{opacity:0.8;fill:#9F3493;stroke:#000000;stroke-miterlimit:10;stroke-dasharray:0,2;enable-background:new    ;}
	.st2{opacity:0.8;fill:#184786;stroke:#000000;stroke-miterlimit:10;stroke-dasharray:0,2;enable-background:new    ;}
	.st3{opacity:0.8;fill:#337874;stroke:#000000;stroke-miterlimit:10;stroke-dasharray:0,2;enable-background:new    ;}
	.st4{opacity:0.8;fill:#CCA638;stroke:#000000;stroke-miterlimit:10;stroke-dasharray:0,2;enable-background:new    ;}
	.st5{opacity:0.8;fill:#CC763B;stroke:#000000;stroke-miterlimit:10;stroke-dasharray:0,2;enable-background:new    ;}
	.st6{opacity:0.8;fill:#0C688A;stroke:#000000;stroke-miterlimit:10;stroke-dasharray:0,2;enable-background:new    ;}
	.st7{opacity:0.8;fill:#A08955;stroke:#000000;stroke-miterlimit:10;stroke-dasharray:0,2;enable-background:new    ;}
	.st8{opacity:0.8;fill:#6E54A3;stroke:#000000;stroke-miterlimit:10;stroke-dasharray:0,2;enable-background:new    ;}
	.st9{opacity:0.8;fill:#43BB94;stroke:#000000;stroke-miterlimit:10;stroke-dasharray:0,2;enable-background:new    ;}
	.st10{opacity:0.8;fill:#66C07E;stroke:#000000;stroke-miterlimit:10;stroke-dasharray:0,2;enable-background:new    ;}
	.st11{opacity:0.8;fill:#2E639F;stroke:#000000;stroke-miterlimit:10;stroke-dasharray:0,2;enable-background:new    ;}
	.st12{opacity:0.8;fill:#EEB726;stroke:#000000;stroke-miterlimit:10;stroke-dasharray:0,2;enable-background:new    ;}
	.st13{opacity:0.8;fill:#CDCD2B;stroke:#000000;stroke-miterlimit:10;stroke-dasharray:0,2;enable-background:new    ;}
	.st14{opacity:0.8;fill:#CB4527;stroke:#000000;stroke-miterlimit:10;stroke-dasharray:0,2;enable-background:new    ;}
	.st15{opacity:0.8;fill:#AAD371;stroke:#000000;stroke-miterlimit:10;stroke-dasharray:0,2;enable-background:new    ;}
	.st16{opacity:0.8;fill:#AC1F23;stroke:#000000;stroke-miterlimit:10;stroke-dasharray:0,2;enable-background:new    ;}
	.st17{opacity:0.8;fill:#EDDA8C;stroke:#000000;stroke-miterlimit:10;stroke-dasharray:0,2;enable-background:new    ;}
	.st18{opacity:0.8;fill:#3B53A4;stroke:#000000;stroke-miterlimit:10;stroke-dasharray:0,2;enable-background:new    ;}
	.st19{opacity:0.8;fill:#6ACBDE;stroke:#000000;stroke-miterlimit:10;stroke-dasharray:0,2;enable-background:new    ;}
	.st20{opacity:0.8;fill:#ED1985;stroke:#000000;stroke-miterlimit:10;stroke-dasharray:0,2;enable-background:new    ;}
	.st21{opacity:0.8;fill:#75512D;stroke:#000000;stroke-miterlimit:10;stroke-dasharray:0,2;enable-background:new    ;}
	.st22{opacity:0.8;fill:#6050A1;stroke:#000000;stroke-miterlimit:10;stroke-dasharray:0,2;enable-background:new    ;}
	.st23{opacity:0.8;fill:#9A3083;stroke:#000000;stroke-miterlimit:10;stroke-dasharray:0,2;enable-background:new    ;}
	.st24{opacity:0.8;fill:#B14E9D;stroke:#000000;stroke-miterlimit:10;stroke-dasharray:0,2;enable-background:new    ;}
	.st25{opacity:0.8;fill:#63BC46;stroke:#000000;stroke-miterlimit:10;stroke-dasharray:0,2;enable-background:new    ;}
	.st26{opacity:0.8;fill:#69C9CF;stroke:#000000;stroke-miterlimit:10;stroke-dasharray:0,2;enable-background:new    ;}
	.st27{opacity:0.8;fill:#784B9E;stroke:#000000;stroke-miterlimit:10;stroke-dasharray:0,2;enable-background:new    ;}
	.st28{opacity:0.8;fill:#9CD9E4;stroke:#000000;stroke-miterlimit:10;stroke-dasharray:0,2;enable-background:new    ;}
	.st29{opacity:0.8;fill:#5EC08E;stroke:#000000;stroke-miterlimit:10;stroke-dasharray:0,2;enable-background:new    ;}
	.st30{opacity:0.8;fill:#E1CF75;stroke:#000000;stroke-miterlimit:10;stroke-dasharray:0,2;enable-background:new    ;}
	.st31{fill:#E1CF75;stroke:#000000;stroke-miterlimit:10;stroke-dasharray:0,2;}
	.st32{opacity:0.8;fill:#78CADF;stroke:#000000;stroke-miterlimit:10;stroke-dasharray:0,2;enable-background:new    ;}
	.st33{opacity:0.8;fill:#DFAE25;stroke:#000000;stroke-miterlimit:10;stroke-dasharray:0,2;enable-background:new    ;}
	.st34{opacity:0.8;fill:#B0D235;stroke:#000000;stroke-miterlimit:10;stroke-dasharray:0,2;enable-background:new    ;}
	.st35{opacity:0.8;fill:#7691CA;stroke:#000000;stroke-miterlimit:10;stroke-dasharray:0,2;enable-background:new    ;}
	.st36{fill:#9B1B27;stroke:#000000;stroke-miterlimit:10;stroke-dasharray:0,2;}
	.st37{opacity:0.8;fill:#681D43;stroke:#000000;stroke-miterlimit:10;stroke-dasharray:0,2;enable-background:new    ;}
	.st38{opacity:0.8;fill:#F47D54;stroke:#000000;stroke-miterlimit:10;stroke-dasharray:0,2;enable-background:new    ;}
	.st39{opacity:0.8;fill:#5874B8;stroke:#000000;stroke-miterlimit:10;stroke-dasharray:0,2;enable-background:new    ;}
	.st40{opacity:0.8;fill:#E98C23;stroke:#000000;stroke-miterlimit:10;stroke-dasharray:0,2;enable-background:new    ;}
	.st41{opacity:0.8;fill:#A978B4;stroke:#000000;stroke-miterlimit:10;stroke-dasharray:0,2;enable-background:new    ;}
	.st42{opacity:0.8;fill:#1EB24B;stroke:#000000;stroke-miterlimit:10;stroke-dasharray:0,2;enable-background:new    ;}
	.st43{opacity:0.8;fill:#579B94;stroke:#000000;stroke-miterlimit:10;stroke-dasharray:0,2;enable-background:new    ;}
	.st44{opacity:0.8;fill:#9B9E57;stroke:#000000;stroke-miterlimit:10;stroke-dasharray:0,2;enable-background:new    ;}
	.st45{opacity:0.8;fill:#CB2027;stroke:#000000;stroke-miterlimit:10;stroke-dasharray:0,2;enable-background:new    ;}
	.st46{opacity:0.8;fill:#EF476B;stroke:#000000;stroke-miterlimit:10;stroke-dasharray:0,2;enable-background:new    ;}
	.st47{opacity:0.8;fill:#F29448;stroke:#000000;stroke-miterlimit:10;stroke-dasharray:0,2;enable-background:new    ;}
	.st48{opacity:0.8;fill:#51A2D9;stroke:#000000;stroke-miterlimit:10;stroke-dasharray:0,2;enable-background:new    ;}
	.st49{opacity:0.8;fill:#65C5B5;stroke:#000000;stroke-miterlimit:10;stroke-dasharray:0,2;enable-background:new    ;}
	.st50{opacity:0.8;fill:#7051A1;stroke:#000000;stroke-miterlimit:10;stroke-dasharray:0,2;enable-background:new    ;}
	.st51{opacity:0.8;fill:#DDD94D;stroke:#000000;stroke-miterlimit:10;stroke-dasharray:0,2;enable-background:new    ;}
	.st52{opacity:0.8;fill:#177B3D;stroke:#000000;stroke-miterlimit:10;stroke-dasharray:0,2;enable-background:new    ;}
	.st53{opacity:0.8;fill:#E8E618;stroke:#000000;stroke-miterlimit:10;stroke-dasharray:0,2;enable-background:new    ;}
	.st54{opacity:0.8;fill:#38C4E5;stroke:#000000;stroke-miterlimit:10;stroke-dasharray:0,2;enable-background:new    ;}
	.st55{opacity:0.8;fill:#309BD7;stroke:#000000;stroke-miterlimit:10;stroke-dasharray:0,2;enable-background:new    ;}
	.st56{opacity:0.8;fill:#62BB46;stroke:#000000;stroke-miterlimit:10;stroke-dasharray:0,2;enable-background:new    ;}
	.st57{opacity:0.8;fill:#BBA234;stroke:#000000;stroke-miterlimit:10;stroke-dasharray:0,2;enable-background:new    ;}
	.st58{opacity:0.8;fill:#844C9E;stroke:#000000;stroke-miterlimit:10;stroke-dasharray:0,2;enable-background:new    ;}
	.st59{opacity:0.8;}
	.st60{fill:#CE4A4A;}
	.st61{fill:none;stroke:#000000;stroke-miterlimit:10;stroke-dasharray:0,0,2,2;}
	.st62{opacity:0.8;fill:#85AD50;stroke:#000000;stroke-miterlimit:10;stroke-dasharray:0,2;enable-background:new    ;}
	.st63{opacity:0.8;fill:#76CCCD;stroke:#000000;stroke-miterlimit:10;stroke-dasharray:0,2;enable-background:new    ;}
	.st64{opacity:0.8;fill:#C7DB4E;stroke:#231F20;stroke-miterlimit:10;stroke-dasharray:0,2;enable-background:new    ;}
	.st65{fill:#C063A6;}
	.st66{fill:none;stroke:#231F20;stroke-miterlimit:10;}
	.st67{fill:none;stroke:#231F20;stroke-miterlimit:10;stroke-dasharray:0,0,2,2;}
	.st68{opacity:0.8;fill:#7AC588;stroke:#231F20;stroke-miterlimit:10;stroke-dasharray:0,2;enable-background:new    ;}
	.st69{opacity:0.8;fill:#F04F4F;stroke:#231F20;stroke-miterlimit:10;stroke-dasharray:0,2;enable-background:new    ;}
</style>
<g id="Zoque">
	<polygon class="st0" points="719.2,657.2 716.5,657.5 714.9,661 715.5,663.6 718.1,664.5 720.5,663.1 720.8,661.3 721.6,658.7 	"/>
	<polygon class="st0" points="793.4,676 785.5,676.7 786.8,683.4 791.4,682.5 793.7,679.6 	"/>
	<polygon class="st0" points="821.2,658.9 817.7,659.4 818.4,661.8 820.6,662.3 822.3,660.8 	"/>
	<path class="st0" d="M767.4,631.4l1.3-3.1l2.6-0.5c0,0,1.4,0.6,1.9,0.6c0.5,0,3.4-0.8,3.4-0.8l3.1-1l1.4,0.8l-0.3,2.9l-2.9,2.2
		l-2.6,2.1l-1.9-1.8h-2.6l-2.1,0.2L767.4,631.4L767.4,631.4z"/>
	<polygon class="st0" points="773.8,635.4 772.4,634.2 770.9,634.4 770.9,636.3 771.4,637.6 772.5,638.1 774.3,637.4 	"/>
	<polygon class="st0" points="780.4,631.8 778.9,632.6 778.1,634.2 778.3,635.4 779.6,635.7 781.5,635.2 782.2,633.1 781.7,631.5 	
		"/>
	<polygon class="st0" points="790.8,590.5 787.9,588.3 784.7,589.6 785.2,593.1 788.2,593.6 790.5,592.8 	"/>
	<polygon class="st0" points="858.4,636.8 855.3,637 854.2,639.8 856.1,641.5 857.6,641.6 859.7,640.5 	"/>
</g>
<g id="Zapoteco">
	<path class="st1" d="M687.3,617.3l0.3,2.4l-0.6,2.4l-0.5,1.6l-1,1.3l-4.8,2.9c0,0,0,1.4,0.8,1.3c0.8-0.2,3.2-1.6,3.2-1.6l2.9-2.2
		l1.4-3.2l1.6-2.9l-2.1-3.1L687.3,617.3L687.3,617.3z"/>
	<polygon class="st1" points="707,645.4 705,646.7 705,648.3 707.2,649 709.3,647.7 708.6,645.3 	"/>
	<path class="st1" d="M701.3,674.8l-5.8-0.2l-0.2-2.2l0.3-1.3l0.8-1.4l2.2-2.6l0.6-1.6l1.1-0.2l1.3,1.8l1,1l1,1.3l0.6,1.6h5.8
		l1.9,0.2l1.3-0.6l1.1,0.3l0.5,0.8v1c0,0,0.5,0.6,0,1.1c-0.5,0.5-1.4,1.1-2.2,1.1c-0.8,0-2.7-0.3-2.7-0.3l-4.3-1.1l-2.9-1.9
		L701.3,674.8L701.3,674.8z"/>
	<polygon class="st1" points="688.8,669.5 686.5,667.4 682.9,666.6 680.6,666.4 677.7,667.1 677.3,670 677.6,671.4 678.4,671.7 
		679.7,672.7 681.6,673.2 683.5,671.4 682.2,669.8 683.3,669.3 684.1,669.3 685.6,669.8 687.7,670.6 	"/>
	<polygon class="st1" points="677.7,662.6 676.1,662.6 674.7,663.9 674.7,666 677.1,666.4 678.8,665.8 679.2,663.9 	"/>
	<polygon class="st1" points="675.2,669 673.9,668.7 672.9,669.5 673.4,670.1 675,670.6 	"/>
	<polygon class="st1" points="675.6,673.3 674.5,672.8 673.6,673.8 673.7,675.1 675,675.7 676.1,674.6 	"/>
	<polygon class="st1" points="656.9,644.3 655,645.7 655.2,646.9 656,647.5 657.8,645.9 	"/>
	<polygon class="st1" points="654.4,645.3 655.6,644.8 656.4,644.2 655.7,642.7 654.7,642.7 653.7,643.1 653.7,644.9 	"/>
	<path class="st1" d="M656.9,643.1l-0.8-1.1l0.2-0.9l1.7-0.1c0,0,0.6,0.2,0.8,0.5c0.1,0.3,0.2,1.2,0.2,1.2v1l-1.1,0.4h-1.1
		L656.9,643.1L656.9,643.1z"/>
	<polygon class="st1" points="664.1,637.9 666,642.5 665.9,643.5 664.7,643.3 663.3,642.2 661.9,642.1 660.6,642.5 659.7,642.7 
		659.2,641 659.2,640.1 660.2,639.1 663.6,637.4 	"/>
	<polygon class="st1" points="666.4,644.1 664.8,643.9 664.1,644 664.4,645.3 665.3,645.4 666.3,645.4 	"/>
	<polygon class="st1" points="663.7,643.2 662.6,642.5 662,642.6 662,643.7 662.3,644.2 662.9,644.7 663.7,644.7 	"/>
	<polygon class="st1" points="661.2,642.8 660.4,643.1 659.9,643.5 659.8,644.3 660.2,645 661.2,645 661.8,644.9 	"/>
	<polygon class="st1" points="664.2,645.6 663.9,645.8 663.1,645.9 662.8,645.9 661.8,645.9 660.8,646.1 660.7,646.4 660.9,647 
		661.3,647.3 662.1,647.4 663.2,647.3 663.2,646.8 663.7,646.5 664.2,646.1 	"/>
	<path class="st1" d="M656.4,647.7l1.1-0.9l0.6-0.5l0.4-0.4c0,0,0.4-0.3,0.5-0.1s0.3,0.5,0.3,0.5l0.5,1.3l-0.1,0.9l-0.9,0.8
		l-1.2-0.1L656.4,647.7L656.4,647.7z"/>
	<polygon class="st1" points="652.6,649.6 651.6,649.5 651.5,650.3 652.1,650.7 652.8,650.5 	"/>
	<polygon class="st1" points="652.3,651.7 651.6,651.6 651.4,651.8 651.4,652.1 651.5,652.6 652.1,652.5 	"/>
	<polygon class="st1" points="651.7,653.3 652.2,653.3 652.6,653.5 653.4,653.5 654.1,653.2 654.3,653.6 654.2,654.1 653.3,654.2 
		652.9,654 652.1,653.9 651.5,653.7 	"/>
	<polygon class="st1" points="650.2,656 649.2,655.9 649.1,656.5 649.2,656.9 649.7,656.9 650,656.7 	"/>
	<polygon class="st1" points="651.3,655.5 650.8,656.2 651,656.8 651.5,656.9 652.2,656.5 652.2,655.9 651.8,655.3 	"/>
	<polygon class="st1" points="654.1,655.9 652.6,656.7 652.3,657.7 652.3,658.6 652.4,659.2 652.9,659.6 653.9,659.1 654.6,657.8 
		654.6,656.7 	"/>
	<polygon class="st1" points="657.1,654.1 656.2,654.5 656.4,655 657.6,655.1 657.8,654.4 	"/>
	<polygon class="st1" points="654,654.7 654,655.5 654.1,655.9 654.7,656.1 655.3,655.8 655.9,655 655.3,654 654.4,654.1 	"/>
	<polygon class="st1" points="657.2,653.2 657.6,653.7 658.1,654.1 658.5,653.7 659,653.2 659.7,653.2 660.4,653.6 660.8,654.5 
		661.5,654.1 661.9,653.3 661.3,652.6 661,652 660.7,650.6 660.2,650 658.3,650 657.2,650.6 657.3,651.1 657.8,651.9 657.5,652.6 	
		"/>
	<polygon class="st1" points="662.2,650.6 662.8,651.1 663.3,651.1 664.1,651 664.1,650.3 663.3,650.2 662.5,650 662.1,650 	"/>
	<polygon class="st1" points="663.7,652.2 662.8,652.1 662.2,652.3 662.4,653 663.6,653.2 	"/>
	<polygon class="st1" points="664.1,652.2 663.9,653.3 664.3,653.4 664.9,653 665,652.4 664.9,652 	"/>
	<polygon class="st1" points="665.2,649.3 664.8,650 665.2,650.5 665.7,649.7 	"/>
	<polygon class="st1" points="666.2,648.8 666,649.6 665.6,650.4 666.2,650.5 666.7,649.8 666.7,648.9 	"/>
	<polygon class="st1" points="667,654.3 666.8,654.9 666.3,655.3 665.3,656.4 665.2,657.2 666.2,657.6 667,657.6 668,658.1 
		668.1,656.8 667.4,656 668,655.7 669,655 668.3,654.1 667.4,653.7 	"/>
	<polygon class="st1" points="662.3,653.4 662.8,653.4 664.7,653.5 666,654 666.4,654.3 665.9,655 665.3,655.6 665,655.8 664,655.6 
		663.4,655.1 662.9,654.9 662.4,654.2 	"/>
	<polygon class="st1" points="661.1,654.6 661.6,654.4 661.9,654.6 662.2,654.7 662.3,655.2 662.1,655.6 661.6,655.7 660.8,655.6 	
		"/>
	<polygon class="st1" points="660.3,655.1 660.4,655.6 660.7,656.3 659.9,656.7 659.5,656.2 659.3,655.2 	"/>
	<polygon class="st1" points="658.8,655.4 658.8,656.1 658.8,656.3 658.2,656.3 657.9,655.7 	"/>
	<polygon class="st1" points="657.4,655.4 656.9,656 656.8,656.5 657.4,656.8 657.7,656.3 657.7,655.8 	"/>
	<polygon class="st1" points="655.3,658 654.7,658.2 654.6,658.7 654.8,659.3 655.6,659 655.8,658.3 	"/>
	<path class="st1" d="M657.1,659.2l-0.8,0.2l-0.1,0.9l0.5,0.5c0,0,0.4,0,0.7-0.2c0.3-0.2,0.5-1.1,0.5-1.1l-0.4-0.7L657.1,659.2
		L657.1,659.2z"/>
	<path class="st1" d="M654.3,661l-1.5,0.2l-1.1,1.1l0.3,2c0,0,0.2,0.4,0.4,0.4s1.2,0.6,1.2,0.6l1.3-0.8l0.5-1.5l-0.4-1.3L654.3,661
		L654.3,661z"/>
	<polygon class="st1" points="649,658.3 647.8,658.4 647.1,658.7 647,659.5 647.5,660.2 649.4,659.8 649.7,658.6 	"/>
	<polygon class="st1" points="660.1,666.2 658.7,666.1 658.7,667.2 659,667.7 659.7,667.6 660.4,667 	"/>
	<polygon class="st1" points="662.5,667.4 662.2,668.1 662.2,669.1 662.7,669.9 663.8,670.5 664.4,669.7 664,668.7 663.4,667.9 
		662.9,667.1 	"/>
	<polygon class="st1" points="663,670.5 662,670.1 661,670.3 660.4,670.8 660.2,671.6 660.9,672.3 662.1,672.1 662.9,671.6 	"/>
	<polygon class="st1" points="662.8,672 662.4,672.3 661.7,672.5 661.5,672.9 661.7,673.4 662.5,673.7 663.5,673.2 663.8,672.4 
		663.4,671.9 	"/>
	<path class="st1" d="M652,699.2l-0.4-2.7l-0.1-0.9l0.3-1.2c0,0,1.8-1.3,2.1-1.5c0.3-0.2,1.5-2.2,1.5-2.2s0.4-1.3,0.4-1.5
		c0.1-0.2,0.3-1,0.3-1s4.6-4,4.8-4.3s0.6-2.8,0.6-2.8l-0.6-2.5l0.9-1.6c0,0,2.3-1.4,2.4-1.4h3.8l0.4,2c0,0-0.4,1.4-0.4,1.6
		c0,0.2-1.1,2.4-1.1,2.9c0,0.4,0.3,2.3,0.3,2.3s0.8,0.8,1,1.2c0.2,0.4,1.5,3,1.5,3l0.6,3.3l0.2,4.4v1.3l-4.1,2l-4.4,1.9l-1.5-0.1
		l-5.2-1.2l-2.9-0.1l-0.6-0.9L652,699.2L652,699.2z"/>
	<path class="st1" d="M670.2,676.9l-0.8,1.1l-0.2,1l0.1,0.8l0.2,0.7c0,0,0.6,1.9,0.8,2.1s0.7,1.6,0.7,1.6l0.4,1.1l0.8,1.8l0.3,1
		l0.3,2.9l-0.3,2.4v1.7l0.9,0.1l1.7-0.5l0.9-1.2c0,0-0.1-1.9-0.1-2.1s-0.2-1.6-0.2-1.6l0.3-1.4l0.8-1.5c0,0,0.6-0.8,0.8-1.1
		s-0.2-2.4-0.3-2.6c-0.1-0.2-1.8-1.9-1.8-1.9l-1.1-0.7l-1.7-1.2l-0.8-1.9l-1-0.9L670.2,676.9L670.2,676.9z"/>
	<polygon class="st1" points="673.9,679.5 674.3,678.8 674.6,678.3 675.1,678.4 675.4,678.7 675,679.6 674.4,679.9 	"/>
	<polygon class="st1" points="673.4,678.9 673,678.5 672.5,677.7 672.4,677 672.8,676.5 673.5,676.6 674.2,677.2 674.3,677.9 	"/>
	<polygon class="st1" points="675.2,680.3 675.6,679.4 675.6,678.2 674.9,677.8 674.4,676.7 673.8,676.1 674.6,675.9 675.4,676.4 
		676,677.3 676.5,677.7 677,678.2 677.3,678.7 678.4,679.4 679,680.4 680,681.3 680.4,682.1 680.5,683.4 680.5,684.4 679.5,685.2 
		678.9,685.2 678.8,684 678.7,682.7 678.5,681.8 678,681.1 677.6,681.3 677.5,682 677.5,682.4 	"/>
	<path class="st1" d="M676.8,677.4l-0.2-1l0.4-0.9l0.9-0.6c0,0-0.1-0.2,0.7-0.2c0.8,0.1,1.4,0.3,1.4,0.6s0.1,0.8,0,1.2
		s-0.5,1.5-0.5,1.5l-1.1,0.3L676.8,677.4L676.8,677.4z"/>
	<path class="st1" d="M682.4,676.7l-0.1,0.2l-1,1.6v1.3l-0.2,1.3l0.2,0.9v0.6l0.2,1.3l0.1,1.2l0.3,0.4l1,0.2l0.9-0.4l0.7-0.9
		l-0.7-0.6l-0.4-0.6c0,0-0.2-1-0.2-1.3s-0.1-1.4-0.1-1.4l-0.2-1.2l-0.1-0.9c0,0,0.5-0.2,0.8-0.4c0.2-0.3,0.7-1.1,0.5-1.3
		S683,676,683,676L682.4,676.7L682.4,676.7z"/>
	<path class="st1" d="M677.6,683.2l0.2-0.6l0.3-0.7l0.4,0.4v1c0,0.2-0.2,1.2-0.2,1.2l0.4,1l0.1,0.6l1.1-0.1l1,0.2c0,0-0.8,1-0.9,1.1
		c-0.1,0.1-1.1,0.4-1.1,0.4l-0.9-0.5l-0.1-1l0.1-0.6l-0.1-1.1L677.6,683.2L677.6,683.2z"/>
	<polygon class="st1" points="677.1,687 676.6,687.5 676.4,688.1 676.4,688.7 676.8,689.2 677.5,689.8 678.3,689.6 679,688.9 
		678.4,688.3 677.6,687.4 	"/>
	<polygon class="st1" points="676.2,689.6 677.8,690.3 678,690.6 677.9,691.2 677.5,691.9 676.4,691.3 676.2,690.7 	"/>
	<polygon class="st1" points="682.1,687 681.4,687.4 681.3,688.1 681.6,688.6 682.5,688.4 682.9,687.7 	"/>
</g>
<g id="Yaqui">
	<path class="st2" d="M151.9,181.5c-2-1.7-3.1-1-4.8-2.9c-2.6-2.8-2.4-6.8-2.4-8.2c0.1-3,1.1-5.3,1.9-6.7c1.7-0.9,4.3-2,7.7-2.4
		c3.7-0.5,4.9,0.4,10.1,0.5c5.2,0.1,12,6.7,12,6.7l0,0c0.3-2.5,0.2,5.9-1.9,7.2c-2.4,1.5-7.7-1.4-7.7-1.4l0,0l-5.3,9.1l0,0
		c0,0,0.3,2.8-0.5,4.8c-0.6,1.6-2.4,3.6-3.8,3.4C154.9,191.2,156.2,185.2,151.9,181.5L151.9,181.5z"/>
</g>
<g id="tarahumara">
	<path class="st3" d="M281.8,233.4c-0.5,0.8-1,2.4-1,2.4s0.5,3.2,2.2,4.1c1.1,0.6,2.5,0.1,3.4-0.2c2.2-0.8,3.2-2.6,3.4-2.9
		c0.9-1.6,1.7-4.5,0.2-5.8c-1.1-1-2.9-0.5-4.1-0.2C285.2,231,282.9,231.5,281.8,233.4z"/>
	<path class="st3" d="M282.6,231c-1.6,1.5-2.5,2.4-3.6,2.2c-1.3-0.3-1.9-1.9-2.4-3.1c-0.4-1.1-1.4-3.6-0.2-5
		c1.1-1.4,2.8-0.5,4.1-1.9c1.4-1.6,0.3-3.6,1.4-4.3c0.9-0.5,2.6,0.2,3.4,1.2c0.6,0.8,0.7,1.7,0.7,3.1c0,1.2,0.1,2.7-0.7,4.6
		C284.6,229.2,283.7,230.1,282.6,231L282.6,231z"/>
	<path class="st3" d="M285.4,215c3.5-2.1,6.9-4.2,10.3-6.3c-0.8-1.2-1.7-2.8-2.4-4.8c-0.9-2.7-0.6-4.2-1.9-5c-1.1-0.8-2.7-0.6-3.8,0
		c-1.4,0.8-1.9,2.3-2.2,3.4c-0.5,1.9,0,2.4-0.2,4.3c-0.3,1.9-1,2.5-2.6,5.5c-0.6,1.2-1.5,3-2.4,5.3
		C281.9,216.6,283.7,215.8,285.4,215L285.4,215z"/>
	<path class="st3" d="M287.3,216.9c0.6,1.5,0.9,2.7,1,3.6c0.3,2.2,0,4.8,0,4.8s2.4,1,3.6,2.9c0.8,1.2,1.2,2.9,1.2,2.9
		s0.1,2.8,1.2,3.4c0.4,0.2,0.7-0.1,3.4-1.2c1.8-0.8,2.3-0.9,2.9-1c1.1-0.1,1.7,0.1,2.4,0.2c1.1,0.1,2.8,0,5-1.4
		c-2.6-2.6-3.7-4.9-4.1-6.7c-0.6-2.6-0.1-4.2-1.4-5.8c-1.4-1.6-2.9-0.9-4.3-2.4c-2-2.3-0.3-5.8-1.4-6.5
		C295.8,209.1,293.4,210.3,287.3,216.9L287.3,216.9z"/>
	<path class="st3" d="M296.8,237.5c0.3-2.3,4.9-3.3,4.8-3.6c-0.1-0.2-2.2,0.1-2.2,0.5c0,0.4,3.2,0.9,5.5,0.2
		c1.3-0.3,2.1-0.5,2.8-1.2c0.1-0.1,0.2-0.3,0.4-0.2c0.7,0.1,1,3.9,0.5,7.2c-0.1,0.8-0.3,1.7-0.7,3.4c-0.5,2.1-0.6,2.5-0.7,2.6
		c-0.4,0.8-1.3,2.9-2.9,3.1c-1.9,0.3-4-2.2-3.8-4.1c0.2-1.6,2-2.2,1.7-3.1c-0.3-1-2.4-0.5-4.1-2.2
		C297.8,239.9,296.7,238.8,296.8,237.5L296.8,237.5z"/>
</g>
<g id="tarasco">
	<path class="st4" d="M433.9,529.2c-1.2,4.9-1.3,5.1-1.3,5.1c-1.4-4.9,2.1,8.5,2.1,8.5c0.4,3,0.6,4.5,0,5.5
		c-1.6,2.8-6.6,2.7-11.4,2.6c-4.7-0.1-7.4-0.2-10.2-2.1c-4-2.7-5.1-6.9-5.5-8.5c-0.6-2.1-1.6-6,0.4-8.9c1.1-1.5,2.9-2.6,6.8-3.4
		C418.4,527.2,425,526.6,433.9,529.2L433.9,529.2z"/>
	<path class="st4" d="M437,527.7c-0.5,0.4-1.5,1.3-1.4,4.3c0.5,1.7,1.1,4,1.4,6.7c0.6,4.5,0.1,6.3,1,6.7c1.1,0.6,4.3-1.4,12.5-11.5
		C444.9,528.3,439.4,526.1,437,527.7L437,527.7z"/>
</g>
<g id="Tepehuano_Del_Norte">
	<path class="st5" d="M282.3,259.6c-2.8-0.2-5,3-5.3,3.4c-1.2,1.8-0.7,2.5-1.9,7.2c-1.1,4-1.7,4.5-1.4,6.3c0.3,2,1.5,3.3,2.9,4.8
		c1.6,1.8,4.5,5,7.2,4.3c0.5-0.1,1.2-0.4,3.8-4.3c2.4-3.6,3.7-5.4,3.8-6.7c0.3-2.5-0.9-4.6-3.4-8.7
		C285.6,261.9,284.4,259.8,282.3,259.6L282.3,259.6z"/>
</g>
<g id="Tepehuano_Del_Sur">
	<path class="st6" d="M374.1,437.4c0.5,2.9,2.5,2.2,5.8,7.7c1.8,3,3.3,6.8,3.8,8.2c0.5,1.2,0.7,1.8,1,2.5c0.8,2.2,0.7,2.7,0.9,2.7
		c1.1,0.3,5.4-6.5,5.3-13.9c0-2.1-0.5-6.7-0.5-6.7s-0.6-8.4-4.8-10.6c-2.1-1.1-4.5-0.3-5.3,0C376.1,428.8,373.4,433.6,374.1,437.4
		L374.1,437.4z"/>
	<path class="st6" d="M373.2,425.3c0.6,4.4-2.4,9.1-2.4,9.1l0,0c0,0-0.8,3.8-2.9,4.8c-2,1-4.8-1.1-5.3-1.4c-0.6-0.5-2.4-1.9-3.4-4.8
		c-2.1-6.4-0.9-9.5,0-8.7c1.4,1.3,7.8-5.8,11.5-3.8C372.7,421.5,373,424.3,373.2,425.3L373.2,425.3z"/>
</g>
<g id="Triqui">
	<polygon class="st7" points="596.9,638.6 596,638.9 595.5,639.8 595.7,640.4 597.5,641.1 597.8,639.5 	"/>
	<path class="st7" d="M595.4,640.8l-0.9-0.6l-1.1,0.1l-1.3,0.7v1.4c0,0.2,0.4,1,0.4,1l0.8,0.6l1.6-0.2l1.3-1.1L595.4,640.8
		L595.4,640.8z"/>
	<polygon class="st7" points="597.6,641.5 597.7,642 597.6,642.9 597.3,643.5 596,644.4 595.6,643.5 596.3,643.1 596.4,642.1 
		596.2,641.1 	"/>
</g>
<g id="Tsotsil">
	<polygon class="st8" points="836.8,651.7 837.6,654.7 834.9,655.2 833.7,652.7 833.7,651.1 835.5,650.4 	"/>
	<polygon class="st8" points="833.4,659.1 830.4,659.5 830.2,661.1 831.3,662.1 834.2,661.8 835.3,659.5 	"/>
	<path class="st8" d="M827.3,645.6l-1.3-2.6l1.3-2.4h2.1l0.8,1.9l1,1.3l2.9-1.3l1.8-0.2c0,0,1.1,0.6,1.1,1.1c0,0.5-0.8,2.4-0.8,2.4
		l-1.4,0.6h-1l-1,0.8v1.1l0.5,1.4l-0.3,1.3l-2.6,0.6l-3.5-1.3l-2.2-1.8l2.2-1.3l-2.1-1v-0.8L827.3,645.6L827.3,645.6z"/>
</g>
<g id="Tlapaneco">
	<polygon class="st9" points="562.7,633.9 562.3,636 561.5,639 560.8,640.8 560.6,643.1 561.3,645 563.4,644.7 564.3,642.6 564,640 
		564.7,638.3 565.5,637.8 568,636.3 568.7,633.1 566.6,634.4 565.5,634.2 565.1,633.4 564.5,631 	"/>
	<polygon class="st9" points="561.5,635.4 560.5,639.4 560,642.4 559.4,643.9 557.6,643.1 557,641.3 558.4,638.4 558.6,637.1 
		558.6,636 558.4,633.6 559.2,635.4 560,635.5 	"/>
	<polygon class="st9" points="555.4,628.6 553.5,631 553.5,633.3 553.8,633.9 554.4,634.1 555.5,634.2 555.7,635.7 554.9,637.8 
		554.7,639.2 555.2,639.8 556.8,640.7 557.8,637.6 557.8,635.8 557.8,632.8 557.6,631.7 	"/>
	<polygon class="st9" points="579.2,659.4 577.6,662.8 577,664.8 574.9,663.4 575.6,661.8 577.3,659.2 	"/>
</g>
<g id="Tseltal">
	<polygon class="st10" points="835.3,649.8 837.6,650.6 838.1,652 839.2,654.7 842.7,652.7 843.3,649.9 841.7,648.2 839,648.7 
		836.8,648 	"/>
	<path class="st10" d="M846.5,651.9c0,0-1.1,0.8-1.1,1.4c0,0.6,0.3,1.9,0.3,1.9l1.1,0.3l2.4,1l1.9,0.3l3.5-0.5l-0.2-1.6l-2.6-3.2
		l-3.4-0.6L846.5,651.9L846.5,651.9z"/>
</g>
<g id="Tepehua">
	<polygon class="st11" points="597.8,488.8 595.3,489.8 594.8,491.1 594.8,492 595.6,492.8 598.3,492 600.2,489.6 599.6,487.1 	"/>
	<polygon class="st11" points="606.9,488.7 603.4,489 602.9,490.3 603.4,491.4 605,492 608.4,491.1 608.9,489.1 	"/>
	<polygon class="st11" points="609.8,491.2 608.2,492 607.6,493.6 607.7,495.1 608.7,495.9 610.6,494.4 611.1,493.3 	"/>
	<polygon class="st11" points="603.4,484.7 602,484.8 601.3,486.3 602,487.1 603.1,487.1 604.7,486.1 604.7,484.8 	"/>
</g>
<g id="Texistepequeno">
	<polygon class="st12" points="722.6,612.5 721.8,613.4 721.3,614.2 721.6,615.3 722.7,615.2 723.9,614.5 724.5,613.3 	"/>
</g>
<g id="Tlahuica">
	<polygon class="st13" points="533.9,552.9 532.5,552.7 530.7,553.8 531.4,555.6 532,555.9 533.3,555.8 535,554.8 	"/>
</g>
<g id="Tojolabal">
	<path class="st14" d="M849.6,665.2l-4.5-1l-4.3,0.8l-0.6,1.6c0,0-0.3,1.3,0.2,1.4c0.5,0.2,2.1,0.6,2.1,0.6l6.7,0.2l0,0l0.3-0.6
		l1.4-1.9L849.6,665.2L849.6,665.2z"/>
</g>
<g id="Totonaco">
	<polygon class="st15" points="600.9,479.2 598.3,480.7 596.9,482.6 599.7,481.6 602.6,480.7 603.1,477.8 	"/>
	<polygon class="st15" points="606.1,481.5 604.2,481.3 602.9,481.6 603.4,482.2 604.5,483.2 606.6,482.6 607.4,482.4 	"/>
	<polygon class="st15" points="605.5,485 606.8,484.5 608.1,483.7 606.6,482.6 605.5,483.7 	"/>
	<polygon class="st15" points="608.5,486.4 607.3,486.8 607.5,487.9 609,487.7 	"/>
	<polygon class="st15" points="608.7,478.9 607.7,479.9 607.4,482.4 609.2,482.9 609.9,481.5 	"/>
	<polygon class="st15" points="607.1,478.1 605.7,478.1 605.8,479.8 606.8,479.9 607.8,478.6 	"/>
	<polygon class="st15" points="605.7,476 604.3,476.2 604.5,477.3 605.9,477.1 	"/>
	<path class="st15" d="M612.8,476l-3.6,0.4l-0.6,1.1l0.2,1.5l0.8,0.5l1,2.3l0.3,1.8l2.1-0.9c0,0,0.9-2.7,0.9-3.3
		S612.7,475.9,612.8,476L612.8,476z"/>
	<polygon class="st15" points="612.9,485.6 611.9,486.7 612.1,488.5 613.5,488.1 	"/>
</g>
<g id="Sayulteco">
	<polygon class="st16" points="715,613.4 712.8,613 711.7,613.6 712.2,614.9 712.8,615.7 714.2,615.5 715.5,615.2 	"/>
</g>
<g id="Seri">
	<path class="st17" d="M122.8,160.9c-0.1-2.2,0.3-2.6,0.5-5.4c0.3-3.3,0-4.1,0.8-5.2c1-1.3,2.6-1.6,2.7-1.6c1.7-0.3,2.3,0.6,3.8,0.3
		c1-0.3,2.3-1.1,2.7-2.4c0.4-1.4-0.3-2.8-1.1-3.6c-0.4-0.3-0.6-0.4-0.6-0.5c0.1-0.5,4.1-0.9,6.3,1.4c0.8,0.8,1,1.7,1.4,2.7
		c0.2,0.7,0.3,1.8,0.5,4.1c0,0,0.1,1.1,0.3,3l0,0c0,0-2.3-0.8-4.3-0.8c-0.8,0-2.4,0-3.8,1.1c-1.3,1-1.6,2.4-2.2,4.6
		c-0.9,3.8-0.2,5-1.4,6c-1.3,1.2-3.7,1.2-4.9,0C122.9,163.7,122.8,162.8,122.8,160.9L122.8,160.9z"/>
</g>
<g id="Q_anjob_al">
	<polygon class="st18" points="835.4,672.9 833.3,672.1 832.2,672.9 832.2,674.4 832.2,675.5 833.5,676.1 836,676.1 	"/>
</g>
<g id="Q_eqchi_">
	<path class="st19" d="M863.7,673.3l-1.8,3.8l5,4.2l2.2,1.6l2.4-0.6l2.6-0.3l0.3,1.4l1.4,0.5l1.6,0.2l1.1,1.1l0.2,1v2.6l-1.6,2.1
		l-0.2,1v1.6l0.3,0.6l0.6-0.2h3.4l6.4,1.3l1.6,1l3.7,3.7l1.1-4.2l1.9-5.3c0,0,0.8-5,1-5.4c0.2-0.5,0.6-0.8,0.6-0.8l2.2-2.4l4.3-3.8
		l4.5-2.4l1.4-0.2l2.1,0.8h6.1l2.2-1.4l1-0.8l2.1-0.5l5.6-3.8l2.1-1.9l-0.2-9l-0.3-9l-3.7-6.3l-7-3.2l-13.6-2.6l-14.6-0.5l-11.1,3.7
		l-2.7,4.2l1.1,2.7l2.1,3.5l3.7,2.2l2.2,1.8l1.1,1.6l0.2,3.2l-0.6,1.6l-0.2,1.1l1,1.8c0,0,0.3,1.6,0.3,2.6s-1.6,3.5-1.6,3.5l-2.9,1
		c0,0-5.4,0.8-6.4,1.1c-1,0.3-7.4,0.6-7.4,0.6L863.7,673.3L863.7,673.3z"/>
</g>
<g id="Paipai">
	<path class="st20" d="M34.7,23.9c-1-0.4-5.9-2-11.2,0c-1.2,0.4-2.3,0.9-3.2,1.9c-1.2,1.3-1.9,3.5-1.9,3.5c0,0,1,3.5,2.9,4.5
		c0.9,0.5,2.8-0.2,6.7-1.6c3.3-1.2,4.9-1.8,7-2.9c3.5-1.9,3.5-2.6,3.5-2.9C38.5,25.2,36.2,24.4,34.7,23.9L34.7,23.9z"/>
</g>
<g id="Pame">
	<path class="st21" d="M504.4,476.5c-1.2-0.3-2.9-0.9-4.9-0.3c-1.9,0.6-3.8,2.2-3.8,2.2l0,0c0,0,0.2,4.2,2.2,5.4
		c0.8,0.5,1.9,0.2,4.3-0.3c2.2-0.5,3.4-0.7,4.3-1.6c0.3-0.3,1.8-1.8,1.4-3.3C507.6,477.4,506.1,477,504.4,476.5L504.4,476.5z"/>
	<path class="st21" d="M564.2,467.5c-1.2-3.5-5.1-6.6-8.7-5.7c-2.8,0.7-4.1,3.4-4.3,3.8c-0.1,0.2-1.7,3.6,0,6.8
		c1,1.9,2.7,2.6,5.4,3.8c1.5,0.6,2.4,1,3.5,0.8c2-0.4,3.2-2.4,3.5-3C565.4,471,564.3,467.8,564.2,467.5L564.2,467.5z"/>
</g>
<g id="Papago">
	<path class="st22" d="M142.1,51.6c-1.8,0.8,0.2,9,1.6,14.7c1.5,6.3,2.6,8.1,3.8,9.5c2.3,2.8,5.1,4.1,6.8,4.9
		c2.3,1.1,5.6,2.6,9.5,1.9c1.2-0.2,2.1-0.6,6.3-3.3c6.7-4.3,10-6.5,9.8-7.9c-0.3-1.6-3.3-1.3-9-3.5c-7-2.7-6.2-4.7-14.1-8.2
		c-4.5-2-6.2-1.9-9.5-4.3C144,53.1,143,51.2,142.1,51.6L142.1,51.6z"/>
</g>
<g id="Pima">
	<path class="st23" d="M254.9,143.2c-1.4-2-0.5-4.7,0.3-7.1c0.4-1.2,0.9-2.6,2.2-3.5c0.5-0.3,1-0.6,3-1.1c3.4-0.8,5.1-1.2,6.3-0.5
		c0.4,0.2,0.9,0.6,2.4,4.9c1.8,5.1,1.6,5.8,1.4,6.3c-0.6,1.2-1.9,1.6-4.6,2.4c-1.7,0.5-3.5,1.1-5.7,0.8
		C258.4,145.2,256.1,144.9,254.9,143.2L254.9,143.2z"/>
</g>
<g id="Popoloca">
	<path class="st24" d="M610.3,582.9l1.5-0.6l0.9-0.7l0.7-1.2l-0.3-0.9l-0.9-0.5l-0.7,1l-1.3,1.4c0,0-0.1,0.5-0.5,0.8
		c-0.4,0.4-0.6,1.2-0.6,1.2L610.3,582.9L610.3,582.9z"/>
	<polygon class="st24" points="607.5,579.9 608.4,580 609.2,581.6 610.9,579.7 610.9,578.1 607.9,576 	"/>
	<polygon class="st24" points="609,591.5 606.9,591.3 605.8,591.8 606.3,593.7 607.1,595.2 608.2,594.5 609.7,593.7 	"/>
	<polygon class="st24" points="605.5,593.9 604.7,593.1 603.6,592.8 603.1,593.7 603.1,595 603.1,596.3 604.1,596.5 605.2,596.8 
		606.3,596.6 	"/>
	<polygon class="st24" points="601,590.9 598.6,591.2 597.8,593.7 598,596 599.6,595.3 600.9,594.8 602,593.9 602.6,592.4 
		602.3,591.3 	"/>
	<path class="st24" d="M602.8,606.1h-2.7l0.2,2.6l0.6,1c0,0,1.4,0.2,2.1,0c0.6-0.2,1.3-2.7,1.3-2.7L602.8,606.1L602.8,606.1z"/>
	<path class="st24" d="M611.4,593.9l-2.4,1l-0.6,1.9c0,0-0.3,0.6,0.2,1.3c0.5,0.6,1.3,1.4,1.3,1.4l2.6-0.6l0.5-1.4l-1.1-1.6
		L611.4,593.9L611.4,593.9z"/>
</g>
<g id="Popoluca_de_la_Sierra">
	<polygon class="st25" points="719.9,592.1 717.8,595 717.3,599 716.8,601.4 717,603.6 715.9,604.9 715.4,602.9 713.1,601.4 
		710.7,601.2 712,597.2 713.1,593.7 714.4,592.3 717.8,590.5 720.2,589.9 	"/>
	<polygon class="st25" points="721.5,610.9 720.3,610.2 719.2,610.2 718.9,611.2 719.9,613 721.3,612.6 722.3,611.5 	"/>
	<polygon class="st25" points="719.1,608.3 717.3,608 716.3,608.9 717,610.2 719.1,609.4 	"/>
	<polygon class="st25" points="715.9,610.1 714.1,609.4 713.5,611.2 714.1,612.8 715.9,611.2 	"/>
</g>
<g id="Oluteco">
	<path class="st26" d="M718.2,611.6l-1.4-0.2l-0.5,1.3c0,0,0.2,0.5,0.2,0.7c0.1,0.2,0.9,0.7,0.9,0.7l1.3-0.2l0.3-1.1L718.2,611.6
		L718.2,611.6z"/>
</g>
<g id="Nahuatl">
	<polygon class="st27" points="334.9,428 331.3,429.7 330.6,431.9 329.6,433.8 330.4,436.2 333.2,438.9 336.6,438.1 340.4,435.5 
		340,432.1 338,430 	"/>
	<polygon class="st27" points="344.8,422 340,423.2 339.7,426.1 340.9,428.3 343.1,427.8 346,426.8 347.2,424.9 	"/>
	<polygon class="st27" points="401,603.2 399.3,599.1 401,597.6 404.8,598.6 407.7,600.1 409.4,602.7 408.7,604.6 406.5,605.1 
		404.1,604.1 	"/>
	<polygon class="st27" points="559.8,425.6 561.2,433.1 562.9,434.5 566.3,435 569.9,434.1 570.3,428.5 566.5,427.6 564.8,425.2 	
		"/>
	<polygon class="st27" points="570.8,433.8 571.1,430.7 571.5,428.5 572.5,427.8 574.9,432.1 574.9,434.8 573.2,434.8 	"/>
	<polygon class="st27" points="575.2,428 575.6,433.1 574.9,434.8 577.3,436 578.3,436.9 579.7,438.1 580.4,436.5 581.4,432.8 
		579.5,430 	"/>
	<polygon class="st27" points="538.5,553 537.1,553.5 537.1,554.6 538.2,555.6 540.3,554.6 539.2,551.9 	"/>
	<path class="st27" d="M595.1,525.9l-2.9,0.8l-0.6,1.7v1c0,0.4,0.3,1.3,0.3,1.3l2.1-0.4l1.6-0.6l0.6-2.4L595.1,525.9L595.1,525.9z"
		/>
	<polygon class="st27" points="595.3,530.3 595.7,529.5 596.7,528.3 597.3,528.2 597.8,529.1 597.1,530.3 595.6,531.4 	"/>
	<polygon class="st27" points="598.3,528.8 598.8,528.2 599.8,527.3 601,527.3 601.8,528.1 601.7,529.3 599.1,530.1 597.8,529.5 	
		"/>
	<polygon class="st27" points="632,575 630.2,575.9 630.3,577.7 632.2,577.9 634.7,576.6 633.4,574.5 	"/>
	<polygon class="st27" points="629.4,581.7 631.4,579.2 633.3,578.2 634.7,577.8 635.5,577.7 636.8,578.5 638.3,579 639.1,580.3 
		637.8,581.3 636.2,581.5 635.3,580.9 635.2,581.5 634.2,583.4 632.6,583 631.4,581.6 	"/>
	<path class="st27" d="M629.4,582.1l1.6,0.1l0.8,1c0,0,1.3,0.1,1.3,0.4c0,0.3,1.4,0.3,1.4,0.3l0.5-1.4l0.9-0.8l0.9,0.8l1.3,0.3
		l-0.2,1.3c0,0-0.1,1.8-0.5,1.8c-0.4,0-2.7,0.3-2.7,0.3l-2.1-1.5l-1.3-1.5L629.4,582.1L629.4,582.1z"/>
	<path class="st27" d="M629.1,582.8c0,0-0.3,0.9-0.2,1.3s0.5,2.2,0.5,2.2l0.6,1h1.7l1.3,0.3l2.7-0.4c0,0,1.2-0.5,0.9-0.5
		s-2.8-0.2-2.8-0.2l-1.7-1.1l-1.4-1.3l-0.9-0.9L629.1,582.8L629.1,582.8z"/>
	<polygon class="st27" points="637.4,587.1 636.4,587.6 636.3,588.4 636.8,589 638.4,588 638,586.4 	"/>
	<polygon class="st27" points="619.1,569.3 617.7,568.6 617.5,569.6 617.6,571 618.4,571.8 619.8,571.8 	"/>
	<polygon class="st27" points="603.1,568.5 604.5,569.6 605.5,569.4 606.6,567.8 606.1,565.6 605.1,565.3 604.8,566.8 604.6,567.2 
		603.3,566.8 602.2,566.8 	"/>
	<polygon class="st27" points="601.7,560.1 600.1,563.8 598.8,566.8 598.9,568.9 599.6,569.7 601.1,569.9 601.5,567 602.2,565.2 
		604.6,564 603.5,562.5 602.7,560.9 	"/>
	<polygon class="st27" points="568,577.8 567,578.6 566.6,580 567.1,581.7 568.2,581.4 569,579.7 568.9,578.2 	"/>
	<polygon class="st27" points="559.6,577.1 561.9,576.3 564.9,576.3 565.2,577.8 563.4,579.2 561.5,581.7 560,584.4 559.3,580.2 	
		"/>
	<path class="st27" d="M554.1,588.7c-0.8-0.1-2.7,1-2.7,1l0.8,2.2c0,0,2.1,0.4,2.1,0.1c0-0.3,0.5-2.2,0.5-2.2L554.1,588.7z"/>
	<polygon class="st27" points="549,602 548,603.6 548,604.4 548.4,605.4 550.3,604.5 551,602.3 549.5,601.1 	"/>
	<polygon class="st27" points="560,608.1 556.6,608 553.3,609.7 552.3,612.8 551.5,617.2 552.2,621.4 553,624.4 556.3,628.8 
		558.6,633.2 559.9,635.1 561.8,635.1 564.6,630.1 567.5,627.3 569.4,626.5 574.1,624.8 575,626.1 579.1,624.7 577.2,620.5 
		572,616.2 567,611.9 562.7,610.4 	"/>
	<polygon class="st27" points="581.7,664.2 580.1,665 580.2,666.9 581,667.9 582.5,666.9 583.4,665.2 582.5,663.7 	"/>
	<polygon class="st27" points="720.8,593.2 718.6,596.1 717.6,600.1 717.4,602.7 717.8,604.8 719.4,605.4 722.9,606.7 725,605.4 
		724.2,601.2 722.6,599.7 722.1,597.4 	"/>
	<polygon class="st27" points="722.7,594.8 722.9,597.7 723.2,598.5 724,599.5 725.8,599 726.7,597.1 725.5,594.2 	"/>
	<polygon class="st27" points="721.8,608.1 723.7,608.3 724.8,609.3 724.8,611.2 723.9,612.3 722.6,610.2 721,609.6 720.5,608.1 	
		"/>
	<path class="st27" d="M624.2,602.1c-0.6-0.3-5.1-2.2-5.1-2.2l-2.6-1.4l-4.2-2.6l-0.3-4.6l-1.1-5.6l2.6-0.8l2.9,0.2l3.5,2.1l2.9,3.7
		l2.4,1.6l1.4,2.1l0.6,3.8l0.5,2.2v0.8l-2.2,0.2L624.2,602.1L624.2,602.1z"/>
	<polygon class="st27" points="617.8,584.4 619,583.3 620.2,583.2 621.8,584.4 624.1,586.4 626.2,588.6 627.4,588.6 631.1,589.9 
		633.1,591.6 634.2,593.2 633.7,595.8 632.6,598.2 630.8,600.6 628.9,600.8 627.9,598 627.1,595.3 626.2,593.6 625.4,591.5 
		623.9,590.2 622.5,589.2 621,587.1 619.3,585.6 	"/>
	<polygon class="st27" points="635.1,597.6 633.2,597.9 632.1,599.7 630.8,600.6 630.3,602.5 631,603.2 631.4,604.3 634,604 
		636.1,602.9 636.3,600.3 636.1,598 	"/>
</g>
<g id="Mam">
	<polygon class="st28" points="826.7,686.1 825.5,682.2 826.4,677.2 828.1,681.2 828.6,684.1 	"/>
</g>
<g id="Matlatzinca">
	<polygon class="st29" points="529.3,545 526.4,546.2 525.9,548.9 527.3,549.6 530.2,549.4 532.6,545.5 	"/>
	<polygon class="st29" points="536.5,539.5 532.4,540 532.9,542.9 535.5,545 537.2,542.9 	"/>
</g>
<g id="Maya">
	<path class="st30" d="M842.6,561.9l2.8,2.3c0.2,0.3,0.3,0.6,0.3,0.9v7c0,0.1,0,0.2,0,0.3l5,11.9c0,0.2,0.1,0.4,0.3,0.6l5.6,12.9
		c0,0,0,0.1,0.1,0.1l4.5,5.6c0.4,0.4,0.9,0.7,1.5,0.5c6.4-1.3,44.7-8.8,46.5-8.8c1.8,0,12-0.9,15.9-1.2c0.8-0.1,1.4-0.7,1.4-1.5
		v-6.3c0-1.2,1.2-1.9,2.2-1.4l1.3,0.6c0.2,0.1,0.4,0.3,0.5,0.5l0,0c0.7,1,2.3,0.8,2.7-0.4l3.5-1c0.1-0.1,2.3-8.7,2.4-8.8l5-8.9
		c0.2-0.2,0.4-0.4,0.7-0.5c1.7-0.6,8-2.8,8.5-5c0.4-1.7,2.4-6.6,3.8-9.8c0.5-1.2,2.2-1.3,2.8-0.1c0.8,1.7,1.7,3.7,1.7,4.7
		c0,1.8,7.1,12.5,7.9,13.9c0.1,0.1,0.2,0.3,0.3,0.3l0.5,0.5c0.8,0.8,2.3,0.5,2.6-0.7l2.2-19c0-0.1,0-0.2,0-0.3l1.3-14.6l0.6-6.9
		c0-0.5-0.2-1-0.5-1.3l-2.8-2.4c-0.6-0.5-0.7-1.4-0.3-2l2.9-4.4c1.2-1.7-0.1-4.1-2.2-4.1h-3.4c-0.5,0-0.9-0.2-1.2-0.6
		c-1-1.4-3.2-4.6-0.1-5.1c3.3-0.5,6.6-9.2,7.5-11.6c0.1-0.4,0.1-0.8,0-1.1l-2-4.6c-0.2-0.4-0.2-0.8,0-1.2l6-15
		c0.1-0.3,0.3-0.5,0.6-0.7l7.4-5.1c0.4-0.3,0.6-0.7,0.6-1.1l1.8-19.5c0-0.2,0-0.4,0-0.6l-6.9-15c-0.2-0.8-1.1-1.3-1.9-1.1l-6.5,2
		c-0.2,0.1-6.5,4-6.7,4l-17.5-4.6c-0.3,0-2.3-0.4-2.6-0.3l-17.5,6.6c-0.2,0.1-0.3,0.1-0.4,0.3l-4.6,4.9c-0.2,0.1-0.4,0.3-0.6,0.3
		l-31.2,8.2c-0.1,0-0.3,0.1-0.4,0.2L871.3,468c-0.4,0.2-0.7,0.6-0.7,1.1c-0.4,2.6-1.7,11.1-1.2,12.7s0.7,2.8,1.1,4.5
		c0.3,1.4-1.2,2.4-2.4,1.6c-1.7-1.1-1.8-2.3-2.6-1c-1.2,2,0,7.7,1.3,9.6c1.3,1.9,1.3,9.2,1.3,10.1s0,0.1,0,0.2l-1.9,14l-0.6,4.9
		c0,0.1-0.1,0.3-0.1,0.4l-6.2,13.7c0,0.1-0.1,0.2-0.2,0.3l-6.2,8.1c-0.1,0.1-0.1,0.1-0.2,0.2l-9.9,11.1
		C842.2,560.2,842.1,561.1,842.6,561.9L842.6,561.9z"/>
	<path class="st31" d="M999.7,475.7l-3.6,6.7c-0.6,1.2-2,1.7-3.2,1.2l-2.9-1.1c-1.2-0.4-1.9-1.6-1.7-2.8l0.9-8.7
		c0.1-0.9,0.6-1.7,1.4-2.1l4.6-2.3c1.6-0.8,3.5,0.1,3.8,1.9l1,5.3C1000.1,474.6,1000,475.2,999.7,475.7L999.7,475.7z"/>
</g>
<g id="Mazahua">
	<polygon class="st32" points="522.5,534.8 524.3,530.1 526.5,527.1 528.2,527.2 530.2,528.9 529.3,530.2 529.4,531.9 529.5,533.2 
		527.9,534.8 528.2,535.6 527.7,536.7 525.7,536 523.9,534.9 	"/>
	<polygon class="st32" points="525.4,526.9 523.8,529.4 522.3,532.8 521.5,534.9 519.8,533.5 519,531.6 520.2,528.8 521.8,526.9 
		523.3,525.6 524.9,525.4 	"/>
</g>
<g id="Mazateco">
	<polygon class="st33" points="643,599.8 644.1,598.5 644.9,597.5 646.1,596.1 647.8,596 648.8,597.2 649.3,598.9 648.8,600.7 
		649.2,602.2 647.1,602.6 646,602.3 644.6,602.7 643.6,603.4 642.5,603.2 642.2,601.9 	"/>
	<path class="st33" d="M650.5,596l-0.1-1l0.4-0.9l1-0.6l1.3-0.6c0,0,1-0.4,1.2-0.3c0.2,0.1,1.8,1.5,1.8,1.5l0.8,1.6l1.2,1.9
		l-1.4,1.8l-1,0.7l-0.5,0.8l-0.8,0.8h-0.6l-1-1.2l-0.3-1.9l-1.2-1.2L650.5,596L650.5,596z"/>
	<polygon class="st33" points="650.7,600.1 649.6,600.8 649.5,602.2 650.1,603.9 650.8,604.7 652.2,605.5 653.3,604.3 653,603.5 
		651.9,603 651.3,601.5 	"/>
	<path class="st33" d="M644.4,596.3l-1.2,1.9l-0.9,1.6l-0.5,1.2l-0.6,1.4l-1.4-0.2l-0.8-1.3l0.2-1.6c0,0,1.1-0.9,1.2-1
		c0.2-0.1,1.3-1.5,1.3-1.5l1.4-1.4l2-1.1L644.4,596.3L644.4,596.3z"/>
	<path class="st33" d="M643.4,594l-1.9,0.5c0,0-1.4,0.4-1.6,0.4c-0.2,0.1-1.5,1.3-1.5,1.3l-1.1,1.4l0.5,0.8l0.9,0.1l1.7-1.3l1-1.8
		L643.4,594L643.4,594z"/>
	<polygon class="st33" points="641.9,602.6 642.1,603.3 642.4,603.4 642.4,603.9 641.5,605.3 639.8,606.4 638.3,606.3 638.1,605.8 
		637.9,604.5 638.5,603.6 639.7,603.2 640.4,602.9 	"/>
	<polygon class="st33" points="644.2,606.4 645.1,606.9 644.8,608 644,609.4 642.9,608.6 642.7,607.6 	"/>
	<polygon class="st33" points="645,605.9 645.4,606.8 645.5,607.2 646.4,607 647.4,605.9 647.8,604.7 646.4,603.8 644.8,605.7 	"/>
	<path class="st33" d="M654.4,602.4l-0.5,1.2c0,0-0.5,1.3-0.3,1.3c0.2,0.1,0.6,0.8,0.6,0.8l0.8,0.4c0,0,0.7-0.3,0.8-0.7
		c0.1-0.4,0.5-1.1,0.6-1.5c0.1-0.4,0.2-1.9,0.2-1.9L654.4,602.4L654.4,602.4z"/>
</g>
<g id="Mayo">
	<path class="st34" d="M223.1,270.2c-1.9-0.7-0.9-4.1-3.8-8.7c-0.8-1.3-2.2-3.4-4.8-4.8c-2.1-1.1-4.5-1.6-8.3-2.2
		c-2.5-0.5-3.3-0.4-4.2-1.3c-0.6-0.6-0.9-1.4-1.3-5.4c-0.5-4.4-0.4-5.1-1-6.4c-0.5-1.2-1.4-3.2-3.2-3.8c-1.9-0.7-2.7,0.7-5.4,0.3
		c-1.7-0.3-2.9-1-4.2-1.9c-1.8-1.2-3.6-2.5-4.2-4.5c-0.6-2.4,1.4-3,1-5.8c-0.3-2-1.6-3.8-3.2-6.1c-1.2-1.6-1.7-2-1.6-2.9
		c0.2-1.5,2.4-1.6,3.2-3.5c0.8-1.9-0.5-4-0.6-4.2c-1.1-1.8-3-2-7.7-3.2c-8-1.9-9.5-2.7-10.6-3.5c-1-0.7-4.5-3.1-4.2-5.8
		c0.2-1.6,1.6-1.8,3.2-4.5c0.3-0.4,0.8-1.4,1.9-5.4c1.8-6.5,1.2-7.1,2.2-8c1.4-1.3,4.4-0.9,10.2,0c3.5,0.5,5.3,0.8,7,1.6
		c2.7,1.3,4.3,3.1,6.4,5.4c5.6,6.5,8.4,9.7,9.6,11.9c3.7,6.5,2,7.7,6.7,17c2.3,4.5,4,6.7,5.4,8.3c1.2,1.3,2.9,2.8,6.4,5.8
		c4.4,3.8,6.1,4.9,7.4,7.7c0.8,1.7,0.4,1.9,1.3,3.8c0.4,0.9,1.6,3.2,5.1,6.4c1.7,1.5,14.1,9.3,9.9,6.7c0,0,0.4,3.2,0,4.8
		c-0.7,3.1-4.7,3-10.9,7C226.1,268.3,224.8,270.9,223.1,270.2L223.1,270.2z"/>
</g>
<g id="Mixe">
	<path class="st35" d="M664.2,624l2.6-2.8l1.6-1.7l3-1.7l1.4-1l2-1.4l1.4,0.6l0.9,1c0,0,0,1.2-0.5,2c-0.5,0.9-1.6,2-1.6,2l-1.8,0.9
		l-1,1.5l-0.5,1.3l-3.8,3.2l-2.9-0.6l-3-0.5l0.3-1.7L664.2,624L664.2,624z"/>
	<polygon class="st35" points="668.5,627.9 669.9,626.8 671.7,625.5 672.3,628.1 670.9,629.2 668.9,630 	"/>
	<polygon class="st35" points="672.9,627 671.6,624.7 672.7,623.7 673.5,623.3 674.6,624.7 675,626.7 673.7,627.6 	"/>
	<polygon class="st35" points="673.7,621.9 674.5,622.9 675.6,624.4 676.7,624.6 678.4,623.8 679.4,622 677.4,621.2 675.6,621.2 	
		"/>
	<polygon class="st35" points="679.9,622.5 679,623.8 678.7,624.8 679.1,625.5 680.6,625.7 681.6,623.5 680.8,621.8 	"/>
	<polygon class="st35" points="667.5,628.4 668.3,630.7 667,632.2 666,632.3 665.7,629.8 	"/>
	<path class="st35" d="M661.2,627.6l1.2,0.3l1.7,0.3l1.3,0.4l-0.8,2.7c0,0,0.3,1.4-0.2,1.4c-0.5,0-4.3-0.8-4.3-0.8l-1.4-2.9
		L661.2,627.6L661.2,627.6z"/>
	<polygon class="st35" points="665.8,633.1 664.3,633.7 663.9,635.1 665.9,635.6 668.1,635.5 667.3,632.7 	"/>
</g>
<g id="Mixteco">
	<polygon class="st36" points="583.8,631.6 582.2,633.6 580.6,634.9 578.8,637 578.2,637.8 578.8,639.2 580.5,638 582.4,636.2 
		583,635.3 585,633.9 585.7,632.3 	"/>
	<polygon class="st36" points="587.6,629.9 588.1,632.3 588.7,634.7 590.8,634.9 592.1,635.8 594,634.2 594,631.9 594,630.8 
		594.2,628.5 594.8,627.5 594.2,626.4 592,626.3 587.3,629.4 	"/>
	<polygon class="st36" points="590.8,638.9 587.8,637.1 587.3,636.1 588.3,635.3 589.8,635.3 591.1,636.3 591.8,637.4 	"/>
	<polygon class="st36" points="587.5,633.8 586.9,635.1 586.4,636.7 584.6,636.5 583.9,635.5 585,633.9 586.4,633.2 	"/>
	<polygon class="st36" points="580.9,641.3 579.5,642.5 580.1,643.8 581.9,644.1 582.9,642 581.5,640.7 	"/>
	<polygon class="st36" points="585.8,641.3 584.5,641.8 584,642.7 584.5,643.4 585.8,643.6 586.7,642.4 	"/>
	<polygon class="st36" points="599.5,596.3 598.1,598.9 597.9,601.7 600.1,601.1 601.4,597.7 601.1,595.4 	"/>
	<polygon class="st36" points="601.1,600.4 602.4,602.7 604.3,604.1 606.6,604.1 607.2,601.2 606.4,597.4 604.8,597.2 604.8,599.5 
		604.6,600.2 603.3,600 602.2,599.7 	"/>
	<polygon class="st36" points="643,605.3 641.9,605.3 640.9,606.1 640.5,607.3 641.1,607.9 642,607.8 643.2,606.3 	"/>
	<polygon class="st36" points="634.2,623.8 631.9,626.6 632.2,629 634,630.2 635.9,628.7 634.9,627.5 635.4,625.4 635.1,623.8 	"/>
	<path class="st36" d="M630.7,627.3c0,0-2.4,0.7-2.4,1s1.1,1.8,1.1,1.8l1.2-0.6l0.8-0.7L630.7,627.3L630.7,627.3z"/>
	<path class="st36" d="M612.7,623.4h-2.2l-1.2,0.7c0,0,0.3,0.9,0.6,1c0.2,0.2,2,0.4,2,0.4l1.7-1L612.7,623.4L612.7,623.4z"/>
	<polygon class="st36" points="600.1,621.4 599.2,623.3 598.6,625.2 600.8,625.4 602.3,624.8 601.8,622.8 601.2,621.2 	"/>
	<polygon class="st36" points="595.4,628 594.7,629.4 594.7,630.4 594.9,631.3 596.3,631.8 597.3,629.7 597.8,627.5 596.6,627.1 	
		"/>
	<polygon class="st36" points="598.1,630.2 597.3,631.4 597.9,632.8 597.9,634.7 599.7,634.7 601.9,634.2 601.7,631.8 600.5,631.6 
		602,630.6 601.9,629.4 599.9,629.4 597.7,630.3 597.3,630.5 	"/>
	<polygon class="st36" points="596.7,632.6 596.4,635 595.6,636.2 595.5,637.5 596.1,638.6 594.9,639.4 593.5,638.6 591.9,637 
		593.1,635.8 594.7,634.5 594.9,632.4 	"/>
	<polygon class="st36" points="596.7,635.5 596.4,637.3 597.8,638.6 598.9,638.6 600.5,638.3 600.8,637.1 599.7,636.5 599.9,635.7 
		598,635.3 	"/>
	<polygon class="st36" points="605,639.6 604.5,638.1 604.5,636.1 605.7,635.8 606.3,636.6 606.7,639.4 606.5,640.8 	"/>
	<path class="st36" d="M606.7,635.6l-1.2-1c0,0-0.1-0.1,0-0.1l0.3-0.8c0,0,0.1-0.1,0.1-0.1l0.8-0.1c0,0,0,0,0.1,0l1.1-0.7
		c0,0,0.1,0,0.1,0l1.3,0.4c0,0,0.1,0.1,0.1,0.1l0.4,2.9c0,0,0,0.1-0.1,0.1l-1.2,0.8c0,0-0.1,0.1-0.1,0.1l-0.2,2l0,0l-0.1,0.7
		c0,0.1-0.2,0.1-0.3,0l-0.6-1.8l0,0L607,637L606.7,635.6C606.7,635.6,606.7,635.6,606.7,635.6L606.7,635.6z"/>
	<polygon class="st36" points="609.6,632.3 610.3,634 610.2,635.5 610.8,636.3 611,636.9 613,635.8 612.1,632.9 610.6,631.3 	"/>
	<polygon class="st36" points="611.3,630.9 612.4,632.1 613,633.9 613.8,633.1 614.1,631.7 613.3,630.3 612.1,629.8 	"/>
	<polygon class="st36" points="613.1,629 614.4,628.2 615.5,628.2 616.3,629.6 615.3,630.8 614.6,630.8 	"/>
	<polygon class="st36" points="628.8,634.1 628,634.9 627.6,636.2 629,637.2 630.3,635.8 630.1,633.9 	"/>
	<path class="st36" d="M630.4,633.6l0.6,1.7l0.2,1.2l1.4-0.1c0,0,1-0.2,1-0.4s-1.4-3.1-1.4-3.1l-0.9-1.2L630.4,633.6z"/>
	<polygon class="st36" points="629.1,638.4 630.3,637.3 631.1,637.3 633.2,636.9 634.2,637.4 634.6,639.2 632.6,639.4 631,639.6 
		630.3,640.7 629.8,641.8 628.6,640.8 	"/>
	<polygon class="st36" points="631.8,640.3 633.3,640 634.6,640.3 634.3,641.3 632.4,642.4 631.1,641.6 	"/>
	<polygon class="st36" points="623.5,640.8 623.5,639.3 624.8,638.9 626.1,639.2 626.7,640.7 625.8,640.9 624.9,640.4 624.6,641.8 
		623.9,642.2 	"/>
	<path class="st36" d="M627.1,634.5l1.2-1.2v-1.2l-1.9-0.4c0,0-0.6,0.9-0.6,1.1c0,0.3-0.5,1.4-0.5,1.4l1,0.7L627.1,634.5
		L627.1,634.5z"/>
	<polygon class="st36" points="612.7,639.4 612.3,637.9 612.5,637.2 613.2,636.9 614.2,636.9 614.4,638.3 614,640.3 612.7,640.6 	
		"/>
	<polygon class="st36" points="609,638.3 609.7,637 611.1,637.6 611.4,638.5 611.1,640.5 611.4,642.2 611.7,644.6 610.8,645.4 
		610.1,644.4 609.8,641.9 609.4,639.5 608.8,638.4 	"/>
	<polygon class="st36" points="605.5,641.5 606.8,641 608.1,640.7 608.9,640.7 609,642.1 609,643.3 608.9,644.3 608.9,644.9 
		609.6,645.9 608.5,647.4 606.9,646.3 606.4,643.7 	"/>
	<polygon class="st36" points="605.6,644.9 604.1,646.2 603.7,647 604.5,648.5 606,648.1 606.7,647.5 	"/>
	<polygon class="st36" points="602.9,645.6 603.9,644.7 605.3,644.1 604.4,642.6 602.9,642.8 601.9,643.6 601.5,645.1 602,645.9 	
		"/>
	<polygon class="st36" points="601.3,642.6 603.1,641.5 603.1,639.8 602.8,638.3 601.5,637.9 600,638.9 599.5,639.4 599.7,641.3 
		600.1,643.2 600.9,643.9 	"/>
	<polygon class="st36" points="599.2,643.5 600.1,644.3 600.9,644.8 600.8,646.5 599.1,648 597.7,648.7 595.1,648.3 595.6,646.6 
		596.8,644.6 	"/>
	<polygon class="st36" points="609.8,646.8 608.5,648.2 609,649.4 610.9,649.2 611.7,647.5 	"/>
	<polygon class="st36" points="607.9,648.7 609,649.4 609.7,650.3 609.5,651.5 607.8,652.4 607.1,651.1 605.3,650.3 606.2,649.2 	
		"/>
	<path class="st36" d="M604.8,650.7l-2.2,1.1l-1.8,1.2c0,0-0.2,1.6-0.2,2c0,0.4-0.6,2.6-0.6,2.6l2,0.3l3.1-2.3l1.1-3L604.8,650.7
		L604.8,650.7z"/>
	<polygon class="st36" points="622.2,638.7 622.4,640.6 621.6,641.4 620.6,640.7 620.3,638.6 	"/>
	<polygon class="st36" points="626,641.4 625.4,641.8 625.4,642.6 626.2,643.1 627.4,642.4 627.7,641.1 	"/>
	<path class="st36" d="M627.7,642.9c0,0-0.4,0.2-0.5,0.6c-0.1,0.4,0.5,1.7,0.5,1.7l1.3,0.2l1-1.6l-0.7-1.2l-1.8,0.5L627.7,642.9
		L627.7,642.9z"/>
	<polygon class="st36" points="608.4,656.3 606.1,656.7 605.6,657.3 605.9,658.3 606.6,659.4 608.9,658.6 610.1,657.2 	"/>
	<polygon class="st36" points="605.3,658.3 604.6,658.3 602.9,658.8 602.5,661.9 604.5,662.9 605.7,661.4 605.8,660.3 	"/>
	<path class="st36" d="M597.4,661.1l-0.2,1.7c0,0-0.2,0.7-0.2,1.2c0,0.5-1,2-1,2l-1.4,1.3l1.1,0.6l1.9-0.7l1.8-0.7l0.4-2.1l-0.6-0.9
		l-0.6-1.6v-1.5L597.4,661.1L597.4,661.1z"/>
	<polygon class="st36" points="592.9,671.3 595.3,670.6 597.3,670.1 598.4,671 598.9,672.9 599.6,673.4 598,675.1 596.5,673.7 
		594.6,672.9 	"/>
	<path class="st36" d="M590.7,671.1l1.1,2.2l1,1.4l1.5,1.3l1.6,1.4l1-0.6c0,0,0.6-0.7,0.6-1c0-0.3-1.9-1.8-1.9-1.8l-2.7-1.8
		L590.7,671.1L590.7,671.1z"/>
	<polygon class="st36" points="597.7,676.6 596.4,677.9 596.9,679.7 599,679.6 599.7,678 	"/>
	<polygon class="st36" points="598.6,675.8 599.2,676.2 599.8,677.3 600.5,677.3 601.6,676 600.7,673.9 599.4,674 	"/>
	<polygon class="st36" points="606.8,683.5 606.6,681.3 607.7,679.9 608.5,679.3 610.5,679.3 611.7,679.7 611.3,681.8 609.5,682.3 
		607.9,683.7 	"/>
	<polygon class="st36" points="575.6,651.3 575.1,653.7 576.3,655.6 577.7,656.9 579.6,656.8 580.5,656 580.2,652.4 578.8,650.5 	
		"/>
</g>
<g id="Lacandon">
	<polygon class="st37" points="870.4,649.8 862.5,645.7 857,645.4 856.2,648.1 857.2,648.8 868,652.2 871.1,651.9 	"/>
</g>
<polygon class="st38" points="826.7,687.9 824.9,685.2 823.1,685 822.3,686 822.7,687.7 823.8,689.2 825.9,689.2 827,688.9 "/>
<g id="Kickapoo">
	<path class="st39" d="M498.5,179.2c-1.1-0.5-4.4-1.9-7-0.3c-1.1,0.7-1.7,1.6-2.6,3.2c-1.6,2.8-1.9,5.4-1.9,6.1
		c-0.2,2.3-0.3,4,0.6,5.4c1.5,2.3,4.5,2.7,8.7,3.2c2.5,0.3,3.7,0.1,4.2,0c1-0.2,3.5-0.7,4.8-2.6c2.5-3.3-0.5-8.7-1-9.6
		C503.8,183.7,502.1,180.7,498.5,179.2L498.5,179.2z"/>
</g>
<g id="Kiliwa">
	<path class="st40" d="M48.5,71.6c1.3,2,1.9,2.4,2.6,4.2c0.4,1.2,0.9,2.7,0.3,4.2c-0.9,2.3-3.7,2.9-3.8,2.9
		c-2.3,0.4-4.6-0.9-5.8-2.6c-1-1.5-0.3-2.1-1-7c-0.4-3.2-0.9-4-0.3-5.1c0.9-1.7,3.2-2.8,4.8-2.2C46.7,66.4,46.2,68,48.5,71.6
		L48.5,71.6z"/>
</g>
<g id="Kumiai">
	<path class="st41" d="M12.6,2.8C12.2,3.3,11,5.6,11,5.6l0,0c0,0,1.5,3.8,4.2,4.8c1.9,0.7,4-0.3,5.4-1c2-1,1.9-1.7,3.8-2.6
		c3-1.4,5.1-0.7,5.4-1.6c0.3-0.9-1.6-2.6-3.2-3.5C21.8-1.1,14.5-0.3,12.6,2.8z"/>
	<path class="st41" d="M28,12c-3.9-0.5-4.6-0.6-5.4-0.3c-0.6,0.1-2.9,0.8-3.2,2.2c-0.3,1.5,2,3.4,4.2,3.8c2.2,0.4,4.1-0.7,5.4-1.6
		c0.3-0.2,3.3-2.1,2.9-3.2C31.7,12.6,31.2,12.5,28,12L28,12z"/>
</g>
<g id="Keko">
	<polygon class="st42" points="833.1,677.3 831.5,676.2 830.5,676.9 829.4,678.8 829.2,679.7 829.2,680.7 830.2,681.3 831.2,681.8 
		833.1,681.7 833.7,680.2 833.9,679.3 	"/>
</g>
<g id="K_iche_">
	<path class="st43" d="M896.1,713.7l-2.4-10.8c0,0,2.2-8.2,2.4-8.9c0.2-0.7,2.9-8.7,2.9-8.7l4.6-4.1l5.8-4.6l6.3,1.9l7.2,0.2
		l-2.9,16.6l-15.1,2.2v10.3L896.1,713.7L896.1,713.7z"/>
</g>
<g id="Ku_ahl">
	<path class="st44" d="M9.9,1.8L2.1,0.5c0,0-2,0.2-2.1,0.5s0.3,6,0.3,6L3,10.9l6.4-0.3l1-1.4c0,0-0.4-2-0.4-2.8s1.5-4.1,1.5-4.1
		S9.9,1.8,9.9,1.8z"/>
</g>
<g id="Jakalteko">
	<polygon class="st45" points="825.5,671.5 824.2,671.4 823.2,673.6 824.5,675.3 826.7,674 827.4,671.9 	"/>
</g>
<g id="Ixcateco">
	<polygon class="st46" points="632.1,621 629.3,622.3 629.5,624.3 631.7,624.3 633.2,622.2 	"/>
</g>
<g id="Ixil">
	<polygon class="st47" points="865.7,683.5 863.9,686.2 862,688.8 859,692.1 860.4,693.7 862.8,696.2 868.7,695.7 871.5,695.2 
		874.5,695.4 876,695.9 875.4,692.8 876.5,689.8 878.5,688.1 877.8,685.1 874,684.8 873,683 871.6,683.7 869,683.7 867.3,683.3 
		865.3,682.1 	"/>
</g>
<g id="Huasteco">
	<path class="st48" d="M538.5,431.3c0,0-5,5-6.6,4.8c0,0-2.9,2.1-1.7,5.4c0.6,1.7,2.5,2.4,3.5,2.9c2.1,0.9,3.9,0.7,6.7,0.3
		c3.3-0.4,5-0.6,6.1-1.9c0.9-1.1,0.9-2.6,1-5.8c0.1-3.3,0.1-5-1-6.4c-1-1.3-2.8-2.5-4.5-2.2C541.2,428.6,540.8,429.1,538.5,431.3
		L538.5,431.3z"/>
</g>
<g id="Huichol">
	<path class="st49" d="M338.7,466.9c-0.6,0.2-3.3,0.9-5.1-0.6c-1.3-1.1-1.5-2.9-1.6-4.5c-0.1-1.5-0.2-2.9,0.6-4.2
		c0.8-1.1,2.3-1.5,5.1-2.2c1-0.3,2.1-0.5,3.5-0.6c2.7-0.2,3.1,0.4,5.4,0.3c3.7-0.1,5.1-1.5,6.1-0.6c1,0.9,0.2,3.2,0,3.8
		c-0.6,1.9-1.9,3-2.2,3.2c-2.1,1.7-3.4,0.6-6.4,1.9C341.2,464.7,341.4,466.2,338.7,466.9L338.7,466.9z"/>
</g>
<g id="Huave">
	<polygon class="st50" points="719.1,668.8 718.2,670.3 716.2,669.6 716.2,668.2 715.7,666.6 715.4,665.6 717.3,666.3 719.2,666.4 
		720.8,666.3 723.9,666.8 726.6,668.4 726.9,670.6 726.9,671.4 726.6,672.2 721.9,672.7 719.1,674.4 720,672 722.1,671.1 725,670.9 
		724.2,668.5 721.3,667.5 	"/>
	<path class="st50" d="M716.5,672.8l-0.6,0.1l-0.4,0.6l0.2,0.8l0.9,0.1c0,0,0.9-0.3,0.9-0.7c0-0.4,0-1.4,0-1.4L716.5,672.8
		L716.5,672.8z"/>
	<path class="st50" d="M716.9,675.8l-1.4-0.3l-0.9,0.2l-0.5,0.6c0,0-0.1,0.2,0.1,0.3c0.2,0.1,1.4,0.4,1.4,0.4l1.7-0.4L716.9,675.8
		L716.9,675.8z"/>
	<path class="st50" d="M713.1,677.4l-2.8-0.5c0,0-2.5,0.6-2.8,0.7s-1.4,0-1.4,0s-1.5,0.9-1.6,1s-1.2,0.6-1.2,0.6l-1.2,0.3l-1.7-1
		l-0.1-1.3l2.8,0.8c0,0,2.4-1.3,2.5-1.4s2-0.5,2-0.5l2.3-0.2l2.6,0.4L713.1,677.4L713.1,677.4z"/>
</g>
<g id="Guarijio">
	<path class="st51" d="M258.3,172.5c-2.6,1.2-5.8,2.6-5.8,2.6l0,0c0,0,0.6,13.5,6.4,16c3,1.3,6.9-0.6,9-2.6c3.7-3.5,3.3-8.4,3.2-9.6
		c-0.4-5.5-4.5-10.9-4.5-10.9l0,0C266.6,168,262.7,170.4,258.3,172.5L258.3,172.5z"/>
</g>
<g id="ch_ol">
	<polygon class="st52" points="803.9,617.4 802.2,618.4 801.2,620.1 803.1,621.6 804.6,622.5 807,622.9 809.1,622.9 810.5,623 
		810.7,620.3 809.1,618.6 806.7,617.7 	"/>
</g>
<g id="Chuj">
	<polygon class="st53" points="831.3,673.8 830,677.3 828.1,679.4 827,676 827.8,673.7 829.9,671.6 	"/>
</g>
<g id="Chontal_de_Tabasco">
	<path class="st54" d="M791.4,581.9l1.9,2.4l2.1,1.6l1.4,2.4l0.5,1.6l2.4,2.1l3.7,0.3l2.4-2.2c0,0,1.3-2.7,1.3-3.2
		c0-0.5-1.1-4.2-1.1-4.2l-3.2-2.4l-2.4-2.9l-1.6-1.6l-3.4,2.1l-3.5,2.2L791.4,581.9L791.4,581.9z"/>
</g>
<g id="Chatino">
	<polygon class="st55" points="633.3,666.9 633,667.3 631.1,670.2 632.5,672.3 634.6,672.3 636.6,670.3 636.9,668 635.7,666.3 	"/>
	<polygon class="st55" points="637.5,678.8 635.3,676.8 635.8,672.7 635.9,671.2 637,670 637,666.6 637.3,665 639.5,665 
		644.5,665.7 648.6,669.4 646.2,670.3 644.3,672.1 644.6,673.3 643.7,675.2 642.5,675.6 639.8,674.2 638.9,675.5 638.3,677.3 	"/>
	<polygon class="st55" points="640,675.2 639.2,677.6 638.3,678.7 638.8,679.5 640.7,679.7 642.4,676.8 641.8,676 	"/>
	<polygon class="st55" points="648.9,670.2 646.9,671 645.6,671.8 645.2,673 645.3,673.8 646.2,674 648,672.7 650.3,671.7 
		651.2,671.5 650.1,670 	"/>
	<polygon class="st55" points="645.6,674.9 647.9,673.9 649.8,673.2 651,672.4 651.6,673.7 651.5,675.6 650.9,678 647.9,681.7 
		647.4,681.8 644.2,681.8 644.6,677.6 	"/>
</g>
<g id="Chichimeco_Jonaz">
	<polygon class="st56" points="517,474.4 515.3,475.3 515.9,476.9 516.8,478.4 518.2,477.2 518.9,475.6 	"/>
</g>
<g id="Chinanteco">
	<polygon class="st57" points="677,626.7 672.9,629.4 669.1,631.8 668.1,633.4 671.7,637.8 676.3,637.8 681.1,634.4 679.9,629.1 
		678.9,625.5 	"/>
	<path class="st57" d="M681.1,630.9l0.2,1.8l0.5,0.8l1.8-0.4c0,0,1.2-0.6,1.2-0.9s-0.2-1.3-0.2-1.3l-1-0.5l-1.7-0.7L681.1,630.9
		L681.1,630.9z"/>
	<polygon class="st57" points="681.9,635.9 682.6,635.8 683.9,637.4 685.2,639.8 684,642 683.7,642.4 683,644.7 680.8,645.8 
		680.1,644.5 679.5,642 677.7,642.6 677.4,643.8 677.3,644.5 676.9,645.4 675.3,647.1 673.2,648.7 673.1,647.3 674.7,642.9 
		673.8,640 673.6,639.2 677.4,638.9 680.8,637.4 	"/>
	<path class="st57" d="M677,646.6l0.7-1l0.4-1.5l0.3-0.9l0.7-0.1l0.6,2.2c0,0,0.4,1,0.4,1.2c0,0.2,0.2,0.4,0,0.8
		c-0.1,0.4-1.4,0.9-1.4,0.9l-1.6-0.1L677,646.6L677,646.6L677,646.6z"/>
	<polygon class="st57" points="670.8,643.6 672.1,644.2 673.4,644.2 674,643.2 673.8,641.9 673.4,641.2 672.5,640.5 670.6,640.4 
		669.9,640.6 669.4,641.7 670.1,643.2 	"/>
	<path class="st57" d="M670.6,644.8l1.2,0.2l1.3-0.1l-0.5,1.4l-0.5,2.2l0.1,1l-0.1,0.2h-2l-1.7-0.6c0,0,0.1-0.9,0.1-1.1
		s0.7-1.7,0.7-1.7l0.5-0.1l0.7-0.6L670.6,644.8L670.6,644.8L670.6,644.8z"/>
	<polygon class="st57" points="684,643.3 684,644.9 683,645.6 682.6,648 682.8,649.1 685.1,648.6 686.9,648.7 688.6,642 
		686.9,640.9 685.7,639.5 	"/>
	<polygon class="st57" points="689.1,642.4 687.7,648.9 689.5,650 690.8,650.5 691,648.3 690.4,643.5 	"/>
	<polygon class="st57" points="691,643.2 690.6,642.1 690.9,641.1 692.5,640.2 693.9,641 695.5,643.3 696.7,646.3 696.1,650.9 
		694.1,651.8 693.1,652.6 690.9,651.9 690.5,650.8 691.4,649.9 691.7,648.2 691.2,644.8 	"/>
	<polygon class="st57" points="674,654.7 676.2,652.3 680.1,650.6 682.5,649.5 684.2,649.5 685.2,649.8 685.5,650.4 684.5,651.4 
		682.9,652 678.8,654.2 676.4,655 	"/>
	<path class="st57" d="M678.3,649.2l-2,0.3l-2.2,0.3l-1,1.8l-0.2,2l1.2-0.6c0,0,1.4-1.3,1.6-1.4s2.3-1,2.3-1L678.3,649.2
		L678.3,649.2z"/>
</g>
<g id="Chocholteco">
	<polygon class="st58" points="632.5,645.9 634,645.8 635.8,646.5 636.3,647.7 636.7,649.6 636.2,651.3 634.9,651 634.6,649.1 
		633.9,648.7 632.5,647.9 631.7,646.6 	"/>
</g>
<g id="Cora">
	<g class="st59">
		<path class="st60" d="M353.4,461.8c-1.3,1.3-3.5,2.4-8,4.5c-2.6,1.2-4,1.7-4.8,3.2c-0.6,1.2-0.5,2.5-0.3,5.1
			c0.3,3.5,0.4,5.2,1.3,6.4c1.5,2.1,3.8,1.7,8.7,2.9c6.8,1.7,6.5,3.4,11.2,4.2c6.4,1,11.7-1.5,12.5-1.9c1.4-0.7,7.8-3.9,9.9-10.9
			c1.4-4.5,0.4-8.4-0.6-12.2c-0.4-1.6-0.4-0.8-6.1-12.5c-1.2-2.5-2.3-4.8-4.8-6.7c-2.2-1.7-4.1-2.1-4.8-2.2c-1-0.2-2.2-0.4-3.5,0
			c-2.4,0.7-3.6,2.9-4.5,4.5c-1.1,2-1.3,3.3-1.9,5.8C356.1,457,355.4,459.6,353.4,461.8L353.4,461.8z"/>
		<path class="st61" d="M353.4,461.8c-1.3,1.3-3.5,2.4-8,4.5c-2.6,1.2-4,1.7-4.8,3.2c-0.6,1.2-0.5,2.5-0.3,5.1
			c0.3,3.5,0.4,5.2,1.3,6.4c1.5,2.1,3.8,1.7,8.7,2.9c6.8,1.7,6.5,3.4,11.2,4.2c6.4,1,11.7-1.5,12.5-1.9c1.4-0.7,7.8-3.9,9.9-10.9
			c1.4-4.5,0.4-8.4-0.6-12.2c-0.4-1.6-0.4-0.8-6.1-12.5c-1.2-2.5-2.3-4.8-4.8-6.7c-2.2-1.7-4.1-2.1-4.8-2.2c-1-0.2-2.2-0.4-3.5,0
			c-2.4,0.7-3.6,2.9-4.5,4.5c-1.1,2-1.3,3.3-1.9,5.8C356.1,457,355.4,459.6,353.4,461.8L353.4,461.8z"/>
	</g>
</g>
<g id="Cucapa">
	<path class="st62" d="M78.3,18.1c-2.6-4.1-7.8-4.4-9-4.5c-3.6-0.2-6.2,1.2-7.7,1.9c-1.8,0.9-7.2,3.8-7.4,8.7
		c-0.1,2.7,1.4,4.8,1.9,5.4c1.7,2.2,3,1.5,6.1,3.8c3.6,2.7,3.6,4.9,5.8,5.1c1.9,0.3,3.5-1.2,5.4-2.9c1.4-1.3,4.3-3.8,5.4-8.3
		C79.4,25.3,80.4,21.5,78.3,18.1L78.3,18.1z"/>
</g>
<g id="Cuiteco">
	<path class="st63" d="M661.1,611c-0.9,0.2-2.8,0.6-4.2,2.2c-0.3,0.3-1.6,2-1.1,3.4c0.2,0.6,1,1.6,1,1.6l0,0c0,0,2.1,2.1,4.2,2.1
		c1.4,0,2.5-1.1,3.2-1.8c1.2-1.2,1-1.8,2.6-3.8c1.1-1.4,1.5-1.5,1.4-1.9C668,611.4,664.3,610.4,661.1,611L661.1,611z"/>
	<path class="st63" d="M654.2,617.8c1.4,1.2,1.1,2.2,2.4,2.7c1.2,0.5,1.9-0.2,3.4,0.5c0.3,0.1,1.3,0.6,1.3,1.1
		c-0.1,0.7-1.9,0.4-2.9,1.6c-1,1.3,0.2,2.6-0.6,4.2c-1,1.7-3.6,1.9-5.1,2.1c-0.4,0-2.3,0.2-4.6-0.6c-1.9-0.6-4-1.4-4.5-3.1
		c-0.3-1,0.8-2.6,2.9-5.6c2.4-3.5,3.2-3.9,3.8-4C652.2,616.3,654.1,617.8,654.2,617.8L654.2,617.8z"/>
</g>
<g id="Awakateko">
	<polygon class="st64" points="886.2,723.6 885.9,728.6 890.1,729.8 893.2,730.5 896.4,727.2 897.5,725.4 897.2,723 892,723.5 
		888.2,723.2 886.7,721.3 	"/>
</g>
<g id="Akateko">
	<g class="st59">
		<polygon class="st65" points="829.4,702.2 830,706.3 834.2,709.8 841.2,713.4 847,715.3 850.8,717.8 856.3,717.2 856.3,712.1 
			852.4,711.7 846.7,710.8 842.5,708.9 839,705.4 837.7,699.6 836.1,696.1 		"/>
		<g>
			<polyline class="st66" points="829.5,702 829.4,702.2 829.4,702.4 			"/>
			<polyline class="st67" points="829.5,702.8 830,706.3 834.2,709.8 841.2,713.4 847,715.3 850.8,717.8 855.9,717.2 			"/>
			<polyline class="st66" points="856.1,717.2 856.3,717.2 856.3,717 			"/>
			<line class="st67" x1="856.3" y1="716.6" x2="856.3" y2="712.5"/>
			<polyline class="st66" points="856.3,712.3 856.3,712.1 856.1,712.1 			"/>
			<polyline class="st67" points="855.7,712 852.4,711.7 846.7,710.8 842.5,708.9 839,705.4 837.7,699.6 836.3,696.4 			"/>
			<polyline class="st66" points="836.2,696.3 836.1,696.1 835.9,696.2 			"/>
			<line class="st67" x1="835.6" y1="696.5" x2="829.7" y2="701.9"/>
		</g>
	</g>
</g>
<g id="Amuzgo">
	<polygon class="st68" points="586.3,648.5 583.4,651.7 581.5,654.6 582.4,659.1 584.7,659.7 588.9,659.1 591.1,654.6 589.8,650.7 	
		"/>
	<polygon class="st68" points="603.6,667.7 601.7,671.6 601.7,673.5 604.5,675.1 607.1,669.3 607.4,666.1 	"/>
	<polygon class="st68" points="608.7,666.6 607.8,670.4 606.1,674.3 605.6,675.6 606.9,675.5 608.9,674.4 610.9,671.9 610.9,668.3 	
		"/>
</g>
<g id="Ayapaneco">
	<polygon class="st69" points="791,587.5 790.8,589.4 792.6,590.4 795.1,590.4 795.6,587.5 794,585.9 791.8,584.7 	"/>
</g>
</svg>
