<svg xmlns="http://www.w3.org/2000/svg" viewBox="0 0 24 24">
  <rect x="7" y="2" width="16" height="4" rx=".6" ry=".6"/>
  <rect x="7" y="10" width="16" height="4" rx=".6" ry=".6"/>
  <rect x="7" y="18" width="16" height="4" rx=".6" ry=".6"/>
  <path d="M1.2 6h1.3V3.3H1.4v-.8c.7-.1 1.1-.2 1.5-.5h1v4H5v1.1H1.2V6ZM1 14c1.4-1.1 2.4-2 2.4-2.6s-.3-.7-.7-.7-.7.2-.9.5l-.7-.7c.6-.6 1.1-.8 1.9-.8s1.9.7 1.9 1.7-.9 1.7-1.7 2.4h1.9V15H1v-.8Zm-.1 7.8.6-.9c.3.3.8.5 1.2.5s.9-.2.9-.5-.3-.6-1.4-.6v-1c.9 0 1.3-.2 1.3-.6s-.2-.5-.6-.5-.7.1-1 .4l-.7-.8c.5-.4 1.1-.7 1.8-.7 1.2 0 2 .5 2 1.4s-.3.9-.9 1.1c.6.2 1.1.6 1.1 1.2 0 1-1 1.5-2.1 1.5s-1.5-.3-1.9-.7Z"/>
</svg>