<svg width="514" height="89" xmlns="http://www.w3.org/2000/svg"><g fill="none" fill-rule="evenodd"><path d="M146.585 28.546C138.171 16.42 124.115 6.874 104.465 0c18.454 27.495 15.108 53.607-9.945 78.286 24.144-8.068 41.451-24.68 52.065-49.74" fill="#D1EAF1"/><path d="M167.096 41.864c-8.033-16.182-19.077-28.69-33.085-37.616 0 35.61-13.148 60.29-39.443 74.038 31.315-2.005 55.46-14.13 72.528-36.422" fill="#A5CBE2" opacity=".75"/><path d="M177.327 49.167c-3.203-11.313-9.227-23.056-18.072-35.228-6.79 38.045-28.352 59.478-64.687 64.347 41.738-1.623 69.324-11.314 82.759-29.119" fill="#3F87C1" opacity=".85"/><path d="M180.96 72.223c0-4.678-.621-8.878-1.769-12.745-17.641 12.125-45.85 18.426-84.575 18.808 24.048.43 52.83-1.623 86.344-6.063" fill="#2468B9"/><g><path d="M.43 73.417c0-4.058.622-8.879 1.77-14.56 15.25 12.555 41.068 19 77.642 19.429-20.08.811-46.519-.812-79.412-4.87" fill="#7AA4D6"/><path d="M4.064 49.167c0-1.623 1.625-7.685 4.78-18.235C22.519 59.24 46.185 75.04 79.843 78.238c-36.096-.764-61.387-10.454-75.778-29.07" fill="#9BC0DD"/></g><g transform="translate(0 79.24)"><path fill="#6C6C6C" d="M.43.239h83.046v3.962H.43zM97.867.239h83.046v3.962H97.867z"/><path fill="#6C6C6C" d="M16.064 3.294h150.458v5.728H16.064z"/><ellipse fill="#6C6C6C" cx="169.486" cy="3.914" rx="11.427" ry="3.628"/><ellipse fill="#6C6C6C" cx="11.857" cy="3.914" rx="11.427" ry="3.628"/><path d="M83.428.239c3.968 0 7.22 1.91 7.22 4.248 0 2.34-3.204 4.249-7.22 4.249-3.968 0-7.22-1.91-7.22-4.249C76.258 2.196 79.46.24 83.429.24Z" fill="#6C6C6C"/><path d="M97.867.239c3.968 0 7.22 1.91 7.22 4.248 0 2.34-3.204 4.249-7.22 4.249-3.968 0-7.22-1.91-7.22-4.249C90.696 2.196 93.9.24 97.868.24Z" fill="#6C6C6C"/><ellipse fill="#A1A1A1" cx="162.554" cy="4.535" rx="1.769" ry="1.814"/><path fill="#A1A1A1" d="M133.724 3.58h23.475v2.434h-23.475z"/><path d="m165.613 8.163 6.024-6.063M10.948 2.053l6.025 6.062" stroke="#6C6C6C" stroke-width="2" fill="#000"/></g><g><path d="M203 53.32V31.744h4.495c3.203 0 5.498.239 7.028.764 2.104.763 3.73 2.052 4.829 3.818 1.195 1.814 1.769 4.01 1.769 6.492 0 2.196-.43 4.058-1.435 5.729-.908 1.67-2.151 2.864-3.585 3.628-1.482.763-3.586 1.193-6.216 1.193h-6.884v-.048Zm2.009-2.052h2.438c2.964 0 5.02-.144 6.215-.526a7.252 7.252 0 0 0 3.825-2.864c.909-1.336 1.434-3.102 1.434-5.06 0-2.1-.525-3.818-1.482-5.346-.956-1.527-2.39-2.482-4.16-3.007-1.338-.382-3.585-.62-6.645-.62h-1.482l-.143 17.423ZM224.946 31.744h2.15V53.32h-2.15zM252.675 35.324l-1.625 1.575a12.809 12.809 0 0 0-3.969-2.72c-1.434-.621-2.82-.908-4.159-.908-1.721 0-3.299.43-4.781 1.29-1.482.81-2.677 1.956-3.49 3.388-.813 1.433-1.291 2.912-1.291 4.535 0 1.671.43 3.15 1.29 4.678.91 1.432 2.105 2.626 3.587 3.485a10.46 10.46 0 0 0 5.02 1.289c2.247 0 4.111-.62 5.593-1.862 1.483-1.289 2.439-2.864 2.678-4.869h-6.885v-2.1h9.227c0 3.294-.956 6.014-2.964 7.972-1.96 1.957-4.542 2.911-7.84 2.911-3.969 0-7.076-1.336-9.42-4.057-1.768-2.1-2.676-4.535-2.676-7.303 0-2.053.525-4.01 1.577-5.729 1.052-1.718 2.39-3.15 4.16-4.153a12.672 12.672 0 0 1 6.024-1.527c1.769 0 3.49.286 5.163.955 1.578.668 3.203 1.718 4.781 3.15ZM257.6 31.744h2.15V53.32h-2.15zM262.62 33.844v-2.1h11.713v2.1h-4.781V53.32H267.4V33.844zM283.704 31.744l9.992 21.576h-2.295l-3.346-7.16h-9.228l-3.346 7.16h-2.343l10.136-21.576h.43Zm-.191 4.582-3.682 7.829h7.315l-3.633-7.829ZM297.139 31.744h2.15v19.57h8.32v2.102h-10.375V31.744z" stroke="#595959" fill="#595959"/><path d="M319.13 31.744h4.256c1.721 0 2.964.239 3.968.62.956.382 1.626 1.05 2.152 1.862.526.812.812 1.814.812 2.769 0 .954-.239 1.814-.669 2.625-.43.812-1.1 1.432-2.008 1.862 1.1.382 1.96.811 2.534 1.336a6.918 6.918 0 0 1 1.434 1.862c.383.764.526 1.528.526 2.387 0 1.718-.573 3.246-1.864 4.344-1.291 1.098-2.917 1.814-5.068 1.814h-5.88V31.744h-.192Zm2.2 2.1v6.922h1.195c1.483 0 2.63-.143 3.3-.43.669-.286 1.29-.764 1.625-1.336.382-.62.574-1.29.574-2.053 0-.955-.383-1.718-1.052-2.339-.67-.62-1.77-.811-3.3-.811h-2.39l.048.047Zm0 9.118v8.258h2.678c1.577 0 2.677-.143 3.442-.43.765-.286 1.339-.811 1.769-1.432.43-.668.67-1.336.67-2.1 0-.955-.288-1.814-.957-2.482-.574-.764-1.482-1.194-2.534-1.528-.765-.143-2.008-.286-3.825-.286h-1.243ZM335.912 31.744h2.152V53.32h-2.152zM343.036 31.744h4.255c1.721 0 2.964.239 3.968.62.956.382 1.626 1.05 2.152 1.862.526.812.812 1.814.812 2.769 0 .954-.239 1.814-.669 2.625-.43.812-1.1 1.432-2.008 1.862 1.1.382 1.96.811 2.534 1.336a6.918 6.918 0 0 1 1.434 1.862c.383.764.526 1.528.526 2.387 0 1.718-.574 3.246-1.864 4.344-1.291 1.145-2.917 1.814-5.068 1.814h-5.929V31.744h-.143Zm2.151 2.1v6.922h1.196c1.482 0 2.63-.143 3.298-.43.67-.286 1.291-.764 1.626-1.336.382-.62.574-1.29.574-2.053 0-.955-.383-1.718-1.052-2.339-.67-.62-1.77-.811-3.299-.811l-2.343.047Zm0 9.118v8.258h2.678c1.577 0 2.677-.143 3.442-.43.765-.286 1.339-.811 1.769-1.432.43-.668.67-1.336.67-2.1 0-.955-.288-1.814-.957-2.482-.574-.764-1.482-1.194-2.534-1.528-.765-.143-2.008-.286-3.825-.286h-1.243ZM360.2 31.744h2.15v19.57h8.224v2.102H360.2V31.744zM373.969 31.744h12.24v2.1h-10.136v6.779h10.087v2.1h-10.087v8.497h10.087v2.1h-12.143c-.048 0-.048-21.576-.048-21.576Z" stroke="#2852AA" fill="#2852AA"/><path d="m396.01 49.31 1.768-1.145c1.291 2.387 2.773 3.532 4.494 3.532.765 0 1.435-.143 2.008-.525.574-.382 1.1-.811 1.435-1.336.286-.526.526-1.194.526-1.814 0-.764-.24-1.432-.765-2.1-.67-.955-1.865-2.101-3.634-3.485-1.769-1.337-2.916-2.34-3.347-2.912-.765-1.05-1.1-2.1-1.1-3.294 0-.907.24-1.814.67-2.578.43-.763 1.052-1.336 1.865-1.814a5.66 5.66 0 0 1 2.63-.668c1.051 0 1.96.239 2.82.764.86.525 1.769 1.432 2.773 2.768l-1.721 1.337c-.813-1.05-1.482-1.814-2.104-2.1-.574-.287-1.195-.525-1.864-.525-.909 0-1.578.286-2.104.811a2.702 2.702 0 0 0-.813 1.957c0 .43.096.907.287 1.337.24.43.526.907 1.052 1.432.287.286 1.195.955 2.773 2.196 1.864 1.336 3.155 2.625 3.825 3.675.669 1.05 1.051 2.196 1.051 3.246 0 1.576-.573 2.912-1.769 4.058-1.195 1.145-2.63 1.718-4.302 1.718-1.291 0-2.439-.382-3.49-1.05-1.196-.62-2.104-1.814-2.965-3.485ZM423.213 31.219c3.299 0 5.976 1.145 8.128 3.294 2.151 2.148 3.299 4.82 3.299 8.067 0 3.15-1.1 5.871-3.3 8.067-2.15 2.196-4.828 3.294-7.984 3.294-3.203 0-5.88-1.146-8.08-3.294-2.15-2.196-3.298-4.821-3.298-7.972 0-2.1.526-4.01 1.482-5.776.956-1.814 2.39-3.15 4.111-4.153 1.77-1.002 3.634-1.527 5.642-1.527Zm.143 2.1c-1.577 0-3.06.43-4.494 1.289-1.434.812-2.534 1.957-3.346 3.39-.813 1.431-1.196 3.007-1.196 4.725 0 2.578.909 4.726 2.678 6.492 1.769 1.814 3.872 2.625 6.406 2.625 1.626 0 3.204-.381 4.638-1.193a8.734 8.734 0 0 0 3.299-3.294c.812-1.432 1.195-3.007 1.195-4.725 0-1.719-.383-3.246-1.195-4.679a9.608 9.608 0 0 0-3.347-3.293c-1.578-.955-3.06-1.337-4.638-1.337ZM458.88 35.706l-1.722 1.289c-.908-1.194-2.104-2.196-3.347-2.769-1.29-.62-2.773-.955-4.303-.955-1.72 0-3.298.382-4.78 1.29-1.483.906-2.63 1.956-3.347 3.293-.765 1.337-1.195 2.912-1.195 4.726 0 2.625.908 4.821 2.677 6.635 1.769 1.814 4.016 2.625 6.789 2.625 2.964 0 5.498-1.193 7.554-3.532l1.721 1.289c-1.052 1.336-2.39 2.387-4.016 3.15-1.626.764-3.347 1.146-5.355 1.146-3.729 0-6.693-1.289-8.892-3.771-1.77-2.1-2.773-4.678-2.773-7.685 0-3.15 1.1-5.776 3.299-7.972 2.199-2.196 5.067-3.246 8.414-3.246 2.008 0 3.825.382 5.45 1.193 1.626.812 2.869 1.862 3.825 3.294ZM462.99 31.744h2.152V53.32h-2.151zM470.067 31.744h12.287v2.1h-10.28v6.779h10.089v2.1h-10.088v8.497h10.088v2.1h-12.096zM483.884 33.844v-2.1h11.713v2.1h-4.781V53.32h-2.151V33.844zM496.936 31.744h2.438l5.498 8.879 5.403-8.88h2.438l-6.79 11.267v10.31h-2.102V43.01z" stroke="#595959" fill="#595959"/></g><g fill-rule="nonzero"><path d="M227.632 75.184h-4.302L222.07 79h-1.62l4.122-12.132h1.89L230.602 79h-1.674l-1.296-3.816Zm-3.978-1.224h3.654l-1.188-3.492c-.27-.792-.45-1.512-.63-2.214h-.036c-.18.72-.378 1.458-.612 2.196l-1.188 3.51Zm13.99 3.528.27 1.188c-.414.216-1.332.504-2.502.504-2.628 0-4.338-1.782-4.338-4.446 0-2.682 1.836-4.626 4.68-4.626.936 0 1.764.234 2.196.45l-.36 1.224c-.378-.216-.972-.414-1.836-.414-1.998 0-3.078 1.476-3.078 3.294 0 2.016 1.296 3.258 3.024 3.258.9 0 1.494-.234 1.944-.432Zm7.546 0 .27 1.188c-.414.216-1.332.504-2.502.504-2.628 0-4.338-1.782-4.338-4.446 0-2.682 1.836-4.626 4.68-4.626.936 0 1.764.234 2.196.45l-.36 1.224c-.378-.216-.972-.414-1.836-.414-1.998 0-3.078 1.476-3.078 3.294 0 2.016 1.296 3.258 3.024 3.258.9 0 1.494-.234 1.944-.432Zm8.608-2.556h-6.12c.036 2.142 1.404 3.024 2.988 3.024 1.134 0 1.818-.198 2.412-.45l.27 1.134c-.558.252-1.512.54-2.898.54-2.682 0-4.284-1.764-4.284-4.392s1.548-4.698 4.086-4.698c2.844 0 3.6 2.502 3.6 4.104 0 .324-.036.576-.054.738Zm-6.102-1.134h4.626c.018-1.008-.414-2.574-2.196-2.574-1.602 0-2.304 1.476-2.43 2.574ZM255.404 79V66.22h1.584V79h-1.584Zm10.84-4.068h-6.12c.036 2.142 1.404 3.024 2.988 3.024 1.134 0 1.818-.198 2.412-.45l.27 1.134c-.558.252-1.512.54-2.898.54-2.682 0-4.284-1.764-4.284-4.392s1.548-4.698 4.086-4.698c2.844 0 3.6 2.502 3.6 4.104 0 .324-.036.576-.054.738Zm-6.102-1.134h4.626c.018-1.008-.414-2.574-2.196-2.574-1.602 0-2.304 1.476-2.43 2.574ZM267.85 79v-5.994c0-1.026-.018-1.908-.072-2.718h1.386l.054 1.71h.072c.396-1.17 1.35-1.908 2.412-1.908.18 0 .306.018.45.054v1.494a2.38 2.38 0 0 0-.54-.054c-1.116 0-1.908.846-2.124 2.034a4.458 4.458 0 0 0-.072.738V79h-1.566Zm11.65 0h-1.44l-.126-1.098h-.054c-.486.684-1.422 1.296-2.664 1.296-1.764 0-2.664-1.242-2.664-2.502 0-2.106 1.872-3.258 5.238-3.24v-.18c0-.72-.198-2.016-1.98-2.016-.81 0-1.656.252-2.268.648l-.36-1.044c.72-.468 1.764-.774 2.862-.774 2.664 0 3.312 1.818 3.312 3.564v3.258c0 .756.036 1.494.144 2.088Zm-1.674-2.934v-1.512c-1.728-.036-3.69.27-3.69 1.962 0 1.026.684 1.512 1.494 1.512 1.134 0 1.854-.72 2.106-1.458.054-.162.09-.342.09-.504Zm3.964-7.866 1.548-.414v2.502h2.268v1.206h-2.268v4.698c0 1.08.306 1.692 1.188 1.692.414 0 .72-.054.918-.108l.072 1.188c-.306.126-.792.216-1.404.216-.738 0-1.332-.234-1.71-.666-.45-.468-.612-1.242-.612-2.268v-4.752h-1.35v-1.206h1.35V68.2Zm6.772 10.8h-1.584v-8.712h1.584V79Zm-.792-12.15c.594 0 .972.432.972.99.018.54-.378.972-1.008.972-.558 0-.954-.432-.954-.972 0-.558.414-.99.99-.99ZM290.78 79v-6.354c0-.9-.018-1.638-.072-2.358h1.404l.09 1.44h.036c.432-.828 1.44-1.638 2.88-1.638 1.206 0 3.078.72 3.078 3.708V79h-1.584v-5.022c0-1.404-.522-2.574-2.016-2.574-1.044 0-1.854.738-2.124 1.62a2.278 2.278 0 0 0-.108.738V79h-1.584Zm15.7-8.712h1.386c-.036.63-.072 1.332-.072 2.394v5.058c0 1.998-.396 3.222-1.242 3.978-.846.792-2.07 1.044-3.168 1.044-1.044 0-2.196-.252-2.898-.72l.396-1.206c.576.36 1.476.684 2.556.684 1.62 0 2.808-.846 2.808-3.042v-.972h-.036c-.486.81-1.422 1.458-2.772 1.458-2.16 0-3.708-1.836-3.708-4.248 0-2.952 1.926-4.626 3.924-4.626 1.512 0 2.34.792 2.718 1.512h.036l.072-1.314Zm-.252 5.004v-1.566c0-.27-.018-.504-.09-.72-.288-.918-1.062-1.674-2.214-1.674-1.512 0-2.592 1.278-2.592 3.294 0 1.71.864 3.132 2.574 3.132.972 0 1.854-.612 2.196-1.62.09-.27.126-.576.126-.846Z" fill="#555"/><path d="M319.358 66.22h1.584v10.53c0 .774.018 1.656.072 2.25h-1.422l-.072-1.512h-.036c-.486.972-1.548 1.71-2.97 1.71-2.106 0-3.726-1.782-3.726-4.428-.018-2.898 1.782-4.68 3.906-4.68 1.332 0 2.232.63 2.628 1.332h.036V66.22Zm0 9.126v-1.512c0-.198-.018-.468-.072-.666-.234-1.008-1.098-1.836-2.286-1.836-1.638 0-2.61 1.44-2.61 3.366 0 1.764.864 3.222 2.574 3.222 1.062 0 2.034-.702 2.322-1.89.054-.216.072-.432.072-.684ZM325.044 79h-1.584v-8.712h1.584V79Zm-.792-12.15c.594 0 .972.432.972.99.018.54-.378.972-1.008.972-.558 0-.954-.432-.954-.972 0-.558.414-.99.99-.99Zm2.698 11.736.396-1.206c.468.306 1.296.63 2.088.63 1.152 0 1.692-.576 1.692-1.296 0-.756-.45-1.17-1.62-1.602-1.566-.558-2.304-1.422-2.304-2.466 0-1.404 1.134-2.556 3.006-2.556.882 0 1.656.252 2.142.54l-.396 1.152a3.39 3.39 0 0 0-1.782-.504c-.936 0-1.458.54-1.458 1.188 0 .72.522 1.044 1.656 1.476 1.512.576 2.286 1.332 2.286 2.628 0 1.53-1.188 2.61-3.258 2.61-.954 0-1.836-.234-2.448-.594Zm7.99-10.386 1.548-.414v2.502h2.268v1.206h-2.268v4.698c0 1.08.306 1.692 1.188 1.692.414 0 .72-.054.918-.108l.072 1.188c-.306.126-.792.216-1.404.216-.738 0-1.332-.234-1.71-.666-.45-.468-.612-1.242-.612-2.268v-4.752h-1.35v-1.206h1.35V68.2Zm5.488 10.8v-5.994c0-1.026-.018-1.908-.072-2.718h1.386l.054 1.71h.072c.396-1.17 1.35-1.908 2.412-1.908.18 0 .306.018.45.054v1.494a2.38 2.38 0 0 0-.54-.054c-1.116 0-1.908.846-2.124 2.034a4.458 4.458 0 0 0-.072.738V79h-1.566Zm7.432 0h-1.584v-8.712h1.584V79Zm-.792-12.15c.594 0 .972.432.972.99.018.54-.378.972-1.008.972-.558 0-.954-.432-.954-.972 0-.558.414-.99.99-.99ZM351.674 79h-1.368c.036-.594.072-1.476.072-2.25V66.22h1.566v5.472h.036c.558-.972 1.566-1.602 2.97-1.602 2.16 0 3.69 1.8 3.672 4.446 0 3.114-1.962 4.662-3.906 4.662-1.26 0-2.268-.486-2.916-1.638h-.054l-.072 1.44Zm.27-5.058v1.566c0 .198.036.396.072.576.306 1.098 1.224 1.854 2.376 1.854 1.656 0 2.646-1.35 2.646-3.348 0-1.746-.9-3.24-2.592-3.24-1.08 0-2.088.738-2.412 1.944-.036.18-.09.396-.09.648Zm15.856-3.654v6.336c0 .9.018 1.692.072 2.376h-1.404l-.09-1.422h-.036a3.278 3.278 0 0 1-2.88 1.62c-1.368 0-3.006-.756-3.006-3.816v-5.094h1.584v4.824c0 1.656.504 2.772 1.944 2.772 1.062 0 1.8-.738 2.088-1.44.09-.234.144-.522.144-.81v-5.346h1.584Zm2.878-2.088 1.548-.414v2.502h2.268v1.206h-2.268v4.698c0 1.08.306 1.692 1.188 1.692.414 0 .72-.054.918-.108l.072 1.188c-.306.126-.792.216-1.404.216-.738 0-1.332-.234-1.71-.666-.45-.468-.612-1.242-.612-2.268v-4.752h-1.35v-1.206h1.35V68.2ZM377.75 79h-1.584v-8.712h1.584V79Zm-.792-12.15c.594 0 .972.432.972.99.018.54-.378.972-1.008.972-.558 0-.954-.432-.954-.972 0-.558.414-.99.99-.99Zm7 3.24c2.502 0 4.194 1.818 4.194 4.482 0 3.222-2.232 4.626-4.338 4.626-2.358 0-4.176-1.728-4.176-4.482 0-2.916 1.908-4.626 4.32-4.626Zm-.036 1.188c-1.872 0-2.682 1.728-2.682 3.384 0 1.908 1.098 3.348 2.646 3.348 1.512 0 2.646-1.422 2.646-3.384 0-1.476-.738-3.348-2.61-3.348ZM390.04 79v-6.354c0-.9-.018-1.638-.072-2.358h1.404l.09 1.44h.036c.432-.828 1.44-1.638 2.88-1.638 1.206 0 3.078.72 3.078 3.708V79h-1.584v-5.022c0-1.404-.522-2.574-2.016-2.574-1.044 0-1.854.738-2.124 1.62a2.278 2.278 0 0 0-.108.738V79h-1.584Z" fill="#2468B9"/><path d="M402.336 70.288h1.62l1.152 4.428c.252.972.486 1.872.648 2.772h.054c.198-.882.486-1.818.774-2.754l1.422-4.446h1.332l1.35 4.356c.324 1.044.576 1.962.774 2.844h.054c.144-.882.378-1.8.666-2.826l1.242-4.374h1.566L412.182 79h-1.44l-1.332-4.158c-.306-.972-.558-1.836-.774-2.862h-.036c-.216 1.044-.486 1.944-.792 2.88L406.404 79h-1.44l-2.628-8.712Zm17.438-.198c2.502 0 4.194 1.818 4.194 4.482 0 3.222-2.232 4.626-4.338 4.626-2.358 0-4.176-1.728-4.176-4.482 0-2.916 1.908-4.626 4.32-4.626Zm-.036 1.188c-1.872 0-2.682 1.728-2.682 3.384 0 1.908 1.098 3.348 2.646 3.348 1.512 0 2.646-1.422 2.646-3.384 0-1.476-.738-3.348-2.61-3.348ZM425.656 79v-5.994c0-1.026-.018-1.908-.072-2.718h1.386l.054 1.71h.072c.396-1.17 1.35-1.908 2.412-1.908.18 0 .306.018.45.054v1.494a2.38 2.38 0 0 0-.54-.054c-1.116 0-1.908.846-2.124 2.034a4.458 4.458 0 0 0-.072.738V79h-1.566Zm5.648 0V66.22h1.584V79h-1.584Zm9.878-12.78h1.584v10.53c0 .774.018 1.656.072 2.25h-1.422l-.072-1.512h-.036c-.486.972-1.548 1.71-2.97 1.71-2.106 0-3.726-1.782-3.726-4.428-.018-2.898 1.782-4.68 3.906-4.68 1.332 0 2.232.63 2.628 1.332h.036V66.22Zm0 9.126v-1.512c0-.198-.018-.468-.072-.666-.234-1.008-1.098-1.836-2.286-1.836-1.638 0-2.61 1.44-2.61 3.366 0 1.764.864 3.222 2.574 3.222 1.062 0 2.034-.702 2.322-1.89.054-.216.072-.432.072-.684Zm2.912-5.058h1.62l1.152 4.428c.252.972.486 1.872.648 2.772h.054c.198-.882.486-1.818.774-2.754l1.422-4.446h1.332l1.35 4.356c.324 1.044.576 1.962.774 2.844h.054c.144-.882.378-1.8.666-2.826l1.242-4.374h1.566L453.94 79h-1.44l-1.332-4.158c-.306-.972-.558-1.836-.774-2.862h-.036c-.216 1.044-.486 1.944-.792 2.88L448.162 79h-1.44l-2.628-8.712ZM459.606 79h-1.584v-8.712h1.584V79Zm-.792-12.15c.594 0 .972.432.972.99.018.54-.378.972-1.008.972-.558 0-.954-.432-.954-.972 0-.558.414-.99.99-.99Zm9.05-.63h1.584v10.53c0 .774.018 1.656.072 2.25h-1.422l-.072-1.512h-.036c-.486.972-1.548 1.71-2.97 1.71-2.106 0-3.726-1.782-3.726-4.428-.018-2.898 1.782-4.68 3.906-4.68 1.332 0 2.232.63 2.628 1.332h.036V66.22Zm0 9.126v-1.512c0-.198-.018-.468-.072-.666-.234-1.008-1.098-1.836-2.286-1.836-1.638 0-2.61 1.44-2.61 3.366 0 1.764.864 3.222 2.574 3.222 1.062 0 2.034-.702 2.322-1.89.054-.216.072-.432.072-.684Zm10.904-.414h-6.12c.036 2.142 1.404 3.024 2.988 3.024 1.134 0 1.818-.198 2.412-.45l.27 1.134c-.558.252-1.512.54-2.898.54-2.682 0-4.284-1.764-4.284-4.392s1.548-4.698 4.086-4.698c2.844 0 3.6 2.502 3.6 4.104 0 .324-.036.576-.054.738Zm-6.102-1.134h4.626c.018-1.008-.414-2.574-2.196-2.574-1.602 0-2.304 1.476-2.43 2.574Z" fill="#555"/><path d="M480.942 79.198c-.63 0-1.062-.486-1.062-1.134 0-.666.45-1.134 1.08-1.134.63 0 1.062.468 1.062 1.134 0 .648-.414 1.134-1.08 1.134Z" fill="#888"/></g></g></svg>