<?xml version="1.0" encoding="UTF-8"?>
<svg width="300px" height="180px" viewBox="0 0 300 180" version="1.1" xmlns="http://www.w3.org/2000/svg" xmlns:xlink="http://www.w3.org/1999/xlink">
    <!-- Generator: Sketch 55.2 (78181) - https://sketchapp.com -->
    <title>dbs_logo_title_white</title>
    <desc>Created with Sketch.</desc>
    <g id="DBS_Main" stroke="none" stroke-width="1" fill="none" fill-rule="evenodd">
        <g transform="translate(-351.000000, -55.000000)" id="dbs_logo_title_white">
            <g transform="translate(351.000000, 55.000000)">
                <g id="Title" transform="translate(29.948369, 160.019984)" fill="#FFFFFF">
                    <path d="M0.0959052292,18.5006493 L0.0959052292,0.903767353 L3.6532047,0.903767353 C6.23095794,0.903767353 8.0353852,1.06325571 9.22115169,1.54172078 C10.8709138,2.1796742 12.2113455,3.18976713 13.0877816,4.67832512 C14.0157727,6.16688311 14.5313234,7.92125503 14.5313234,9.94144088 C14.5313234,11.6958128 14.1704379,13.2375336 13.3971119,14.619766 C12.675341,15.9488356 11.6957948,16.9589286 10.5615834,17.5437192 C9.37581689,18.1816726 7.72605482,18.5006493 5.61229716,18.5006493 L0.0959052292,18.5006493 L0.0959052292,18.5006493 L0.0959052292,18.5006493 Z M1.7456673,16.852603 L3.70475976,16.852603 C6.07629274,16.852603 7.67449975,16.7462774 8.65404598,16.4273007 C9.9429226,16.0019984 10.9740239,15.2045566 11.6957948,14.0881381 C12.4175657,12.9717197 12.8300062,11.5894872 12.8300062,9.99460367 C12.8300062,8.29339453 12.4175657,6.85799933 11.6442397,5.63525526 C10.8709138,4.41251119 9.73670234,3.61506941 8.29316053,3.18976713 C7.21050417,2.87079042 5.45763197,2.71130206 2.98298886,2.71130206 L1.79722237,2.71130206 L1.7456673,16.852603 L1.7456673,16.852603 L1.7456673,16.852603 Z" id="Shape"></path>
                    <polygon id="Shape" points="17.5215171 0.956930138 19.2228343 0.956930138 19.2228343 18.5538121 17.5215171 18.5538121"></polygon>
                    <path d="M39.6386399,3.88088334 L38.3497633,5.15679019 C37.4217721,4.19986005 36.3391158,3.45558106 35.2049043,2.97711599 C34.0706929,2.49865092 32.9364815,2.23283699 31.8538251,2.23283699 C30.4618384,2.23283699 29.2245168,2.60497649 28.0387503,3.2960927 C26.8529838,3.98720891 25.9249927,4.89097626 25.2547768,6.06055754 C24.584561,7.23013882 24.2236755,8.45288289 24.2236755,9.72878974 C24.2236755,11.0578594 24.584561,12.2806034 25.2547768,13.5033475 C25.9765477,14.6729288 26.9045389,15.6298589 28.0903054,16.3209751 C29.2760719,17.0120914 30.6680586,17.3842308 32.0600454,17.3842308 C33.8644727,17.3842308 35.3080145,16.9057658 36.493781,15.8425101 C37.6795474,14.7792544 38.4528734,13.5033475 38.6075386,11.8553012 L33.1427017,11.8553012 L33.1427017,10.154092 L40.515076,10.154092 C40.515076,12.8653941 39.74175,15.0450683 38.143543,16.6399519 C36.5968911,18.2348354 34.5346885,19.0322772 31.9053802,19.0322772 C28.7605212,19.0322772 26.2858781,17.9158587 24.4298958,15.7361845 C22.986354,14.0349754 22.3161381,12.0679523 22.3161381,9.78195253 C22.3161381,8.13390618 22.7285787,6.53902261 23.5534597,5.10362741 C24.3783407,3.6682322 25.4609971,2.5518137 26.9045389,1.75437192 C28.3480807,0.956930138 29.9462877,0.531627855 31.6991599,0.531627855 C33.1427017,0.531627855 34.4831334,0.797441782 35.8235651,1.32906964 C37.1639968,1.86069749 38.4013184,2.71130206 39.6386399,3.88088334 L39.6386399,3.88088334 Z" id="Shape"></path>
                    <polygon id="Shape" points="43.5568248 0.956930138 45.258142 0.956930138 45.258142 18.5538121 43.5568248 18.5538121"></polygon>
                    <polygon id="Shape" points="47.5265648 2.65813927 47.5265648 0.956930138 56.8580315 0.956930138 56.8580315 2.65813927 53.0429568 2.65813927 53.0429568 18.5006493 51.3416396 18.5006493 51.3416396 2.65813927"></polygon>
                    <path d="M64.3335159,0.956930138 L72.2729959,18.5538121 L70.4170136,18.5538121 L67.7361502,12.7590685 L60.3637759,12.7590685 L57.6829126,18.5538121 L55.8269302,18.5538121 L63.9210754,0.956930138 L64.3335159,0.956930138 L64.3335159,0.956930138 L64.3335159,0.956930138 Z M64.1788507,4.67832512 L61.2917671,11.0578594 L67.1174894,11.0578594 L64.1788507,4.67832512 L64.1788507,4.67832512 Z" id="Shape"></path>
                    <polygon id="Shape" points="75.0569694 0.956930138 76.7582865 0.956930138 76.7582865 16.9057658 83.3573348 16.9057658 83.3573348 18.6069749 75.1085245 18.6069749 75.1085245 0.956930138"></polygon>
                    <path d="M96.0398808,0.956930138 C97.4318675,0.956930138 98.4114137,1.11641849 99.1847397,1.43539521 C99.9580657,1.75437192 100.473616,2.28599978 100.886057,2.97711599 C101.298497,3.6682322 101.556273,4.46567398 101.556273,5.26311576 C101.556273,6.06055754 101.401608,6.75167375 101.040722,7.38962718 C100.679837,8.08074339 100.164286,8.55920846 99.442515,8.93134796 C100.318951,9.25032467 100.989167,9.62246417 101.453163,10.0477665 C101.917158,10.4730687 102.278044,10.9515338 102.587374,11.5894872 C102.896704,12.2274407 102.999815,12.8122313 102.999815,13.5565103 C102.999815,14.9919055 102.535819,16.2146496 101.504718,17.1184169 C100.473616,18.0221843 99.1847397,18.6069749 97.4834226,18.6069749 L92.7919117,18.6069749 L92.6372465,1.4353952 L92.6372465,0.956930138 L96.0398808,0.956930138 Z M94.2870086,2.65813927 L94.2870086,8.29339453 L95.2149997,8.29339453 C96.4007662,8.29339453 97.2772023,8.18706896 97.844308,7.92125503 C98.4114137,7.65544111 98.8754093,7.28330161 99.1331847,6.80483654 C99.442515,6.32637147 99.5971802,5.74158083 99.5971802,5.15679019 C99.5971802,4.35934841 99.2878499,3.72139498 98.7722992,3.24292991 C98.2567486,2.76446484 97.3287574,2.5518137 96.1429909,2.5518137 L94.2354535,2.5518137 L94.2354535,2.65813927 L94.2870086,2.65813927 L94.2870086,2.65813927 L94.2870086,2.65813927 Z M94.2870086,16.7994402 L96.4007662,16.7994402 C97.6380878,16.7994402 98.5145239,16.6931146 99.1331847,16.4273007 C99.7518454,16.1614868 100.215841,15.7361845 100.576726,15.2577194 C100.937612,14.7260916 101.092277,14.1413009 101.092277,13.5565103 C101.092277,12.7590685 100.834502,12.0679523 100.318951,11.5363244 C99.8549556,10.898371 99.1331847,10.5793943 98.3083036,10.3135804 C97.6896428,10.2072548 96.7100966,10.0477665 95.2665548,10.0477665 L94.2870086,10.0477665 L94.2870086,16.7994402 Z" id="Shape"></path>
                    <polygon id="Shape" points="105.422903 0.956930138 107.12422 0.956930138 107.12422 18.5538121 105.422903 18.5538121"></polygon>
                    <path d="M114.032598,0.956930138 C115.424585,0.956930138 116.404131,1.11641849 117.177457,1.43539521 C117.950783,1.75437192 118.466334,2.28599978 118.878774,2.97711599 C119.291215,3.6682322 119.54899,4.46567398 119.54899,5.26311576 C119.54899,6.06055754 119.394325,6.75167375 119.03344,7.38962718 C118.672554,8.08074339 118.157004,8.55920846 117.435233,8.93134796 C118.311669,9.25032467 118.981885,9.62246417 119.44588,10.0477665 C119.909876,10.4730687 120.270761,10.9515338 120.580092,11.5894872 C120.889422,12.2274407 120.992532,12.8122313 120.992532,13.5565103 C120.992532,14.9919055 120.528537,16.2146496 119.497435,17.1184169 C118.466334,18.0221843 117.177457,18.6069749 115.47614,18.6069749 L110.784629,18.6069749 L110.629964,0.956930138 L114.032598,0.956930138 Z M112.279726,2.65813927 L112.279726,8.29339453 L113.207717,8.29339453 C114.393484,8.29339453 115.26992,8.18706896 115.837026,7.92125503 C116.404131,7.65544111 116.868127,7.28330161 117.125902,6.80483654 C117.435233,6.32637147 117.589898,5.74158083 117.589898,5.15679019 C117.589898,4.35934841 117.280567,3.72139498 116.765017,3.24292991 C116.249466,2.76446484 115.321475,2.5518137 114.135709,2.5518137 L112.228171,2.5518137 L112.279726,2.65813927 L112.279726,2.65813927 L112.279726,2.65813927 Z M112.279726,10.0477665 L112.279726,16.7994402 L114.393484,16.7994402 C115.630805,16.7994402 116.507241,16.6931146 117.125902,16.4273007 C117.744563,16.1614868 118.208559,15.7361845 118.569444,15.2577194 C118.93033,14.7260916 119.084995,14.1413009 119.084995,13.5565103 C119.084995,12.7590685 118.827219,12.0679523 118.311669,11.5363244 C117.847673,10.898371 117.125902,10.5793943 116.301021,10.3135804 C115.68236,10.2072548 114.702814,10.0477665 113.259272,10.0477665 L112.279726,10.0477665 L112.279726,10.0477665 Z" id="Shape" stroke="#2852AA" stroke-width="0.5"></path>
                    <polygon id="Shape" points="123.724951 0.956930138 125.426268 0.956930138 125.426268 16.9057658 131.973761 16.9057658 131.973761 18.6069749 123.724951 18.6069749"></polygon>
                    <path d="M134.190629,0.956930138 L143.934536,0.956930138 L143.934536,2.65813927 L135.840391,2.65813927 L135.840391,8.18706896 L143.882981,8.18706896 L143.882981,9.8882781 L135.840391,9.8882781 L135.840391,16.7994402 L143.882981,16.7994402 L143.882981,18.5006493 L134.190629,18.5006493 L134.190629,0.956930138 L134.190629,0.956930138 Z" id="Shape"></path>
                    <path d="M153.266003,15.2577194 L154.859134,14.3539521 C155.997085,16.3209751 157.305729,17.2247425 158.785066,17.2247425 C159.467836,17.2247425 160.036812,17.1184169 160.54889,16.7994402 C161.060968,16.4804635 161.516148,16.108324 161.800636,15.6830217 C162.085124,15.2577194 162.255817,14.7260916 162.255817,14.1944637 C162.255817,13.5565103 162.085124,13.0248824 161.573046,12.4932546 C161.00407,11.6958128 159.923017,10.7920455 158.386783,9.67562696 C156.793651,8.55920846 155.826393,7.76176668 155.42811,7.28330161 C154.745339,6.43269704 154.460851,5.58209247 154.460851,4.57199955 C154.460851,3.82772055 154.631544,3.08344156 155.029827,2.49865092 C155.42811,1.86069749 155.940188,1.38223242 156.679856,1.01009292 C157.419524,0.637953426 158.21609,0.478465069 158.955758,0.478465069 C159.866119,0.478465069 160.662685,0.637953426 161.459251,1.11641849 C162.255817,1.54172078 163.052382,2.28599978 163.905846,3.40241827 L162.369612,4.51883676 C161.629943,3.6682322 161.060968,3.03027877 160.54889,2.81762763 C160.036812,2.5518137 159.524734,2.39232535 158.898861,2.39232535 C158.102295,2.39232535 157.533319,2.65813927 157.078139,3.08344156 C156.622959,3.50874384 156.338471,4.0403717 156.338471,4.67832512 C156.338471,5.05046462 156.395368,5.42260412 156.622959,5.79474362 C156.793651,6.16688311 157.078139,6.53902261 157.533319,6.9643249 C157.817807,7.23013882 158.557475,7.76176668 159.979914,8.71869682 C161.629943,9.83511531 162.710997,10.8452082 163.33687,11.6958128 C163.905846,12.5464174 164.247231,13.4501847 164.247231,14.3539521 C164.247231,15.6298589 163.735153,16.7462774 162.654099,17.6500448 C161.629943,18.5538121 160.378197,19.08544 158.841963,19.08544 C157.704012,19.08544 156.679856,18.7664633 155.769495,18.2348354 C154.802237,17.596882 154.062568,16.6399519 153.266003,15.2577194 L153.266003,15.2577194 Z" id="Shape"></path>
                    <path d="M173.38725,0.531627855 C175.715205,0.531627855 177.586698,1.43539521 179.138668,3.24292991 C180.690638,5.05046462 181.466623,7.17697604 181.466623,9.78195253 C181.466623,12.3337662 180.690638,14.5666032 179.138668,16.3209751 C177.586698,18.0753471 175.715205,19.0322772 173.524189,19.0322772 C171.24188,19.0322772 169.370387,18.1285098 167.864063,16.3209751 C166.357739,14.5134404 165.536108,12.386929 165.536108,9.83511531 C165.536108,8.13390618 165.901277,6.5921854 166.58597,5.10362741 C167.270663,3.61506941 168.274879,2.5518137 169.461679,1.75437192 C170.739772,0.956930138 172.017865,0.531627855 173.38725,0.531627855 L173.38725,0.531627855 Z M173.524189,2.23283699 C172.42868,2.23283699 171.378818,2.60497649 170.374603,3.2960927 C169.370387,3.98720891 168.594402,4.89097626 168.001001,6.06055754 C167.407601,7.23013882 167.17937,8.50604568 167.17937,9.94144088 C167.17937,12.0147895 167.818417,13.8223242 169.050864,15.2045566 C170.328956,16.6931146 171.789634,17.3310681 173.569835,17.3310681 C174.710989,17.3310681 175.852143,17.0120914 176.810713,16.3741379 C177.814929,15.6830217 178.590914,14.7792544 179.138668,13.6628359 C179.732068,12.4932546 179.960299,11.2173477 179.960299,9.78195253 C179.960299,8.34655732 179.686422,7.12381325 179.138668,6.00739476 C178.545268,4.89097626 177.769283,3.98720891 176.765067,3.2960927 C175.715205,2.5518137 174.665343,2.23283699 173.524189,2.23283699 L173.524189,2.23283699 Z" id="Shape"></path>
                    <path d="M199.768671,4.19986005 L198.462082,5.26311576 C197.784592,4.30618562 196.913533,3.50874384 195.945689,2.97711599 C194.977846,2.49865092 193.864826,2.1796742 192.703413,2.1796742 C191.396824,2.1796742 190.235412,2.49865092 189.122392,3.24292991 C188.009372,3.98720891 187.186705,4.83781348 186.605999,5.95423197 C186.025293,7.07065047 185.73494,8.34655732 185.73494,9.83511531 C185.73494,11.9616267 186.41243,13.7691614 187.719019,15.2045566 C189.074,16.6931146 190.719334,17.3310681 192.800198,17.3310681 C195.026238,17.3310681 196.913533,16.3741379 198.41369,14.4602776 L199.720279,15.5235334 C198.946004,16.6399519 197.929769,17.4905564 196.719964,18.0753471 C195.51016,18.6601377 194.203571,18.9791144 192.703413,18.9791144 C189.896667,18.9791144 187.670627,17.9158587 186.073685,15.8956729 C184.718704,14.1944637 183.992821,12.1211151 183.992821,9.62246417 C183.992821,7.07065047 184.815488,4.89097626 186.460822,3.13660434 C188.057764,1.38223242 190.235412,0.478465069 192.751805,0.478465069 C194.251963,0.478465069 195.606944,0.797441782 196.816748,1.43539521 C198.026553,2.07334863 198.994396,3.03027877 199.768671,4.19986005 L199.768671,4.19986005 Z" id="Shape"></path>
                    <polygon id="Shape" points="203.532191 0.956930138 205.233508 0.956930138 205.233508 18.5538121 203.532191 18.5538121"></polygon>
                    <polygon id="Shape" points="208.636142 0.956930138 218.431605 0.956930138 218.431605 2.65813927 210.285904 2.65813927 210.285904 8.18706896 218.328494 8.18706896 218.328494 9.8882781 210.285904 9.8882781 210.285904 16.7994402 218.328494 16.7994402 218.328494 18.5006493 208.636142 18.5006493 208.636142 0.956930138"></polygon>
                    <polygon id="Shape" points="220.132922 2.65813927 220.132922 0.956930138 229.464388 0.956930138 229.464388 2.65813927 225.649314 2.65813927 225.649314 18.5006493 223.947996 18.5006493 223.947996 2.65813927"></polygon>
                    <polygon id="Shape" points="230.5986 0.956930138 232.557692 0.956930138 236.939873 8.18706896 241.218943 0.956930138 243.178036 0.956930138 237.764754 10.154092 237.764754 18.5538121 236.114992 18.5538121 236.114992 10.154092"></polygon>
                </g>
                <g id="Logo">
                    <polygon id="Rectangle-path" fill="#6C6C6C" points="0 134.714498 137.865768 134.714498 137.865768 141.413009 0 141.413009"></polygon>
                    <polygon id="Rectangle-path" fill="#6C6C6C" points="161.721193 134.714498 299.586962 134.714498 299.586962 141.413009 161.721193 141.413009"></polygon>
                    <polygon id="Rectangle-path" fill="#6C6C6C" points="25.9208298 139.871289 275.679902 139.871289 275.679902 149.600078 25.9208298 149.600078"></polygon>
                    <ellipse id="Oval" fill="#6C6C6C" cx="280.688508" cy="140.881381" rx="19.0017239" ry="6.16688311"></ellipse>
                    <ellipse id="Oval" fill="#6C6C6C" cx="19.0017239" cy="140.881381" rx="19.0017239" ry="6.16688311"></ellipse>
                    <path d="M137.814133,134.714498 L137.814133,134.714498 C144.423428,134.714498 149.793481,137.957428 149.793481,141.944637 L149.793481,141.944637 C149.793481,145.931846 144.423428,149.174776 137.814133,149.174776 L137.814133,149.174776 C131.204838,149.174776 125.834786,145.931846 125.834786,141.944637 L125.834786,141.944637 C125.834786,137.957428 131.204838,134.714498 137.814133,134.714498 L137.814133,134.714498 Z" id="Shape" fill="#6C6C6C"></path>
                    <path d="M161.721193,134.714498 L161.721193,134.714498 C168.330489,134.714498 173.700541,137.957428 173.700541,141.944637 L173.700541,141.944637 C173.700541,145.931846 168.330489,149.174776 161.721193,149.174776 L161.721193,149.174776 C155.111898,149.174776 149.741846,145.931846 149.741846,141.944637 L149.741846,141.944637 C149.845116,137.957428 155.163533,134.714498 161.721193,134.714498 L161.721193,134.714498 Z" id="Shape" fill="#6C6C6C"></path>
                    <ellipse id="Oval" fill="#A1A1A1" cx="269.173876" cy="141.944637" rx="2.99483691" ry="3.08344156"></ellipse>
                    <polygon id="Rectangle-path" fill="#A1A1A1" points="221.256486 140.349754 260.241001 140.349754 260.241001 144.443288 221.256486 144.443288"></polygon>
                    <path d="M274.182483,148.058358 L284.199696,137.744777" id="lineAB" stroke="#6C6C6C" stroke-width="2" fill="#000000"></path>
                    <path d="M17.5043054,137.744777 L27.5215185,148.058358" id="lineBC" stroke="#6C6C6C" stroke-width="2" fill="#000000"></path>
                    <path d="M242.633425,48.324972 C228.640308,27.750974 205.301234,11.64265 172.719474,0 C203.339099,46.6237629 197.814142,90.8552004 156.247871,132.694313 C196.265088,118.978314 225.02585,90.8552004 242.633425,48.324972" id="Shape" fill="#D1EAF1"></path>
                    <path d="M276.712604,70.9191558 C263.339108,43.5403213 245.060276,22.2752071 221.772837,7.23013882 C221.772837,67.5699003 199.931182,109.409012 156.299506,132.694313 C208.244436,129.238731 248.364923,108.664733 276.712604,70.9191558" id="Shape" fill="#A5CBE2" opacity="0.75"></path>
                    <path d="M293.648923,83.3060848 C288.278871,64.1143193 278.364928,44.2314375 263.648919,23.6574395 C252.340828,88.0907355 216.609325,124.400918 156.299506,132.694313 C225.593836,129.929848 271.342552,113.449384 293.648923,83.3060848" id="Shape" fill="#3F87C1" opacity="0.85"></path>
                    <path d="M299.638597,122.380732 C299.638597,114.459477 298.605894,107.335664 296.64376,100.743478 C267.418282,121.370639 220.585229,131.950034 156.299506,132.64115 C196.265088,133.332266 244.027573,129.929848 299.638597,122.380732" id="Shape" fill="#2468B9"></path>
                    <path d="M0,124.400918 C0,117.542919 1.03270238,109.35585 2.99483691,99.7333855 C28.2960453,120.9985 71.2048294,131.950034 131.876094,132.64115 C98.5198075,134.023382 54.6299561,131.258917 0,124.400918" id="Shape" fill="#7AA4D6"></path>
                    <path d="M5.98967383,83.3060848 C5.98967383,80.54162 8.67470003,70.2812024 13.9414822,52.4185065 C36.6609346,100.424502 75.9036253,127.165383 131.876094,132.64115 C71.876086,131.258917 29.9483691,114.831617 5.98967383,83.3060848" id="Shape" fill="#9BC0DD"></path>
                </g>
            </g>
        </g>
    </g>
</svg>