<svg width="332" height="37" xmlns="http://www.w3.org/2000/svg"><g fill="none" fill-rule="evenodd"><path d="M93.233 30.962V14.33h3.453c2.462 0 4.225.184 5.4.589 1.617.589 2.866 1.582 3.711 2.944.918 1.398 1.36 3.09 1.36 5.004 0 1.693-.331 3.128-1.103 4.415-.698 1.288-1.653 2.208-2.755 2.797-1.139.589-2.755.92-4.776.92h-5.29v-.037Zm1.543-1.582h1.873c2.278 0 3.858-.11 4.776-.405a5.574 5.574 0 0 0 2.94-2.208c.697-1.03 1.101-2.391 1.101-3.9 0-1.62-.404-2.944-1.138-4.121-.735-1.178-1.837-1.914-3.197-2.318-1.028-.295-2.755-.479-5.106-.479h-1.139l-.11 13.43ZM110.096 14.33h1.653v16.632h-1.653zM131.403 17.09l-1.25 1.214a9.841 9.841 0 0 0-3.048-2.097c-1.103-.478-2.168-.7-3.197-.7a7.153 7.153 0 0 0-3.673.994c-1.14.626-2.058 1.509-2.682 2.613-.625 1.104-.992 2.244-.992 3.495 0 1.288.33 2.429.992 3.606.698 1.104 1.616 2.024 2.755 2.686a8.018 8.018 0 0 0 3.858.994c1.726 0 3.159-.478 4.298-1.435 1.139-.994 1.873-2.208 2.057-3.753h-5.29v-1.62h7.09c0 2.54-.735 4.637-2.278 6.146-1.506 1.508-3.49 2.244-6.024 2.244-3.05 0-5.437-1.03-7.238-3.127-1.359-1.62-2.057-3.496-2.057-5.63 0-1.582.404-3.091 1.212-4.416.809-1.324 1.837-2.428 3.197-3.201a9.713 9.713 0 0 1 4.628-1.177c1.36 0 2.682.22 3.968.735 1.212.516 2.461 1.325 3.674 2.429ZM135.187 14.33h1.653v16.632h-1.653zM139.045 15.95v-1.62h9v1.62h-3.674v15.012h-1.653V15.95zM155.245 14.33l7.678 16.632h-1.763l-2.572-5.52h-7.09l-2.572 5.52h-1.8l7.788-16.632h.331Zm-.147 3.533-2.829 6.034h5.621l-2.792-6.034ZM165.569 14.33h1.653v15.086h6.392v1.62h-7.972V14.33z" fill="#595959"/><path d="M182.467 14.33h3.27c1.322 0 2.278.184 3.05.479.734.294 1.248.81 1.652 1.435.404.625.625 1.398.625 2.134s-.184 1.398-.515 2.024c-.33.625-.845 1.103-1.543 1.435.845.294 1.507.625 1.948 1.03.44.405.808.883 1.102 1.435.294.589.404 1.177.404 1.84 0 1.324-.441 2.502-1.433 3.348-.992.846-2.24 1.398-3.894 1.398h-4.519V14.33h-.147Zm1.69 1.62v5.335h.919c1.138 0 2.02-.11 2.534-.331.515-.221.992-.59 1.25-1.03.293-.48.44-.994.44-1.583 0-.736-.294-1.325-.808-1.803s-1.36-.625-2.535-.625h-1.837l.037.036Zm0 7.027v6.366h2.057c1.213 0 2.058-.11 2.646-.331.587-.22 1.028-.626 1.359-1.104.33-.515.514-1.03.514-1.62 0-.735-.22-1.397-.735-1.912-.44-.59-1.138-.92-1.947-1.178-.587-.11-1.543-.22-2.939-.22h-.955ZM195.363 14.33h1.653v16.632h-1.653zM200.836 14.33h3.27c1.322 0 2.277.184 3.049.479.734.294 1.249.81 1.653 1.435.404.625.624 1.398.624 2.134s-.183 1.398-.514 2.024c-.33.625-.845 1.103-1.543 1.435.845.294 1.506.625 1.947 1.03.44.405.808.883 1.102 1.435.294.589.404 1.177.404 1.84 0 1.324-.44 2.502-1.432 3.348-.992.883-2.241 1.398-3.895 1.398h-4.555V14.33h-.11Zm1.653 1.62v5.335h.918c1.14 0 2.021-.11 2.535-.331.515-.221.992-.59 1.25-1.03.293-.48.44-.994.44-1.583 0-.736-.294-1.325-.808-1.803s-1.36-.625-2.535-.625l-1.8.036Zm0 7.027v6.366h2.057c1.213 0 2.058-.11 2.645-.331.588-.22 1.029-.626 1.36-1.104.33-.515.514-1.03.514-1.62 0-.735-.22-1.397-.735-1.912-.44-.59-1.139-.92-1.947-1.178-.588-.11-1.543-.22-2.939-.22h-.955ZM214.025 14.33h1.653v15.086h6.319v1.62h-7.972V14.33zM224.605 14.33h9.404v1.62h-7.788v5.224h7.752v1.62h-7.752v6.549h7.752v1.619h-9.332c-.036 0-.036-16.632-.036-16.632Z" fill="#2852AA"/><path d="m241.54 27.871 1.36-.883c.992 1.84 2.13 2.723 3.453 2.723.588 0 1.102-.11 1.543-.405.44-.294.845-.625 1.102-1.03.22-.405.404-.92.404-1.398 0-.59-.183-1.104-.588-1.62-.514-.735-1.432-1.618-2.792-2.685-1.359-1.03-2.24-1.803-2.571-2.245-.588-.81-.845-1.619-.845-2.539 0-.699.184-1.398.514-1.987.33-.589.808-1.03 1.433-1.398a4.338 4.338 0 0 1 2.02-.515c.809 0 1.507.184 2.168.588.661.405 1.36 1.104 2.13 2.135l-1.322 1.03c-.624-.81-1.139-1.398-1.616-1.62-.441-.22-.919-.404-1.433-.404-.698 0-1.212.22-1.616.626-.405.404-.625.92-.625 1.508 0 .331.074.7.22 1.03.184.332.405.7.809 1.104.22.221.918.736 2.13 1.693 1.433 1.03 2.425 2.024 2.94 2.833.514.81.808 1.693.808 2.502 0 1.215-.441 2.245-1.36 3.128-.918.883-2.02 1.325-3.306 1.325-.992 0-1.874-.295-2.682-.81-.918-.478-1.616-1.398-2.277-2.686ZM262.444 13.926c2.535 0 4.592.883 6.245 2.538 1.653 1.656 2.535 3.717 2.535 6.219 0 2.428-.845 4.526-2.535 6.218-1.653 1.693-3.71 2.54-6.135 2.54-2.461 0-4.519-.884-6.208-2.54-1.654-1.692-2.535-3.716-2.535-6.144a9.22 9.22 0 0 1 1.139-4.453c.734-1.398 1.836-2.428 3.159-3.201 1.36-.773 2.792-1.177 4.335-1.177Zm.11 1.619c-1.212 0-2.351.33-3.453.993-1.102.626-1.947 1.509-2.572 2.613-.624 1.103-.918 2.318-.918 3.642 0 1.987.698 3.643 2.057 5.005 1.36 1.398 2.976 2.023 4.923 2.023 1.249 0 2.461-.294 3.563-.92a6.722 6.722 0 0 0 2.535-2.538c.625-1.104.919-2.319.919-3.643 0-1.325-.294-2.502-.919-3.606a7.394 7.394 0 0 0-2.571-2.54c-1.213-.735-2.352-1.03-3.564-1.03ZM289.85 17.384l-1.323.994c-.698-.92-1.616-1.693-2.571-2.134a7.639 7.639 0 0 0-3.307-.736c-1.322 0-2.535.294-3.673.993-1.14.7-2.02 1.509-2.572 2.54-.588 1.03-.918 2.244-.918 3.642 0 2.024.698 3.716 2.057 5.115 1.36 1.398 3.086 2.023 5.217 2.023 2.277 0 4.224-.92 5.804-2.723l1.323.994c-.809 1.03-1.837 1.84-3.086 2.428-1.25.59-2.572.884-4.115.884-2.865 0-5.143-.994-6.833-2.907-1.36-1.62-2.13-3.606-2.13-5.924 0-2.429.844-4.453 2.534-6.145 1.69-1.693 3.894-2.502 6.466-2.502 1.543 0 2.939.294 4.188.92 1.249.625 2.204 1.434 2.939 2.538ZM293.01 14.33h1.653v16.632h-1.653zM298.447 14.33h9.44v1.62h-7.897v5.224h7.75v1.62h-7.75v6.55h7.75v1.618h-9.293zM309.064 15.95v-1.62h9v1.62h-3.673v15.012h-1.654V15.95zM319.093 14.33h1.874l4.224 6.844 4.152-6.844h1.873L326 23.014v7.948h-1.617v-7.948z" fill="#595959"/><g><path d="M60.072 11.735C56.624 6.751 50.864 2.825 42.811 0c7.563 11.304 6.191 22.038-4.075 32.184 9.894-3.316 16.987-10.146 21.336-20.449" fill="#D1EAF1"/><path d="M68.478 17.21C65.186 10.559 60.66 5.417 54.919 1.748c0 14.64-5.388 24.785-16.164 30.437 12.834-.824 22.728-5.809 29.723-14.973" fill="#A5CBE2" opacity=".75"/><path d="M72.67 20.213c-1.312-4.65-3.78-9.478-7.405-14.483-2.783 15.641-11.62 24.452-26.51 26.454 17.105-.667 28.41-4.65 33.916-11.97" fill="#3F87C1" opacity=".85"/><path d="M74.16 29.692c0-1.923-.255-3.65-.725-5.24-7.23 4.985-18.79 7.575-34.66 7.732 9.855.177 21.65-.667 35.385-2.492" fill="#2468B9"/><g><path d="M.176 30.182c0-1.668.255-3.65.725-5.985 6.25 5.161 16.83 7.81 31.82 7.987-8.23.334-19.065-.333-32.545-2.002" fill="#7AA4D6"/><path d="M1.665 20.213c0-.667.667-3.16 1.96-7.496C9.228 24.354 18.927 30.85 32.72 32.164c-14.792-.313-25.157-4.297-31.055-11.95" fill="#9BC0DD"/></g><g transform="translate(0 32.577)"><path fill="#6C6C6C" d="M.176.098h34.033v1.629H.176zM40.107.098H74.14v1.629H40.107z"/><path fill="#6C6C6C" d="M6.583 1.354h61.66v2.355H6.583z"/><ellipse fill="#6C6C6C" cx="69.458" cy="1.609" rx="4.683" ry="1.491"/><ellipse fill="#6C6C6C" cx="4.859" cy="1.609" rx="4.683" ry="1.491"/><path d="M34.19.098c1.626 0 2.959.785 2.959 1.747 0 .961-1.313 1.746-2.959 1.746-1.626 0-2.959-.785-2.959-1.746.02-.942 1.333-1.747 2.959-1.747ZM40.107.098c1.626 0 2.959.785 2.959 1.747 0 .961-1.313 1.746-2.959 1.746-1.626 0-2.958-.785-2.958-1.746.02-.942 1.332-1.747 2.958-1.747Z" fill="#6C6C6C"/><circle fill="#A1A1A1" cx="66.617" cy="1.864" r="1"/><path fill="#A1A1A1" d="M54.802 1.472h9.62v1.001h-9.62z"/><path d="M67.87 3.356 70.34.863M4.487.844l2.469 2.492" stroke="#6C6C6C" stroke-width="2" fill="#000"/></g></g></g></svg>