<svg width="354" height="41" xmlns="http://www.w3.org/2000/svg"><g fill="none" fill-rule="evenodd"><path d="M18.387 36.683h17.909c.478 0 .923.123 1.352.297.346.14.676.35.94.63.099.104.181.226.247.349.017.035.033.07.066.104.066.088.115.088.165-.017.132-.21.264-.402.445-.559.215-.21.462-.367.742-.472.28-.104.544-.21.841-.262.182-.035.347-.07.528-.07H77.62c.296 0 .28-.035.28.28v.89a.357.357 0 0 1-.115.28c-.33.332-.71.594-1.089.856-.38.262-.791.454-1.22.612a5.6 5.6 0 0 1-1.056.297 7.423 7.423 0 0 1-1.649.122c-.263 0-.527.017-.775 0-.181-.018-.313.052-.428.192-.1.122-.215.157-.363.157H7.338c-.148 0-.28-.035-.363-.174a.398.398 0 0 0-.395-.175c-.577.017-1.155 0-1.715 0-.71 0-1.418-.14-2.095-.367-.379-.122-.742-.314-1.088-.507-.478-.262-.89-.61-1.303-.96-.313-.28-.264-.175-.264-.647v-.698c0-.158 0-.158.165-.158h18.107Z" fill="#E8E9E9"/><path d="M41.622 36.002c-.297.018-.577.07-.874.053v-.053c.148-.21.346-.35.528-.506.033.052.066.017.099.017.263-.087.527-.227.791-.332.511-.21.973-.472 1.451-.751.66-.402 1.287-.838 1.897-1.328.544-.436 1.055-.89 1.55-1.38.429-.436.857-.873 1.253-1.345.363-.419.71-.856 1.055-1.292.413-.524.792-1.083 1.171-1.66a29.593 29.593 0 0 0 1.946-3.389c.429-.856.858-1.712 1.27-2.567.363-.734.693-1.503.99-2.271a45.15 45.15 0 0 0 .857-2.359c.132-.436.28-.873.396-1.31a59.02 59.02 0 0 0 .428-1.624c.165-.63.297-1.258.43-1.904.082-.402.148-.821.213-1.223.066-.384.132-.786.198-1.188.033-.227.066-.454.083-.681.016-.297.066-.577.099-.874.016-.28.082-.576.066-.856.066-.104.066-.227.066-.349 0-.28.033-.541.05-.82.016-.385.016-.77.049-1.136.066-.856.016-1.712.033-2.568 0-.07-.017-.122-.033-.192-.017-.053-.033-.123.033-.158.05-.034.099 0 .132.035.098.088.23.14.346.227a43.255 43.255 0 0 1 2.671 1.992c.363.297.726.611 1.089.926.445.384.874.786 1.302 1.205.198.192.38.367.561.576.149.158.313.297.478.455.396.401.759.82 1.122 1.24.445.506.874 1.013 1.286 1.555.28.366.544.716.824 1.083a.3.3 0 0 0 .132.122v.087c-.016.07-.05.122-.066.192-.197.769-.428 1.52-.692 2.271-.346 1.066-.792 2.079-1.253 3.092-.165.35-.33.681-.512 1.03a.136.136 0 0 0-.033.07c-.23.42-.478.84-.709 1.276a20.21 20.21 0 0 1-1.204 1.904c-.362.524-.742 1.03-1.12 1.537-.265.367-.529.751-.792 1.135-.446.63-.924 1.206-1.402 1.8-.363.454-.759.873-1.138 1.292-.198.21-.396.402-.61.612-.445.454-.89.89-1.352 1.31-.33.28-.627.576-.973.838a36.524 36.524 0 0 1-2.243 1.677c-.61.42-1.237.804-1.88 1.17a30.55 30.55 0 0 1-1.665.874 23.03 23.03 0 0 1-1.93.839c-.956.349-1.913.68-2.902.925a31.05 31.05 0 0 1-2.21.455c-.412.07-.808.122-1.22.157-.066.017-.116.017-.132.087Z" fill="#DADADA"/><path d="M57.519 7.162c0 .297-.05.576-.066.856-.017.297-.066.576-.1.873-.016.227-.049.455-.082.682-.066.401-.115.786-.198 1.187-.065.402-.148.821-.214 1.223a24.38 24.38 0 0 1-.429 1.904 59.02 59.02 0 0 1-.428 1.625l-.396 1.31a35.93 35.93 0 0 1-.858 2.358c-.313.769-.626 1.52-.99 2.271-.428.856-.84 1.712-1.269 2.568a35.475 35.475 0 0 1-1.946 3.389c-.379.559-.758 1.118-1.17 1.66-.347.436-.693.873-1.056 1.292-.396.472-.824.908-1.253 1.345-.495.49-1.006.943-1.55 1.38-.61.49-1.237.926-1.897 1.328-.461.279-.94.559-1.45.75-.265.105-.529.245-.792.333-.033.017-.083.035-.1-.018.05-.122.182-.157.264-.262.248-.262.495-.507.726-.786.38-.454.792-.89 1.154-1.38.43-.542.841-1.1 1.237-1.66.363-.524.693-1.065 1.023-1.607.263-.454.527-.89.775-1.362.313-.611.61-1.223.89-1.852.231-.524.462-1.065.66-1.607.346-.908.643-1.834.923-2.777.198-.647.396-1.293.528-1.94.132-.628.264-1.274.346-1.92.05-.368.1-.752.116-1.136.033-.385.05-.769.082-1.153.05-.56.05-1.1.017-1.642-.017-.367 0-.734-.066-1.1-.033-.175-.033-.367-.033-.542-.033-.42-.1-.839-.165-1.258a21.198 21.198 0 0 0-.446-2.27 22.69 22.69 0 0 0-.791-2.551c-.264-.681-.528-1.345-.858-2.009-.313-.664-.676-1.293-1.038-1.939a25.558 25.558 0 0 0-1.27-1.939c-.132-.175-.264-.35-.412-.524-.033-.035-.05-.087-.066-.14.115 0 .214.035.313.07.478.175.973.35 1.451.524a45.2 45.2 0 0 1 1.616.647c.56.244 1.105.489 1.633.768.461.227.94.472 1.401.716.594.332 1.188.664 1.765 1.031.445.262.874.541 1.286.838a43.383 43.383 0 0 1 2.523 1.87c.198.157.38.314.56.471.05.088.067.105.1.105Z" fill="#D2D3D3"/><path d="M67.66 11.46v-.088c.1-.245.132-.507.198-.769a23.45 23.45 0 0 0 .413-2.148c.049-.402.098-.786.164-1.188.05-.332.05-.664.132-1.013.231.28.43.559.627.82a32.89 32.89 0 0 1 1.237 1.765c.346.524.676 1.083 1.022 1.625.198.331.396.663.577.995.264.454.512.926.759 1.398.363.68.693 1.362 1.006 2.06.313.7.626 1.416.907 2.15.264.68.527 1.38.775 2.078.247.769.511 1.537.709 2.306.099.35.181.699.28 1.03.033.088.017.158-.016.263-.215.401-.495.768-.759 1.135-.478.681-1.039 1.258-1.616 1.834a13.26 13.26 0 0 1-1.27 1.118c-.478.385-.956.769-1.45 1.1-.561.385-1.139.752-1.716 1.101a39.19 39.19 0 0 1-2.21 1.206c-.577.297-1.17.559-1.747.82-.545.245-1.089.455-1.633.682-.165.07-.33.14-.511.192l-1.435.524c-.907.297-1.797.594-2.704.856-.528.14-1.056.297-1.583.437-.825.21-1.666.419-2.507.594-.676.14-1.352.297-2.028.401-.512.088-1.023.193-1.55.28-.413.07-.825.105-1.237.192-.347.07-.71.087-1.056.157-.132.018-.263.018-.379.088h-.033c-.016-.035-.05-.053-.082-.035-.149.052-.314.017-.479.07-.082.017-.18-.018-.247.052-.033.052-.082.035-.132.035h-.363c-.016-.035-.05-.035-.082-.035-.313-.035-.61.052-.924.052-.049 0-.065.035-.065.088h-.165c-.017-.035-.05-.035-.083-.035-.264-.035-.528.052-.808.052-.066 0-.099.053-.115.122h-.083c0-.122-.181-.07-.181-.192.099-.017.181-.035.28-.052.314-.052.627-.105.94-.175l.99-.21c.296-.07.593-.122.89-.192.33-.087.66-.157.99-.244.527-.14 1.038-.262 1.566-.42a29.32 29.32 0 0 0 1.748-.558l1.781-.63c.495-.174.99-.383 1.468-.593.313-.14.643-.28.956-.42.346-.14.693-.331 1.039-.488.462-.21.907-.455 1.352-.682.231-.122.478-.262.71-.384.395-.227.807-.472 1.203-.699.215-.122.429-.28.66-.402.379-.192.725-.454 1.072-.698.379-.262.742-.542 1.121-.804.099-.07.198-.157.297-.244.198-.158.412-.297.593-.455.347-.296.726-.576 1.056-.89.214-.21.462-.385.692-.577.347-.28.627-.611.94-.926.33-.314.644-.646.957-.978.429-.454.808-.978 1.27-1.397.428-.402.791-.891 1.17-1.363.116-.14.215-.297.33-.437.264-.332.528-.68.775-1.048.116-.174.1-.314.033-.489-.165-.384-.313-.751-.494-1.135-.215-.454-.43-.926-.677-1.38-.065-.14-.131-.297-.197-.437-.264-.472-.528-.926-.792-1.397-.148-.245-.28-.507-.429-.734-.23-.384-.478-.751-.709-1.118-.148-.227-.28-.454-.429-.681-.164-.245-.33-.472-.494-.7-.116-.104-.149-.139-.215-.139Z" fill="#E5E5E5"/><path d="M67.66 11.46c.066 0 .116.052.149.104.165.245.346.472.494.699.149.227.297.454.43.681.23.367.477.751.708 1.118.149.245.28.49.43.734.263.471.527.925.79 1.397.083.14.133.297.199.437.23.454.461.908.676 1.38.181.367.33.75.494 1.135.066.157.083.315-.033.49-.247.366-.494.716-.775 1.047-.115.14-.214.297-.33.437-.379.454-.742.943-1.17 1.363-.462.436-.825.943-1.27 1.397-.313.332-.627.664-.957.978-.313.315-.593.647-.94.926-.23.192-.461.367-.692.577-.33.314-.71.594-1.055.89-.198.158-.396.297-.594.455-.1.07-.198.174-.297.244-.38.262-.742.542-1.121.804-.347.244-.693.489-1.072.699-.231.122-.429.279-.66.401-.396.245-.808.472-1.204.699-.23.14-.461.262-.709.384-.445.227-.89.49-1.352.682-.346.157-.676.349-1.039.489-.33.14-.643.28-.956.419-.478.21-.973.42-1.468.594-.594.21-1.187.437-1.78.629-.578.21-1.172.367-1.749.559-.511.157-1.039.28-1.566.419-.33.087-.66.175-.99.245-.297.07-.594.122-.89.192l-.99.21c-.313.07-.626.104-.94.174-.099.017-.181.035-.28.052 0 .123.181.07.181.193-.313.034-.626.034-.94.087h-.033c-.362-.018-.709.017-1.072.052-.379.035-.775-.017-1.154.07-.165.035-.346 0-.511 0 .016-.07.066-.07.115-.087a14.57 14.57 0 0 0 1.22-.157c.743-.123 1.468-.28 2.21-.455.99-.244 1.946-.559 2.903-.925.66-.245 1.302-.524 1.93-.839a30.55 30.55 0 0 0 1.665-.873c.643-.367 1.27-.751 1.88-1.17.775-.525 1.517-1.101 2.242-1.678.33-.262.643-.559.973-.838.478-.42.924-.856 1.352-1.31.198-.21.413-.402.61-.612.38-.419.776-.856 1.138-1.292.479-.594.957-1.188 1.402-1.8.264-.384.528-.768.792-1.135.379-.507.758-1.013 1.121-1.537.429-.612.841-1.258 1.204-1.904.23-.42.478-.839.709-1.275a.136.136 0 0 0 .033-.07c.165-.35.346-.682.511-1.03a33.33 33.33 0 0 0 1.253-3.093c.248-.75.495-1.502.693-2.27.016-.07.05-.14.082-.193Z" fill="#E7E7E6"/><path d="m29.337 35.793-.792-.105-.71-.105-1.005-.157a19.664 19.664 0 0 1-1.072-.192c-.478-.088-.973-.175-1.451-.262-.71-.14-1.418-.297-2.127-.455a39.159 39.159 0 0 1-2.045-.524c-.94-.244-1.88-.541-2.804-.838-.676-.227-1.352-.454-2.028-.716a47.744 47.744 0 0 1-2.589-1.066 40.152 40.152 0 0 1-2.737-1.345c-.66-.367-1.32-.751-1.963-1.17a25.501 25.501 0 0 1-2.39-1.73c-.364-.297-.726-.629-1.073-.943-.445-.402-.84-.856-1.253-1.31-.28-.28-.511-.612-.758-.926-.347-.454-.66-.926-.94-1.432-.05-.088-.05-.14-.033-.227a64.25 64.25 0 0 1 .692-3.092c.182-.751.396-1.503.61-2.254.248-.873.528-1.73.792-2.585.016-.052.016-.105.066-.157.066.017.066.07.099.122.28.576.56 1.153.857 1.73.28.54.594 1.065.907 1.589a35.953 35.953 0 0 0 1.98 3.022c.296.402.61.804.923 1.188.412.524.84 1.03 1.286 1.537.528.611 1.105 1.188 1.649 1.782.396.402.808.803 1.22 1.17.775.699 1.567 1.38 2.375 2.009.973.751 1.979 1.45 3.001 2.114a42.183 42.183 0 0 0 3.315 1.904c.577.297 1.154.576 1.748.838.593.262 1.187.524 1.797.751.429.158.858.315 1.303.472.66.227 1.32.437 1.979.629.626.192 1.253.35 1.896.506.594.14 1.187.262 1.798.385.082.017.181.017.263.087-.033.052-.099.035-.148.052-.165.018-.313-.034-.478-.034-.363 0-.726-.07-1.089-.053h-.082c-.28-.052-.56-.035-.841-.07 0-.157-.083-.122-.148-.14Z" fill="#D9D9D8"/><path d="M29.501 35.88c.28.052.578.017.841.07h.083c.363-.035.725.052 1.088.052.165 0 .314.053.478.035.05 0 .116.018.149-.052.165-.018.313.07.478.052v.122c-.84-.07-1.682 0-2.523-.052-.511-.035-1.006 0-1.517-.035-.643-.035-1.286-.017-1.913-.052-.412-.035-.84 0-1.253-.035-.445-.053-.874 0-1.32-.053-.362-.035-.725 0-1.088-.035-.346-.035-.692 0-1.039-.052-.313-.035-.643 0-.956-.035-.313-.035-.627 0-.94-.052-.28-.035-.577 0-.858-.035-.346-.053-.709.017-1.055-.07h-.033c-.396.035-.792-.035-1.187-.053-.33-.017-.676.018-1.006-.07h-.033c-.346.018-.71-.034-1.056-.052-.428-.017-.857-.052-1.286-.087-.363-.018-.725-.053-1.088-.088a23.516 23.516 0 0 1-1.105-.087c-.33-.017-.66-.052-.99-.087-.379-.053-.758-.07-1.154-.105a95.873 95.873 0 0 1-.626-.052c-.347-.035-.693-.053-1.04-.105-.148-.035-.313-.035-.478-.053-.362-.035-.742-.087-1.104-.122-.28-.035-.561-.052-.858-.105l-.841-.105c-.247-.035-.478-.07-.726-.104-.313-.053-.643-.088-.956-.14-.313-.053-.643-.105-.956-.157-.413-.07-.841-.14-1.254-.227-.181-.035-.181-.053-.181-.245 0-.227-.017-.454 0-.681.05-.332.016-.664.066-.996.033-.21.016-.42.05-.629.032-.402.082-.786.115-1.188.033-.384.082-.768.132-1.153.05-.454.132-.908.214-1.362.017-.14.017-.28.083-.42.082 0 .115.053.164.088.495.367 1.006.716 1.518 1.048.362.227.709.437 1.071.646.495.28 1.006.56 1.518.821.676.332 1.352.647 2.044.944.627.28 1.254.524 1.897.768.544.21 1.072.402 1.616.594.462.157.94.315 1.402.454.494.158.989.297 1.484.455.395.122.791.227 1.187.332.643.174 1.27.331 1.913.471.808.192 1.6.384 2.407.542.71.14 1.419.297 2.128.401.363.053.709.14 1.072.193.412.07.808.122 1.22.174.313.053.643.105.956.157l.742.105c.297.035.61.088.907.123.28.035.561.052.858.104.198.035.396.018.594.07.148.035.296.035.428.035.198.018.413.035.61.07.231.018.479.035.71.035.082.087.131.07.197.07Z" fill="#DFDFDE"/><path d="M46.437 35.67h.165c.33.018.66-.07.99-.035a.122.122 0 0 0 .082-.035h.363c.05 0 .099 0 .132-.035.247.035.494-.052.742-.052.016 0 .05-.017.066-.035h.033c.33 0 .66-.052.99-.07.197-.017.395-.052.593-.052.297-.018.593-.07.89-.105.132-.017.28-.035.412-.035.396-.035.792-.105 1.188-.14.445-.052.89-.14 1.336-.192.33-.052.66-.087.989-.14.28-.035.544-.087.824-.14.38-.07.743-.14 1.122-.209l1.451-.262c.528-.105 1.072-.21 1.6-.332.445-.087.874-.192 1.319-.297.84-.21 1.698-.384 2.54-.629a94.623 94.623 0 0 0 2.094-.611 50.739 50.739 0 0 0 5.524-2.026c.445-.193.89-.402 1.336-.612a27.915 27.915 0 0 0 1.6-.82c.56-.315 1.104-.647 1.648-.996l.693-.472c.033-.018.05-.053.082-.053.05-.017.1 0 .116.07.05.315.115.63.165.926.066.384.115.769.181 1.136.033.297.066.594.115.873.033.21.017.42.066.629.033.14.033.297.033.437.017.227.033.454.066.663.05.402-.016.821.066 1.223.017.088-.016.105-.099.122-.197.035-.395.088-.61.123-.297.052-.593.105-.874.157-.313.052-.626.087-.94.14-.346.052-.676.122-1.022.157-.264.035-.528.087-.792.105a5.896 5.896 0 0 0-.775.105c-.165.034-.313.034-.478.052-.429.052-.874.087-1.303.14-.412.052-.824.087-1.22.14l-1.006.104-.66.053c-.247.017-.494.017-.725.07-.165.034-.346.034-.511.034a9.339 9.339 0 0 0-.726.07c-.264.035-.528 0-.791.07-.165.035-.347.035-.512.035l-.84.053c-.297.034-.594 0-.891.07h-.033c-.264-.018-.528.017-.792.034-.362.018-.742.018-1.104.088h-.033c-.363-.035-.726.017-1.089.052-.33.035-.66-.017-.99.07h-.032c-.445-.035-.874.035-1.32.052-.33.018-.66-.017-.989.07h-.066c-.478-.035-.94.035-1.418.053-.396.017-.792 0-1.187.052-.314.035-.643 0-.957.035-.396.052-.808 0-1.204.052-.395.053-.808 0-1.203.035-.446.053-.89 0-1.336.053-.363.035-.726.017-1.072.035-.643.017-1.27.07-1.913.035-.099-.035-.099-.053-.099-.088Z" fill="#E9E9E9"/><path d="M46.437 35.706v.145a3.88 3.88 0 0 1-1.006.058c0-.116.033-.203.116-.203.264 0 .527-.115.808-.086.033.029.05.029.082.086Z" fill="#E7E7E6"/><path d="M33.46 36.194h.411c-.066.367-.132.122-.197.122h-.215c.017-.06 0-.06 0-.122Z" fill="#E4E3E3"/><path d="M32.618 36.357v-.298c.098-.043.176.128.294.085v.213c-.098-.085-.196 0-.294 0Z" fill="#E0E0DF"/><path d="M32.865 36.395v-.306c.132.062.264.245.396.123v.183h-.396Z" fill="#E6E6E5"/><path d="M29.63 36.068c-.088 0-.205.061-.293-.122v-.122c.117 0 .264-.122.293.244Z" fill="#F3F3F2"/><path d="M40.956 36.002v.166c-.113.11-.227.22-.284.055-.057-.166.17-.166.284-.22Z" fill="#E5E5E5"/><path d="M47.674 35.658c-.017.072-.05.108-.083.072-.33-.072-.66.143-.989.071 0-.107.033-.178.066-.178.313.035.61-.143.923-.108.033.072.066.108.083.143Z" fill="#E7E7E6"/><path d="M48.96 35.516c-.016.04-.05.081-.066.081-.247-.04-.494.162-.742.122.066-.203.165-.081.248-.122.148-.122.313-.04.478-.162.016-.04.05 0 .082.08Z" fill="#DADAD9"/><path d="M99.362 33.483V14.558h3.893c2.808 0 4.846.227 6.113.682 1.821.643 3.244 1.758 4.27 3.345 1.025 1.587 1.538 3.478 1.538 5.674 0 1.895-.407 3.563-1.22 5.004-.812 1.441-1.867 2.505-3.164 3.191-1.298.686-3.117 1.03-5.457 1.03h-5.973Zm1.8-1.788h2.17c2.595 0 4.394-.163 5.398-.489 1.413-.463 2.523-1.297 3.331-2.502.809-1.205 1.213-2.679 1.213-4.42 0-1.827-.438-3.388-1.315-4.683-.876-1.295-2.097-2.183-3.663-2.663-1.174-.36-3.11-.54-5.807-.54h-1.327v15.297Zm16.512-17.137h1.876v18.925h-1.876V14.558Zm23.416 3.178-1.455 1.39c-1.046-1.039-2.193-1.826-3.44-2.362-1.246-.536-2.46-.804-3.643-.804-1.472 0-2.874.365-4.206 1.094-1.331.729-2.363 1.717-3.095 2.965-.731 1.248-1.097 2.567-1.097 3.957 0 1.423.378 2.776 1.136 4.059a8.098 8.098 0 0 0 3.14 3.023c1.335.733 2.799 1.1 4.39 1.1 1.931 0 3.565-.549 4.9-1.647 1.337-1.098 2.128-2.521 2.375-4.271h-5.986v-1.827h8.091c-.017 2.925-.878 5.247-2.584 6.967-1.706 1.72-3.988 2.58-6.847 2.58-3.472 0-6.22-1.193-8.245-3.577-1.557-1.836-2.336-3.959-2.336-6.369 0-1.792.447-3.46 1.34-5.005a9.566 9.566 0 0 1 3.676-3.621c1.557-.87 3.318-1.306 5.284-1.306 1.591 0 3.088.29 4.492.868 1.404.58 2.774 1.508 4.11 2.786Zm3.545-3.178h1.876v18.925h-1.876V14.558Zm3.442 1.84v-1.84h10.3v1.84h-4.186v17.085h-1.915V16.398h-4.199Zm17.673-1.84 8.756 18.925h-2.017l-2.948-6.227h-8.092l-2.935 6.227h-2.093l8.87-18.925h.46Zm-.23 4.014-3.228 6.857h6.42l-3.191-6.857Zm11.024-4.014h1.89v17.098h7.21v1.827h-9.1V14.558Zm17.619 0h3.701c1.49 0 2.634.178 3.433.534.8.356 1.432.903 1.896 1.64.463.738.695 1.557.695 2.458 0 .84-.204 1.606-.612 2.296-.409.69-1.009 1.25-1.8 1.679.979.335 1.732.727 2.26 1.177.527.45.937.995 1.23 1.634.294.64.441 1.332.441 2.078 0 1.518-.55 2.803-1.653 3.853-1.102 1.05-2.58 1.576-4.435 1.576h-5.156V14.558ZM196 16.41v6.06h1.072c1.302 0 2.259-.123 2.871-.367a3.1 3.1 0 0 0 1.455-1.158 3.062 3.062 0 0 0 .536-1.756c0-.867-.3-1.546-.9-2.04-.6-.493-1.554-.74-2.865-.74H196Zm0 7.963v7.257h2.323c1.37 0 2.374-.135 3.012-.406a3.428 3.428 0 0 0 1.538-1.267c.387-.575.58-1.196.58-1.865 0-.841-.272-1.574-.817-2.2-.544-.627-1.293-1.055-2.246-1.287-.638-.154-1.748-.232-3.33-.232H196Zm11.98-9.816h1.877v18.925h-1.876V14.558Zm5.358 0h3.7c1.49 0 2.634.178 3.434.534.8.356 1.432.903 1.895 1.64.464.738.696 1.557.696 2.458 0 .84-.204 1.606-.613 2.296-.408.69-1.008 1.25-1.8 1.679.98.335 1.732.727 2.26 1.177.527.45.938.995 1.231 1.634.294.64.44 1.332.44 2.078 0 1.518-.55 2.803-1.652 3.853-1.102 1.05-2.58 1.576-4.435 1.576h-5.156V14.558Zm1.837 1.853v6.06h1.073c1.301 0 2.259-.123 2.871-.367a3.1 3.1 0 0 0 1.455-1.158 3.062 3.062 0 0 0 .536-1.756c0-.867-.3-1.546-.9-2.04-.6-.493-1.555-.74-2.865-.74h-2.17Zm0 7.963v7.257h2.323c1.37 0 2.374-.135 3.012-.406a3.428 3.428 0 0 0 1.538-1.267c.387-.575.581-1.196.581-1.865 0-.841-.272-1.574-.817-2.2-.544-.627-1.293-1.055-2.246-1.287-.638-.154-1.749-.232-3.331-.232h-1.06Zm12.25-9.816h1.888v17.098h7.211v1.827h-9.1V14.558Zm11.215 0H249.4v1.865h-8.883v5.919h8.806v1.852h-8.806v7.424h8.806v1.865h-10.682V14.558Zm17.554 15.4 1.596-.965c1.123 2.084 2.42 3.127 3.892 3.127.63 0 1.221-.148 1.774-.444.553-.296.975-.693 1.264-1.19.29-.498.434-1.025.434-1.583 0-.635-.213-1.256-.638-1.865-.587-.841-1.66-1.853-3.217-3.037-1.565-1.192-2.54-2.054-2.922-2.586-.664-.892-.996-1.857-.996-2.894 0-.824.196-1.574.587-2.252a4.202 4.202 0 0 1 1.653-1.602 4.733 4.733 0 0 1 2.317-.585c.885 0 1.712.22 2.482.662.77.442 1.585 1.255 2.444 2.439l-1.531 1.17c-.707-.943-1.309-1.565-1.806-1.865-.498-.3-1.04-.45-1.628-.45-.757 0-1.376.231-1.857.694a2.283 2.283 0 0 0-.72 1.711c0 .412.084.81.254 1.197.17.386.481.806.932 1.26.247.24 1.055.871 2.425 1.892 1.625 1.21 2.74 2.286 3.344 3.23.604.943.906 1.89.906 2.843 0 1.372-.517 2.564-1.55 3.576-1.034 1.012-2.291 1.518-3.772 1.518a5.5 5.5 0 0 1-3.101-.92c-.928-.613-1.783-1.64-2.566-3.08Zm23.034-15.876c2.842 0 5.22.956 7.134 2.869 1.915 1.913 2.872 4.267 2.872 7.063 0 2.77-.955 5.12-2.865 7.05-1.91 1.93-4.24 2.895-6.988 2.895-2.782 0-5.13-.96-7.045-2.882-1.915-1.92-2.872-4.245-2.872-6.973 0-1.818.436-3.504 1.308-5.056.873-1.552 2.062-2.768 3.568-3.647a9.529 9.529 0 0 1 4.888-1.32Zm.09 1.853c-1.388 0-2.702.364-3.945 1.093a7.832 7.832 0 0 0-2.91 2.946c-.697 1.235-1.046 2.612-1.046 4.13 0 2.247.772 4.145 2.316 5.693 1.545 1.548 3.406 2.323 5.584 2.323a7.964 7.964 0 0 0 4.04-1.068 7.612 7.612 0 0 0 2.897-2.92c.693-1.236 1.04-2.608 1.04-4.118 0-1.5-.347-2.858-1.04-4.072-.694-1.213-1.67-2.185-2.93-2.914-1.259-.729-2.594-1.093-4.007-1.093Zm30.295 2.135-1.48 1.145c-.818-1.072-1.798-1.885-2.943-2.438-1.144-.553-2.401-.83-3.771-.83a8.283 8.283 0 0 0-4.16 1.088c-1.277.724-2.266 1.698-2.968 2.92s-1.053 2.597-1.053 4.123c0 2.308.785 4.233 2.355 5.777 1.57 1.544 3.55 2.316 5.94 2.316 2.63 0 4.83-1.038 6.6-3.114l1.48 1.133a9.474 9.474 0 0 1-3.504 2.785c-1.4.656-2.963.984-4.69.984-3.284 0-5.875-1.102-7.773-3.306-1.59-1.861-2.386-4.109-2.386-6.742 0-2.77.963-5.101 2.89-6.992 1.928-1.891 4.342-2.837 7.243-2.837 1.753 0 3.336.35 4.748 1.048a9.234 9.234 0 0 1 3.472 2.94Zm2.625-3.512h1.877v18.925h-1.877V14.558Zm5.32 0h10.758v1.865h-8.883v5.919h8.807v1.852h-8.807v7.424h8.807v1.865h-10.683V14.558Zm11.265 1.84v-1.84h10.3v1.84h-4.186v17.085h-1.915V16.398h-4.199Zm10.641-1.84h2.17l4.799 7.796 4.722-7.796h2.17l-5.948 9.88v9.045h-1.85V24.44l-6.063-9.881Z" fill="#FAFAFA"/></g></svg>