<?xml version="1.0" encoding="utf-8"?>
<!-- Generator: Adobe Illustrator 23.0.3, SVG Export Plug-In . SVG Version: 6.00 Build 0)  -->
<svg version="1.1" id="Layer_1" xmlns="http://www.w3.org/2000/svg" xmlns:xlink="http://www.w3.org/1999/xlink" x="0px" y="0px"
	 viewBox="0 0 500 500" style="enable-background:new 0 0 500 500;" xml:space="preserve">
<style type="text/css">
	.st0{fill:#FFFFFF;}
	.st1{fill:none;}
	.st2{fill:#2F598B;}
	.st3{fill:#878FB1;}
</style>
<g id="Layer_5">
	<g>
		<ellipse class="st0" cx="248.6" cy="251.9" rx="245.6" ry="243.9"/>
		<path d="M248.6,11.4c32.7,0,64.4,6.4,94.3,18.9c28.8,12.1,54.7,29.5,77,51.5c22.2,22.1,39.7,47.8,51.9,76.4
			c12.6,29.6,19,61.1,19,93.6s-6.4,64-19,93.6c-12.2,28.6-29.7,54.4-51.9,76.4c-22.2,22.1-48.1,39.4-77,51.5
			c-29.9,12.5-61.6,18.9-94.3,18.9s-64.4-6.4-94.3-18.9c-28.8-12.1-54.7-29.5-77-51.5c-22.2-22.1-39.7-47.8-51.9-76.4
			c-12.6-29.6-19-61.1-19-93.6s6.4-64,19-93.6c12.2-28.6,29.7-54.4,51.9-76.4s48.1-39.4,77-51.5C184.2,17.8,215.9,11.4,248.6,11.4
			 M248.6,8C113,8,3,117.2,3,251.9s110,243.9,245.6,243.9s245.6-109.2,245.6-243.9S384.2,8,248.6,8L248.6,8z"/>
	</g>
</g>
<g>
	<g>
		<circle class="st0" cx="249.2" cy="251.9" r="236"/>
		<path d="M249.2,20.5c31.2,0,61.6,6.1,90.1,18.2c27.6,11.7,52.3,28.3,73.6,49.6c21.3,21.3,37.9,46,49.6,73.6
			c12.1,28.5,18.2,58.8,18.2,90.1s-6.1,61.6-18.2,90.1c-11.7,27.6-28.3,52.3-49.6,73.6c-21.3,21.3-46,37.9-73.6,49.6
			c-28.5,12.1-58.8,18.2-90.1,18.2s-61.6-6.1-90.1-18.2c-27.6-11.7-52.3-28.3-73.6-49.6c-21.3-21.3-37.9-46-49.6-73.6
			c-12.1-28.5-18.2-58.8-18.2-90.1s6.1-61.6,18.2-90.1c11.7-27.6,28.3-52.3,49.6-73.6c21.3-21.3,46-37.9,73.6-49.6
			C187.6,26.6,217.9,20.5,249.2,20.5 M249.2,15.9c-130.3,0-236,105.6-236,236s105.6,236,236,236s236-105.6,236-236
			S379.5,15.9,249.2,15.9L249.2,15.9z"/>
	</g>
</g>
<g id="Layer_4">
	<g>
		<polygon class="st1" points="270.9,196.9 270.7,197.4 271.1,196.9 		"/>
		<polygon class="st1" points="225.2,306.9 225.3,306.3 225,306.9 		"/>
		<polygon class="st1" points="222.7,196.9 223.1,197.4 222.9,196.9 		"/>
		<polygon class="st1" points="273.4,306.9 273,306.3 273.2,306.9 		"/>
		<path class="st2" d="M403.4,340.4l-61.3-33.5h-18.5l63.9,60.7l-74.9-60.1l-2.3-0.6h-9.2l64.8,84.5l-75.5-84.5h-3.6l53,101.5
			l-66.6-101.5h-0.2l37.3,115.1l-48.8-114.6l19.3,123.6l-27.2-123.6l-4.5,130.5l-4.5-130.5l-27.2,123.6l19.3-123.6l-48.8,114.6
			l37.3-115.1H225l-66.6,101.5l53-101.5h-3.6l-75.5,84.5l64.8-84.5h-9.2l-2.3,0.6l-74.9,60.1l63.9-60.7h-18.5l-61.4,33.5l51.1-33.5
			H62.7c23.9,80.7,98.6,139.5,187.1,139.5s163.1-58.9,187.1-139.5h-84.5L403.4,340.4z"/>
		<path class="st2" d="M92.6,163.4l61.3,33.5h18.5l-63.9-60.7l74.9,60.1l2.3,0.6h9.2l-64.8-84.5l75.5,84.5h3.6l-53-101.5l66.6,101.5
			h0.2L185.6,81.7l48.8,114.6L215.1,72.7l27.2,123.6l4.5-130.5l4.5,130.5l27.2-123.6l-19.3,123.6l48.8-114.6l-37.3,115.1h0.2
			l66.6-101.5l-53,101.5h3.6l75.5-84.5L299,196.9h9.2l2.3-0.6l74.9-60.1l-63.9,60.7h18.5l61.4-33.5L350,196.9h87.1
			c-23.6-81.3-98.5-140.7-187.4-140.7S85.9,115.6,62.3,196.9h81.4L92.6,163.4z"/>
		<polygon class="st3" points="271.1,196.9 284.6,196.9 337.6,95.3 		"/>
		<polygon class="st3" points="288.2,196.9 299,196.9 363.7,112.4 		"/>
		<polygon class="st3" points="310.4,196.3 308.1,196.9 321.3,196.9 385.3,136.2 		"/>
		<polygon class="st3" points="339.8,196.9 350,196.9 401.2,163.4 		"/>
		<polygon class="st3" points="308.1,81.7 259.4,196.3 278.7,72.7 251.4,196.3 246.9,65.9 242.4,196.3 215.1,72.7 234.4,196.3 
			185.6,81.7 222.9,196.9 270.9,196.9 		"/>
		<polygon class="st3" points="143.7,196.9 154,196.9 92.6,163.4 		"/>
		<polygon class="st3" points="108.5,136.2 172.4,196.9 185.6,196.9 183.4,196.3 		"/>
		<polygon class="st3" points="156.1,95.3 209.2,196.9 222.7,196.9 		"/>
		<polygon class="st3" points="194.8,196.9 205.5,196.9 130.1,112.4 		"/>
		<polygon class="st3" points="225,306.9 211.4,306.9 158.4,408.4 		"/>
		<polygon class="st3" points="207.8,306.9 197.1,306.9 132.3,391.4 		"/>
		<polygon class="st3" points="185.6,307.5 187.9,306.9 174.7,306.9 110.8,367.6 		"/>
		<polygon class="st3" points="156.2,306.9 146,306.9 94.9,340.4 		"/>
		<polygon class="st3" points="187.9,422.1 236.7,307.5 217.4,431.1 244.6,307.5 249.2,437.9 253.7,307.5 280.9,431.1 261.6,307.5 
			310.4,422.1 273.2,306.9 225.2,306.9 		"/>
		<polygon class="st3" points="352.3,306.9 342.1,306.9 403.4,340.4 		"/>
		<polygon class="st3" points="387.6,367.6 323.6,306.9 310.4,306.9 312.7,307.5 		"/>
		<polygon class="st3" points="339.9,408.4 286.9,306.9 273.4,306.9 		"/>
		<polygon class="st3" points="301.3,306.9 290.5,306.9 366,391.4 		"/>
	</g>
</g>
<g id="Layer_7">
	<g>
		<path d="M61.8,291.3V208h85.3v14.1H88.5v18.5h41.6v14H88.5v22.7h57.4v14H61.8z"/>
		<path d="M224,260.7l20.4,5.2c-3.1,9.1-8.3,15.8-15.6,20.3s-16.5,6.6-27.7,6.6c-13.8,0-25.2-3.8-34.1-11.3
			c-8.9-7.6-13.4-17.9-13.4-31c0-13.9,4.5-24.6,13.4-32.3c9-7.7,20.7-11.5,35.3-11.5c12.7,0,23.1,3,31,9c4.7,3.6,8.3,8.7,10.7,15.3
			l-20.8,4c-1.2-4.3-3.8-7.7-7.7-10.2c-3.9-2.5-8.7-3.8-14.2-3.8c-7.7,0-14,2.2-18.8,6.6c-4.8,4.4-7.2,11.6-7.2,21.5
			c0,10.5,2.4,18,7.1,22.5c4.7,4.5,10.9,6.7,18.5,6.7c5.6,0,10.4-1.4,14.4-4.3C219.4,271.2,222.3,266.8,224,260.7z"/>
		<path d="M261.2,291.3V208h83.3v14.1h-62.2v19.7h48.6v14.1h-48.6v35.4L261.2,291.3L261.2,291.3z"/>
		<path d="M434.4,291.3h-22.9l-9.1-18.9h-41.6l-8.6,18.9h-22.3l40.6-83.3h22.2L434.4,291.3z M395.6,258.3l-14.3-30.9l-14.1,30.9
			H395.6z"/>
	</g>
</g>
<g id="Layer_6">
</g>
</svg>
