<svg xmlns="http://www.w3.org/2000/svg" xmlns:xlink="http://www.w3.org/1999/xlink" width="154" height="120" xmlns:v="https://vecta.io/nano"><ellipse cx="76.555" cy="61.686" rx="56.824" ry="56.591" fill="#fff"/><path d="M91.723 52.958H62.51c-.311 0-.592-.245-.592-.581V23.68c0-.306.249-.581.592-.581h29.213c.311 0 .592.245.592.581v28.697a.61.61 0 0 1-.592.581z" fill="#59585a"/><path d="M144.13 87.314l9.522-11.812h-19.013l-3.586 5.346-8.687 5.191h12.274v11.905l19.013-.093zM27.362 86.039l-7.358-10.537H.002l8.904 11.532L.002 98.566l19.013-.093V86.039z" fill="#717071"/><path d="M19.166 86.183l6.937-5.027 5.703 7.775 97.454-.812.956-6.963 4.255 5.027-6.814 10.149-92.428-1.03z" fill="#444446"/><g fill="#8d8a8c"><path d="M76.263 119.977c-33.056 0-59.909-26.907-59.909-59.961S43.237.025 76.263.025s59.909 26.907 59.909 59.961-26.852 59.991-59.909 59.991zm0-112.754c-29.075 0-52.717 23.663-52.717 52.763s23.642 52.794 52.717 52.794 52.717-23.694 52.717-52.794S105.338 7.223 76.263 7.223zM39.996 63.971l-.401.062-.71-2.41c-.833-.185-1.605-.309-2.315-.309-1.697 0-2.994.525-3.951 1.545-.957 1.05-1.42 2.471-1.42 4.294s.525 3.305 1.543 4.387 2.408 1.637 4.136 1.637c.586 0 1.142-.062 1.728-.216v-3.985c0-.155-.093-.247-.247-.309l-1.266-.371-.031-.402 2.5.031 2.346-.031.062.402-1.111.309c-.154.062-.247.155-.247.278v4.51l-.062.062c-1.389.309-2.654.463-3.797.463-2.377 0-4.259-.556-5.648-1.699s-2.099-2.718-2.099-4.788.741-3.862 2.191-5.097 3.426-1.854 5.957-1.854c1.08 0 2.222.124 3.426.371l.062.062-.648 3.058h0zm2.068-.649l2.284.031 2.284-.031.031.309-1.142.278c-.154.031-.216.093-.247.216v5.252c0 1.39.278 2.379.833 2.904.556.556 1.451.803 2.685.803s2.16-.278 2.716-.834.833-1.483.833-2.811v-4.788c0-.216 0-.402-.031-.556 0-.124-.093-.185-.247-.216l-1.08-.247-.031-.34 2.006.031 1.945-.031.031.309-1.142.278c-.154.031-.216.124-.216.247v5.004c0 1.606-.401 2.811-1.234 3.583-.803.772-2.099 1.143-3.858 1.143s-2.994-.34-3.827-1.05c-.833-.68-1.234-1.761-1.234-3.244v-5.406c0-.124-.093-.216-.216-.247l-1.142-.278v-.309h.001zm16.575 8.032v1.452c0 .124.123.216.309.247l1.049.247.031.309c-.803 0-1.543-.031-2.284-.031l-2.284.031-.031-.309 1.142-.278c.154-.031.247-.124.247-.216v-8.65c0-.124-.093-.216-.216-.247l-1.142-.278-.031-.309 2.284.031 2.284-.031.031.309-1.142.278c-.154.031-.216.093-.247.216v7.229h0 0zm4.567 2.286l-2.284.031-.031-.309 1.142-.278c.154-.031.247-.124.247-.216v-8.711c0-.124-.093-.216-.216-.247l-1.142-.278-.031-.309 2.315.031 1.759-.031 1.759-.031c2.13 0 3.766.402 4.815 1.174 1.08.772 1.605 1.946 1.605 3.491 0 1.822-.586 3.213-1.79 4.232-1.204.989-2.871 1.514-5.031 1.514-.586 0-1.111 0-1.574-.031l-1.543-.031h.001zm.895-.68l1.049.093 1.049.031c1.605 0 2.84-.371 3.704-1.143.833-.772 1.266-1.946 1.266-3.491s-.401-2.657-1.204-3.398-2.068-1.112-3.827-1.112h-.926c-.34 0-.71.031-1.142.062l.031 8.958h0 0zm12.254-9.607h2.222l4.352-.031.062.062-.525 2.286-.37.062-.556-1.699h-4.259v4.047h2.963c.154 0 .278-.062.309-.185l.309-.989h.494l-.031 1.514.031 1.514-.494.031-.34-1.02c-.062-.124-.154-.185-.278-.185H77.25v2.687l.031 1.606h4.414l1.111-1.884.401-.062-.216 2.564-.062.062c-1.574 0-3.056-.031-4.383-.031h-2.191l-2.284.031-.031-.309 1.142-.278c.154-.031.247-.124.247-.216v-8.773c0-.124-.093-.216-.216-.247l-1.142-.278-.031-.309 2.315.031h.001zm14.105-1.761c-.648-.216-1.234-.309-1.759-.309-.803 0-1.451.185-1.945.587s-.71.927-.71 1.637c0 .402.093.741.247 1.05s.401.556.679.803a7.36 7.36 0 0 0 .957.618l1.111.525 1.234.587c.401.216.772.432 1.08.71a3.45 3.45 0 0 1 .772.989c.186.371.278.834.278 1.359 0 1.236-.463 2.162-1.42 2.811s-2.191.958-3.704.958c-.988 0-2.037-.155-3.241-.494l-.062-.062.463-3.12.401-.062.648 2.626a5.63 5.63 0 0 0 2.006.371c.926 0 1.636-.216 2.13-.618.525-.402.772-.989.772-1.73 0-.402-.093-.741-.247-1.02-.154-.309-.401-.556-.679-.772a5.61 5.61 0 0 0-.957-.587l-1.111-.525-1.234-.587a6.96 6.96 0 0 1-1.111-.741c-.34-.278-.586-.649-.772-1.05a3.46 3.46 0 0 1-.309-1.452c0-1.112.463-1.977 1.389-2.564.926-.618 2.068-.896 3.457-.896.957 0 1.975.124 3.056.34l.062.062-.556 2.873-.37.062-.556-2.379h0zm7.161 12.048l-2.5.031-.031-.309 1.358-.309c.154-.031.247-.124.247-.216l.031-1.421v-7.352h-3.241l-.803 1.946-.37.062-.247-2.626.062-.062 4.321.031h2.469l4.352-.031.062.062-.586 2.595-.37.062-.586-2.008h-3.241v7.352l.031 1.421c0 .124.093.185.247.216l1.358.309.031.309-2.593-.062h0zm10.741-10.473l4.074 8.989c.154.34.309.556.432.68s.309.216.525.278l.864.216.031.309c-.803 0-1.543-.031-2.222-.031l-2.469.031-.031-.309.864-.216c.123-.031.216-.062.247-.124.062-.031.093-.093.093-.185s-.031-.216-.093-.371l-.278-.649-.864-1.977h-4.445l-.957 1.977-.309.649c-.062.155-.123.278-.123.371s.031.155.093.185.154.093.247.093l.864.185.031.34c-.864 0-1.574-.031-2.13-.031l-1.852.031-.031-.309.926-.216c.247-.062.401-.155.525-.278s.247-.309.37-.587l4.691-8.989.926-.062h.001zm-2.932 5.993h3.796l-1.79-4.047-2.006 4.047h0z"/><path d="M117.282 71.354v1.452c0 .155.093.247.247.278l1.019.247.031.309c-.741 0-1.451-.031-2.191-.031l-2.284.031-.031-.309 1.142-.278c.154-.031.247-.124.247-.216v-8.681c0-.124-.093-.216-.216-.247l-1.142-.278-.031-.309 2.315.031h.556l.833-.031.833-.031h.525c1.42 0 2.469.216 3.179.649s1.049 1.05 1.049 1.854c0 .741-.247 1.328-.71 1.792-.494.463-1.234.803-2.222 1.05l1.08 1.359.926 1.205.772.958c.247.278.463.494.648.649.093.093.216.155.309.216s.216.124.34.155l.37.093.432.093.031.309-1.111.062h-.648a2.73 2.73 0 0 1-.525-.062c-.154-.031-.278-.062-.401-.124-.123-.031-.247-.093-.37-.185-.247-.155-.494-.371-.741-.649s-.494-.618-.772-.989l-.833-1.143-.895-1.205c-.093-.124-.185-.216-.247-.278s-.123-.124-.216-.155-.154-.062-.278-.093c-.093 0-.247-.031-.401-.031h-.648l.031 2.533h0 0zm0-3.089l1.049.031c1.049 0 1.821-.185 2.346-.556.494-.371.741-.927.741-1.699s-.247-1.297-.71-1.637-1.204-.525-2.222-.525h-.556l-.648.031v4.356h0 0z"/><path d="M78.608 32.955l-3.272-17.886s-.34-1.081-.494 0c-.123.71 0 18.411 0 18.411l-8.488-7.012-2.593-2.039s-.463-.031-.216.525c.247.587 9.475 11.708 9.475 11.708l-14.568 1.02s-.216-.031-.216.278c0 .278 9.784 1.112 9.784 1.112s-9.537 4.634-9.969 5.406c-.432.741 14.661-3.892 14.661-3.892s-2.747 4.139-2.84 4.448c-.062.155.093.185.278.185a1.53 1.53 0 0 0 .803-.247l4.722-2.997s.278 9.916.556 10.225c.278.278.432.155.556-.278s2.623-10.534 2.623-10.534L96.294 56s.185.124.37-.124 0-.525 0-.525l-13.55-15.23 6.327.062s.432.031.432-.216-1.234-.803-1.234-.803l-6.975-2.286 8.426-9.36s.432-.371 0-.587-.741.124-.741.124l-7.624 5.344.432-3.614s.123-.309-.247-.371c-.34-.062-3.117 4.139-3.117 4.139l-.185.402h.001z" stroke="#010101" stroke-width=".5"/></g><path d="M78.168 35.819l-1.475-6.902s-.123-.401-.184 0c-.031.277.215 7.148.215 7.148l-3.349-2.619-1.014-.77s-.184 0-.092.216 3.81 4.437 3.81 4.437l-5.623.555s-.092 0-.092.093c0 .123 3.81.308 3.81.308l-3.78 2.218c-.154.308 5.623-1.695 5.623-1.695l-1.045 1.756c-.031.062.031.062.123.062.123 0 .215-.031.307-.093l1.782-1.232.338 3.944c.123.123.154.062.215-.123l.891-4.129 6.699 5.454s.092.031.154-.062 0-.185 0-.185l-5.408-5.731 2.458-.062s.184 0 .184-.093-.492-.308-.492-.308l-2.735-.801 3.165-3.728s.154-.154 0-.246-.277.062-.277.062l-2.889 2.157.123-1.417s.031-.123-.092-.154-1.168 1.633-1.168 1.633l-.184.308h.001z" fill="#444446"/><path fill="#aca9aa" d="M110.83 86.197H19.138v28.169h115.393V86.197z"/><path d="M38.871 91.51c.651-.123 1.58-.216 2.82-.216 1.363 0 2.355.308 3.006.894.589.524.992 1.388.992 2.406s-.31 1.881-.868 2.467c-.744.802-1.89 1.172-3.192 1.172-.341 0-.651-.031-.898-.062v4.102h-1.828l-.031-10.764h0 0zm1.828 5.089c.217.062.527.093.898.093 1.394 0 2.231-.74 2.231-2.005s-.775-1.85-2.045-1.85c-.527 0-.868.062-1.085.093v3.67h0 0zm7.995-5.243h2.169v9.252h4.865v1.666h-7.034zm10.845 7.833l-.93 3.084h-2.045l3.471-10.918h2.541l3.532 10.918H63.97l-.992-3.084h-3.439 0zm3.099-1.511l-.868-2.683-.558-2.035h0l-.527 2.035-.836 2.683h2.789 0zm6.631-4.657h-3.192v-1.666h8.459v1.666h-3.222v9.252h-2.045zm9.295-1.665v10.918h-2.169V91.356zm3.874 11.072V91.51h2.169l2.696 4.688c.682 1.203 1.301 2.467 1.766 3.67h.031l-.186-4.534v-3.793h1.766v10.918h-1.952l-2.727-4.781-1.859-3.763-.031.031.093 4.657v3.917l-1.766-.093h0 0zm13.633-11.134v6.415c0 2.159.836 3.146 2.107 3.146 1.363 0 2.138-.987 2.138-3.146v-6.415h1.859v6.292c0 3.393-1.611 4.904-4.09 4.904s-3.904-1.419-3.904-4.873v-6.292l1.89-.031h0 0zm18.716 6.539l-.124-4.595h-.062l-1.332 4.164-1.611 4.719h-1.58l-1.487-4.657-1.115-4.256h-.031l-.186 4.657-.248 4.38h-1.89l.744-10.918h2.665l1.456 4.38 1.023 3.793h.062l1.115-3.793 1.549-4.38h2.634l.651 10.918h-1.983l-.248-4.41h0z" fill="#545355"/><g fill="#444446"><path d="M49.555 106.1c.403-.062.93-.123 1.674-.123.806 0 1.395.185 1.798.493.372.308.589.77.589 1.324s-.186 1.047-.527 1.354c-.434.431-1.116.646-1.922.646-.217 0-.403 0-.527-.031v2.247h-1.085v-5.91h0 0zm1.085 2.801c.124.031.31.031.527.031.837 0 1.333-.4 1.333-1.108s-.465-1.016-1.24-1.016a2.85 2.85 0 0 0-.651.062v2.032h.031 0z"/><use xlink:href="#B"/><path d="M61.399 106.1c.403-.062 1.023-.123 1.674-.123.868 0 1.457.154 1.86.493.341.277.527.708.527 1.201 0 .77-.527 1.293-1.085 1.508v.031c.434.154.682.585.837 1.17l.465 1.662H64.53c-.093-.185-.248-.677-.403-1.416-.186-.77-.465-1.047-1.085-1.047h-.558v2.463h-1.085V106.1h0 .001zm1.116 2.647h.651c.744 0 1.209-.4 1.209-.985 0-.646-.465-.954-1.178-.954-.341 0-.558.031-.682.062v1.878h0zm6.108-1.816h-1.705v-.924h4.558v.924H69.74v5.079h-1.116zm5.55-.924v6.003h-1.116v-6.003zm6.48 5.819c-.248.123-.837.277-1.55.277-1.922 0-3.1-1.201-3.1-3.017 0-1.97 1.364-3.171 3.224-3.171.713 0 1.24.154 1.457.277l-.248.862a2.92 2.92 0 0 0-1.178-.246c-1.24 0-2.108.77-2.108 2.216 0 1.324.775 2.155 2.108 2.155a3.51 3.51 0 0 0 1.209-.216l.186.862h0zm2.946-5.819v6.003h-1.116v-6.003zm2.139.093a10.59 10.59 0 0 1 1.674-.123c.806 0 1.395.185 1.798.493.372.308.589.77.589 1.324s-.186 1.047-.527 1.354c-.434.431-1.116.646-1.922.646-.217 0-.403 0-.527-.031v2.247h-1.085v-5.91h0 0zm1.116 2.801c.124.031.31.031.527.031.837 0 1.333-.4 1.333-1.108s-.465-1.016-1.24-1.016a2.85 2.85 0 0 0-.651.062l.031 2.032h0 0z"/><use xlink:href="#B" x="36.183"/><path d="M97.613 112.01v-6.003h1.24l1.55 2.586c.403.677.744 1.354 1.023 2.001h.031l-.093-2.493v-2.093h1.023v6.003h-1.147l-1.581-2.647-1.085-2.063h-.031l.062 2.555v2.155h-.992 0zm8.124-5.079h-1.705v-.924h4.558v.924h-1.736v5.079h-1.116z"/></g><g fill="#fafbf9"><path d="M38.291 90.388c.651-.122 1.58-.214 2.82-.214 1.363 0 2.355.306 3.006.887.589.52.992 1.377.992 2.387s-.31 1.867-.868 2.449c-.744.796-1.89 1.163-3.192 1.163-.341 0-.651-.031-.898-.061v4.071h-1.828l-.031-10.681h0 0zm1.859 5.05c.217.061.527.092.898.092 1.394 0 2.231-.735 2.231-1.989s-.775-1.836-2.045-1.836c-.527 0-.868.061-1.085.092v3.642h0 0zm7.963-5.203h2.169v9.182h4.865v1.653h-7.034V90.235zm10.845 7.743l-.93 3.06h-2.045l3.471-10.834h2.541l3.532 10.834h-2.138l-.992-3.06h-3.439 0zm3.099-1.469l-.868-2.663-.558-2.02H60.6l-.527 2.02-.836 2.663h2.82 0zm6.631-4.622h-3.16v-1.653h8.428v1.653h-3.222v9.182h-2.045v-9.182h0zm9.327-1.652v10.834h-2.169V90.235zm3.873 10.956V90.357h2.169l2.696 4.652c.682 1.194 1.301 2.449 1.766 3.642h.031l-.186-4.499v-3.764h1.766v10.834h-1.952l-2.727-4.744-1.859-3.734-.031.031.093 4.621v3.887l-1.766-.092h0 0zm13.603-11.048v6.366c0 2.142.836 3.122 2.107 3.122 1.363 0 2.138-.979 2.138-3.122v-6.366h1.859v6.244c0 3.367-1.611 4.866-4.09 4.866s-3.904-1.408-3.904-4.836v-6.244l1.89-.031h0 0zm18.746 6.488l-.124-4.56h-.062l-1.332 4.132-1.611 4.682h-1.58l-1.487-4.621-1.115-4.223h-.031l-.186 4.621-.248 4.346h-1.89l.744-10.834h2.665l1.456 4.346 1.023 3.764h.062l1.115-3.764 1.549-4.346h2.634l.651 10.834h-1.983l-.248-4.377h0zm-64.884 9.151c.403-.061.93-.122 1.673-.122.806 0 1.394.184 1.797.49.372.306.589.765.589 1.316s-.186 1.041-.527 1.346c-.434.428-1.115.643-1.921.643-.217 0-.403 0-.527-.031v2.234h-1.085v-5.876h0zm1.085 2.785c.124.031.31.031.527.031.836 0 1.332-.398 1.332-1.102s-.465-1.01-1.239-1.01c-.31 0-.527.031-.651.061v2.02h.031 0z"/><use xlink:href="#C"/><path d="M61.19 105.782a11.74 11.74 0 0 1 1.673-.122c.868 0 1.456.153 1.859.49.341.276.527.704.527 1.194 0 .765-.527 1.285-1.085 1.5v.031c.434.153.682.581.836 1.163l.465 1.653h-1.147c-.093-.184-.248-.673-.403-1.408-.186-.765-.465-1.041-1.085-1.041h-.558v2.449h-1.085v-5.907h0 .001zm1.115 2.632h.651c.744 0 1.209-.398 1.209-.979 0-.643-.465-.949-1.177-.949a2.98 2.98 0 0 0-.682.061v1.867h0zm6.104-1.805h-1.704v-.918h4.555v.918h-1.735v5.05H68.41zm5.547-.888v5.968H72.84v-5.968zm6.476 5.784c-.248.122-.836.276-1.549.276-1.921 0-3.099-1.194-3.099-2.999 0-1.959 1.363-3.152 3.222-3.152.713 0 1.239.153 1.456.276l-.248.857a2.93 2.93 0 0 0-1.177-.245c-1.239 0-2.107.765-2.107 2.203 0 1.316.775 2.142 2.107 2.142.434 0 .898-.092 1.209-.214l.186.857h0zm2.943-5.784v5.968H82.26v-5.968zm2.138.061c.403-.061.93-.122 1.673-.122.806 0 1.394.184 1.797.49.372.306.589.765.589 1.316s-.186 1.041-.527 1.346c-.434.428-1.115.643-1.921.643-.217 0-.403 0-.527-.031v2.234h-1.085v-5.876h0 0zm1.115 2.785c.124.031.31.031.527.031.836 0 1.332-.398 1.332-1.102s-.465-1.01-1.239-1.01c-.31 0-.527.031-.651.061l.031 2.02h0 0z"/><use xlink:href="#C" x="36.16"/><path d="M97.381 111.658v-5.968h1.239l1.549 2.571a17.33 17.33 0 0 1 1.023 1.989h.031l-.093-2.479v-2.081h1.023v5.968h-1.147l-1.58-2.632-1.085-2.051h-.031l.062 2.54v2.142h-.992 0zm8.118-5.049h-1.704v-.918h4.555v.918h-1.735v5.05H105.5z"/></g><path d="M19.166 113.828H134.47v2.787H19.166z" fill="#717071"/><defs ><path id="B" d="M56.035 110.317l-.527 1.693h-1.147l1.922-6.003h1.395l1.953 6.003h-1.178l-.558-1.693h-1.86 0zm1.736-.831l-.465-1.478c-.124-.369-.217-.77-.31-1.108h-.031l-.279 1.108-.465 1.478h1.55 0z"/><path id="C" d="M55.829 109.975l-.527 1.683h-1.147l1.921-5.968h1.394l1.952 5.968h-1.177l-.558-1.683h-1.859 0zm1.735-.826l-.465-1.469c-.124-.367-.217-.765-.31-1.102h-.031l-.279 1.102-.465 1.469h1.549 0z"/></defs></svg>