<svg xmlns="http://www.w3.org/2000/svg" viewBox="0 0 5000 5000"><defs><style>.a{fill:#eee;}.b,.d{fill:#717071;}.b{fill-rule:evenodd;}.c{fill:#8d8a8c;}.e{fill:#898888;}</style></defs><polygon class="a" points="1876.43 449.32 1874.17 737.01 1993.91 874.83 1884.71 452.34 1876.43 449.32"/><circle class="a" cx="1865.74" cy="2265.74" r="1194.74"/><path class="b" d="M47.19,2266.45H3691.54v30.93H47.19Z"/><path class="b" d="M1878.19,453.1V4097.46h-14.1V453.1Z"/><path class="c" d="M1871.11,400.09,1712,933.84l159.11-180.27,148.47,169.66Zm14.11,60.13L1987.69,859.6,1885.22,732.41Zm-19.34,2957.21c-306.06,0-593.72-119.17-810.15-335.6s-335.57-504.06-335.57-810.09,119.18-593.76,335.6-810.15S1559.82,1126,1865.85,1126s593.76,119.21,810.16,335.61,335.6,504.08,335.6,810.12S2892.4,2865.46,2676,3081.86,2171.92,3417.43,1865.88,3417.43Zm0-2273.88c-622.12,0-1128.18,506.13-1128.18,1128.16S1243.83,3399.9,1865.88,3399.9,2994,2893.77,2994,2271.71,2488,1143.55,1865.88,1143.55Z"/><path class="c" d="M1871.11,3471.81c-320.08,0-621-124.65-847.33-351s-351-527.25-351-847.33,124.66-621,351-847.33,527.25-351,847.33-351,621,124.66,847.33,351,351,527.22,351,847.33-124.65,621-351,847.33S2191.19,3471.81,1871.11,3471.81Zm0-2382.57c-653,0-1184.26,531.24-1184.26,1184.26s531.24,1184.27,1184.26,1184.27S3055.38,2926.52,3055.38,2273.5,2524.13,1089.24,1871.14,1089.24Z"/><path class="d" d="M1878.94,1079.8c-1.86-8.41-13.92-8.47-15.72,0L1694.4,1856.39l180.27,413.55,173.21-403Zm4.54,128,137.83,657.48-144.88,342.87,7-1002.11-7,1002.11ZM3063.05,2276c8.41-1.83,8.51-13.92,0-15.72l-776.59-168.82-413.55,180.27,403,173.21Zm-128,4.54-657.51,137.86L1934.71,2273.5l1002.11,7.05-1002.11-7.05ZM1863.32,3456.62c1.79,8.45,13.85,8.51,15.68,0L2047.82,2680l-180.27-413.52-173.21,403,169,787.14Zm-4.58-128-137.83-657.51,144.88-342.84-7,1002.08,7-1002.08-7,1000.32Z"/><path class="d" d="M689.81,2267.5c-8.44,1.83-8.5,13.92,0,15.71L1466.38,2452l413.55-180.3-403-173.22Zm128-4.55,657.47-137.86L1818.13,2270,816.05,2263,1818.13,2270Z"/><path class="d" d="M2720.42,1431.34c4.7-7.3-3.8-15.78-11.1-11.14l-668.49,429.73-164.92,419.89,407.36-162.42ZM2633.14,1525l-367.47,562.39-344.91,140,713.58-703.56-713.58,703.56L2633.1,1525Zm73.67,1590.3c7.3,4.7,15.78-3.81,11.17-11.11l-429.76-668.48L1868.3,2270.78l162.45,407.36Zm-93.66-87.23-562.36-367.46-140-344.89,703.56,713.59L1910.8,2315.72Z"/><path class="d" d="M1026.38,3109.67c-4.73,7.3,3.77,15.77,11.07,11.13L1705.94,2691l165-419.89-407.37,162.42-437.18,676.1Zm87.29-93.66,367.43-562.4,344.88-140L1112.4,3017.21,1826,2313.65,1113.64,3016Zm-78.29-1591.36c-7.3-4.7-15.78,3.81-11.17,11.08L1454,2104.21l419.93,165-162.46-407.36Zm93.66,87.29,562.36,367.47,140,344.88L1127.83,1510.7l703.57,713.59Z"/><path class="e" d="M3045.68,3250.35a187.62,187.62,0,0,0-64.55,10.91,143.39,143.39,0,0,0-52.12,32.57q-22.08,21.66-34.84,53.77t-12.75,74.82q0,42.4,11.82,73.59t33.59,51.63q21.77,20.43,52.41,30.26t68.27,9.84q10.26,0,21.77-1.08t23.17-3.07q11.67-2,22.71-4.61a193.55,193.55,0,0,0,19.76-5.69v44.25q-18.14,7.07-42.1,10.91a310.36,310.36,0,0,1-49.16,3.84q-51.33,0-91-14.29t-66.52-41q-26.89-26.73-40.71-65.29t-13.83-87.42q0-47.94,14.59-88.19t42.1-69.13q27.49-28.89,66.68-45t88-16.13q12.9,0,25.5,1.07t24.13,3.08a215,215,0,0,1,21.35,4.76,132.8,132.8,0,0,1,16.9,5.84v44.24a320.07,320.07,0,0,0-40.76-10.29A240.88,240.88,0,0,0,3045.68,3250.35Z"/><path class="e" d="M3250.84,3430.43h179.34V3282.29h41.7v342.32h-41.7V3468H3250.84v156.58h-41.71V3282.29h41.71Z"/><path class="e" d="M3524.33,3624.61l139.43-342.32h36.07l139.44,342.32H3794L3753.1,3521.5H3610l-40.88,103.11Zm157.08-289.1q-22.9,63.9-43.75,116.15l-12.79,32.24h113.45l-13-32.21q-21.07-53.18-42.91-116.18Z"/><path class="e" d="M3933.42,3482.87v141.74h-41.71V3282.29h88.68a370.44,370.44,0,0,1,38.2,1.67,181.42,181.42,0,0,1,28.76,5.24q35.78,9.74,54.68,33.13t18.92,58.46q0,20.73-6.66,37.1a84.84,84.84,0,0,1-18.67,28.4,98,98,0,0,1-28.79,19.7,151.92,151.92,0,0,1-37.22,11.25v1l101.31,146.34h-41.7l-105.4-141.74Zm0-163v125.36h41.19q19.18,0,32.74-1.27a121.18,121.18,0,0,0,24.31-4.61q21.74-6.65,33.51-21.23t11.77-38.12q-.26-22-11.26-35.44t-30.44-19.31a115.7,115.7,0,0,0-22-4.1q-12.79-1.28-32.49-1.28Z"/><path class="e" d="M4201.79,3624.61V3282.29h41.7v342.32Z"/><path class="e" d="M4453.28,3624.61h-41.7V3319.9H4297.22v-37.61h270.42v37.61H4453.28Z"/><path class="e" d="M4754.4,3487v137.64h-41.7V3487l-124.59-204.68h45.54l99.26,166.3h1.28l99.27-166.3H4879Z"/><path class="e" d="M2345.74,3933.8q37.8,54.38,74.67,111.84h1.84q-4-59.91-4-122.29V3704.57h50.39V4115.7h-50.09l-161.31-229.22q-41.79-59.92-74.67-111.85h-1.84q4,56.23,4,131.21V4115.7h-50.08V3704.57h49.77Z"/><path class="e" d="M2529.53,4115.7,2669,3773.39H2705l139.43,342.31h-45.28l-40.88-103.1H2615.18l-40.88,103.1Zm157.09-289.1q-22.9,63.92-43.75,116.15l-12.8,32.24h113.46l-13-32.21q-21.08-53.18-42.91-116.18Z"/><path class="e" d="M2984.16,4062.49q18.54-56,39.94-113.08l65.72-176h41.7l-129.8,342.31h-36.4l-129.8-342.31h41.7l65.7,176q21.66,57,40.2,113.08Z"/><path class="e" d="M3186.78,4115.7V3773.39h41.71V4115.7Z"/><path class="e" d="M3539.33,3977.29h-78v-37.61H3581v165.53a85.89,85.89,0,0,1-15.73,5.76q-10.37,2.94-23.67,5.5t-28.52,4.09a297.6,297.6,0,0,1-30.06,1.54q-44,0-77.65-12t-56.41-34q-22.78-22-34.54-53.47t-11.77-70.1q0-42,12.89-76.24t37.35-58.59q24.47-24.3,59.13-37.48t76.37-13.18q11.25,0,22.51.9t21.49,2.56q10.23,1.66,18.93,4a105.52,105.52,0,0,1,14.59,4.86v36.84a245,245,0,0,0-35.31-8.57,233.86,233.86,0,0,0-39.91-3.45,174.62,174.62,0,0,0-55.64,8.83,132.8,132.8,0,0,0-46.69,26.73q-20.22,17.91-32.24,44.9t-12,63.32q0,35.57,10,61.4t28.26,42.73q18.29,16.88,44.33,24.94t57.94,8.06a275.53,275.53,0,0,0,29.16-1.53,186,186,0,0,0,25.54-4.35Z"/><path class="e" d="M3630.92,4115.7l139.43-342.31h36.08l139.43,342.31h-45.28l-40.88-103.1H3716.57l-40.88,103.1ZM3788,3826.6q-22.91,63.92-43.76,116.15L3731.46,3975h113.45l-13-32.21q-21.08-53.18-42.91-116.18Z"/><path class="e" d="M4093,4115.7h-41.71V3811H3936.9v-37.61h270.43V3811H4093Z"/><path class="e" d="M4554.24,3944.8q0,38.89-11.16,71.38t-32,56a145.82,145.82,0,0,1-50.12,36.71q-29.31,13.17-65.61,13.18-37.56,0-67.25-13.18a142.48,142.48,0,0,1-50.26-36.71q-20.55-23.53-31.47-56t-10.91-71.38q0-39.14,11.29-71.76t32-56.16a144.27,144.27,0,0,1,50.13-36.71q29.43-13.17,66-13.18,37.3,0,66.87,13.18a142.8,142.8,0,0,1,50.13,36.71q20.55,23.55,31.47,56.16T4554.24,3944.8Zm-41.44,0q0-34.53-9.06-60.89t-24.95-44a104.55,104.55,0,0,0-37.51-26.74,123.22,123.22,0,0,0-92.85,0,104.55,104.55,0,0,0-37.51,26.74q-15.9,17.64-25,44t-9.05,60.89q0,34.54,9.19,60.76t25.08,43.88a103.13,103.13,0,0,0,37.51,26.61,120.64,120.64,0,0,0,46.68,8.95,118.05,118.05,0,0,0,46.17-8.95,103.65,103.65,0,0,0,37.25-26.61q15.9-17.66,24.95-43.88T4512.8,3944.8Z"/><path class="e" d="M4672.7,3974V4115.7H4631V3773.39h88.67a371.11,371.11,0,0,1,38.21,1.66,180.34,180.34,0,0,1,28.75,5.25q35.77,9.72,54.69,33.13t18.91,58.46q0,20.71-6.65,37.09a84.92,84.92,0,0,1-18.68,28.4,97.92,97.92,0,0,1-28.78,19.7,152,152,0,0,1-37.23,11.26v1l101.32,146.34H4828.5L4723.1,3974Zm0-163v125.36h41.19q19.19,0,32.74-1.28a120.35,120.35,0,0,0,24.31-4.61q21.74-6.64,33.51-21.23t11.77-38.12q-.26-22-11.25-35.43t-30.45-19.32a114.82,114.82,0,0,0-22-4.09q-12.8-1.29-32.49-1.28Z"/></svg>