<svg xmlns="http://www.w3.org/2000/svg" xmlns:xlink="http://www.w3.org/1999/xlink" width="428" height="120" xmlns:v="https://vecta.io/nano"><g fill-rule="evenodd"><g fill="#737374"><path d="M159.299 29.977c0 .415-.145.645-.482.645-.289 0-.531-.368-.675-1.152-.386-2.166-1.157-3.779-2.314-4.747-.771-.645-1.88-1.014-3.471-1.198-.579-.046-1.832-.093-3.76-.093l-5.158.138v13.135c4.001.046 6.459-.23 7.375-.737s1.494-1.982 1.687-4.425c.048-.691.241-1.014.579-1.014.289 0 .482.23.482.691 0 .277 0 .507-.048.691l-.145 5.715.145 5.346c.048.138.048.277.048.553 0 .368-.145.553-.482.553-.241 0-.386-.093-.482-.277-.048-.184-.193-.875-.338-2.074-.241-1.798-.723-2.95-1.446-3.411s-2.169-.691-4.338-.691l-3.037.093v13.32c0 .875.338 1.429 1.06 1.659.338.138 1.108.184 2.266.138.482 0 .723.138.723.368 0 .277-.289.415-.915.415h-10.701c-.579 0-.867-.138-.867-.368s.531-.368 1.591-.461c1.06-.046 1.687-.184 1.88-.415s.289-.922.289-2.074V24.585c-.048-.553-.193-.875-.482-1.014s-1.108-.23-2.458-.23c-.482 0-.771-.138-.771-.461 0-.277.289-.415.819-.415h.771c-.048 0 1.446 0 4.531 0h7.567l9.689-.277.289 3.364.386 3.364c.193.415.193.737.193 1.06h0 0zm31.717 8.25c0 4.425-1.398 8.204-4.193 11.245-2.795 3.088-6.218 4.609-10.267 4.609-4.29 0-7.905-1.567-10.845-4.655-2.94-3.134-4.386-6.959-4.386-11.522s1.398-8.434 4.241-11.43c2.844-2.95 6.411-4.47 10.845-4.47 4.145 0 7.616 1.567 10.412 4.655 2.795 3.134 4.193 7.005 4.193 11.568h0 0zm-5.254.23c0-5.484-1.157-9.725-3.519-12.766-1.446-1.889-3.519-2.857-6.121-2.857s-4.434.737-5.784 2.212c-2.506 2.673-3.808 7.052-3.808 13.135 0 4.793.867 8.572 2.651 11.199 1.784 2.673 4.241 4.009 7.423 4.009 2.94 0 5.206-1.245 6.7-3.779 1.639-2.811 2.458-6.498 2.458-11.153h0v.001zm34.995 13.78c0 1.245-1.108 1.889-3.278 1.889-2.41 0-4.338-.968-5.688-2.904-.579-.83-.964-1.659-1.157-2.397-.193-.784-.434-2.719-.771-5.899-.193-1.889-.819-3.272-1.928-4.056s-2.892-1.198-5.351-1.291v14.102c0 .6.482.968 1.494 1.106.289.046 1.012.046 2.169.093.386 0 .627.138.627.368 0 .277-.289.415-.771.415h-10.99c-.675 0-1.012-.138-1.012-.415 0-.23.434-.323 1.349-.368 1.446-.046 2.266-.23 2.362-.553.145-.138.193-.737.193-1.752V25.922c0-1.198-.145-1.889-.386-2.166-.289-.23-1.06-.368-2.41-.415-.771 0-1.157-.138-1.157-.415s.241-.461.771-.461a1.73 1.73 0 0 1 .434.046l6.218.138 2.603-.046 2.603-.138c2.892 0 5.206.6 6.893 1.843s2.554 2.904 2.554 5.023-.867 3.825-2.603 5.162-4.097 2.166-7.086 2.397c-.289.046-.434.093-.482.138 0 .138.145.184.482.184 3.278.553 5.544 1.659 6.748 3.272 1.253 1.659 2.073 4.655 2.458 8.987.241 2.443 1.108 3.687 2.603 3.687.482 0 .723-.093.723-.277 0-.031-.016-.062-.048-.093-.145-.323-.241-.6-.241-.784 0-.645.338-.922 1.012-.922.675.046 1.06.415 1.06 1.152h0 .003zm-9.689-22.399c0-4.24-1.928-6.406-5.784-6.406-1.012 0-1.735.138-2.121.415s-.579.737-.579 1.429v11.338c2.988.046 5.158-.507 6.459-1.567 1.349-1.06 2.025-2.811 2.025-5.208h0 0zm40.105-6.866c0 .23-.289.368-.819.368h-1.591c-.771 0-1.253.184-1.398.6-.048.23-.096.553-.096 1.014v16.729c0 4.332-.867 7.512-2.554 9.494s-4.434 2.95-8.194 2.95c-4.531 0-7.712-1.245-9.544-3.687-1.205-1.659-1.832-4.332-1.832-8.111V24.447c-.096-.553-.482-.875-1.157-.968-.193-.046-.771-.046-1.735-.046-.531-.046-.819-.23-.819-.461 0-.277.241-.415.675-.415h10.509c.531 0 .771.184.771.507a.32.32 0 0 1-.289.368c-.193.046-.819.046-1.88.093-.434 0-.723.046-.867.093-.289.138-.482.323-.531.645-.048.138-.048.968-.048 2.534V42.79c0 3.918.675 6.591 1.977 8.019s3.278 2.12 5.832 2.12c4.724 0 7.423-2.581 8.05-7.697.096-.784.145-4.056.145-9.816V24.77c0-.645-.338-1.06-.964-1.198-.193-.046-.867-.093-1.88-.093-.627 0-.915-.184-.915-.507 0-.277.241-.415.675-.415h7.423c.723 0 1.06.138 1.06.415h0-.002zm35.38 30.325c0 .23-.338.368-.964.368h-11.665c-.675 0-.964-.138-.964-.415s.434-.461 1.349-.461c1.591 0 2.554-.184 2.892-.507.145-.138.241-1.152.241-2.996v-23.18c0 .046-.193.553-.579 1.567l-5.447 16.269-2.169 7.098c-.434 1.382-.771 2.12-.915 2.12-.241 0-.434-.368-.723-1.06-.915-2.719-3.422-9.494-7.616-20.325l-1.88-4.747V43.85c0 5.438.048 8.204.145 8.25.241.368.964.6 2.266.6 1.012 0 1.542.138 1.542.461s-.338.507-.964.507c-.386 0-.771-.046-1.108-.093-.434-.046-.819-.093-1.157-.093l-5.399.184c-.579 0-.819-.138-.819-.415s.867-.461 2.651-.507c.771 0 1.205-.138 1.301-.368.145-.23.193-1.014.193-2.35V28.64c0-2.489-.048-3.825-.096-4.009-.145-.415-.386-.691-.771-.83s-1.301-.277-2.603-.368c-.482-.046-.771-.184-.771-.415 0-.323.434-.507 1.349-.507h3.278l3.905-.046 2.699 7.052c.723 1.798 2.699 7.005 5.977 15.67.579-1.936 1.205-3.871 1.832-5.715l5.013-14.794c.289-.83.579-1.567.819-2.12l6.941-.046c1.012 0 1.591.046 1.735.138a.48.48 0 0 1 .241.415c0 .277-.241.461-.771.461-.867 0-1.446.046-1.784.093-.771.138-1.253.368-1.542.737-.145.23-.241 1.936-.241 5.254v20.831c0 1.198.145 1.889.386 2.12.386.277 1.398.415 3.037.415h.289c.531-.046.867.046.867.323h0 .002zM145.32 98.602c0 .23-.145.323-.482.323h-.386c-.145-.093-1.928-.093-5.399-.093l-1.976.093c-.338.046-.867.046-1.591.046-.338 0-.531-.093-.531-.323 0-.184.338-.323 1.012-.323 1.06-.046 1.687-.138 1.88-.368s.289-.922.289-2.166V75.835c0-1.245-.048-1.936-.193-2.074-.145-.23-.915-.415-2.218-.461-.531 0-.771-.093-.771-.277s.145-.323.482-.323h5.399l2.314.046 1.494-.046c.434 0 .627.093.627.323 0 .184-.579.323-1.784.368-.675.046-1.06.138-1.205.323s-.241.737-.241 1.567v20.186c0 1.429.048 2.212.193 2.35.289.277 1.157.461 2.554.507.386-.046.531.046.531.277h0 .002zm26.415-25.579c0 .23-.338.368-1.012.323h-1.591c-.434 0-.675.093-.771.23s-.096.553-.096 1.245v21.754l-.048 2.35c-.048.23-.096.323-.241.323s-.338-.138-.531-.415l-5.061-7.052-10.701-15.439v21.154c.048.323.241.553.579.645.386.093 1.253.138 2.699.184.338 0 .531.093.531.323s-.338.368-1.012.368c-.241 0-1.012-.046-2.266-.093-.434-.046-.819-.046-1.205-.046.048 0-.193.046-.675.093s-1.253.093-2.218.093h-.386c-.627 0-.915-.093-.915-.323s.241-.323.771-.323c1.542-.046 2.458-.138 2.699-.277.241-.184.386-.691.386-1.613V77.723c0-2.074-.434-3.411-1.349-3.918-.434-.23-1.157-.368-2.266-.368-.675 0-1.012-.138-1.012-.415 0-.23.193-.368.579-.368l2.025.093 1.301.093 1.108-.046 2.506-.093 13.642 19.449V75.328l-.048-1.429s-.145-.277-.338-.368-.819-.138-1.88-.138c-.964 0-1.446-.093-1.446-.323s.338-.368.964-.368h6.411c.579-.046.867.093.867.323h0l-.002-.002zm23.089 6.406c0 .323-.145.507-.482.507s-.531-.323-.675-.968l-.145-1.382c-.193-.922-.482-1.659-.915-2.304-.531-.83-1.446-1.382-2.747-1.567-.819-.138-1.494-.23-1.976-.184l-2.266.093v22.813c0 .922.241 1.475.771 1.705.241.138 1.012.184 2.218.23.338.046.482.138.482.323 0 .23-.193.323-.627.323-.193 0-.386 0-.531-.046l-3.374-.093-2.458.046-2.94.046c-.627 0-.915-.093-.915-.323s.579-.368 1.687-.368c.819 0 1.349-.184 1.591-.507.145-.184.193-.737.193-1.567V73.578c-2.603.046-4.241.138-4.868.368-1.639.6-2.651 2.12-2.94 4.655-.096.737-.241 1.152-.531 1.152-.338 0-.482-.277-.482-.784 0-.277 0-.553.048-.83l.096-.875.338-4.563h1.784l8.05.093h4.434l6.556-.093c.048 1.429.241 3.502.531 6.268 0 .093 0 .184.048.277s.048.138.048.184h0l-.003-.002zm22.8 13.412c0 .093-.048.737-.096 1.843l-.096 3.272V99.2c-2.603-.138-7.712-.23-15.329-.23h-4.917c-.482 0-.771-.093-.771-.323 0-.138.096-.23.241-.23.096 0 .579-.046 1.494-.093.675-.046 1.108-.184 1.253-.415s.241-.83.241-1.798V74.819c0-.737-.096-1.152-.338-1.291s-.964-.23-2.169-.23c-.434 0-.627-.093-.627-.323s.289-.323.867-.323h16.775a16.13 16.13 0 0 0 2.169-.138c.048 1.106.193 2.581.338 4.516l.145 1.613c.048.138.048.277.048.507s-.096.368-.338.368c-.289 0-.482-.323-.627-.968-.482-2.304-1.301-3.733-2.458-4.332-.867-.461-3.037-.691-6.652-.691h-3.23v11.107h.964c2.94 0 4.772-.23 5.399-.645s1.108-1.659 1.301-3.733c.048-.507.193-.784.434-.784.289 0 .434.23.434.691s-.048 1.106-.096 1.982l-.096 1.982c0 2.673.048 4.563.145 5.577 0 .23.048.461.048.645 0 .323-.145.507-.434.507-.193 0-.289-.093-.386-.323-.048-.23-.193-.922-.338-2.12-.193-1.475-.867-2.397-1.928-2.766-.482-.138-1.687-.23-3.712-.23H203.5v12.674c5.784 0 9.206-.093 10.219-.323 1.735-.368 2.747-1.982 2.988-4.793.048-.6.241-.922.531-.922s.386.277.386.784h0l.001.003zm24.293 4.931c0 1.06-.915 1.567-2.747 1.567-2.073 0-3.664-.83-4.82-2.443-.482-.691-.819-1.382-.964-2.028s-.386-2.304-.675-4.977c-.145-1.613-.675-2.766-1.639-3.411-.915-.645-2.41-1.014-4.483-1.06v11.89c0 .507.434.83 1.253.922.241.046.819.046 1.832.093.338 0 .531.093.531.323s-.241.323-.675.323h-9.303c-.579 0-.867-.093-.867-.323 0-.184.386-.277 1.157-.323 1.253-.046 1.928-.184 2.025-.461.096-.138.145-.6.145-1.475V75.511c0-1.014-.096-1.613-.338-1.798s-.915-.323-2.025-.323c-.675 0-.964-.093-.964-.323s.193-.368.627-.368a.98.98 0 0 1 .338.046l5.254.093 2.218-.046 2.218-.093c2.458 0 4.386.507 5.832 1.567s2.169 2.443 2.169 4.24-.723 3.226-2.218 4.378-3.471 1.843-6.025 2.028c-.241.046-.386.046-.386.093 0 .093.145.138.386.138 2.747.461 4.675 1.382 5.688 2.766 1.06 1.382 1.735 3.918 2.073 7.604.193 2.074.964 3.088 2.218 3.088.386 0 .579-.093.579-.23 0-.031-.016-.062-.048-.093-.145-.277-.193-.507-.193-.691 0-.507.289-.784.867-.784.627.046.964.368.964.968h0l-.001.002zm-8.194-18.895c0-3.595-1.639-5.393-4.917-5.393-.867 0-1.446.093-1.784.323s-.482.645-.482 1.198v9.586c2.506.046 4.338-.415 5.495-1.336 1.108-.875 1.687-2.35 1.687-4.378h0 .001z"/><use xlink:href="#B"/><path d="M293.157 98.693c0 .23-.193.323-.579.323-.241 0-.482 0-.723-.046l-5.013-.138-5.013.138c-.193.046-.386.046-.579.046-.531 0-.771-.138-.771-.415s.338-.415 1.06-.415c2.314-.046 3.471-.23 3.471-.645 0-.046-.048-.138-.096-.277l-.338-1.014-.193-.507-1.735-5.162h-8.436c-1.591 4.009-2.362 6.36-2.362 6.959 0 .368.145.553.482.645.096.046.723.093 1.977.138.771.046 1.157.138 1.157.368s-.338.368-1.012.368c-1.205 0-2.603-.046-4.241-.138-.386-.046-.819-.046-1.205-.046a5.1 5.1 0 0 0-1.205.138c-.193.046-.386.046-.531.046-.386 0-.531-.093-.531-.323s.434-.368 1.253-.368c.819-.046 1.446-.138 1.784-.368.386-.23.675-.645.867-1.245l8.291-22.399c.048-.277.193-.645.386-1.014l.193-.691c.096-.277.193-.415.338-.415.096 0 .145.093.193.23l2.314 6.175 7.086 18.389c.193.553.482.922.819 1.106.338.138 1.012.23 2.025.277.531-.093.867.046.867.277h0l-.001.001zm-10.701-9.079l-2.121-5.623-1.88-5.254c-1.108 2.766-2.458 6.406-4.001 10.877h8.001 0zm31.524-10.185c0 .323-.145.507-.482.507s-.531-.323-.675-.968l-.145-1.382c-.193-.922-.482-1.659-.915-2.304-.531-.83-1.446-1.382-2.747-1.567-.819-.138-1.494-.23-1.976-.184l-2.266.093v22.813c0 .922.241 1.475.771 1.705.241.138 1.012.184 2.218.23.338.046.482.138.482.323 0 .23-.193.323-.627.323-.193 0-.386 0-.531-.046l-3.374-.093-2.458.046-2.94.046c-.627 0-.915-.093-.915-.323s.579-.368 1.687-.368c.819 0 1.349-.184 1.591-.507.145-.184.193-.737.193-1.567V73.578c-2.603.046-4.241.138-4.868.368-1.639.6-2.651 2.12-2.94 4.655-.096.737-.241 1.152-.531 1.152-.338 0-.482-.277-.482-.784 0-.277 0-.553.048-.83l.096-.875.338-4.563h1.784l8.05.093h4.434l6.556-.138c.048 1.429.241 3.502.531 6.268 0 .093 0 .184.048.277 0 .138.048.184.048.23h0l-.003-.003zm11.954 19.173c0 .23-.145.323-.482.323h-.386c-.145-.093-1.928-.093-5.399-.093l-1.977.093c-.338.046-.867.046-1.591.046-.338 0-.531-.093-.531-.323 0-.184.338-.323 1.012-.323 1.06-.046 1.687-.138 1.88-.368s.289-.922.289-2.166V75.835c0-1.245-.048-1.936-.193-2.074-.145-.23-.915-.415-2.218-.461-.531 0-.771-.093-.771-.277s.145-.323.482-.323h5.399l2.314.046 1.494-.046c.434 0 .627.093.627.323 0 .184-.579.323-1.784.368-.675.046-1.06.138-1.205.323s-.241.737-.241 1.567v20.186c0 1.429.048 2.212.193 2.35.289.277 1.157.461 2.554.507.386-.046.531.046.531.277h0 .003zm27.813-12.629c0 3.733-1.157 6.913-3.519 9.54-2.362 2.581-5.254 3.871-8.677 3.871-3.615 0-6.7-1.336-9.158-3.964s-3.712-5.899-3.712-9.725 1.205-7.143 3.567-9.679c2.362-2.489 5.447-3.779 9.158-3.779 3.519 0 6.459 1.291 8.821 3.918 2.362 2.673 3.519 5.945 3.519 9.816h0l.001.001zm-4.386.184c0-4.609-.964-8.204-2.988-10.784-1.253-1.613-2.94-2.443-5.158-2.443s-3.76.6-4.917 1.843c-2.121 2.259-3.181 5.991-3.181 11.107 0 4.056.723 7.236 2.218 9.494s3.567 3.364 6.266 3.364c2.506 0 4.386-1.06 5.64-3.18 1.398-2.35 2.121-5.484 2.121-9.402h0 0z"/><use xlink:href="#B" x="113.757"/><path d="M406.913 98.693c0 .23-.193.323-.579.323-.241 0-.482 0-.723-.046l-5.013-.138-5.013.138c-.193.046-.386.046-.579.046-.531 0-.771-.138-.771-.415s.338-.415 1.06-.415c2.314-.046 3.471-.23 3.471-.645 0-.046-.048-.138-.096-.277l-.338-1.014-.193-.507-1.735-5.162h-8.436c-1.591 4.009-2.362 6.36-2.362 6.959 0 .368.145.553.482.645.096.046.723.093 1.977.138.771.046 1.157.138 1.157.368s-.338.368-1.012.368c-1.205 0-2.603-.046-4.241-.138-.386-.046-.819-.046-1.205-.046a5.1 5.1 0 0 0-1.205.138c-.193.046-.386.046-.531.046-.386 0-.531-.093-.531-.323s.434-.368 1.253-.368c.819-.046 1.446-.138 1.784-.368.386-.23.675-.645.867-1.245l8.291-22.399c.048-.277.193-.645.386-1.014l.193-.691c.096-.277.193-.415.338-.415.096 0 .145.093.193.23l2.314 6.175 7.086 18.389c.193.553.482.922.819 1.106.338.138 1.012.23 2.025.277.531-.093.867.046.867.277h0l-.001.001zm-10.701-9.079l-2.121-5.623-1.88-5.254c-1.108 2.766-2.458 6.406-4.001 10.877h8.001z"/><path d="M427.062 95.928l-.096 3.272h-.434c-.145 0-.531-.046-1.157-.093l-2.073-.093-16.389-.093c-.434 0-.675-.093-.675-.323 0-.184.338-.277 1.06-.323 1.012-.046 1.591-.138 1.784-.323s.289-.645.289-1.429V75.279c0-.922-.096-1.475-.289-1.613s-.915-.23-2.121-.23c-.482 0-.771-.138-.771-.415 0-.23.145-.323.482-.323h.338c.867.093 2.603.093 5.158.093l1.398-.046 1.687-.046h.434c.482 0 .723.138.723.368 0 .138-.096.23-.241.277s-.579.093-1.349.093c-.771.046-1.205.138-1.349.368s-.241.875-.241 1.982v22.306l2.988.046c3.085 0 5.254-.138 6.507-.461s2.121-.875 2.554-1.705.723-1.936.771-3.364c.048-.323.193-.507.434-.507.338 0 .482.184.434.553v3.272h.145l-.001.003zm-93.753-66.653c0 2.028-.627 3.733-1.88 5.116s-2.795 2.074-4.675 2.074-3.615-.691-4.917-2.12c-1.349-1.429-1.976-3.134-1.976-5.208s.627-3.825 1.928-5.162 2.892-2.028 4.917-2.028c1.88 0 3.471.691 4.724 2.12 1.205 1.382 1.88 3.134 1.88 5.208h0l-.001.001zm-2.41.093c0-2.489-.531-4.425-1.591-5.807-.675-.875-1.591-1.291-2.795-1.291-1.108 0-2.025.323-2.651 1.014-1.157 1.198-1.735 3.226-1.735 5.945 0 2.166.386 3.871 1.205 5.07s1.928 1.798 3.374 1.798c1.349 0 2.362-.553 3.037-1.705.771-1.245 1.157-2.904 1.157-5.023h0-.001zm14.798-3.873c0 .184-.048.277-.193.277s-.241-.184-.289-.507c-.193-.968-.531-1.705-1.06-2.166-.338-.277-.867-.461-1.591-.553-.241-.046-.819-.046-1.687-.046l-2.314.046v6.038c1.832 0 2.94-.093 3.374-.323s.675-.922.771-1.982c.048-.323.096-.461.241-.461s.193.093.193.323v.323l-.048 2.581.048 2.443v.23c0 .184-.048.23-.193.23-.096 0-.193-.046-.193-.138s-.096-.415-.145-.922c-.096-.83-.338-1.336-.675-1.521s-1.012-.323-1.976-.323l-1.349.046v6.038c0 .415.145.645.482.737.145.046.482.093 1.012.046.241 0 .338.046.338.184s-.145.184-.434.184h-4.868c-.289 0-.386-.046-.386-.184 0-.093.241-.184.723-.184.482-.046.771-.093.867-.184s.145-.415.145-.968V23.053c0-.23-.096-.415-.241-.461s-.482-.093-1.108-.093c-.241 0-.338-.046-.338-.184s.145-.184.386-.184h.338c-.048 0 .675 0 2.025 0h3.422l4.386-.138c0 .184.048.691.145 1.521l.193 1.521v.461h0l-.002-.002zm17.594 6.176c0 1.705-.819 2.95-2.41 3.779-.771.415-1.88.645-3.374.737l-3.519.046h-3.181c-.289 0-.434-.093-.434-.23s.289-.23.819-.23c.627 0 1.012-.046 1.108-.184s.193-.507.193-1.152V21.026c0-.737-.048-1.152-.096-1.291-.145-.184-.579-.323-1.349-.323-.482 0-.723-.093-.723-.277 0-.138.193-.23.627-.23h.289c.193.046.386.093.531.093h5.061c1.88 0 3.278.323 4.193.875 1.06.691 1.591 1.659 1.591 2.95 0 1.106-.434 2.074-1.349 2.766-.867.737-2.121 1.152-3.712 1.336v.138c1.591.093 2.795.415 3.712.968 1.398.83 2.025 2.074 2.025 3.641h0-.002zm-3.471-8.572c0-1.613-.386-2.673-1.157-3.18-.386-.277-1.157-.415-2.266-.415-.289 0-.771.046-1.398.093v7.236h.241l1.446-.046c1.012-.046 1.735-.368 2.314-1.014s.819-1.567.819-2.673h0 .001zm.771 8.342c0-2.074-.867-3.364-2.651-3.871-.531-.138-1.494-.23-2.892-.23v7.42c0 .461.048.737.145.83.193.138.675.184 1.446.184 1.205 0 2.169-.368 2.844-1.106.723-.784 1.108-1.843 1.108-3.226h0 0zm10.027 4.609c0 .093-.096.184-.241.184h-.193c-.096-.046-1.06-.046-2.892-.046l-1.06.046h-.867c-.193 0-.289-.046-.289-.184 0-.093.193-.184.531-.184.579 0 .915-.093 1.012-.184s.145-.507.145-1.152V23.791c0-.645-.048-1.06-.096-1.106-.096-.138-.482-.23-1.205-.23-.289 0-.386-.046-.386-.138s.096-.138.241-.138h4.965c.241 0 .338.046.338.184 0 .093-.338.184-.964.184-.338 0-.579.093-.675.184s-.096.415-.096.83v10.831c0 .784.048 1.198.096 1.245.145.138.627.23 1.398.277.145-.046.241.046.241.138h0l-.002-.002zm11.664-3.503c0 1.382-.675 2.397-1.977 3.041-.627.323-1.542.507-2.747.6h-5.495c-.241 0-.338-.046-.338-.184 0-.093.241-.184.675-.184.531 0 .819-.046.915-.138s.145-.415.145-.922V23.837c0-.6-.048-.922-.096-1.014-.096-.184-.482-.23-1.06-.277-.386 0-.579-.093-.579-.23s.193-.184.531-.184h.241c.145.046.289.046.434.046h4.145c1.542 0 2.651.277 3.422.737.867.553 1.301 1.336 1.301 2.397a2.77 2.77 0 0 1-1.06 2.259c-.723.6-1.735.968-3.037 1.106v.138c1.301.093 2.314.323 2.988.784 1.06.645 1.591 1.613 1.591 2.95h0 .001zm-2.844-7.005c0-1.291-.289-2.166-.915-2.581-.338-.23-.964-.323-1.832-.323l-1.108.046v5.899h.193l1.157-.046c.819-.046 1.446-.323 1.88-.83.434-.553.627-1.245.627-2.166h0l-.001.001zm.627 6.775c0-1.705-.723-2.766-2.169-3.18-.434-.138-1.205-.184-2.362-.184v6.038c0 .415.048.6.145.691.145.093.531.138 1.205.138.964 0 1.735-.277 2.314-.875s.867-1.475.867-2.627h0-.001zm14.943 2.304l-.048 1.752h-.241c-.096 0-.289 0-.627-.046s-.675-.046-1.108-.046l-8.773-.046c-.241 0-.338-.046-.338-.184 0-.093.193-.138.579-.184.531-.046.867-.093.964-.184s.145-.323.145-.784V23.514c0-.507-.048-.784-.145-.875s-.482-.138-1.157-.138c-.289 0-.386-.093-.386-.23s.096-.184.241-.184h.193c.482.046 1.398.046 2.795.046.145 0 .386 0 .723-.046.386 0 .675-.046.915-.046h.241c.241 0 .386.046.386.184 0 .093-.048.138-.096.138s-.338.046-.723.046c-.434 0-.675.093-.723.184-.096.093-.096.461-.096 1.06v11.983h1.591c1.639 0 2.844-.093 3.519-.23.675-.184 1.157-.461 1.398-.922s.386-1.06.434-1.798c0-.184.096-.277.241-.277.193 0 .241.093.241.323v1.889h-.145-.001zm12.146-1.66l-.048 1.014c-.048.6-.048 1.198-.048 1.752v.691l-8.243-.138h-2.603c-.289 0-.386-.046-.386-.184 0-.093.048-.093.145-.138.048 0 .289 0 .819-.046.386-.046.579-.093.675-.23s.096-.461.096-.968v-11.43c0-.415-.048-.645-.193-.691s-.482-.093-1.157-.093c-.241 0-.338-.046-.338-.184 0-.093.145-.184.482-.184h9.014c.434 0 .819-.046 1.157-.093l.193 2.397.096.875v.277c0 .138-.048.184-.193.184s-.289-.184-.338-.507c-.289-1.245-.723-1.982-1.301-2.304-.434-.23-1.639-.368-3.567-.368h-1.735v5.945h.531c1.591 0 2.554-.093 2.892-.323s.579-.922.723-2.028c.048-.277.096-.415.241-.415s.241.138.241.368l-.048 1.06c-.048.461-.048.83-.048 1.06l.048 2.996v.323c0 .184-.096.277-.241.277-.096 0-.145-.046-.193-.184-.048-.093-.096-.507-.193-1.106-.096-.784-.482-1.291-1.012-1.475-.241-.093-.915-.138-1.977-.138h-.964v6.775l5.495-.184c.915-.184 1.446-1.06 1.591-2.581.048-.323.096-.507.289-.507 0 .093.096.23.096.507h0l.003-.003z"/><path d="M324.874 58.46c0 .138-.096.184-.386.184h-.434l-3.085-.093-3.037.093h-.386c-.338 0-.482-.093-.482-.23 0-.184.241-.277.627-.277 1.398 0 2.121-.138 2.121-.415 0 0 0-.093-.048-.184l-.193-.6-.145-.323-1.06-3.18h-5.158l-1.446 4.24c0 .23.096.368.289.415.048 0 .434.046 1.205.093.482 0 .675.093.675.23s-.193.23-.627.23c-.723 0-1.591-.046-2.554-.093-.241 0-.482-.046-.723-.046s-.531.046-.771.093c-.145.046-.241.046-.289.046-.241 0-.338-.046-.338-.23 0-.138.241-.23.771-.23.482 0 .867-.093 1.108-.23s.386-.368.531-.737l5.061-13.642c.048-.184.096-.368.241-.6l.096-.415c.048-.184.096-.277.193-.277.048 0 .096.046.096.138l1.398 3.733 4.338 11.245c.145.368.289.553.482.645s.627.138 1.253.184c.482.046.675.138.675.23h0l.002.003zm-6.507-5.484l-1.301-3.457-1.157-3.18-2.458 6.636h4.917 0zm20.003 1.382a.17.17 0 0 1-.193.184h-.482c-.627-.046-1.012.093-1.108.323-.048.184-.096.737-.096 1.752v.645c-.723.6-1.398 1.014-2.073 1.245s-1.494.368-2.41.368c-2.218 0-4.001-.645-5.302-1.936s-1.976-2.996-1.976-5.208.627-4.009 1.928-5.393 2.988-2.028 5.11-2.028c.915 0 1.928.23 2.988.737.338.138.579.23.819.23.289 0 .434-.184.531-.507.048-.184.145-.277.241-.277s.193.046.193.184c0 .046 0 .184-.048.415-.096.784-.096 1.336-.096 1.659v1.982c-.048.323-.096.507-.289.507-.145 0-.193-.093-.193-.277-.048-1.336-.482-2.35-1.205-3.088s-1.687-1.152-2.844-1.152c-1.494 0-2.651.645-3.471 1.889s-1.301 2.996-1.301 5.162.434 3.733 1.301 4.977 2.025 1.843 3.519 1.843c1.108 0 1.928-.323 2.314-.922.193-.323.338-.875.338-1.659 0-.691-.048-1.06-.193-1.198s-.579-.184-1.398-.184c-.193 0-.338 0-.386-.046s-.096-.046-.096-.138c0-.138.145-.23.482-.23h5.013c.241-.046.386.046.386.138h0l-.002.001zm11.472 1.013l-.048 1.014c-.048.6-.048 1.198-.048 1.752v.691l-8.243-.138H338.9c-.289 0-.386-.046-.386-.184 0-.093.048-.093.145-.138.048 0 .289 0 .819-.046.386-.046.579-.093.675-.23s.096-.461.096-.968v-11.43c0-.415-.048-.645-.193-.691-.096-.093-.482-.093-1.157-.093-.241 0-.338-.046-.338-.184 0-.093.145-.184.482-.184h9.014c.434 0 .819-.046 1.157-.093l.193 2.397.096.875v.277c0 .138-.048.184-.193.184s-.289-.184-.338-.507c-.289-1.245-.723-1.982-1.301-2.304-.434-.23-1.639-.368-3.567-.368h-1.832v5.945h.531c1.591 0 2.554-.093 2.892-.323s.579-.922.723-2.028c.048-.277.096-.415.241-.415s.241.138.241.368l-.048 1.06c-.048.461-.048.83-.048 1.06l.048 2.996v.323c0 .184-.096.277-.241.277-.096 0-.145-.046-.193-.184-.048-.093-.096-.507-.193-1.106-.096-.784-.434-1.291-1.012-1.475-.241-.093-.915-.138-1.977-.138h-.964v6.775l5.495-.184c.915-.184 1.446-1.06 1.591-2.581.048-.323.096-.507.289-.507.096.093.193.23.193.507h0l.003-.003zm14.027-10.645c0 .138-.193.184-.531.184h-.819c-.241 0-.338.046-.386.093s-.048.323-.048.691v12.904c0 .138-.048.184-.145.184s-.193-.093-.289-.23l-2.699-3.779c-1.591-2.212-3.471-4.977-5.736-8.296v11.338c0 .184.145.277.338.323s.675.093 1.446.093c.193 0 .289.046.289.184s-.193.184-.531.184c-.145 0-.531 0-1.205-.046h-.675s-.096 0-.386.046c-.241.046-.675.046-1.205.046h-.193c-.338 0-.482-.046-.482-.184s.145-.184.434-.184c.819 0 1.301-.046 1.446-.138s.193-.368.193-.875V47.262c0-1.106-.241-1.843-.723-2.12-.241-.138-.627-.184-1.205-.184-.386 0-.531-.093-.531-.23s.096-.184.338-.184c.289 0 .627 0 1.06.046s.675.046.723.046h.579c.482 0 .915 0 1.349-.046l7.327 10.462v-9.816c0-.093-.048-.138-.193-.184-.096-.046-.434-.093-1.012-.093-.531 0-.771-.046-.771-.184s.193-.184.531-.184h3.374c.193-.046.338 0 .338.138h0l.002-.003zm13.208 9.401c0-.046 0 .138-.048.553l-.096 2.259a2.63 2.63 0 0 0 .048.507c.048.23.048.553.048.922v.184c0 .184-.048.277-.193.277-.096 0-.193-.093-.289-.323-.193-.461-.386-.737-.579-.875-1.012.83-2.218 1.291-3.664 1.291-2.073 0-3.808-.691-5.158-2.074s-2.025-3.134-2.025-5.254.627-3.871 1.88-5.208 2.844-2.028 4.868-2.028c.723 0 1.301.046 1.735.184.434.093.964.368 1.591.691.289.184.531.277.723.277.145 0 .241-.093.338-.323.193-.368.338-.553.434-.553s.193.046.193.184c0 .046 0 .138-.048.277-.145.645-.241 1.843-.241 3.641 0 .277 0 .415-.048.461s-.096.046-.193.046c-.145 0-.241-.138-.289-.368-.193-1.06-.434-1.889-.771-2.397-.675-1.06-1.784-1.613-3.278-1.613-1.157 0-2.073.368-2.699 1.106-1.205 1.291-1.784 3.226-1.784 5.761 0 2.259.482 4.009 1.494 5.254.867 1.06 2.025 1.613 3.422 1.613.723 0 1.398-.184 2.025-.507s1.06-.83 1.398-1.429c.386-.691.627-1.429.771-2.259.048-.323.145-.507.289-.507.096-.093.145 0 .145.23h0 .001zm7.037 4.333c0 .093-.096.184-.241.184h-.193c-.096-.046-1.06-.046-2.892-.046l-1.06.046h-.867c-.193 0-.289-.046-.289-.184 0-.093.193-.184.531-.184.579 0 .915-.093 1.012-.184s.145-.507.145-1.152V46.247c0-.645-.048-1.06-.096-1.106-.096-.138-.482-.23-1.205-.23-.289 0-.386-.046-.386-.138s.096-.138.241-.138h4.965c.241 0 .338.046.338.184 0 .093-.338.184-.964.184-.338 0-.579.093-.675.184s-.096.415-.096.83v10.831c0 .784.048 1.198.096 1.245.145.138.627.23 1.398.277.145-.093.241 0 .241.093h0l-.002-.002zm12.485-3.089l-.048 1.014c-.048.6-.048 1.198-.048 1.752v.691l-8.243-.138h-2.603c-.289 0-.386-.046-.386-.184 0-.093.048-.093.145-.138.048 0 .289 0 .819-.046.386-.046.579-.093.675-.23s.096-.461.096-.968v-11.43c0-.415-.048-.645-.193-.691s-.482-.093-1.157-.093c-.241 0-.338-.046-.338-.184 0-.093.145-.184.482-.184h9.014c.434 0 .819-.046 1.157-.093l.193 2.397.096.875v.277c0 .138-.048.184-.193.184s-.289-.184-.338-.507c-.289-1.245-.723-1.982-1.301-2.304-.434-.23-1.639-.368-3.567-.368h-1.832v5.945h.531c1.591 0 2.554-.093 2.892-.323s.579-.922.723-2.028c.048-.277.096-.415.241-.415s.241.138.241.368l-.048 1.06c-.048.461-.048.83-.048 1.06l.048 2.996v.323c0 .184-.096.277-.241.277-.096 0-.145-.046-.193-.184-.048-.093-.096-.507-.193-1.106-.096-.784-.482-1.291-1.012-1.475-.241-.093-.915-.138-1.977-.138h-.964v6.775l5.495-.184c.915-.184 1.446-1.06 1.591-2.581.048-.323.096-.507.289-.507.096.093.193.23.193.507h0l.003-.003zm10.363-.691c0 1.152-.482 2.166-1.398 2.95-.915.83-2.025 1.245-3.326 1.245-.771 0-1.687-.23-2.747-.691-.289-.138-.482-.184-.627-.184-.193 0-.289.184-.338.553 0 .184-.096.277-.289.277-.145 0-.193-.093-.193-.23v-.23l.193-2.304-.048-1.152v-.323c0-.184.096-.323.241-.323s.241.184.289.507c.386 2.443 1.542 3.641 3.567 3.641.867 0 1.542-.23 2.025-.691s.723-1.106.723-1.982c0-.737-.241-1.382-.675-1.936-.482-.553-1.253-1.06-2.362-1.613-1.349-.645-2.266-1.245-2.795-1.843s-.771-1.336-.771-2.212c0-1.106.386-2.028 1.157-2.766s1.735-1.106 2.892-1.106c.482 0 1.157.138 1.977.461.289.093.531.184.675.184s.241-.046.289-.093.096-.184.145-.415c.048-.138.096-.184.241-.184s.193.093.193.23v.23c-.048.323-.048.737-.048 1.198 0 .645.048 1.152.096 1.521v.323c0 .138-.048.23-.193.23s-.241-.138-.338-.461a3.45 3.45 0 0 0-1.108-1.982 2.73 2.73 0 0 0-1.928-.784c-.723 0-1.253.23-1.687.645s-.627 1.014-.627 1.752c0 .875.289 1.567.915 2.074.338.277 1.06.737 2.218 1.245 1.349.645 2.266 1.291 2.844 1.936.531.737.819 1.475.819 2.304h0l-.001-.001z"/></g><g fill="#8d8a8c"><path d="M86.052 103.855h.579c.803 0 1.189.369 1.157 1.106 0 .645-.531.875-1.205.737-.482-.093-1.012-.093-1.494-.046-.482 0-.675-.138-.627-.6 0-.184.048-.415 0-.6-.048-.507.193-.691.675-.645.241.046.579.046.915.046h0 0zm-66.76-2.165h.338c1.542 0 1.687.138 1.446 1.613-.048.323-.819.6-1.157.461-.482-.23-1.06-.138-1.591-.046-1.012.093-.867-.461-.915-1.06-.048-.645.048-1.106.915-.968.338.046.675 0 .964 0h0v.001zm55.674-25.717c-1.301-.277-2.218-1.06-2.651-2.028-.579-1.245-1.494-1.521-2.747-1.382-.338.046-.675 0-1.06 0-1.06-.046-1.735-.645-1.735-1.659v-9.863c0-1.014.675-1.613 1.784-1.613h20.678c1.06 0 1.735.645 1.735 1.659v9.816c0 1.106-.675 1.705-1.928 1.705H74.966c-1.253 0-1.398.184-1.108 1.336.096.368.289.737.482 1.106.193.323.434.6.627.922h0v.001zm24.679-38.76c-.386.093-.627-.138-.915-.277-.531-.368-1.108-.737-1.301-1.291-.531-1.291-1.542-1.382-2.795-1.336-1.591.093-1.976-.323-1.976-1.843v-7.604c0-1.152.482-1.613 1.735-1.613h16.919c1.253 0 1.735.461 1.735 1.659v7.834c0 1.152-.482 1.613-1.784 1.613H99.645c-1.157 0-1.301.184-1.012 1.245.241.6.627 1.106 1.012 1.613h0 0zm-25.741 9.079c1.108.277 1.784 1.014 2.266 1.889.241.461.579.645 1.108.6a8.58 8.58 0 0 1 1.542 0c.723.046 1.205.461 1.205 1.152v7.559c0 .784-.579 1.198-1.542 1.198h-14.99c-1.157 0-1.591-.415-1.591-1.475v-6.959c0-1.014.434-1.429 1.542-1.429h10.364c1.012 0 1.157-.184.867-1.06-.096-.277-.193-.507-.338-.784-.096-.277-.289-.461-.434-.691h0 .001zm-63.385 47.01l1.687-5.3h10.701c1.253 0 1.494.23 1.494 1.336v5.023c0 .922-.289 1.198-1.301 1.198h-7.375c-1.301 0-1.446.277-.867 1.336.096.184.241.368.386.6-.723-.23-1.205-.553-1.687-1.382-.241-.461-.579-.6-1.06-.553-.241.046-.531 0-.819 0-.819-.046-1.108-.323-1.157-1.06v-1.198h0v.001zm91.198-43.737c-.289-.83-.867-1.198-1.832-1.106-.915.093-1.205-.23-1.205-1.06v-4.655c0-.83.289-1.06 1.157-1.06h10.123c.915 0 1.205.277 1.205 1.106v4.563c0 .875-.289 1.106-1.205 1.106h-6.652c-1.108 0-1.253.277-.723 1.198l.338.507c-.627 0-.819-.461-1.205-.6h0l-.001.002zm-18.702-15.67c-.771-.23-1.157-.691-1.446-1.152-.241-.461-.579-.6-1.108-.6-1.542.046-1.687-.138-1.687-1.567V26.52c0-.968.289-1.198 1.253-1.198h9.93c1.012 0 1.301.277 1.301 1.198v4.47c0 .875-.289 1.152-1.253 1.152h-6.652c-1.012 0-1.157.23-.723 1.106.096.184.241.368.386.645h0l-.001.001zm16.822 40.603c.145-.23.145-.323.193-.368.241-.368.627-.83.386-1.245-.241-.368-.771-.184-1.205-.184h-6.025c-.915 0-1.205-.23-1.205-1.106v-4.332c0-.83.289-1.06 1.157-1.06h9.64c.867 0 1.108.277 1.157 1.106v4.286c0 .922-.241 1.198-1.205 1.152-.723-.046-1.253.093-1.591.784-.241.368-.675.691-1.301.968h0 0zM82.726 88.647c.964-1.889.723-1.705-1.108-1.705h-5.592c-.964 0-1.205-.277-1.253-1.152v-4.194c0-.922.241-1.198 1.205-1.198h9.544c.915 0 1.157.23 1.157 1.06v4.47c0 .737-.386 1.06-1.06.968-.819-.093-1.398.138-1.784.875-.193.415-.579.737-1.108.875h0l-.001.001zm31.187-55.582c.531.184.867.553 1.108 1.014.241.507.627.645 1.205.645 1.398-.046 1.494.093 1.494 1.382v4.056c0 .875-.193 1.06-1.108 1.06h-9.785c-.867 0-1.108-.23-1.108-1.06v-4.378c0-.875.241-1.106 1.205-1.106h6.314c1.06 0 1.205-.23.771-1.152a1 1 0 0 0-.241-.368c.096 0 .145-.046.145-.093h0-.001zM80.798 96.943c.45-1.075.032-1.613-1.253-1.613h-5.254c-1.012 0-1.253-.23-1.253-1.152v-4.286c0-.691.289-1.014 1.06-1.014h9.544c.723 0 1.108.277 1.108.968v4.425c0 .691-.386 1.06-1.06 1.014-.819-.093-1.398.093-1.784.875-.289.368-.627.645-1.108.784h0v-.001zM61.999 65.096c.531.184.867.553 1.06.968.241.461.579.6 1.108.6 1.398-.046 1.494.093 1.494 1.429v3.964c0 .784-.241 1.014-1.108 1.014h-9.447c-.819 0-1.108-.277-1.108-1.014v-4.332c0-.784.289-1.014 1.108-1.014h6.218c1.012 0 1.108-.184.723-1.014a1 1 0 0 0-.241-.368c.096-.184.145-.23.193-.23h0v-.001zm2.844-25.163c-.546 1.106-.193 1.659 1.06 1.659h5.592c.867 0 1.157.23 1.157 1.06v4.194c0 .875-.241 1.06-1.157 1.06h-9.447c-.867 0-1.06-.184-1.108-1.014V42.56c0-.691.338-1.06 1.06-.968.771.093 1.398-.093 1.735-.83.193-.368.579-.645 1.108-.83h0zm19.859 14.333c-.771-.323-1.157-.737-1.398-1.198s-.579-.553-1.06-.553c-1.349.046-1.494-.093-1.494-1.336v-3.871c0-.691.338-1.014 1.06-1.014h9.303c.819 0 1.108.277 1.108 1.014v4.194c0 .784-.241 1.014-1.108 1.014H85.04c-1.012 0-1.157.184-.723 1.014.048.23.193.415.386.737h0-.001zm34.176-5.116c.675-1.291.915-1.567-.915-1.521h-5.302c-.723 0-1.06-.277-1.06-.968v-4.056c0-.737.338-.968 1.06-.968h8.821c.675 0 1.06.277 1.06.922v4.102c0 .6-.289.968-.964.922-.819-.093-1.349.138-1.735.83-.145.368-.434.645-.964.737h0 0z"/><path d="M70.868 33.665c-.434-.184-.771-.461-.964-.83-.241-.507-.627-.6-1.157-.553-.964.046-1.157-.138-1.157-1.014v-3.502c0-.645.289-.922.964-.922h8.098c.675 0 .964.323.964.922v3.595c0 .645-.289.968-1.012.922h-5.061c-1.157 0-1.253.138-.723 1.106.048.046.145.138.048.277h0v.001zM83.4 79.752a2.15 2.15 0 0 1 .145-.323c.289-.737.241-.83-.579-.83H77.76c-.771 0-1.06-.277-1.06-.968V74.22c0-.691.289-.968 1.06-.968h7.76c.723 0 1.06.23 1.012.922v3.641c0 .507-.241.875-.819.784-.723-.093-1.253.093-1.591.784-.096.23-.338.415-.627.553 0-.093-.048-.138-.096-.184h0 0zm10.991.921c.386-.922.048-1.382-1.012-1.382h-4.483c-.915 0-1.108-.184-1.108-.968v-3.457c0-.645.289-.922 1.012-.922h7.857c.723 0 1.012.277 1.012.922v3.502c0 .6-.241.968-.964.922-.627-.046-1.108.093-1.398.691-.145.323-.482.553-.915.691h0 0zm12.002-19.771c.354-.891.016-1.336-1.012-1.336h-4.579c-.771 0-1.06-.277-1.06-.968v-3.457c0-.645.241-.968.964-.968h7.905c.627 0 .915.23.915.875v3.733c0 .507-.289.83-.819.784-.771-.093-1.253.184-1.591.784-.048.23-.289.507-.723.553h0 0zm-12.87 30.741c.386-.922.064-1.382-.964-1.382h-4.627c-.723 0-1.012-.23-1.012-.922v-3.595c0-.6.241-.875.915-.875h8.001c.627 0 .915.277.915.875v3.687c0 .507-.193.875-.771.83-.771-.046-1.301.093-1.687.784-.096.23-.338.461-.771.6h0l.002-.002zm-2.169-31.847c.418-.922.113-1.382-.915-1.382h-4.386c-.723 0-1.012-.277-1.012-.922v-3.364c0-.6.241-.875.915-.875h7.664c.627 0 .867.277.867.83v3.595c0 .507-.241.784-.771.737-.723-.046-1.205.093-1.542.737-.145.277-.434.507-.819.645h0v-.001zM89.859 18.87c.193-.046.338.093.386.184.386.553.771.922 1.591.83.338-.046.482.277.482.553v2.996c0 .415-.241.645-.675.645h-6.314c-.482 0-.723-.23-.723-.691v-2.811c0-.507.289-.691.819-.691h3.567c.771 0 1.061-.338.867-1.014h0l-.001-.001zM60.793 40.578l.193-.415c.289-.507.193-.784-.531-.737H56.55c-.675 0-.915-.23-.915-.83.048-.875 0-1.752 0-2.627 0-.553.241-.784.819-.784h6.17c.531 0 .771.23.771.737v2.857c0 .277-.096.645-.434.6-.915-.138-1.301.461-1.784.968 0 0-.096.046-.386.23h0zm12.244-23.229c.145.138.386.23.434.415.193.415.531.6 1.012.507.579-.093.819.23.819.737v2.766c0 .507-.241.737-.771.691h-6.17c-.579 0-.819-.23-.819-.784v-2.673c0-.6.289-.784.867-.784h3.808c.771.046.867-.23.579-.83.145.046.193 0 .241-.046h0l.001.001zm-50.901 83.972c.129-.614-.129-.922-.771-.922H17.99c-.579 0-.819-.23-.819-.737.048-.83.048-1.659 0-2.443 0-.507.193-.737.723-.737h5.736c.482 0 .675.184.675.645V99.8c0 .277-.096.6-.386.553-.867-.138-1.205.507-1.784.968h0 .001zM122.348 54.45c.289-.6.145-.83-.627-.83h-3.278c-.627 0-.867-.23-.867-.83.048-.737 0-1.475 0-2.259 0-.507.193-.737.771-.737h5.447c.531 0 .723.23.723.691v2.489c0 .23-.048.6-.289.553-.867-.093-1.301.553-1.832.922h-.048v.001zm-7.616-.737c.161-.645-.097-.968-.771-.968h-3.23c-.531 0-.771-.184-.771-.737V49.61c0-.507.241-.691.771-.691h5.351c.579 0 .819.184.819.737-.048.784 0 1.567 0 2.397 0 .277-.048.645-.386.6-.771-.093-1.157.368-1.542.83 0 .093-.145.138-.241.23h0v-.001zM61.661 64.957c-.096.046-.145.184-.241.184-.819.046-1.494.323-1.928 1.06.097-.645-.177-.968-.819-.968H55.54c-.579 0-.819-.23-.819-.737v-2.259c0-.553.289-.737.819-.737h5.206c.579 0 .819.23.819.737l.096 2.719c-.048.046 0 0 0 0h0 0z"/><path d="M98.054 22.788c.193-.737-.193-.875-.915-.875h-2.892c-.579 0-.915-.184-.867-.784.048-.737 0-1.429 0-2.166 0-.507.193-.737.771-.737h5.206c.482 0 .771.138.771.645v2.397c0 .23-.048.553-.289.553-.915-.093-1.253.553-1.784.968h0-.001zm-10.99 77.98c.145-.553-.145-.645-.627-.645h-3.519c-.531 0-.723-.184-.675-.645.048-.737 0-1.475 0-2.259 0-.415.145-.645.627-.645h5.351c.434 0 .627.184.627.6v2.397c0 .368-.193.6-.579.553-.579-.138-.867.184-1.205.645h0v-.001zM64.409 34.033c.434-.83.096-.968-.627-.922h-3.133c-.579 0-.819-.184-.819-.737.048-.784 0-1.521 0-2.304 0-.415.193-.645.675-.645h5.351c.531 0 .723.23.675.691v2.304c0 .277 0 .645-.289.6-.867 0-1.253.507-1.832 1.014h0v-.001zm26.945 7.834c.241-.507.048-.691-.531-.691h-3.278c-.579 0-.819-.184-.771-.737.048-.737 0-1.475 0-2.212 0-.461.193-.691.723-.691h5.254c.531 0 .723.23.675.691v2.304c0 .277-.048.691-.386.6-.819-.184-1.06.461-1.542.83l-.145-.093h0 .002zm4.724 23.366c.145-.507 0-.645-.579-.645h-2.892c-.579 0-.819-.184-.819-.737v-1.936c0-.461.145-.691.675-.691h4.82c.482 0 .675.184.675.6v2.166c0 .277-.096.6-.386.553-.723-.093-1.012.415-1.446.737l-.048-.046h0l.001-.001zm-44.443 1.613c.193-.507.048-.691-.579-.691h-2.94c-.482 0-.723-.184-.723-.645v-2.028c0-.461.145-.691.675-.691h4.772c.531 0 .723.23.723.691v2.028c0 .277-.048.645-.338.6-.819-.138-1.06.507-1.591.784.032 0 .032-.015 0-.046h0l.001-.001zM90.1 95.421c.145-.461.096-.691-.531-.691h-2.988c-.627 0-.819-.23-.771-.737.048-.691 0-1.336 0-2.028 0-.415.193-.6.627-.6h4.868c.482 0 .675.23.675.645v1.475c0 .645.145 1.336-1.012 1.245-.434-.046-.434.6-.867.691.032.031.032.031 0 0h0l.001.001zm11.617-45.903l.048 2.719c0 .323-.096.6-.531.553s-.771.093-.964.461c-.096.138-.193.368-.482.277h0c.289-.6.096-.784-.579-.737-.915.046-1.88 0-2.795 0-.579 0-.819-.138-.819-.737a13.03 13.03 0 0 0 0-1.936c0-.461.145-.691.675-.691 1.832.138 3.664.138 5.447.093 0 .046 0 0 0 0h0l.001-.001zM91.45 84.129c.289-.553.096-.784-.579-.737-.915.046-1.88 0-2.795 0-.579 0-.819-.138-.819-.737a13.03 13.03 0 0 0 0-1.936c0-.461.145-.691.675-.691h4.82c.482 0 .675.184.675.645v2.074c0 .184 0 .553-.193.507-.819-.046-1.157.645-1.784.875h0 .001zm27.957-29.588c-.096.415-.048.645.531.6.915-.046 1.832 0 2.699 0 .531 0 .771.184.771.691a11.24 11.24 0 0 0 0 1.798c.048.461-.145.691-.675.691h-4.386c-.531 0-.723-.23-.675-.691a7.1 7.1 0 0 0 0-1.429c-.048-.645-.048-1.152.915-1.106.386.046.338-.553.819-.553h0l-.001-.001zm-41.742 50.697c-.434-.277-.723-.784-1.398-.691-.193.046-.338-.23-.338-.461v-2.074c0-.368.193-.507.627-.507h4.483c.434 0 .627.184.627.6v1.936c0 .461-.241.6-.675.6h-2.747c-.531 0-.675.138-.531.6h-.048v-.002zm1.301-86.506c0-.277-.482.046-.386-.184.338-.875-.386-.553-.723-.553-.771-.046-1.542 0-2.314 0-.482 0-.771-.138-.723-.645v-1.798c0-.415.145-.6.627-.6h4.29c.434 0 .627.184.627.6v1.429c.048.6.048 1.106-.867 1.06-.338-.093-.675.23-.531.691h0-.001zm-27.475-6.36c.241-.553.048-.691-.531-.691-.867.046-1.687 0-2.554 0-.531 0-.723-.184-.723-.645V9.331c0-.415.145-.645.675-.645h4.241c.482 0 .675.184.675.645v1.429c.048.553 0 1.06-.867.968-.434 0-.386.553-.915.645h0zm6.941 34.335c.193-.461.048-.645-.531-.645-.867.046-1.735 0-2.554 0-.531 0-.723-.184-.723-.645-.097-1.567.691-2.35 2.362-2.35h2.266c.819-.046 1.06.23.964.922a5 5 0 0 0 0 1.198c.048.553-.048.968-.819.875-.531-.046-.434.737-.964.645h0zm20.196 54.291c.193-.461.048-.645-.434-.6-.819.046-1.591 0-2.41 0-.531 0-.819-.138-.771-.691a8.54 8.54 0 0 0 0-1.567c-.048-.553.241-.691.771-.691h3.76c.531 0 .819.184.771.691-.048.415 0 .784 0 1.198.048.6.048 1.106-.867 1.06-.338 0-.386.507-.819.6h0v-.001zm27.909-78.21c.096-.507-.145-.645-.723-.645-.723.046-1.494 0-2.218 0-.482 0-.675-.184-.675-.6.048-2.719-.434-2.12 2.218-2.212h2.266c.482 0 .675.184.675.6v1.291c0 .553.048 1.014-.819.922-.338 0-.338.553-.723.645h0-.001zM96.126 48.321c.338-.645-.096-.645-.579-.645-.723.046-1.446 0-2.169 0-.579.046-.723-.184-.723-.691-.032-1.382.675-2.074 2.121-2.074h2.314c.434 0 .627.138.627.553v1.291c0 .507.048 1.014-.771.968-.386-.046-.386.553-.819.6h0v-.002zM73.663 80.075c.193-.507 0-.645-.482-.6-.627.046-1.205 0-1.832 0-.145 0-.289.046-.386 0-.867-.461-.241-1.245-.434-1.843-.096-.368.048-.645.531-.645h3.664c.434.138.386.461.338.737-.096.553.386 1.336-.338 1.659-.386.184-.723.323-1.06.691h0-.001z"/><use xlink:href="#C"/><path d="M103.983 62.884c0-.277-.096-.461-.434-.415-.579.046-1.108 0-1.687 0h-.386c-.675.046-.627-.415-.531-.784.145-.553-.531-1.429.482-1.567 1.06-.138 2.169-.046 3.278-.046h.241c.675.415.241 1.06.338 1.567.048.277.193.784-.338.784s-.675.323-.964.461h0 .001zM78.966 18.732h3.567c.482 0 .675.138.675.6v.968c0 .461 0 .875-.675.83-.193 0-.241.138-.338.277-.048.093-.193.23-.241.138-.482-.875-1.349-.323-1.976-.368-1.012-.093-1.012-.046-1.012-1.014v-1.429h0v-.001zm19.908 22.306c-.048-.277-.048-.507-.482-.507-.675.046-1.349 0-1.976 0-.386 0-.531-.138-.579-.507-.097-1.229.514-1.843 1.832-1.843h1.832c.482 0 .723.138.675.6-.048.323 0 .645 0 .968 0 .461.048.875-.675.83-.338 0-.338.415-.627.461h0-.001zM61.613 25.322h.386c1.446 0 1.639.184 1.398 1.567-.048.368-.771.553-1.157.461-.482-.138-1.06-.138-1.591-.046-1.012.138-.819-.507-.819-1.014-.048-.553 0-1.06.867-.922.241 0 .579-.046.915-.046h0 .001zm16.678 8.664h.386c1.494.046 1.349-.323 1.349 1.336 0 .553-.579.784-1.205.645-.482-.138-1.06-.093-1.591-.046-.627.046-.915-.138-.819-.737v-.368c-.096-.645.193-.922.915-.83.338.046.675 0 .964 0h0l.001.001zm4.483 1.475h.338c1.061 0 1.543.492 1.446 1.475-.048.415-.723.645-1.205.507s-1.012-.093-1.494-.046c-.723.046-.915-.184-.915-.83.048-1.382-.048-1.106 1.205-1.106h.627-.001zm1.446 21.017c.386.737-.627 1.06-.819.968-.819-.323-1.639 0-2.41-.277-.482-.184-.145-.645-.241-1.014-.145-.645.145-.922.867-.83.482.046 1.012 0 1.542 0 .707.031 1.06.415 1.06 1.152h0l.001.001zm11.038-14.564h.338c1.494.046 1.349-.277 1.349 1.336 0 .507-.627.737-1.157.6-.482-.138-1.012-.093-1.494-.046-.579.046-.867-.138-.771-.691.048-.184 0-.415 0-.6-.048-.461.193-.6.675-.6h1.06l.001.001zM51.346 68.138c.145 0 .338-.046.482 0 .289.046.819-.23.819.368 0 .461.241 1.198-.531 1.198-.675 0-1.398.093-1.976-.184-.386-.184-.145-.737-.145-1.106 0-.277.289-.277.531-.277h.819 0zm53.89-3.318c.145 0 .338-.046.482 0 .289.046.819-.23.819.368 0 .461.241 1.198-.579 1.198-.627 0-1.398.093-1.976-.184-.386-.184-.145-.737-.145-1.106 0-.323.338-.277.531-.277h.867 0zm14.846-25.855h.579c.289.046.771-.184.771.368 0 .461.241 1.198-.579 1.198-.627 0-1.349.046-1.928-.138-.434-.138-.145-.691-.193-1.014-.048-.277.145-.368.434-.368.338-.046.627-.046.915-.046h0zm-36.2 62.126c.145 0 .338-.046.482 0 .289.046.819-.23.819.368 0 .461.289 1.106-.531 1.152-.675.046-1.398.046-1.976-.184-.386-.138-.145-.737-.145-1.106 0-.323.338-.277.531-.277.289.046.531.046.819.046h0zm36.296-41.663h.386c.289.046.723-.184.867.184s.193.83-.048 1.152a.74.74 0 0 1-.964.138c-.193-.093-.482 0-.723 0-.867 0-1.205-.461-.915-1.245a.4.4 0 0 1 .434-.277h.964v.046h0l-.001.001zM27.342 88.923h.579c.289.046.771-.184.723.277-.048.415.434 1.106-.434 1.198-.675.093-1.398.093-2.025-.093-.386-.138-.145-.737-.145-1.106 0-.323.289-.277.531-.277h.771 0zm-.096 3.825c.193 0 .434.046.627 0 .579-.093.675.184.675.645 0 .507-.193.645-.723.6-.241-.046-.531 0-.819 0-.482 0-1.012.184-1.012-.645 0-.784.531-.553.964-.6h.289 0zm87.438-65.721c.482-.046 1.108-.138.964.784-.048.277-.145.461-.386.461-.531 0-1.108.046-1.591-.093-.386-.093-.145-.507-.193-.784s.145-.323.386-.323l.819-.046h0v.001zM56.697 9.607c.145.461-.193.645-.531.691-1.108.093-1.542-.184-1.494-.737.096-.968.915-.323 1.349-.461.482-.184.867 0 .675.507h0 .001zm62.711 26.777c1.157 0 1.157.046 1.108.784 0 .368-.386.553-.531.507-.482-.138-.915-.046-1.349-.138s-.241-.415-.241-.691c-.048-.23-.048-.461.338-.461h.675v-.001zM48.792 14.631a10.06 10.06 0 0 1-1.301-1.521h.723c.289.046.819-.184.867.23.048.461.289.968-.289 1.291h0 0zm-3.085-3.18c-.386-.23-.771-.461-1.06-.83.675-.046 1.012.184 1.06.83h0zm16.148 53.864l-.241-.356h0c.096.143.289-.071.386.143l-.145.213h0zM15.152 87.12c-.113.06-.227.177-.284.177-.171-.177 0-.237.113-.356l.171.177h0v.001zm57.781-69.508c0-.089-.089-.265-.089-.354.089.089.267.089.356.178-.089.089-.177.178-.267.178h0v-.002zm-6.584-4.272c0 .178.196.178.196.356 0-.178-.196-.178-.196-.356h0zm5.501 3.565s0 .189-.178.189h-.178l.356-.189h0 0z"/><path d="M99.423 15.138l-.356.356c.178-.178.178-.356.356-.356h0zm-71.729 83.05c0 .178-.196.178-.196.356l.196-.356h0zM84.172 7.672l-.298.356c-.149-.178 0-.356.298-.356h0zm8.358 104.99c-.178 0-.178.189-.356.189 0 0 .178-.189.356-.189 0-.189 0 0 0 0h0zm5.784-89.791l-.356.203v-.203c0-.203.178-.203.356 0h0zm-20.53 82.323c.118.105.118.21.236.313-.236.105-.236 0-.356-.21l.118-.105h0l.002.002zm32.533-8.092h0c-.196 0-.196-.189 0 0 0-.126.065-.189.196-.189-.196 0-.196.189-.196.189h0zM80.672 14.278s0 .189-.178.189h-.178l.356-.189h0 0zM51.939 66.979c-.115.089-.115.179-.23.179-.23-.179-.115-.267.115-.356 0 .119.038.179.115.179h0v-.002zm44.446-1.507c-.118 0-.236.119-.356.119.118-.119.118-.239.236-.356 0 .08.039.159.118.239h0l.002-.002zm7.858-2.588c0 .178-.178.356-.178.356 0-.178-.178-.178-.178-.356h.356zm11.861.563c-.124-.21-.375-.418-.124-.628l.249.418-.124.21h0zm-3.637-3.559c.178 0 .178.356.356.356h-.178c-.178 0-.178-.356-.178-.356h0zm10.138-5.392c-.118.178-.118.356-.236.356l-.118-.178c.118 0 .236-.178.356-.178h0-.002zm-3.246.202l.236-.295.118.147c-.118.147-.236.295-.356.147h0 .002zM83.707 80.035c-.089 0-.267 0-.356.119.089-.119.089-.239.177-.356l.177.239h0l.002-.002zm16.289-26.461c0 .119-.065.237-.196.356 0 0 0-.178.196-.356-.196.178 0 0 0 0h0zm-41.358-6.867v.356h-.196c0-.178 0-.356.196-.356h0zm21.408-3.946c-.178 0-.178.189-.356.189 0-.189.178-.189.356-.189h0zm22.414 40.127c-.178 0-.178.189-.356.189.178 0 .178-.189.356-.189 0-.189 0 0 0 0h0zM91.71 41.984c-.118.163-.236.243-.356.163 0 0 .118-.163.118-.325 0 .082.118.163.236.163h0l.002-.002zm-.051 42.147v.356h-.196c0-.178.196-.356.196-.356h0zm7.426-43.092l-.356.356v-.178c.178-.178.356-.178.356-.178h0zm-29.988-.323s.196 0 .196.178v.178c0-.178-.196-.178-.196-.356h0zm20.541-4.131s0 .189-.178.189h-.178c.178 0 .356 0 .356-.189h0zm.77 59.022c0 .093-.118.277-.356.093 0 0 .118-.186.118-.277l.236.186h0l.002-.002zm23.483-62.279c-.113-.089-.226-.265 0-.354 0 0 .226.089.226.178s-.113.178-.226.178h0v-.002zM38.09 25.876c-.386.093-.627-.138-.915-.277-.531-.368-1.108-.737-1.301-1.291-.531-1.291-1.542-1.382-2.795-1.336-1.591.093-1.976-.323-1.976-1.843v-7.65c0-1.152.482-1.613 1.735-1.613h16.919c1.253 0 1.735.461 1.735 1.659v7.834c0 1.152-.482 1.613-1.784 1.613H38.09c-1.157 0-1.301.184-1.012 1.245.241.6.627 1.106 1.012 1.659h0 0zM27.052 7.994c.531.184.867.553 1.06.968.241.461.579.6 1.108.6 1.398-.046 1.494.093 1.494 1.429v3.964c0 .784-.241 1.014-1.108 1.014h-9.399c-.819 0-1.108-.277-1.108-1.014v-4.332c0-.784.289-1.014 1.108-1.014h6.218c1.012 0 1.108-.184.723-1.014a1 1 0 0 0-.241-.368c.096-.138.096-.184.145-.23h0 0z"/><use xlink:href="#D"/><path d="M10.76 47.721c-.434-.184-.771-.461-.964-.83-.241-.507-.627-.6-1.157-.553-.964.046-1.157-.138-1.157-1.014v-3.502c0-.645.289-.922.964-.922h8.098c.675 0 .964.323.964.922v3.595c0 .645-.289.968-1.012.922h-5.061c-1.157 0-1.253.138-.723 1.106.048.046.193.138.048.277h0v.001zm9.399 25.902c1.108.277 1.784 1.014 2.266 1.889.241.461.579.645 1.108.6a8.58 8.58 0 0 1 1.542 0c.723.046 1.205.461 1.205 1.152v7.559c0 .784-.579 1.198-1.542 1.198H9.747c-1.157 0-1.591-.415-1.591-1.475v-6.959c0-1.014.434-1.429 1.542-1.429h10.364c1.012 0 1.157-.184.867-1.06-.096-.277-.193-.507-.338-.784l-.434-.691h0 .001zm-9.881-7.236c.531.184.867.553 1.06.968.241.461.579.6 1.108.6 1.398-.046 1.494.093 1.494 1.429v3.964c0 .784-.241 1.014-1.108 1.014H3.433c-.819 0-1.108-.277-1.108-1.014v-4.332c0-.784.289-1.014 1.108-1.014h6.218c1.012 0 1.108-.184.723-1.014a1 1 0 0 0-.241-.368c.048-.184.096-.23.145-.23h0v-.001zm1.06-.369c0-.507-.096-.784-.723-.784H7.628c-.289 0-.723.046-.771-.323-.145-.922-.145-1.889 0-2.811.048-.368.434-.368.771-.368h5.206c.915.737.289 1.659.434 2.534.048.368.096.922-.531.875-.723.046-1.012.461-1.398.875h0v.001zm20.293-1.706c-.386.093-.627-.138-.915-.277-.531-.368-1.108-.737-1.301-1.291-.531-1.291-1.542-1.382-2.795-1.336-1.591.093-1.976-.323-1.976-1.843v-7.65c0-1.152.482-1.613 1.735-1.613h16.919c1.253 0 1.735.461 1.735 1.659v7.834c0 1.152-.482 1.613-1.784 1.613h-11.52c-1.157 0-1.301.184-1.012 1.245.145.645.579 1.152.915 1.659h0 0z"/><use xlink:href="#D" x="31.959" y="32.815"/><path d="M56.697 60.026c0-.461-.145-.737-1.108-.691H51.25c-.434 0-1.06.046-1.157-.277-.241-.83-.193-1.659-.048-2.489.048-.323.627-.323 1.108-.323h7.712c1.349.645.434 1.475.627 2.259.096.323.193.83-.771.784-1.012.046-1.446.415-2.025.737h0 .001z"/><use xlink:href="#C" x="-101.995" y="-8.25"/><path d="M12.013 29.424c0-.368-.048-.553-.482-.507-.675.046-1.349 0-1.976 0-.193 0-.482.046-.531-.23a6.54 6.54 0 0 1 0-1.936c.048-.277.289-.23.531-.23h3.471c.627.507.193 1.152.289 1.752.048.277.096.645-.338.6-.482 0-.675.277-.964.553h0v-.001zm14.846-9.079c.531.184.867.553 1.06.968.241.461.579.6 1.108.6 1.398-.046 1.494.093 1.494 1.429v3.964c0 .784-.241 1.014-1.108 1.014h-9.447c-.819 0-1.108-.277-1.108-1.014v-4.332c0-.784.289-1.014 1.108-1.014h6.218c1.012 0 1.108-.184.723-1.014a1 1 0 0 0-.241-.368c.096-.138.145-.184.193-.23h0v-.001zM9.988 30.254c.289.138.531.507.627.922.145.461.338.6.675.6.819-.046.915.093.915 1.382v3.871c0 .784-.145 1.014-.675 1.014H5.843c-.482 0-.675-.23-.675-1.014v-4.24c0-.737.193-1.014.675-1.014h3.76c.579 0 .675-.184.434-1.014l-.145-.368c.048-.046.048-.093.096-.138h0l.001-.001zm8.436 33.137c0-.368-.048-.553-.482-.507-.675.046-1.349 0-1.976 0-.193 0-.482.046-.531-.23a6.54 6.54 0 0 1 0-1.936c.048-.277.289-.23.531-.23h3.519c.627.507.193 1.152.289 1.752.048.277.096.645-.338.6-.579 0-.723.277-1.012.553h0v-.001z"/><use xlink:href="#C" x="-111.491" y="10.645"/><path d="M3 49.38c0-.368-.048-.6-.434-.553-.579.046-1.157 0-1.735 0-.193 0-.434.046-.482-.23-.096-.691-.096-1.382 0-2.028.048-.277.241-.23.434-.23h3.085c.531.507.193 1.198.241 1.843.048.277.048.645-.289.645-.386-.046-.579.277-.819.553h0v.001zm-.241 5.761c0-.368-.048-.6-.434-.553-.579.046-1.157 0-1.735 0-.193 0-.434.046-.482-.23-.096-.691-.096-1.382 0-2.028.048-.277.241-.23.434-.23h3.085c.531.507.193 1.198.241 1.843.048.277.048.645-.289.645-.434-.046-.579.277-.819.553h0l-.001.001z"/></g><g fill="#717071"><path d="M44.115 115.47c-.867-.093-1.494-.507-2.121-.968-1.494-1.245-2.747-2.627-3.567-4.332-.289-.553-.675-.737-1.301-.737h-4.145c-1.784 0-2.892-1.06-2.892-2.719V89.568c0-1.613 1.205-2.766 2.988-2.766H68.12c2.362 0 3.422.968 3.422 3.18l.048 16.315c.048 1.843-1.301 3.18-3.422 3.134l-24.294-.046h-.627c-.964.046-1.301.415-1.205 1.291.193 1.475.723 2.811 1.735 3.964.096.277.338.461.338.83h0 .001z"/><use xlink:href="#E"/><path d="M66.289 13.34c-1.06-.184-1.591-.968-2.025-1.752-.338-.645-.771-.83-1.494-.83-2.41.046-2.41 0-2.41-2.259V2.416c0-.922.434-1.382 1.494-1.382h14.895c1.06 0 1.591.461 1.591 1.475V9.33c0 1.106-.434 1.475-1.591 1.475H67.06c-.289 0-.579.046-.867.046-.579.046-.675.368-.579.83 0 .6.434 1.06.675 1.659h0 .001zM63.3 73.437c1.108.277 1.735 1.014 2.218 1.843.289.461.579.645 1.108.6.434-.046.867 0 1.301 0 .915 0 1.446.461 1.446 1.336v7.19c0 .784-.482 1.198-1.301 1.245H52.695c-.867 0-1.253-.368-1.253-1.198v-7.236c0-.875.482-1.291 1.494-1.291h10.026c1.253 0 1.494-.323 1.012-1.429l-.675-1.06h0 0zm-30.367 4.102l3.519-2.857h11.665c1.205 0 1.591.368 1.591 1.475v5.991c0 1.291-.434 1.659-1.735 1.659h-9.158c-.915 0-1.06.184-.819 1.014.048.23.193.461.289.691.096.184.289.368.338.6-.819-.184-1.446-.737-1.735-1.382-.434-.875-1.06-1.014-1.976-.968-1.591.046-1.928-.323-1.928-1.798l-.048-4.425h0-.002zm61.458 29.957c-.964-.277-1.398-.875-1.784-1.475-.289-.461-.579-.645-1.157-.645-2.025.046-2.121-.046-2.121-1.982v-5.023c0-.875.338-1.245 1.301-1.245h12.388c.867 0 1.301.368 1.301 1.198v5.853c0 .875-.434 1.198-1.398 1.198h-8.243c-1.157 0-1.301.277-.867 1.245a4.81 4.81 0 0 1 .579.875h0 .001z"/><path d="M57.709 23.847c-.867-.23-1.253-.691-1.542-1.245s-.675-.691-1.253-.645c-.241.046-.531.046-.819 0-.482-.093-.819-.323-.819-.875v-5.346c0-.553.386-.875.964-.875h10.99c.723 0 1.06.415 1.06 1.06v4.932c0 .83-.338 1.106-1.205 1.152h-6.99c-1.205 0-1.349.23-.771 1.245l.386.6h0v-.002zm20.1 92.314c-.723-.184-1.205-.645-1.494-1.198-.193-.415-.482-.553-.964-.507-.289.046-.579 0-.867 0-.627-.046-1.012-.368-1.012-.968v-5.254c0-.6.386-.922 1.012-.922h10.942c.723 0 1.06.368 1.012 1.06v4.932c0 .875-.289 1.152-1.253 1.152H78.34c-1.108 0-1.301.23-.819 1.152.145.23.241.368.289.553h0v-.001zm-25.884 3.779c-.771-.184-1.157-.6-1.398-1.06-.338-.645-.819-.784-1.542-.784-1.253.046-1.446-.184-1.446-1.336v-4.563c0-.922.241-1.152 1.205-1.152h10.653c.867 0 1.108.23 1.108 1.014v5.023c0 .737-.289 1.014-1.108 1.014h-7.134c-1.06 0-1.205.23-.771 1.152.145.184.241.368.434.691h0 0zm35.09-103.143c-.531-.277-.964-.645-1.205-1.106s-.579-.553-1.06-.553c-1.446 0-1.494-.046-1.494-1.382V9.791c0-.784.289-1.06 1.108-1.06h9.399c.867 0 1.205.277 1.205 1.06v4.425c0 .645-.386.968-1.157.968-2.073-.046-4.097 0-6.17 0-1.108 0-1.253.277-.771 1.198.096.046.241.138.145.415h0 .001zm28.681 43.782c.531.184.819.553 1.06.968.241.461.627.6 1.157.6 1.349-.046 1.446.138 1.446 1.336v4.056c0 .691-.338 1.014-1.06 1.014h-9.544c-.771 0-1.108-.277-1.108-1.06v-4.286c0-.784.338-1.06 1.157-1.06h6.17c1.108 0 1.205-.093.771-1.06l-.145-.415.096-.093h0-.001zM55.154 8.086c.145-.277.241-.368.338-.507.482-.875.289-1.152-.723-1.152h-6.073c-.964 0-1.157-.184-1.157-1.106V.989c0-.737.338-.968 1.06-.968h9.496c.675 0 1.06.277 1.012.922v4.563c0 .645-.338.968-.964.875-.867-.093-1.446.138-1.88.875-.145.368-.482.691-1.108.83h0-.001zm58.325 83.234c.915-2.028.434-1.659-1.157-1.659h-5.447c-.915 0-1.157-.184-1.157-1.06v-4.332c0-.691.289-1.014 1.012-1.014h9.544c.675 0 1.06.277 1.06.968v4.563c0 .553-.289.922-.819.875-1.012-.093-1.687.184-2.121 1.014-.193.277-.482.507-.915.645h0v.001zM69.036 40.715c-.096 0-.241 0-.289-.046-.531-.6-1.06-1.152-2.073-1.06-.386.046-.482-.368-.482-.737v-3.18c0-.507.289-.784.819-.784h7.134c.627 0 .867.277.819.83v3.041c0 .645-.338.875-.964.875h-4.145c-.867 0-1.141.353-.819 1.06h0v.001z"/><path d="M100.609 96.389c.096-.138.145-.277.241-.461.193-.415 0-.6-.482-.6h-4.241c-.723 0-1.012-.23-1.012-.922a24.83 24.83 0 0 0 0-2.673c0-.645.289-.875.964-.875h6.218c.675 0 1.012.23.964.875-.048.922-.048 1.843 0 2.766 0 .6-.241.922-.915.875-.482-.046-.819.093-1.012.507-.145.277-.386.461-.627.691.048-.093-.048-.138-.096-.184h0-.002zM43.538 7.855c.257-.737.016-1.106-.723-1.106h-3.664c-.531 0-.771-.184-.771-.691V3.201c0-.461.241-.691.723-.691h6.17c.579 0 .819.23.819.784v2.673c0 .368-.096.784-.531.691-.867-.093-1.253.368-1.639.922-.048.138-.145.138-.386.277h0l.001-.001zm24.1 107.845c.064-.584-.225-.875-.867-.875h-3.374c-.627 0-.867-.23-.867-.784.048-.83 0-1.659 0-2.489 0-.553.241-.784.819-.784h5.688c.579 0 .867.277.867.737v2.534c0 .323-.145.737-.531.691-.723-.093-1.108.277-1.446.784-.048.093-.145.093-.289.184h0v.001zm42.563-18.804c.161-.645-.113-.968-.819-.968h-3.374c-.579 0-.819-.184-.819-.737a22.31 22.31 0 0 0 0-2.534c0-.507.193-.737.723-.737h5.736c.531 0 .771.23.771.737v2.627c0 .323-.048.691-.482.645-.771-.093-1.108.277-1.446.784 0 .046-.145.093-.289.184h0-.001zm-83.438 10.785c.225-.645.048-.968-.531-.968h-3.374c-.675 0-.964-.277-.915-.875.048-.737 0-1.475 0-2.259 0-.507.193-.784.819-.784h5.592c.579 0 .819.184.819.737-.048.784 0 1.567 0 2.397 0 .368-.096.737-.482.737-.723-.046-1.108.277-1.494.784-.145.046-.241.093-.434.23h0-.001zm65.507 4.839c.289-.6.096-.784-.627-.784h-3.278c-.531 0-.771-.184-.771-.691v-2.304c0-.553.289-.691.771-.691h5.302c.482 0 .675.184.675.6v2.534c0 .23-.048.507-.289.461-.819-.093-1.157.6-1.784.875h0 .001zm9.929-29.772c.096-.507-.048-.784-.723-.737-.915.046-1.832 0-2.699 0-.579 0-.771-.184-.723-.691.048-.6 0-1.245 0-1.889 0-.461.193-.645.675-.6h4.627c.482 0 .675.184.675.645v1.475c.048.6.048 1.152-.915 1.106-.482 0-.482.6-.915.691h0l-.001.001zm10.268-22.86c-.434-.23-.675-.737-1.349-.645-.193.046-.338-.23-.386-.415v-.368c.048-2.627-.386-2.212 2.362-2.259h2.506c.531 0 .771.184.771.737a10.11 10.11 0 0 0 0 1.705c0 .461-.193.691-.723.645h-2.506c-.531-.046-.771.093-.675.6h0v-.001zM89.571 46.062c-.032-.461-.305-.691-.819-.691h-2.314c-.531 0-.819-.184-.771-.691.048-.553 0-1.152 0-1.705 0-.461.193-.645.675-.6h4.241c.531 0 .723.23.675.691v1.198c0 .6.145 1.245-.915 1.152-.338-.046-.338.553-.771.645h0l.001.001zM83.882 7.625c.096-.461-.145-.553-.579-.553h-2.651c-.434 0-.675-.138-.627-.553v-.138c-.032-1.536.771-2.304 2.41-2.304h2.41c.531 0 .723.184.723.691v1.198c0 .6.193 1.245-.867 1.198-.241 0-.482.368-.675.553-.096-.046-.145-.093-.145-.093h0 0zm-12.291 8.711c.096-.507-.145-.645-.675-.645-.771.046-1.542 0-2.314 0-.482 0-.723-.184-.723-.645v-1.659c0-.461.145-.691.675-.691h3.905c.531 0 .723.184.723.645v1.291c0 .553.096 1.106-.867 1.06-.338.046-.338.553-.723.645h0l-.001-.001zm27.572-1.199c.048-.323-.145-.461-.531-.461-.627.046-1.301 0-1.928 0-.193 0-.386.046-.579 0-1.06-.507-.338-1.429-.482-2.12-.096-.461.289-.553.723-.553h3.519c.531 0 .723.184.675.645v1.198c.048.507-.048.875-.723.875-.289-.046-.386.368-.675.415h0 0zM50.575 73.668c.048-.368-.193-.461-.531-.415h-1.928c-.386 0-.579-.138-.579-.507.048-2.212-.289-1.843 1.832-1.889h1.832c.289 0 .627 0 .627.323.048.6 0 1.198 0 1.798 0 .138-.096.277-.241.23-.482-.138-.627.368-1.012.461h0v-.001zm29.837-59.453c0-.323-.145-.461-.531-.461-.627.046-1.205 0-1.832 0-.241 0-.579.046-.627-.23-.145-.645-.096-1.291 0-1.936.048-.23.289-.23.531-.23h3.133c.434 0 .627.184.627.6v.83c0 .507.096 1.014-.723 1.06-.241 0-.434.277-.579.368h0v-.001zm8.966 22.306c0-.323-.145-.461-.531-.461-.627.046-1.301 0-1.928 0-.241 0-.531 0-.579-.277a11.24 11.24 0 0 1 0-1.798c0-.277.289-.277.579-.277h3.133c.434 0 .627.184.627.6v.968c0 .461.048.875-.675.83-.338 0-.338.368-.627.415h0 0zM67.397 25.737c0-.323-.145-.461-.531-.461-.627.046-1.301 0-1.928 0-.241 0-.531 0-.579-.277a11.24 11.24 0 0 1 0-1.798c0-.277.289-.277.579-.277h3.133c.096 0 .241 0 .289.046.627.461.193 1.106.289 1.659.048.277.048.645-.338.645-.434-.046-.579.323-.915.461h0l.001.001zm12.339 16.914c-.048-.368-.338-.277-.579-.323h-1.784c-.531 0-.723-.184-.675-.691.048-.415 0-.784 0-1.198 0-.368.145-.507.579-.507h3.133c.434 0 .675.138.627.553v.737c0 .553.096 1.152-.819 1.106-.145.046-.241.323-.482.323h0 0zM58.142 11.358h.482c1.591 0 1.88.368 1.591 1.843-.096.415-.434.368-.723.415-.193.046-.241.6-.675.093-.241-.323-.964-.046-1.446-.093-.434-.046-1.012.23-1.253-.23-.241-.553-.145-1.198-.048-1.752.048-.23.338-.23.531-.23.531-.046 1.06-.046 1.542-.046h0l-.001.001zm-3.711 20.555c0-.784-.241-1.521-.145-2.259h2.651c.627-.046.964.138.867.784-.048.277 0 .6 0 .875 0 .23-1.06 1.06-1.157.922-.675-.737-1.494-.138-2.218-.323h0l.001.001zM36.693 8.132c-1.832-.23-3.664-.138-5.495.046 0-2.212-.193-1.889 1.639-1.889h2.94c.771-.046 1.012.323.915 1.152-.048.184 0 .415 0 .691h0 0zm64.542 7.835c0-.645.353-.968 1.06-.968h2.025c.386 0 .579.184.579.553.096 1.06-.096 1.382-1.012 1.752-.048.046-.193.046-.193.046-.241-.784-.964-.323-1.398-.368-1.06-.093-1.06-.046-1.06-1.014h0 0z"/><path d="M27.486 98.187c-.048-.368-.386-.277-.627-.277h-.819c-1.157 0-1.108 0-1.157-1.014-.048-.691.145-1.014.964-.922a14.79 14.79 0 0 0 2.025 0c.531 0 .627.184.723.645.145.83-.193 1.382-1.108 1.567h0v.001zm6.266 14.656c-.048-.323-.289-.277-.531-.277h-.964c-.707 0-1.06-.323-1.06-.968s.353-.968 1.06-.968h1.928c.482 0 .627.138.675.6.145.83-.145 1.429-1.108 1.613h0 .001zm89.656-50.881h.723c.803 0 1.189.384 1.157 1.152 0 .415-.723 1.06-1.06.875-.675-.368-1.349-.184-1.976-.184-.867 0-.771-.415-.771-.968 0-.507-.048-.968.771-.875.338.046.723 0 1.157 0h0-.001zm-16.003 36.225h.627c.835 0 1.237.369 1.205 1.106 0 .461-.627 1.106-1.012.875-.771-.368-1.494-.138-2.218-.184-.915-.093-.482-.737-.579-1.152s.048-.737.627-.691c.434.046.915.046 1.349.046h0 .001zm-8.676-13.182h.338c.899 0 1.333.43 1.301 1.291-.048.553-.531.784-1.108.6-.434-.138-.964-.093-1.446-.046-.867.093-.723-.415-.723-.875s-.145-1.014.723-.922c.241 0 .579-.046.915-.046h0v-.001zM80.412 44.218c.338.691-.289.875-.723 1.106-.289.184-.241-.323-.579-.277-.434.093-.915 0-1.349.046-.434 0-.579-.138-.579-.507v-.737c-.048-.415.145-.6.627-.553a10.27 10.27 0 0 0 1.687 0c.723-.138 1.108.138.915.922h0 0zm13.014-7.374c-.579-.046-1.349.23-1.157-.737.048-.277.193-.461.531-.461h.819c.531-.046 1.012-.046.915.691-.048.691-.531.553-.964.461-.096 0-.145.046-.145.046h0 .001zm-9.737 6.268c-.289-.046-.723.138-.915-.184-.145-.23-.096-.553-.048-.784.096-.277.386-.184.627-.23h.723c.434 0 .867-.093.867.6 0 .737-.482.645-.964.6h-.289v-.001zm6.314-36.501c.096.461-.289.784-.579.645-.531-.277-1.591.507-1.591-.645 0-1.06.915-.461 1.446-.553.482-.138.867-.046.723.553h0 .001zM25.317 49.38c-.723-.184-1.205-.645-1.494-1.198-.193-.415-.482-.553-.964-.507-.289.046-.579 0-.867 0-.627-.046-1.012-.368-1.012-.968v-5.254c0-.6.386-.922 1.012-.922h10.942c.723 0 1.06.368 1.012 1.06v4.932c0 .875-.289 1.152-1.253 1.152H25.8c-1.108 0-1.301.23-.819 1.152.145.184.241.368.338.553h0l-.001-.001zm2.169 26.546c-1.349-.23-2.025-.784-2.458-1.336-.579-.784-1.446-.968-2.747-.968-2.218.046-2.603-.184-2.603-1.659v-5.668c0-1.152.434-1.429 2.121-1.429h18.943c1.542 0 1.976.277 1.976 1.245v6.222c0 .922-.531 1.291-1.976 1.291H28.063c-1.928 0-2.169.277-1.349 1.429l.771.875h0v-.001zm16.052-37.607c-.723-.184-1.205-.645-1.494-1.198-.193-.415-.482-.553-.964-.507-.289.046-.579 0-.867 0-.627-.046-1.012-.368-1.012-.968v-5.254c0-.6.386-.922 1.012-.922h10.942c.723 0 1.06.368 1.012 1.06v4.932c0 .875-.289 1.152-1.253 1.152H44.02c-1.108 0-1.301.23-.819 1.152l.338.553h0l-.001-.001z"/><use xlink:href="#E" x="-69.748" y="-30.971"/><path d="M23.003 41.545c-1.157-.23-1.735-.784-2.121-1.336-.531-.784-1.253-.968-2.362-.968-1.928.046-2.266-.184-2.266-1.659v-5.623c0-1.152.386-1.429 1.832-1.429h16.437c1.349 0 1.735.277 1.735 1.245v6.222c0 .922-.482 1.291-1.735 1.291h-10.99c-1.639 0-1.88.277-1.157 1.429.193.23.338.461.627.83h0v-.001zm22.173-12.259c-.096 0-.241 0-.289-.046-.531-.6-1.06-1.152-2.073-1.06-.386.046-.482-.368-.482-.737v-3.18c0-.507.289-.784.819-.784h7.134c.627 0 .867.277.819.83v3.041c0 .645-.338.875-.964.875h-4.145c-.867-.031-1.141.323-.819 1.06h0v.001zM10.615 60.764c-1.06-.184-1.591-.968-2.025-1.752-.338-.645-.771-.83-1.494-.83-2.41.046-2.41 0-2.41-2.259v-6.13c0-.922.434-1.382 1.494-1.382h14.895c1.06 0 1.591.461 1.591 1.475v6.821c0 1.106-.434 1.475-1.591 1.475h-9.737c-.289 0-.579.046-.867.046-.579.046-.675.368-.579.83.096.645.531 1.106.723 1.705h0 .001zm-7.519.645c.048-.368-.193-.461-.531-.415H.637c-.386 0-.579-.138-.579-.507.048-2.212-.289-1.843 1.832-1.889h1.832c.289 0 .627 0 .627.323.048.6 0 1.198 0 1.798 0 .138-.096.277-.241.23-.482-.093-.627.415-1.012.461h0 0zm1.06 4.424c.048-.368-.193-.461-.531-.415H1.697c-.386 0-.579-.138-.579-.507.048-2.212-.289-1.843 1.832-1.889h1.832c.289 0 .627 0 .627.323.048.6 0 1.198 0 1.798 0 .138-.096.277-.241.23-.482-.093-.627.368-1.012.461h0v-.001z"/></g></g><defs ><path id="B" d="M267.079 73.023c0 .23-.338.368-.964.323h-1.591c-.434 0-.675.093-.771.23s-.096.553-.096 1.245v21.754l-.048 2.35c-.048.23-.096.323-.241.323s-.338-.138-.531-.415l-5.061-7.052-10.701-15.439v21.154c.048.323.241.553.579.645.386.093 1.253.138 2.699.184.338 0 .531.093.531.323s-.338.368-1.012.368c-.241 0-.964-.046-2.266-.093-.434-.046-.819-.046-1.205-.046.048 0-.193.046-.675.093s-1.253.093-2.218.093h-.386c-.627 0-.915-.093-.915-.323s.241-.323.771-.323c1.542-.046 2.458-.138 2.699-.277.241-.184.386-.691.386-1.613V77.723c0-2.074-.434-3.411-1.349-3.918-.434-.23-1.157-.368-2.266-.368-.675 0-1.012-.138-1.012-.415 0-.23.193-.368.579-.368l2.025.093 1.301.093 1.108-.046 2.506-.093 13.642 19.449V75.328l-.048-1.429s-.145-.277-.338-.368-.819-.138-1.88-.138c-.964 0-1.446-.093-1.446-.323s.338-.368.964-.368h6.411c.531-.046.819.093.819.323h0l-.002-.002z"/><path id="C" d="M116.563 33.158c0-.368-.048-.553-.482-.507-.675.046-1.349 0-1.976 0-.193 0-.482.046-.531-.23a6.54 6.54 0 0 1 0-1.936c.048-.277.289-.23.531-.23h3.519c.627.507.193 1.152.289 1.752.048.277.096.645-.338.6-.579 0-.771.277-1.012.553h0v-.001z"/><path id="D" d="M18.086 20.806c0-.368-.048-.553-.482-.507-.675.046-1.349 0-1.976 0-.193 0-.482.046-.531-.23a6.54 6.54 0 0 1 0-1.936c.048-.277.289-.23.531-.23h3.519c.627.507.193 1.152.289 1.752.048.277.096.645-.338.6-.531 0-.723.277-1.012.553h0v-.001z"/><path id="E" d="M110.49 81.964c-1.06-.277-1.639-.922-2.073-1.752-.241-.461-.531-.645-1.108-.645-2.747 0-2.795-.046-2.795-2.627v-5.484c0-1.291.434-1.705 1.832-1.705h14.509c1.253 0 1.639.368 1.639 1.475v6.729c0 1.245-.386 1.613-1.687 1.613h-9.93c-1.157 0-1.301.184-.915 1.245.096.415.338.784.531 1.152h0-.002z"/></defs></svg>