<svg height="120" width="173" xmlns="http://www.w3.org/2000/svg"><g fill="none" fill-rule="evenodd"><g fill="#3596c6"><path d="m87.348 106.194c-.447.002-.926-.194-.913.648.051 3.5.022 6.999.022 10.711-.255-.34-.395-.515-.525-.697-2.172-3.092-4.395-6.15-6.484-9.295-.704-1.06-1.433-1.576-2.707-1.394-.478.069-.628.145-.625.645.022 4.037.037 8.076-.008 12.113-.01.852.496.616.93.64.47.025.86.099.847-.66-.049-3.192-.022-6.387-.022-9.582v-.93c.238.324.339.459.437.596 2.167 3.065 4.397 6.086 6.464 9.215.736 1.116 1.53 1.524 2.795 1.386.49-.054.625-.15.623-.645-.02-4.037-.04-8.076.012-12.113.01-.795-.41-.643-.846-.638zm27.389-4.275c0-.022-.02-.047-.057-.12-1.278.395-2.599.63-3.953.552-2.071-.118-3.671-.964-4.489-2.984-.48-1.193-.552-2.44-.39-3.688.322-2.494 1.865-4.04 4.354-4.427 1.524-.238 2.991.125 4.52.449 0-.24-.012-.393.002-.543.064-.733-.171-1.138-1.003-1.126-.658.01-1.316-.157-1.978-.194-4.393-.248-7.72 2.165-7.814 6.72-.056 2.706.776 4.993 3.325 6.318 1.944 1.011 4.032.982 6.133.663 1.35-.206 1.347-.221 1.35-1.62z"/><path d="m152.224 109.573c-1.937 1.271-2.795 3.745-2.182 6.312.515 2.152 2.182 3.553 4.54 3.818 4.182.471 6.815-1.64 6.802-5.593.018-.507-.078-1.136-.265-1.752-1.263-4.213-6.461-4.385-8.895-2.785zm3.357 9.075c-2.678-.01-4.199-1.622-4.194-4.447.007-2.729 1.637-4.432 4.262-4.456 2.602-.025 4.305 1.764 4.302 4.515 0 2.763-1.627 4.395-4.37 4.388z" fill-rule="nonzero"/><path d="m127.684 113.576c-.972.022-1.944.022-2.913 0-.39-.01-.461.164-.469.505-.01.388.1.56.518.533.483-.032.972.007 1.455-.015.33-.015.447.088.44.43-.02.944-.01 1.891-.005 2.836.002.245-.02.427-.322.506-1.59.41-3.188.544-4.729-.108-1.673-.707-2.488-2.602-2.181-4.798.26-1.853 1.678-3.254 3.575-3.602 1.551-.283 3.03.066 4.592.473-.155-.503.247-1.148-.516-1.313-1.605-.343-3.224-.562-4.861-.191-2.773.628-4.481 2.994-4.304 5.953.166 2.813 1.97 4.643 4.893 4.938 1.642.164 3.259-.091 4.876-.356.395-.064.407-.307.407-.604-.002-1.558-.007-3.119.003-4.677.002-.331-.062-.52-.46-.51zm-8.98-10.104c.597.025.783-.14.759-.753-.052-1.249.002-2.505-.025-3.757-.01-.444.07-.62.572-.611 1.738.034 3.475.027 5.212.002.435-.004.558.116.55.55-.027 1.328.027 2.66-.027 3.985-.024.609.28.597.69.567.365-.027.805.174.797-.537-.032-3.22-.03-6.44 0-9.662.008-.711-.437-.51-.81-.547-.441-.041-.699.022-.674.592.049 1.148-.005 2.299.024 3.45.012.434-.118.557-.552.55a147.618 147.618 0 0 0 -5.212.005c-.508.01-.58-.177-.57-.614.027-1.148-.029-2.302.025-3.45.03-.663-.376-.533-.739-.525-.368.01-.82-.182-.8.535.047 1.61.015 3.22.015 4.829 0 1.558.042 3.119-.02 4.677-.027.683.265.692.786.714zm51.127 10.675c.724-.331 1.271-.841 1.5-1.637.574-2.007-.504-3.528-2.619-3.617-1.3-.054-2.609.015-3.91-.027-.556-.017-.667.18-.662.697.022 3.092.032 6.187-.005 9.279-.007.633.202.75.776.746.56-.003.775-.098.765-.734-.041-2.785-.007-5.573-.027-8.358-.002-.462.101-.636.59-.604.687.044 1.381-.017 2.068.027 1.063.066 1.612.67 1.647 1.733.032 1.016-.547 1.752-1.59 2.058-.629.187-1.267.13-1.986.057.965 1.595 1.963 3.055 2.756 4.618.547 1.083 1.271 1.384 2.469 1.117l-3.409-5.006a3.82 3.82 0 0 0 1.637-.349zm-23.288-15.973c1.416-.437 2.142-1.553 2-3.038-.135-1.413-.91-2.162-2.457-2.346-1.374-.162-2.758-.02-4.135-.088-.55-.027-.68.157-.677.687a431.23 431.23 0 0 1 -.007 9.428c-.01.687.328.621.782.65.543.035.749-.08.737-.694a223.827 223.827 0 0 1 -.01-6.67c.007-.756-.344-1.786.154-2.189.472-.378 1.463-.127 2.224-.123 1.138.005 1.725.442 1.909 1.375.201 1.013-.258 1.865-1.22 2.294-.729.327-1.48.312-2.348.147 1.013 1.672 1.978 3.257 2.94 4.845.7 1.153.78 1.187 2.23.885-1.111-1.634-2.21-3.249-3.337-4.903.471-.095.852-.147 1.215-.26z"/><path d="m136.562 109.686c-.164-.403-.218-.898-.89-.822-.653.071-1.358-.177-1.647.778-.228.748-.655 1.435-.989 2.152-1.198 2.557-2.393 5.114-3.64 7.774.34 0 .548-.03.744.005.685.123 1.043-.15 1.284-.81.383-1.053.903-2.054 1.3-3.1.19-.495.46-.627.962-.608.994.042 1.993.035 2.99.003.446-.015.679.1.831.554.346 1.038.817 2.035 1.131 3.08.214.714.567.947 1.294.898.54-.037.645-.105.424-.638-1.28-3.084-2.527-6.179-3.794-9.266zm-3.263 4.331 1.828-4.132 1.693 4.132zm-36.12-4.675c-.13-.321-.3-.544-.67-.459-.509.118-1.19-.35-1.52.34-1.617 3.403-3.205 6.821-4.856 10.345.275 0 .432-.024.579.005.773.145 1.185-.167 1.458-.913.392-1.075.925-2.1 1.371-3.156.138-.326.315-.451.68-.444 1.073.025 2.147.035 3.22-.002.449-.017.616.164.756.552.373 1.028.849 2.024 1.165 3.067.229.756.614.972 1.367.916.55-.04.565-.152.373-.616-1.327-3.208-2.626-6.422-3.924-9.635zm.039 4.751c-.894-.007-1.79-.01-2.683 0-.451.005-.343-.213-.225-.476.532-1.185 1.057-2.373 1.644-3.69.56 1.35 1.055 2.547 1.553 3.744.123.295.034.425-.29.422zm33.477-11.484c.39-1.048.918-2.045 1.33-3.085.182-.459.43-.599.905-.582.994.037 1.996.045 2.99-.002.505-.025.716.174.87.618.31.891.668 1.762 1.007 2.64.522 1.353.525 1.353 2.024 1.208-.012-.073-.01-.152-.037-.218-1.362-3.35-2.73-6.697-4.078-10.054-.162-.4-.422-.481-.773-.42-.498.089-1.107-.3-1.45.462-.879 1.95-1.819 3.872-2.734 5.806-.692 1.462-1.38 2.927-2.106 4.466.314 0 .523-.03.72.005.713.135 1.08-.167 1.332-.844zm3.82-8.81c.61 1.484 1.137 2.773 1.694 4.132h-3.524z" fill-rule="nonzero"/><path d="m109.964 109.96c-1.237 2.769-2.477 5.537-3.767 8.42-.108-.243-.175-.377-.229-.517-1.028-2.714-2.078-5.421-3.06-8.15-.24-.668-.564-.89-1.256-.861-.555.022-.565.157-.388.606 1.244 3.15 2.466 6.311 3.693 9.47.138.355.219.763.764.64.557-.125 1.227.31 1.614-.572 1.117-2.542 2.33-5.043 3.497-7.56.383-.822.749-1.652 1.134-2.499-1.475-.159-1.475-.159-2.002 1.024zm56.962-9.28c-.086.756.01 1.531-.02 2.297-.03.763.528.432.854.468.319.037.724.16.7-.463-.042-1.07.016-2.145-.023-3.218-.022-.618.14-1.126.474-1.641 1.134-1.747 2.233-3.522 3.362-5.313-1.225-.39-1.848.113-2.351 1.121-.623 1.252-1.423 2.415-2.184 3.679-.766-1.34-1.477-2.577-2.182-3.816-.677-1.188-.675-1.19-2.21-1.004.834 1.372 1.594 2.754 2.485 4.044.81 1.178 1.261 2.393 1.095 3.846zm-18.98 8.191c-2.402.015-4.807.015-7.21-.002-.458-.003-.466.235-.478.579-.012.39.162.466.506.456.74-.02 1.484.027 2.223-.017.498-.03.594.157.586.611-.027 1.406-.01 2.812-.01 4.219 0 1.381.042 2.763-.02 4.142-.029.665.244.726.784.721.527-.004.8-.039.787-.714-.046-2.684.02-5.369-.044-8.054-.02-.82.24-.996.977-.927.633.061 1.279-.008 1.917.022.422.02.431-.211.439-.523.007-.336-.057-.515-.457-.513zm14.192-16.164c-2.327.015-4.653.015-6.98 0-.429-.003-.632.061-.645.572-.014.584.324.512.68.512.638-.004 1.281.042 1.917-.014.625-.054.822.132.812.783-.037 2.709.01 5.418-.032 8.127-.01.66.191.77.805.8.736.037.68-.34.675-.827-.015-1.33-.005-2.657-.005-3.988 0-1.457.012-2.915-.008-4.37-.004-.395.099-.538.51-.52.767.032 1.535-.015 2.3.017.44.02.557-.125.565-.56.007-.478-.197-.535-.594-.532zm-46.879 21.455c0-1.556-.03-3.114.015-4.67.017-.613-.27-.66-.734-.623-.407.032-.849-.15-.839.594.037 3.163.037 6.328-.002 9.492-.01.714.382.596.812.62.498.03.79-.017.768-.67-.057-1.577-.02-3.163-.02-4.743zm36.599-10.704c.425.02.758.068.751-.592a414.95 414.95 0 0 1 -.002-9.573c.007-.67-.354-.576-.764-.584-.436-.01-.773-.041-.753.606.047 1.608.015 3.218.015 4.825 0 1.583.039 3.168-.018 4.748-.026.7.383.553.771.57z"/></g><path d="m.152 60.339h117.821v1h-117.821z" fill="#3596c6"/><path d="m59.348 1.714v117.821h-.456v-117.821z" fill="#3596c6"/><g fill-rule="nonzero"><path d="m59.119 0-5.144 17.256 5.144-5.828 4.8 5.485zm.456 1.944 3.313 12.912-3.313-4.112zm-.625 95.606c-9.895 0-19.195-3.853-26.192-10.85-6.996-6.995-10.849-16.296-10.849-26.19 0-9.895 3.853-19.196 10.85-26.192 6.996-6.996 16.296-10.85 26.19-10.85 9.895 0 19.196 3.854 26.192 10.85s10.85 16.297 10.85 26.191c0 9.895-3.854 19.196-10.85 26.192-6.996 6.997-16.297 10.849-26.191 10.849zm0-73.514c-20.113 0-36.474 16.363-36.474 36.473 0 20.113 16.363 36.474 36.474 36.474 20.11 0 36.473-16.363 36.473-36.474 0-20.112-16.36-36.473-36.473-36.473z" fill="#3596c6"/><path d="m59.119 99.308c-10.348 0-20.076-4.03-27.394-11.347-7.318-7.318-11.347-17.046-11.347-27.394 0-10.349 4.03-20.076 11.347-27.394 7.318-7.318 17.046-11.347 27.394-11.347s20.076 4.03 27.394 11.347c7.317 7.318 11.347 17.045 11.347 27.394 0 10.348-4.03 20.076-11.347 27.394-7.318 7.318-17.046 11.347-27.394 11.347zm0-77.028c-21.112 0-38.287 17.175-38.287 38.287s17.175 38.287 38.287 38.287 38.287-17.175 38.287-38.287-17.175-38.287-38.286-38.287z" fill="#009865"/><path d="m59.372 21.975c-.06-.272-.45-.274-.508 0l-5.458 25.107 5.828 13.37 5.6-13.029zm.147 4.138 4.456 21.256-4.684 11.085.228-32.398-.228 32.398zm38.135 34.535c.272-.059.275-.45 0-.508l-25.107-5.458-13.37 5.828 13.03 5.6zm-4.137.147-21.257 4.457-11.085-4.685 32.398.228-32.398-.228zm-34.65 38.022c.058.273.448.275.507 0l5.458-25.107-5.828-13.369-5.6 13.028 5.462 25.448zm-.148-4.137-4.456-21.257 4.684-11.084-.228 32.397.228-32.397-.228 32.34z" fill="#009865"/><path d="m20.928 60.373c-.273.059-.275.45 0 .508l25.106 5.458 13.37-5.829-13.029-5.6zm4.137-.147 21.256-4.457 11.085 4.685-32.397-.228 32.397.228z" fill="#009865"/><path d="m86.577 33.34c.152-.236-.123-.51-.359-.36l-21.612 13.893-5.332 13.575 13.17-5.251zm-2.822 3.028-11.88 18.182-11.151 4.525 23.07-22.746-23.07 22.746 23.03-22.707zm2.382 51.414c.236.152.51-.123.361-.359l-13.894-21.612-13.576-5.332 5.252 13.17zm-3.028-2.82-18.181-11.88-4.526-11.15 22.746 23.07-22.746-23.07z" fill="#3596c6"/><path d="m31.809 87.6c-.153.236.122.51.358.36l21.612-13.894 5.333-13.575-13.17 5.251-14.134 21.858zm2.822-3.028 11.879-18.182 11.15-4.525-23.07 22.746 23.07-22.746-23.03 22.707zm-2.531-51.448c-.236-.152-.51.123-.361.358l13.894 21.612 13.576 5.333-5.252-13.17zm3.028 2.822 18.181 11.88 4.526 11.15-22.746-23.07 22.746 23.07z" fill="#3596c6"/></g></g></svg>