<svg xmlns="http://www.w3.org/2000/svg" viewBox="0 0 500 500">
	<path d="m270.9 196.9-.2.5.4-.5zm-45.7 110 .1-.6-.3.6zm-2.5-110 .4.5-.2-.5zm50.7 110-.4-.6.2.6z" fill="none"/>
	<path d="m403.4 340.4-61.3-33.5h-18.5l63.9 60.7-74.9-60.1-2.3-.6h-9.2l64.8 84.5-75.5-84.5h-3.6l53 101.5-66.6-101.5h-.2L310.3 422l-48.8-114.6L280.8 431l-27.2-123.6-4.5 130.5-4.5-130.5L217.4 431l19.3-123.6L187.9 422l37.3-115.1h-.2l-66.6 101.5 53-101.5h-3.6l-75.5 84.5 64.8-84.5h-9.2l-2.3.6-74.9 60.1 63.9-60.7h-18.5l-61.4 33.5 51.1-33.5H62.7a195 195 0 0 0 374.2 0h-84.5l51 33.5zm-310.8-177 61.3 33.5h18.5l-63.9-60.7 74.9 60.1 2.3.6h9.2l-64.8-84.5 75.5 84.5h3.6l-53-101.5 66.6 101.5h.2L185.6 81.7l48.8 114.6-19.3-123.6 27.2 123.6 4.5-130.5 4.5 130.5 27.2-123.6-19.3 123.6L308 81.7l-37.3 115.1h.2l66.6-101.5-53 101.5h3.6l75.5-84.5-64.6 84.6h9.2l2.3-.6 74.9-60.1-63.9 60.7H340l61.4-33.5-51.4 33.5h87.1a195.2 195.2 0 0 0-374.8 0h81.4l-51.1-33.5z" fill="#2f598b"/>
	<path d="M61.8 291.3V208h85.3v14.1H88.5v18.5h41.6v14H88.5v22.7h57.4v14H61.8zM224 260.7l20.4 5.2c-3.1 9.1-8.3 15.8-15.6 20.3s-16.5 6.6-27.7 6.6a51.2 51.2 0 0 1-34.1-11.3 38.6 38.6 0 0 1-13.4-31c0-13.9 4.5-24.6 13.4-32.3 9-7.7 20.7-11.5 35.3-11.5a50 50 0 0 1 31 9c4.7 3.6 8.3 8.7 10.7 15.3l-20.8 4a17.4 17.4 0 0 0-7.7-10.2 26 26 0 0 0-14.2-3.8c-7.7 0-14 2.2-18.8 6.6-4.8 4.4-7.2 11.6-7.2 21.5 0 10.5 2.4 18 7.1 22.5a25.7 25.7 0 0 0 18.5 6.7c5.6 0 10.4-1.4 14.4-4.3 4.1-2.8 7-7.2 8.7-13.3zm37.2 30.6V208h83.3v14.1h-62.2v19.7h48.6v14.1h-48.6v35.4h-21.1zm173.2 0h-22.9l-9.1-18.9h-41.6l-8.6 18.9h-22.3l40.6-83.3h22.2l41.7 83.3zm-38.8-33-14.3-30.9-14.1 30.9h28.4z" />
</svg>