<?xml version="1.0" encoding="UTF-8"?><svg id="a" xmlns="http://www.w3.org/2000/svg" viewBox="0 0 5000 5000"><defs><style>.c{fill:#fff;}.d{fill:#a7a9ac;}.e{fill:#797a7d;}.f{fill:#58595b;}.g{fill:#414042;}</style></defs><ellipse class="c" cx="2474.23" cy="2500.47" rx="2329.28" ry="2313.16"/><path class="f" d="M2474.23,219.56c310.13,0,610.77,60.7,894.35,179.25,273.14,114.76,518.78,279.78,730.27,488.43,210.55,209.6,376.52,453.34,492.22,724.58,119.5,280.73,180.2,579.48,180.2,887.71s-60.7,606.98-180.2,887.71c-115.71,271.24-281.68,515.93-492.22,724.58-210.55,209.6-456.18,373.67-730.27,488.43-283.57,118.55-584.22,179.25-894.35,179.25s-610.77-60.7-894.35-179.25c-273.14-114.76-518.78-279.78-730.27-488.43-210.55-209.6-376.52-453.34-492.22-724.58-119.5-280.73-180.2-579.48-180.2-887.71s60.7-606.98,180.2-887.71c115.71-271.24,281.68-515.93,492.22-724.58,210.55-208.65,456.18-373.67,730.27-488.43,283.57-118.55,584.22-179.25,894.35-179.25m0-32.25C1188.19,187.32,144.95,1222.97,144.95,2500.47s1043.24,2313.16,2329.28,2313.16,2329.28-1035.66,2329.28-2313.16S3760.26,187.32,2474.23,187.32h0Z"/><circle class="c" cx="2479.92" cy="2500.47" r="2238.23"/><path class="f" d="M2479.92,305.87c295.9,0,584.22,57.85,854.51,172.61,261.76,110.96,496.02,268.4,698.03,470.41,202.01,202.01,359.45,436.27,470.41,698.03,114.76,270.3,172.61,557.66,172.61,854.51s-57.85,584.22-172.61,854.51c-110.96,261.76-268.4,496.02-470.41,698.03s-436.27,359.45-698.03,470.41c-270.3,114.76-557.66,172.61-854.51,172.61s-584.22-57.85-854.51-172.61c-261.76-110.96-496.02-268.4-698.03-470.41-202.01-202.01-359.45-436.27-470.41-698.03-114.76-270.3-172.61-557.66-172.61-854.51s57.85-584.22,172.61-854.51c110.96-261.76,268.4-496.02,470.41-698.03,202.01-202.01,436.27-359.45,698.03-470.41,270.3-114.76,557.66-172.61,854.51-172.61m0-43.63c-1235.77,0-2238.23,1001.51-2238.23,2238.23s1001.51,2238.23,2238.23,2238.23,2238.23-1001.51,2238.23-2238.23S3715.69,262.24,2479.92,262.24h0Z"/><polygon class="e" points="2685.72 1978.85 2683.83 1983.59 2687.62 1978.85 2685.72 1978.85"/><polygon class="e" points="2252.3 3022.1 2253.25 3016.41 2250.4 3022.1 2252.3 3022.1"/><polygon class="e" points="2228.59 1978.85 2232.39 1983.59 2230.49 1978.85 2228.59 1978.85"/><polygon class="e" points="2709.43 3022.1 2705.64 3016.41 2707.54 3022.1 2709.43 3022.1"/><path class="f" d="M3942.36,3339.81l-581.37-317.72h-175.45l606.03,575.68-710.35-569.99-21.81-5.69h-87.25l614.57,801.4-716.05-801.4h-34.14l502.65,962.63-631.64-962.63h-1.9l353.75,1091.61-462.82-1086.87,183.04,1172.23-257.97-1172.23-42.68,1237.67-42.68-1237.67-257.97,1172.23,183.04-1172.23-462.82,1086.87,353.75-1091.61h-1.9l-631.64,962.63,502.65-962.63h-34.14l-716.05,801.4,614.57-801.4h-87.25l-21.81,5.69-710.35,569.99,606.03-575.68h-175.45l-582.32,317.72,484.63-317.72H711.14c226.67,765.36,935.13,1323.02,1774.46,1323.02s1546.85-558.61,1774.46-1323.02h-801.4l483.69,317.72Z"/><path class="f" d="M994.72,1661.14l581.37,317.72h175.45l-606.03-575.68,710.35,569.99,21.81,5.69h87.25l-614.57-801.4,716.05,801.4h34.14l-502.65-962.63,631.64,962.63h1.9l-354.7-1092.56,462.82,1086.87-183.04-1172.23,257.97,1172.23,42.68-1237.67,42.68,1237.67,257.97-1172.23-183.04,1172.23,462.82-1086.87-353.75,1091.61h1.9l631.64-962.63-502.65,962.63h34.14l716.05-801.4-612.67,802.35h87.25l21.81-5.69,710.35-569.99-606.03,575.68h175.45l582.32-317.72-487.48,317.72h826.06c-223.82-771.05-934.18-1334.4-1777.31-1334.4S931.17,1207.8,707.35,1978.85h772l-484.63-317.72Z"/><polygon class="d" points="2687.62 1978.85 2815.65 1978.85 3318.31 1015.27 2687.62 1978.85"/><polygon class="d" points="2849.8 1978.85 2952.22 1978.85 3565.84 1177.45 2849.8 1978.85"/><polygon class="d" points="3060.34 1973.16 3038.53 1978.85 3163.72 1978.85 3770.7 1403.17 3060.34 1973.16"/><polygon class="d" points="3339.17 1978.85 3435.91 1978.85 3921.49 1661.14 3339.17 1978.85"/><polygon class="d" points="3038.53 886.29 2576.66 1973.16 2759.7 800.93 2500.78 1973.16 2458.11 736.44 2415.43 1973.16 2156.51 800.93 2339.55 1973.16 1876.73 886.29 2230.49 1978.85 2685.72 1978.85 3038.53 886.29"/><polygon class="d" points="1479.35 1978.85 1577.04 1978.85 994.72 1661.14 1479.35 1978.85"/><polygon class="d" points="1145.51 1403.17 1751.54 1978.85 1876.73 1978.85 1855.87 1973.16 1145.51 1403.17"/><polygon class="d" points="1596.95 1015.27 2100.56 1978.85 2228.59 1978.85 1596.95 1015.27"/><polygon class="d" points="1963.99 1978.85 2065.47 1978.85 1350.37 1177.45 1963.99 1978.85"/><polygon class="d" points="2250.4 3022.1 2121.42 3022.1 1618.77 3984.73 2250.4 3022.1"/><polygon class="d" points="2087.28 3022.1 1985.8 3022.1 1371.23 3823.5 2087.28 3022.1"/><polygon class="d" points="1876.73 3027.79 1898.55 3022.1 1773.36 3022.1 1167.33 3597.78 1876.73 3027.79"/><polygon class="d" points="1597.9 3022.1 1501.17 3022.1 1016.53 3339.81 1597.9 3022.1"/><polygon class="d" points="1898.55 4114.66 2361.37 3027.79 2178.33 4200.01 2436.29 3027.79 2479.92 4264.51 2522.6 3027.79 2780.56 4200.01 2597.52 3027.79 3060.34 4114.66 2707.54 3022.1 2252.3 3022.1 1898.55 4114.66"/><polygon class="d" points="3457.72 3022.1 3360.99 3022.1 3942.36 3339.81 3457.72 3022.1"/><polygon class="d" points="3792.51 3597.78 3185.53 3022.1 3060.34 3022.1 3082.16 3027.79 3792.51 3597.78"/><polygon class="d" points="3340.12 3984.73 2837.47 3022.1 2709.43 3022.1 3340.12 3984.73"/><polygon class="d" points="2974.04 3022.1 2871.61 3022.1 3587.65 3823.5 2974.04 3022.1"/><g id="b"><g><path class="g" d="M702.61,2874.14v-790.02h808.99v133.73H955.83v175.45h394.54v132.78h-394.54v215.29h544.38v132.78H702.61Z"/><path class="g" d="M2240.92,2583.93l193.47,49.32c-29.4,86.3-78.72,149.85-147.95,192.53-69.23,42.68-156.49,62.59-262.71,62.59-130.88,0-239-36.04-323.41-107.17-84.41-72.08-127.09-169.76-127.09-294.01,0-131.83,42.68-233.31,127.09-306.33,85.36-73.03,196.32-109.07,334.79-109.07,120.45,0,219.08,28.45,294.01,85.36,44.57,34.14,78.72,82.51,101.48,145.11l-197.27,37.94c-11.38-40.78-36.04-73.03-73.03-96.74-36.99-23.71-82.51-36.04-134.67-36.04-73.03,0-132.78,20.86-178.3,62.59-45.52,41.73-68.29,110.01-68.29,203.91,0,99.58,22.76,170.71,67.34,213.39,44.57,42.68,103.38,63.54,175.45,63.54,53.11,0,98.63-13.28,136.57-40.78,38.88-26.56,66.39-68.29,82.51-126.14Z"/><path class="g" d="M2593.73,2874.14v-790.02h790.02v133.73h-589.91v186.84h460.92v133.73h-460.92v335.74h-200.11Z"/><path class="g" d="M4236.36,2874.14h-217.18l-86.3-179.25h-394.54l-81.56,179.25h-211.49l385.05-790.02h210.55l395.48,790.02Zm-367.98-312.97l-135.62-293.06-133.73,293.06h269.35Z"/></g></g></svg>