<svg xmlns="http://www.w3.org/2000/svg" viewBox="0 0 150 73">
  <path fill="#cde" d="M121 24c-7-10-18-18-35-24q24 34-8 65c20-7 35-21 43-41"/>
  <path fill="#acd" d="M138 35c-6-14-15-24-27-31 0 29-11 49-33 61q39-3 60-30"/>
  <path fill="#48b" d="M147 41c-3-10-8-19-15-29-6 31-23 49-53 53 35-2 57-10 68-24"/>
  <path fill="#26b" d="M150 59a34 34 0 0 0-2-10c-14 10-38 15-70 15 20 1 44-1 72-4"/>
  <path fill="#7ad" d="M0 60a59 59 0 0 1 2-12c12 11 34 16 64 17q-25 0-66-4"/>
  <path fill="#9bd" d="m3 41 4-15q17 34 59 39-45-1-63-24"/>
  <path fill="#666" d="m81 66-6 2-6-2H0v3c0 1 5 3 10 3l3-1v2h125v-2h2l10-2v-3Z"/>
  <path fill="#999" d="M135 68a2 2 0 1 0 1 1 2 2 0 0 0-1-1Zm-24 0h20v2h-20z"/>
</svg>