
<svg xmlns="http://www.w3.org/2000/svg" xmlns:xlink="http://www.w3.org/1999/xlink"
     viewBox="0 0 880 660" stroke="currentColor" fill="none">
		<path stroke-linecap="round" stroke-linejoin="round" stroke-width="60" d="M207.3,156.6c-4.7,18.6-2.6,37.4,3,56.1c7.2,24.1,19.5,45.1,34.7,64.6c4.3,5.6,4.3,9.9,1.4,16
			c-12.6,26.3-25.6,52.6-36.8,79.5c-12.1,28.9-24.5,58.5-20.8,90.7c3.3,28.2,9.6,56,14.9,84c2.3,12.4,4.3,25,8.1,37
			c5.6,17.6-4.4,29.6-12.8,42.5c-2.3,3.5-5.1,6.7-9.1,11.9c16.5-0.8,31.3-1.4,46-2.3c22.5-1.4,45-3.1,67.4-4.4
			c23.5-1.4,45.9-6.3,65.7-19.7c19.2-13,28.6-31.9,30.3-54.3c3.4-43.2-14.2-78.9-42.7-109.8c-27-29.3-55-57.7-81.4-87.5
			c-15.8-17.8-19.5-38.6-4.8-61.4c9.4,7.5,18.5,14.9,27.8,22.2c34.4,26.8,68.9,53.5,103.1,80.4c55.5,43.7,111.5,86.9,166.1,131.6
			c22,18,43.1,37.8,60.9,59.8c13.9,17.1,22,38.9,32.7,58.5c1,0,1.2,0.1,2.2,0.1c19.7-29.2,36.2-60,40.8-95.3
			c7.1-54.3,2.6-107.4-30.2-153.5c-12.8-18-30.8-32.6-47.7-47.4c-14-12.2-29.7-22.6-45-33.2c-5.5-3.9-7-7.1-4.4-13.8
			c5.1-13.4,9.8-27.1,14.4-40.7c2.6-7.8,12.4-10.3,18.5-4.8l42.1,37.7c8.7-12.4,18.9-26,28.2-40.2c14.4-21.9,25.5-45.3,30-71.5
			c0.9-4.9,1.5-9.7,1.8-13.9c0.7-9.2-1.2-18.4-5.4-26.6c-6.1-12.1-12-24.3-20.4-34.7c-12.9-16-29.6-29-44.2-43.6
			c-17.6-17.5-34.8-35.5-52.8-53.9c-18.2,14.7-34.6,33.1-45.9,55.1c-10.2,19.9-20.4,40.3-26.4,61.7c-6.9,24.3-3.1,48.5,16.7,67.3
			c9.1,8.7,18.5,17,28.3,24.9c12.4,10,15.8,20.8,8.6,34.9c-5,10-11.2,19.4-17.1,28.9c-3.2,5.1-6.9,5.6-12.2,1.5
			c-48.5-37.8-98-74.4-145.5-113.4c-37.5-30.8-72.2-65.1-101.8-103.9c-11.7-15.3-23-31.1-36-48.8
			C257.6,24.9,218.1,113.8,207.3,156.6z"/>
</svg>
