<svg id="Layer_1" data-name="Layer 1" xmlns="http://www.w3.org/2000/svg" xmlns:xlink="http://www.w3.org/1999/xlink" viewBox="0 0 130.5 91.4"><defs><style>.cls-1{fill:#fff;}.cls-1,.cls-2,.cls-4{fill-rule:evenodd;}.cls-2{fill:url(#linear-gradient);}.cls-3{fill:#d8d8d8;}.cls-4{fill:url(#linear-gradient-2);}</style><linearGradient id="linear-gradient" x1="-851.92" y1="635.2" x2="-851.92" y2="636.2" gradientTransform="matrix(130.52, 0, 0, -91.39, 111290.88, 58190.03)" gradientUnits="userSpaceOnUse"><stop offset="0" stop-color="#235084"/><stop offset="1" stop-color="#2d66a6"/></linearGradient><linearGradient id="linear-gradient-2" x1="-785.63" y1="627.9" x2="-784.63" y2="627.9" gradientTransform="matrix(11.71, 0, 0, -34.85, 9244.82, 21950.8)" gradientUnits="userSpaceOnUse"><stop offset="0" stop-color="#9a1d59"/><stop offset="1" stop-color="#d01f36"/></linearGradient></defs><path class="cls-1" d="M95.2,136.8H37.7a.7.7,0,0,1-.7-.7V52.8a.7.7,0,0,1,.7-.7H95.2a.7.7,0,0,1,.7.7v83.3a.7.7,0,0,1-.7.7Zm64.9,0H103.6a.7.7,0,0,1-.7-.7V52.8a.8.8,0,0,1,.7-.8h56.5a.8.8,0,0,1,.7.8v83.3a.7.7,0,0,1-.7.7Z" transform="translate(-34.2 -49.2)"/><path class="cls-2" d="M159.4,69v65.7H109.5l-1.8-.2a5.4,5.4,0,0,1-4.5-5.7V54.1h49.6a6,6,0,0,1,6.6,5.6c.2,3.1,0,6.2,0,9.3Zm-70,65.8H39.5V72c0-3.6-.2-7.2-.2-10.8s2.8-7.3,7.6-7,8.5,0,12.8-.1H95.6v74.3c0,4.1-2.2,6.4-6.2,6.4Zm75.3,3.9V59.6c0-6.3-4-10.4-10.3-10.4H44.4c-6.2,0-10.2,4.1-10.2,10.4v81H89c4.3,0,8-1,10.4-5,2.4,3.9,5.9,5,10.1,5h55.2v-1.9Z" transform="translate(-34.2 -49.2)"/><rect class="cls-3" x="12.6" y="70.3" width="40.3" height="5.37"/><rect class="cls-3" x="12.6" y="58.2" width="40.3" height="5.37"/><rect class="cls-3" x="12.6" y="47.5" width="40.3" height="5.37"/><rect class="cls-3" x="12.6" y="36.7" width="40.3" height="5.37"/><rect class="cls-3" x="12.6" y="24.6" width="40.3" height="5.37"/><rect class="cls-3" x="12.6" y="13.9" width="40.3" height="5.37"/><rect class="cls-3" x="76.9" y="71" width="40.3" height="5.37"/><rect class="cls-3" x="76.9" y="58.9" width="40.3" height="5.37"/><rect class="cls-3" x="76.9" y="48.1" width="40.3" height="5.37"/><rect class="cls-3" x="76.9" y="37.4" width="40.3" height="5.37"/><rect class="cls-3" x="76.9" y="25.3" width="40.3" height="5.37"/><rect class="cls-3" x="76.9" y="14.6" width="40.3" height="5.37"/><path class="cls-4" d="M58.4,84.1l-5.8-9.5L46.8,84V82.3c0-10.3,0-20.7-.1-31,0-1.6.4-2.1,1.9-2.1a76.6,76.6,0,0,0,8.3,0c1.1,0,1.6.3,1.6,1.7-.1,10.9-.1,21.8-.1,33.2Z" transform="translate(-34.2 -49.2)"/></svg>