<svg id="Layer_1" data-name="Layer 1" xmlns="http://www.w3.org/2000/svg" xmlns:xlink="http://www.w3.org/1999/xlink" viewBox="0 0 145.9 105.2"><defs><style>.cls-1{fill:#fff;}.cls-2{mask:url(#mask);}.cls-3,.cls-4{fill-rule:evenodd;}.cls-3{fill:url(#radial-gradient);}.cls-4{fill:url(#linear-gradient);}</style><mask id="mask" x="-25.04" y="-41.05" width="200" height="200" maskUnits="userSpaceOnUse"><g transform="translate(-25 -42.1)"><g id="d"><rect id="a" class="cls-1" y="1" width="200" height="200" rx="40"/></g><g id="f"><rect id="a-2" data-name="a" class="cls-1" y="1" width="200" height="200" rx="40"/></g></g></mask><radialGradient id="radial-gradient" cx="-852.61" cy="635.46" r="0.36" gradientTransform="matrix(145.9, 0, 0, -87.04, 124493.01, 55397.77)" gradientUnits="userSpaceOnUse"><stop offset="0" stop-color="#969696"/><stop offset="0.67" stop-color="#999"/><stop offset="0.88" stop-color="#868586"/><stop offset="1" stop-color="#7a7a7a"/></radialGradient><linearGradient id="linear-gradient" x1="-841.96" y1="634" x2="-841.28" y2="634" gradientTransform="matrix(50.92, 0, 0, -67.55, 42959.58, 42937.56)" gradientUnits="userSpaceOnUse"><stop offset="0" stop-color="#1d66bb"/><stop offset="1" stop-color="#2a81be"/></linearGradient></defs><g class="cls-2"><path class="cls-3" d="M167.1,89.5a25.1,25.1,0,0,0-11-9.6c-2.9-1.5-3.2-1.1-3.5-4.2a42,42,0,0,0-1.6-9.4,35.5,35.5,0,0,0-21.6-21.9A36.9,36.9,0,0,0,108.1,43,36.4,36.4,0,0,0,95,48.6a34.3,34.3,0,0,0-5,4.3c-1.5,1.5-3.7,5.9-5.5,6.7s-5-.2-7.1-.1A26.4,26.4,0,0,0,70,61.1a27.9,27.9,0,0,0-13.1,10c-.9,1.4-1.7,4.5-3.2,5.4s-4.3.5-5.9.8a26.4,26.4,0,0,0-14,6.3C18.2,97.2,24.2,122.9,45.2,128c5.1,1.2,10.6.9,15.9.9h9.8c.9,0,2.9.5,3.5-.3s.2-4.3.2-5.4c-.1-2.7-.1-2.7-3.2-2.8H61.9c-6.3,0-13.1.7-18.8-2.3-8.8-4.7-12-15.6-7.1-23.9a18.1,18.1,0,0,1,9.6-7.8,19.4,19.4,0,0,1,7.2-1.1c3.6.1,6.5,1.7,8-1.8s3.1-8.2,6.7-11.3,10.2-4.9,15.9-4c2.1.3,4.5,1.4,6.3.2s2.1-3.8,2.9-5.1a29.1,29.1,0,0,1,13.3-10.9,28.7,28.7,0,0,1,31.4,7.1A24.2,24.2,0,0,1,143,70.3a29.4,29.4,0,0,1,.9,8.3c-.1,3.5-1.3,5.1,2.4,6.6,5.7,2.2,10.7,4.1,13.7,9.5a16.4,16.4,0,0,1,.7,15.1,18.4,18.4,0,0,1-11.7,9.9,30.3,30.3,0,0,1-8.5.7c-3.7.1-5.6-1.1-5.8,2.6,0,.7-.5,4.5,0,5.1s1.2.5,2.5.7c3.3.6,7.5.1,10.8-.4a26.6,26.6,0,0,0,14.1-6.2,25.2,25.2,0,0,0,5-32.7Z" transform="translate(-25 -42.1)"/><path class="cls-4" d="M79.4,146.4v-60h.1v-.2a7.9,7.9,0,0,1,1.6-3.9,9.2,9.2,0,0,1,2.5-1.9l1.6-.5,1.3-.2h43a1.6,1.6,0,0,1,.9,1.5q-.2,29.3,0,58.5a6.8,6.8,0,0,1-.2,1.4,6.9,6.9,0,0,1-2.4,4.3,8.9,8.9,0,0,1-4.1,1.8H80.2a1.2,1.2,0,0,1-.7-.7Zm10.7-37.5h0V83.6c0-.3-.1-.4-.4-.4h0a7.1,7.1,0,0,0-3.4,1.3,7.3,7.3,0,0,0-1.8,1.7,7.8,7.8,0,0,0-1.4,4.6v51.8a1,1,0,0,0,1.1,1.1h34.7a10.6,10.6,0,0,0,3.1-.5,6.6,6.6,0,0,0,3.8-3.1,8.7,8.7,0,0,0,1.1-4.4V84.4a1.2,1.2,0,0,0-1.3-1.2H100.5c-.3,0-.4.1-.4.4v24.8h0c0,.2-.2.2-.3.1l-4.7-6.6a.2.2,0,0,0-.3,0l-4.7,7Z" transform="translate(-25 -42.1)"/></g></svg>