<svg version="1.1" id="Layer_1" xmlns="http://www.w3.org/2000/svg" x="0" y="0" viewBox="0 0 196 196" style="enable-background:new 0 0 196 196" xml:space="preserve">
    <ellipse cx="61.3" cy="44.9" rx="51.7" ry="48.9" style="fill:none;stroke:url(#SVGID_1_);stroke-width:8"/>
    <linearGradient id="worldColor" gradientUnits="userSpaceOnUse" x1="-893" y1="585.9" x2="-892.2" y2="585.4" gradientTransform="matrix(96.4231 0 0 -91.1636 86125 53437)">
      <stop offset="0" style="stop-color:#0657e5"/>
      <stop offset="1" style="stop-color:#3ee531"/>
    </linearGradient>
    <path style="fill-rule:evenodd;clip-rule:evenodd;fill:url(#worldColor)" d="M95 13a44 44 0 0 1 0 65c-9 8-21 13-34 13s-25-4-34-13a44 44 0 0 1 0-65 51 51 0 0 1 68 0zm-4 61c5-6 9-13 11-20-1 1-2 2-3-2-1-6-7-2-11-5-4 3-14-5-12 4 2 4 13-5 8 3-3 6-13 19-11 26 0 9-11 2-15-2-2-6 0-17-7-21-7 0-13-1-16-8-1-5 2-13 8-14 9-6 12 6 20 6 3-3 10-3 11-6-6-1 6-5-1-7-4 1-7 4-5 7-7 2-8-10-15-6 0 6-13 2-4 0 2-1-5-4-1-4 2 0 8-2 7-3 3-3 6 5 10-1 3-4-1-4-4-2-2-2 3-7 7-8l5-1c2 2 6 3 6 0a45 45 0 0 0-43 4c1 0 3 2 1 3-2 4-8 9-13 9l-5 14c4 1 5 4 4 5l-4 7c2 8 6 16 12 22 8 7 19 11 30 11 11 1 22-4 30-11z"/>
</svg>